<?xml version="1.0" standalone="no"?> <!DOCTYPE svg PUBLIC "-//W3C//DTD SVG 1.0//EN" "http://www.w3.org/TR/2001/REC-SVG-20010904/DTD/svg10.dtd" > <svg xmlns="http://www.w3.org/2000/svg" width="100%" height="100%">
<defs >
<font id="savaproregular" horiz-adv-x="1359" ><font-face
    font-family="Sava Pro Regular"
    units-per-em="2048"
    panose-1="4 2 4 5 6 2 2 2 2 4"
    ascent="1485"
    descent="-564"
    alphabetic="0" />
<missing-glyph horiz-adv-x="1024" d="M0 0V1434H1024V0H0ZM512 809L860 1331H164L512 809ZM573 717L922 195V1239L573 717ZM164 102H860L512 625L164 102ZM102 1239V195L451 717L102 1239Z" />
<glyph unicode=" " glyph-name="space" horiz-adv-x="520" />
<glyph unicode="!" glyph-name="exclam" horiz-adv-x="673" d="M389 500L336 453Q326 447 315 453L287 743L252 1315L254 1321Q297 1346 356 1367T463 1395L477 1382Q431 1091 389 500ZM485 115V102Q450 22 410 -18Q361 -15 309 12T231 80Q227 88 231 100Q278
180 326 217Q338 223 346 219Q383 200 427 167T485 115Z" />
<glyph unicode="&quot;" glyph-name="quotedbl" horiz-adv-x="755" d="M303 1395L315 1389Q303 1212 264 958L223 911Q215 907 207 911Q195 970 173 1141T152 1348L156 1354Q180 1364 231 1378T303 1395ZM592 1395L604 1389Q592 1212 553 958L512 911Q506 908
496 911Q484 968 462 1140T440 1348L444 1354Q469 1364 520 1378T592 1395Z" />
<glyph unicode="#" glyph-name="numbersign" horiz-adv-x="1052" d="M362 1346L469 1360L477 1346Q464 1292 438 1147T408 969H686Q725 1198 737 1346L846 1360L854 1346Q840 1290 811 1133T780 969H983V868H766L731 645H932V545H715Q714 535 704 462T684 303T670
162L567 150L555 162Q560 186 621 545H342Q307 317 295 162L193 150L180 162Q190 208 205 293T233 455T248 545H57V645H262L297 868H109V969H311Q321 1025 341 1164T362 1346ZM391 868L356 645H637L672 868H391Z" />
<glyph unicode="$" glyph-name="dollar" horiz-adv-x="1052" d="M539 1501L631 1516L639 1509Q633 1460 626 1393T618 1323Q772 1323 889 1278V1268L856 1176L844 1116H821Q781 1233 610 1245L569 772Q721 722 784 686Q948 593 948 418Q948 307 885 216T721 71T494
0Q477 -126 477 -246L379 -256L371 -248Q394 -127 399 -2Q296 -1 213 12T94 45V59L137 233H162Q162 219 168 186Q251 98 410 86L461 614Q403 633 362 650T273 696T197 759T149 844T129 958Q129 1016 152 1073T222 1181T347 1270T526 1317Q539 1418 539 1501ZM477
799L520 1247Q409 1240 345 1183T281 1036T327 895T477 799ZM549 584L502 84Q619 92 694 155T770 334Q770 422 723 479T549 584Z" />
<glyph unicode="%" glyph-name="percent" horiz-adv-x="1351" d="M365 1372Q490 1372 553 1295T616 1051Q616 968 599 901T554 792T489 721T413 680T336 668Q283 668 235 687T146 745T81 854T57 1016Q57 1105 82 1175T152 1287T250 1350T365 1372ZM981 1380L1077
1348Q727 717 360 -31L264 4Q654 720 981 1380ZM354 1315Q211 1315 211 1044Q211 735 352 735Q498 735 498 1042Q498 1176 461 1245T354 1315ZM1038 688Q1162 688 1225 611T1288 367Q1288 284 1271 217T1226 108T1161 37T1087 -4T1010 -16Q956 -16 909 3T820 61T755
170T731 332Q731 421 756 491T826 603T923 666T1038 688ZM1028 631Q885 631 885 360Q885 51 1026 51Q1169 51 1169 358Q1169 491 1132 561T1028 631Z" />
<glyph unicode="&amp;" glyph-name="ampersand" horiz-adv-x="1378" d="M864 1069H844Q820 1122 778 1148T666 1174Q576 1174 518 1125T459 981Q459 843 570 784T922 725H993Q1282 725 1346 772L1360 760Q1352 737 1330 697T1292 635Q1157 635 1040 629Q1035 559
1038 436Q1038 315 1052 199T1087 57Q1096 48 1133 48T1196 53L1200 45L1184 18Q1144 4 1059 -10T934 -25Q920 -5 905 58T885 176H879Q840 98 739 32T516 -35Q343 -35 233 64T123 332Q123 438 184 521T345 649T569 698Q574 700 574 705T569 713Q514 722 465 741T371
790T301 868T274 973Q274 1097 388 1166T694 1235Q760 1235 820 1224T907 1204V1186L870 1112L864 1069ZM866 631H725Q528 631 427 568T326 348Q326 223 404 153T612 82Q687 82 759 129T858 236Q870 260 870 455Q870 549 866 631Z" />
<glyph unicode="&apos;" glyph-name="quotesingle" horiz-adv-x="464" d="M303 1395L315 1389Q309 1301 292 1159T264 958L223 911Q217 908 207 911Q196 966 174 1139T152 1348L156 1354Q180 1364 231 1378T303 1395Z" />
<glyph unicode="(" glyph-name="parenleft" horiz-adv-x="729" d="M657 1618V1599Q494 1444 394 1190T293 604Q293 473 317 353T377 144T463 -22T557 -148T649 -233V-248L573 -326H553Q506 -288 460 -240T357 -108T258 73T187 306T158 594Q158 917 280 1187T602
1618H657Z" />
<glyph unicode=")" glyph-name="parenright" horiz-adv-x="729" d="M84 -328V-309Q248 -154 348 100T449 686Q449 817 425 937T365 1146T279 1312T184 1438T92 1524V1538L168 1616H188Q235 1578 281 1530T384 1398T484 1218T555 985T584 696Q584 373 462 103T139
-328H84Z" />
<glyph unicode="*" glyph-name="asterisk" horiz-adv-x="907" d="M395 1370H500L508 1360Q478 1183 471 1063L473 1059Q615 1154 715 1239L729 1235L780 1145L776 1133Q599 1067 500 1016V1012Q664 932 774 893L778 879L727 788L713 786Q605 879 473 969L471 967Q481
797 504 668L496 657H391L383 668Q413 844 420 967L418 969Q253 857 176 788L162 793L111 883L115 895Q273 954 391 1012V1016Q249 1088 117 1135L113 1149L164 1239L178 1241Q297 1140 418 1059L420 1063Q411 1219 387 1360L395 1370Z" />
<glyph unicode="+" glyph-name="plus" horiz-adv-x="1052" d="M559 225L494 207H473Q477 461 477 610Q372 607 88 602V618L119 711Q327 707 477 707Q477 958 473 1077L565 1108H582Q578 833 573 709Q848 709 965 713V692L948 627Q802 621 571 614Q564 370 559 225Z" />
<glyph unicode="," glyph-name="comma" horiz-adv-x="485" d="M356 96Q356 11 304 -106T174 -332Q146 -340 133 -319Q213 -152 213 2Q197 41 129 102Q119 112 127 127Q140 150 170 186T221 238Q232 243 242 240Q266 229 299 205T348 162Q356 128 356 96Z" />
<glyph unicode="-" glyph-name="hyphen" horiz-adv-x="690" d="M72 414L68 428Q92 484 119 512Q176 518 314 540T514 580Q585 597 608 608Q628 608 633 594Q625 573 599 532T553 467Q522 458 331 438T72 414Z" />
<glyph unicode="." glyph-name="period" horiz-adv-x="540" d="M410 129V115Q367 27 334 -6Q284 -3 231 24T152 92Q148 105 152 113Q169 144 197 178T248 231Q260 239 268 233Q306 214 351 181T410 129Z" />
<glyph unicode="/" glyph-name="slash" horiz-adv-x="917" d="M737 1423L848 1393L201 -104L92 -72L737 1423Z" />
<glyph unicode="0" glyph-name="zero" horiz-adv-x="1052" d="M608 1372Q770 1372 868 1211T967 754Q967 424 842 193Q675 -25 457 -25Q415 -25 371 -12T273 44T180 153T112 336T84 604Q84 991 217 1155Q308 1266 413 1319T608 1372ZM547 1286Q421 1286 350 1139T279
715Q279 395 348 231T543 66Q660 66 730 235T801 709Q801 980 735 1133T547 1286Z" />
<glyph unicode="1" glyph-name="one" horiz-adv-x="1052" d="M657 1405H692Q680 1084 680 782Q680 302 690 45L676 31L616 27L492 -27L475 -14Q496 206 496 694Q496 1013 483 1159L469 1165Q418 1146 332 1091T164 958L104 1040L111 1065Q362 1204 487 1280T657 1405Z" />
<glyph unicode="2" glyph-name="two" horiz-adv-x="1052" d="M145 1069L100 1235Q163 1295 262 1333T489 1372Q672 1372 772 1270T872 1006Q872 922 846 845T766 697T665 578T543 463L268 207V195Q344 195 505 174T721 152Q791 151 841 166T921 203T985 266L1014
250L909 16Q832 -8 700 -8Q610 -8 429 17T195 43Q125 43 80 -16Q69 -14 60 -6T51 12L123 160L399 442Q538 583 610 702T682 936Q682 1084 606 1164T403 1245Q309 1245 245 1201T178 1067Q162 1064 145 1069Z" />
<glyph unicode="3" glyph-name="three" horiz-adv-x="1052" d="M283 666L326 729Q390 744 443 767T541 827T613 915T639 1032Q639 1130 580 1188T412 1247Q322 1247 269 1216T168 1114Q144 1119 135 1130Q148 1175 176 1236T225 1325Q321 1372 494 1372Q644 1372
731 1303T819 1106Q819 1043 794 986T725 886T635 811T537 756V741Q733 729 820 651T907 430Q907 248 755 116T383 -16Q180 -16 66 41L57 53L119 199H145L147 158Q169 123 229 90T393 57Q529 57 618 143T707 379Q707 504 627 579T401 655Q338 655 289 649L283 666Z"
/>
<glyph unicode="4" glyph-name="four" horiz-adv-x="1052" d="M799 1407L823 1397Q811 1276 811 567Q934 570 1042 588V563L936 492L811 465Q811 162 825 31L815 18L715 4L633 -25L618 -16Q635 146 635 461Q536 456 302 460T29 471L12 510Q74 609 335 945T666
1354L698 1337Q752 1366 799 1407ZM635 567V1214Q571 1143 414 922T205 600L211 588Q245 576 402 569T635 567Z" />
<glyph unicode="5" glyph-name="five" horiz-adv-x="1052" d="M184 711L322 1391Q334 1399 350 1395L377 1325Q665 1333 752 1342T936 1389L948 1370Q838 1252 735 1212Q528 1174 354 1161L309 866L319 858Q600 858 757 761T915 475Q915 377 876 288T768 130T596
22T373 -18Q194 -18 88 43L84 59L143 193H164L170 158Q190 123 254 89T410 55Q543 55 636 150T729 381Q729 698 319 698Q281 698 207 690Q184 694 184 711Z" />
<glyph unicode="6" glyph-name="six" horiz-adv-x="1052" d="M313 698L420 778Q464 811 513 828T643 846Q788 846 876 742T965 465Q965 366 937 283T862 144T756 51T635 -5T514 -23Q314 -23 203 124T92 518Q92 748 190 936T465 1240T870 1380Q887 1367 903 1344T922
1313Q922 1297 913 1286Q886 1296 838 1296Q710 1296 594 1221T399 1007T305 700L313 698ZM541 717Q402 717 297 614Q293 566 293 496Q293 299 363 178T561 57Q663 57 724 146T786 387Q786 548 720 632T541 717Z" />
<glyph unicode="7" glyph-name="seven" horiz-adv-x="1052" d="M1038 1376L1063 1356L770 842Q616 566 517 335T403 -29L391 -37L236 29L231 51Q246 107 312 237T477 530L862 1171Q781 1176 501 1172T186 1161Q180 1157 141 1122L113 1139L205 1352Q314 1335 598
1330T981 1333L1038 1376Z" />
<glyph unicode="8" glyph-name="eight" horiz-adv-x="1052" d="M90 293Q90 373 111 428T178 537Q271 613 389 682Q271 753 211 834T150 1028Q150 1177 258 1274T549 1372Q719 1372 810 1294T901 1092Q901 971 821 881Q794 858 762 834T695 786T647 752Q818 656
890 575T963 371Q963 261 897 169T721 26T487 -25Q307 -25 199 64T90 293ZM315 1094Q315 1069 321 1044T338 998T365 956T397 917T433 883T469 853T505 828T535 809T560 795T575 786Q662 831 711 912T760 1077Q760 1184 703 1245T535 1307Q435 1307 375 1248T315
1094ZM782 311Q782 346 771 378T746 434T702 486T651 529T587 570T522 605T453 641Q367 600 308 520T248 334Q248 196 323 127T522 57Q627 57 704 127T782 311Z" />
<glyph unicode="9" glyph-name="nine" horiz-adv-x="1052" d="M743 688L637 612Q594 580 544 563T416 545Q276 545 184 657T92 926Q92 1013 120 1088T194 1214T300 1301T421 1355T543 1372Q742 1372 853 1226T965 840Q965 618 868 429T593 119T186 -29Q170 -15
154 8T135 39Q135 52 143 66Q170 55 219 55Q315 55 407 103T571 235T692 436T752 686L743 688ZM516 674Q657 674 760 772Q764 834 764 877Q764 992 735 1084T643 1234T494 1292Q394 1292 332 1207T270 983Q270 843 339 759T516 674Z" />
<glyph unicode=":" glyph-name="colon" horiz-adv-x="589" d="M410 770V758Q380 692 340 647Q292 650 244 675T172 739Q170 740 170 746T172 756Q188 784 214 817T260 866Q271 871 279 868Q314 850 355 819T410 770ZM410 117V104Q375 30 340 -8Q294 -5 245 21T172
84Q168 93 172 102Q188 131 214 163T260 211Q271 216 279 213Q313 196 355 165T410 117Z" />
<glyph unicode=";" glyph-name="semicolon" horiz-adv-x="485" d="M367 684V672Q335 602 297 559Q249 564 201 589T129 653Q125 657 129 670Q145 698 171 731T217 780Q228 785 236 782Q271 764 312 733T367 684ZM356 96Q356 10 305 -107T174 -334Q146 -342 133
-322Q213 -151 213 2Q196 40 129 100Q121 112 127 125Q139 149 170 185T221 236Q232 244 242 238Q266 229 299 204T348 160Q356 130 356 96Z" />
<glyph unicode="&lt;" glyph-name="less" horiz-adv-x="1052" d="M928 995L348 657L928 322V305L801 285Q669 371 332 541L123 647V655L135 678L332 776Q684 948 801 1032L928 1012V995Z" />
<glyph unicode="=" glyph-name="equal" horiz-adv-x="1052" d="M88 745V762L119 854Q544 844 965 854V834L948 768Q454 752 88 745ZM88 459V475L119 567Q544 557 965 567V547L948 481Q432 464 88 459Z" />
<glyph unicode="&gt;" glyph-name="greater" horiz-adv-x="1052" d="M123 995V1012L250 1032Q363 950 719 776L928 672V664L913 641L719 541Q714 538 639 499T530 443T434 392T327 332T250 285L123 305V322L702 657L123 995Z" />
<glyph unicode="?" glyph-name="question" horiz-adv-x="794" d="M225 588V618Q373 672 448 747T524 909Q524 1002 472 1054T326 1143Q154 1208 121 1247Q133 1275 164 1329T213 1407H229Q230 1381 257 1366T401 1309Q551 1253 622 1183T694 1001Q694 890 613
794T391 629Q389 608 407 551T453 444L451 432L399 418L225 588ZM240 33L229 51Q257 128 299 184Q394 184 455 141Q464 68 428 -29L416 -35Q372 0 240 33Z" />
<glyph unicode="@" glyph-name="at" horiz-adv-x="1820" d="M1630 158V59Q1612 15 1574 -33T1473 -132T1336 -222T1160 -287T954 -313Q785 -313 641 -266T392 -130T226 92T166 393Q166 530 223 658T384 887T644 1049T985 1110Q1130 1110 1254 1073T1462 971T1594
820T1642 637Q1642 564 1611 508T1523 415T1400 356T1249 324Q1310 200 1344 160T1421 113Q1424 96 1417 86Q1387 81 1309 81T1190 84L1186 90L1190 104Q1174 142 1100 295Q1094 306 1090 308T1075 311L782 287Q737 284 721 250L643 84Q635 80 625 80L514 84Q512
88 512 102Q545 135 607 230T741 461Q851 669 887 758Q907 808 907 834Q931 864 979 893L989 885Q1001 819 1221 381Q1511 391 1511 627Q1511 663 1498 710T1448 817T1354 927T1201 1010T981 1044Q835 1044 713 992T509 850T382 643T336 395Q336 219 423 75T654
-149T967 -229Q1099 -229 1211 -195T1401 -103T1530 20T1610 158H1630ZM922 678L782 387Q782 380 791 377Q824 371 915 371Q1002 371 1061 377L1063 381L922 678Z" />
<glyph unicode="A" glyph-name="A" horiz-adv-x="1509" d="M158 -12L6 2Q0 12 2 23Q56 87 162 259T375 641Q458 805 539 983T639 1223Q662 1300 664 1329Q679 1350 708 1378T756 1419L766 1415Q774 1357 851 1165T1057 707Q1135 543 1186 439T1280 256T1349 138T1403
74T1451 41T1503 27Q1507 9 1501 0Q1464 -2 1347 -2T1155 2L1151 12L1167 33Q1098 197 969 453Q959 467 950 470T920 473L459 436Q411 432 389 418T348 369Q272 221 186 4Q173 -9 158 -12ZM684 1106L444 565Q444 553 455 551Q525 539 682 539Q835 539 913 549L918
555L684 1106Z" />
<glyph unicode="B" glyph-name="B" horiz-adv-x="1243" d="M47 1325L53 1354Q275 1382 528 1382Q1081 1382 1081 1083Q1081 1022 1054 969T979 875T884 807T780 758V741Q944 727 1047 666Q1161 593 1161 438Q1161 238 998 109T569 -20Q355 -20 209 18Q229 134
229 756Q229 1060 222 1156T193 1280Q160 1313 47 1325ZM414 1315V750Q557 750 628 760T748 801Q877 889 877 1026Q877 1315 414 1315ZM414 680V279Q414 209 417 177T429 131T457 104Q521 68 674 68Q808 68 885 148T963 360Q963 536 854 609T512 682Q507 682 469
681T414 680Z" />
<glyph unicode="C" glyph-name="C" horiz-adv-x="1402" d="M1264 1139L1239 1130Q1221 1197 1117 1253T866 1309Q623 1309 479 1190Q413 1132 364 1024T315 758Q315 656 336 562T404 383T520 236T691 137T918 100Q1073 100 1168 139T1356 254H1370L1358 197L1214
53Q1063 -35 807 -35Q644 -35 510 22T288 176T152 399T104 666Q104 866 181 1006T406 1253Q505 1320 628 1359T932 1399Q1044 1399 1139 1380T1279 1340T1337 1303L1339 1290L1276 1180L1264 1139Z" />
<glyph unicode="D" glyph-name="D" horiz-adv-x="1638" d="M47 1325L55 1358Q140 1365 349 1372T680 1380Q881 1380 999 1365T1206 1315Q1359 1254 1447 1116T1536 770Q1536 638 1507 523T1413 308T1252 137T1016 25T702 -16Q444 -16 279 12L219 -6L207 4Q229
172 229 707Q229 1031 221 1142T190 1278Q174 1297 143 1305T47 1325ZM414 1286V287Q414 192 422 162T457 113Q486 90 556 75T719 59Q849 59 957 99T1147 218T1275 426T1321 723Q1321 1311 657 1311Q523 1311 424 1300L414 1286Z" />
<glyph unicode="E" glyph-name="E" horiz-adv-x="1110" d="M59 1303L207 1374Q311 1358 569 1358H682Q935 1358 1008 1384L1022 1376V1141L1018 1135L1001 1118H995L885 1270Q867 1292 838 1290L414 1260V778L428 766Q483 760 637 760Q810 760 948 766Q954 763
954 754Q954 743 948 737Q885 695 829 672Q706 651 414 637V137Q560 109 780 109Q953 109 1085 137L1090 129L1083 106Q1002 55 936 25Q875 6 801 1T588 -4Q458 -4 299 4L219 -20L207 -10Q220 107 224 230T229 717Q229 1025 221 1124T190 1247Q165 1275 55 1282L59
1303Z" />
<glyph unicode="F" glyph-name="F" horiz-adv-x="1054" d="M63 1303L205 1374Q312 1358 580 1358H670Q935 1358 1008 1384L1022 1376V1141L1018 1135L1001 1118H995L885 1270Q867 1292 838 1290L414 1260V768L428 756Q485 750 655 750Q811 750 952 756Q956 752
956 743Q956 735 952 727Q858 672 834 662Q752 645 414 623Q414 287 430 29L422 18L352 12L225 -20L211 -12Q229 217 229 717Q229 1024 221 1124T190 1247Q166 1275 59 1282L63 1303Z" />
<glyph unicode="G" glyph-name="G" horiz-adv-x="1552" d="M1401 1282L1333 1171L1321 1128L1296 1122Q1274 1199 1158 1253T881 1307Q672 1307 532 1221Q437 1159 378 1034T319 727Q319 544 396 395T619 156T956 66Q1036 66 1120 83T1237 119Q1241 165 1240 319T1229
551L1133 571L1130 584L1149 600Q1188 608 1301 622T1458 641L1464 627L1436 590Q1424 524 1421 386T1421 170L1440 162Q1442 152 1436 139Q1124 -33 797 -33Q638 -33 508 20T289 169T153 396T104 686Q104 855 187 1006T428 1257Q543 1331 667 1364T946 1397Q1112
1397 1233 1363T1401 1296V1282Z" />
<glyph unicode="H" glyph-name="H" horiz-adv-x="1703" d="M78 1356L449 1376L457 1364L434 1323Q414 1189 414 803Q427 784 446 774Q565 752 879 752Q1002 752 1129 758T1280 774L1294 788Q1299 830 1295 1044T1280 1298L1286 1313Q1341 1334 1491 1380L1505
1368Q1479 1269 1479 735Q1479 409 1493 272L1546 244V238Q1527 214 1509 154Q1494 88 1483 63L1303 -25L1284 -10Q1294 215 1294 381V672Q1289 683 1282 686T1255 688L428 647L414 625Q403 439 426 45L418 35L350 29L219 -25L203 -14Q229 91 229 702Q229 995 221
1118T195 1272Q169 1306 68 1325L66 1337L78 1356Z" />
<glyph unicode="I" glyph-name="I" horiz-adv-x="641" d="M68 1341L80 1358L356 1372L422 1386L432 1382Q414 1224 414 721Q414 284 428 43L418 33L352 27L223 -25L209 -16Q229 122 229 702Q229 989 222 1116T197 1272Q173 1308 70 1327L68 1341Z" />
<glyph unicode="J" glyph-name="J" horiz-adv-x="620" d="M31 1331L66 1354Q238 1359 373 1368L424 1391L436 1386Q414 1265 414 823Q414 766 416 526T418 166Q418 38 385 -58T270 -248Q213 -314 130 -376T-4 -459L-43 -438V-426Q17 -382 53 -349T124 -265T176
-158T206 -12T224 190T229 467V780Q229 1048 221 1148T190 1272Q175 1290 138 1300T31 1321V1331Z" />
<glyph unicode="K" glyph-name="K" horiz-adv-x="1417" d="M221 -25L207 -16Q229 118 229 700Q229 1016 223 1128T197 1274Q178 1305 68 1325L66 1337L78 1356L449 1376L455 1364L434 1323Q414 1186 414 725Q456 736 515 762T606 811Q663 886 799 1072T979 1321L981
1372Q1166 1372 1305 1354L1307 1323Q1245 1319 1198 1295T1071 1206Q1020 1165 889 1023T688 788V778Q1000 421 1157 252T1361 43T1450 -8Q1454 -24 1444 -39Q1384 -35 1291 -22T1151 8Q1068 73 874 278T514 676H414Q403 384 426 43L414 31L352 25L221 -25Z" />
<glyph unicode="L" glyph-name="L" horiz-adv-x="1044" d="M68 1327L66 1339L80 1358Q141 1356 273 1360T457 1370L461 1360V1352L428 1319Q412 1204 412 719Q412 279 420 135Q577 106 764 106Q954 106 1057 135L1061 127L1055 104Q985 53 913 18Q829 -4 588 -4Q348
-4 190 6V23Q204 42 213 70Q229 192 229 717Q229 1007 223 1125T197 1274Q173 1307 68 1327Z" />
<glyph unicode="M" glyph-name="M" horiz-adv-x="1984" d="M66 1335L78 1360L315 1374L379 1393H395Q433 1306 662 913Q783 702 842 601T937 439T982 368T995 358Q1019 358 1309 846Q1441 1068 1501 1183T1575 1362L1595 1368L1618 1343Q1643 1355 1696 1374T1778
1399L1788 1376Q1755 1349 1741 1322T1722 1241Q1711 1127 1731 739Q1748 394 1762 262T1800 98Q1822 70 1857 58T1954 39L1956 27L1939 6Q1815 -8 1608 -8Q1586 1 1573 31L1544 1075H1536L969 55L942 35L930 39L362 1073H356Q308 274 319 16L311 6L258 0L160 -31L147
-20Q182 103 218 436T262 944Q271 1113 268 1167T246 1249Q221 1286 187 1299T72 1321L66 1335Z" />
<glyph unicode="N" glyph-name="N" horiz-adv-x="1640" d="M55 1321L51 1343L59 1362L262 1376L326 1393H344Q427 1293 793 885L1337 285Q1337 290 1338 457T1339 745Q1339 934 1330 1104T1305 1325L1313 1339Q1403 1371 1493 1391Q1502 1389 1505 1376L1468 1335Q1450
1286 1439 982T1427 483Q1427 81 1440 -39L1432 -47L1372 -33Q1321 12 928 447T342 1102H336Q330 923 335 573T352 16L344 6L299 0L190 -31L180 -20Q218 207 238 694Q248 1027 243 1124T215 1253Q184 1295 156 1307T55 1321Z" />
<glyph unicode="O" glyph-name="O" horiz-adv-x="1714" d="M948 1399Q1269 1399 1440 1236T1612 770Q1612 595 1564 456T1434 231Q1141 -33 774 -33Q615 -33 486 23T274 176T147 400T102 674Q102 895 208 1060T506 1312T948 1399ZM858 1321Q607 1321 462 1167T317
741Q317 604 347 491T428 300T550 169T701 91T870 66Q1123 66 1263 232T1403 711Q1403 992 1257 1156T858 1321Z" />
<glyph unicode="P" glyph-name="P" horiz-adv-x="1187" d="M43 1325L49 1354Q282 1382 528 1382Q842 1382 976 1300T1110 1034Q1110 941 1059 864T922 737T728 660T504 633L479 678V692Q673 697 786 780T899 1004Q899 1167 776 1241T416 1315V698Q416 259 432
35L420 25L360 18L227 -25L213 -12Q231 170 231 758Q231 1038 223 1143T195 1274Q170 1309 43 1325Z" />
<glyph unicode="Q" glyph-name="Q" horiz-adv-x="1724" d="M2191 -424V-436L2175 -459Q2029 -491 1876 -483Q1698 -450 1374 -270Q1178 -163 948 -12Q866 -33 770 -33Q612 -33 484 23T274 176T147 401T102 674Q102 895 208 1060T506 1312T946 1399Q1269 1399 1440
1236T1612 770Q1612 596 1564 457T1434 231Q1318 127 1180 57Q1264 -7 1450 -119T1810 -322Q1919 -376 2002 -398T2191 -424ZM858 1321Q607 1321 462 1167T317 741Q317 604 347 491T428 300T550 169T701 91T870 66Q1123 66 1263 232T1403 711Q1403 992 1257 1156T858
1321Z" />
<glyph unicode="R" glyph-name="R" horiz-adv-x="1376" d="M414 633V410Q414 183 428 37L420 27L365 23L217 -25L205 -12Q229 149 229 756Q229 1042 222 1146T193 1276Q174 1296 143 1305T47 1323L53 1354Q287 1382 537 1382Q722 1382 843 1354T1033 1259T1102
1081Q1102 967 1022 874T811 717V707Q929 525 1082 323T1298 61Q1356 11 1403 -2V-10L1384 -25Q1342 -25 1244 -11T1116 18Q1011 112 877 281T610 655L414 633ZM414 1317V739Q414 724 428 721Q444 717 522 717Q691 717 784 782Q842 822 869 881T897 1032Q897 1317
414 1317Z" />
<glyph unicode="S" glyph-name="S" horiz-adv-x="1036" d="M844 1176H819Q779 1311 551 1311Q415 1311 343 1252T270 1087Q270 1027 287 984T343 906T435 848T571 799Q685 764 758 728T873 646T932 550T948 428Q948 294 864 188T651 26T379 -29Q274 -29 183 -10T66
25V39L106 225H135Q135 195 141 174Q249 66 442 66Q507 66 562 82T662 129T732 214T758 338Q758 410 734 457T638 549T436 635Q254 693 178 777T102 1001Q102 1065 134 1132T227 1258T386 1355T604 1393Q760 1393 893 1346V1335L856 1237L844 1176Z" />
<glyph unicode="T" glyph-name="T" horiz-adv-x="1218" d="M-10 1202L76 1386Q112 1366 205 1360T500 1354H729Q1183 1354 1233 1382Q1242 1376 1245 1366Q1145 1294 1087 1266L733 1251L721 1235Q711 1025 711 696Q711 164 733 14L731 2L657 4L512 -27L500 -16Q526
182 526 696Q526 1105 518 1233L504 1249L352 1247Q176 1247 122 1238T4 1192Q-5 1192 -10 1202Z" />
<glyph unicode="U" glyph-name="U" horiz-adv-x="1622" d="M1442 1382L1454 1370Q1436 1312 1428 1094T1419 664Q1419 467 1390 355T1298 164Q1144 -27 838 -27Q651 -27 537 13T350 141Q287 216 258 332T229 668Q229 1048 224 1159T203 1290Q180 1313 88 1331V1348L96
1362L467 1376Q475 1364 469 1352L438 1331Q429 1292 424 1096T418 694Q418 508 437 410T502 246Q562 160 657 121T891 82Q1126 82 1239 248Q1317 375 1317 633Q1317 866 1305 1055T1282 1321L1290 1335Q1312 1339 1367 1355T1442 1382Z" />
<glyph unicode="V" glyph-name="V" horiz-adv-x="1437" d="M709 -35L694 -29Q659 113 371 776Q235 1090 186 1186T102 1300Q70 1322 -6 1331V1343L6 1362Q45 1366 181 1370T385 1374V1354L350 1331L778 305H786L1042 891Q1096 1008 1163 1168T1237 1364Q1249 1376
1257 1376L1425 1370Q1434 1359 1425 1343Q1311 1225 1087 764Q929 435 867 282T793 37Q742 7 709 -35Z" />
<glyph unicode="W" glyph-name="W" horiz-adv-x="2050" d="M639 -33L627 -27Q573 184 358 764Q233 1098 192 1189T115 1300Q82 1321 2 1331V1343L14 1366Q279 1378 391 1376V1354L356 1333L721 307H729L995 864Q898 1085 844 1187T760 1307Q744 1317 664 1331V1343L676
1364Q724 1369 817 1372T950 1374Q971 1366 977 1358L1110 1051Q1148 1124 1191 1224T1249 1366Q1252 1375 1264 1378L1423 1372Q1434 1359 1423 1346Q1363 1301 1304 1212T1157 961L1436 301H1446L1692 897Q1816 1203 1853 1366Q1867 1378 1874 1378L2042 1372Q2048
1359 2042 1346Q1992 1287 1924 1158T1741 774Q1590 440 1530 286T1452 39Q1434 27 1407 4T1368 -33L1356 -27Q1341 55 1277 218T1042 764Q875 427 806 270T723 39Q653 -16 639 -33Z" />
<glyph unicode="X" glyph-name="X" horiz-adv-x="1445" d="M381 1389L778 825Q1172 1267 1255 1405Q1275 1412 1290 1401Q1286 1276 1268 1174Q1203 1097 1075 952T856 713Q910 635 1084 395T1298 109Q1373 19 1458 -33Q1458 -54 1448 -61Q1398 -53 1320 -29T1174
27Q1077 109 725 584Q613 456 414 249T158 -8Q91 -44 -6 -78Q-16 -68 -16 -51L647 688L332 1124Q271 1208 242 1239T175 1287T66 1315L63 1329L74 1348L307 1368L365 1389H381Z" />
<glyph unicode="Y" glyph-name="Y" horiz-adv-x="1282" d="M713 717L883 1022Q895 1045 938 1123T1016 1268T1065 1364Q1068 1374 1079 1374L1268 1360Q1275 1346 1268 1333Q1220 1318 1146 1233T995 1032Q871 848 772 655Q756 620 752 600T748 543Q748 283 762
31L756 20L690 14L557 -25L547 -16Q555 52 560 225T565 561Q554 596 494 711T346 967Q233 1148 189 1212T125 1290Q84 1318 -12 1323V1339L0 1358Q158 1381 309 1389Q321 1373 500 1071Q654 818 700 717H713Z" />
<glyph unicode="Z" glyph-name="Z" horiz-adv-x="1257" d="M70 1161L145 1374Q278 1354 666 1354Q1122 1354 1206 1362L1214 1343Q1067 1161 761 743T334 145Q421 130 575 121T860 111Q1125 111 1249 137L1253 127L1247 104Q1173 58 1098 29Q977 -4 668 -4Q588
-4 401 1T186 6Q94 6 16 -6L6 16Q111 138 475 635T928 1266Q920 1266 798 1267T594 1268Q299 1268 197 1243Q160 1224 94 1149L70 1161Z" />
<glyph unicode="[" glyph-name="bracketleft" horiz-adv-x="641" d="M223 655Q223 1496 242 1606Q322 1617 526 1622Q548 1599 543 1567Q422 1563 338 1544Q319 1441 319 653Q319 -103 338 -236Q399 -250 543 -258Q543 -295 526 -317Q323 -317 242 -301Q223 -119
223 655Z" />
<glyph unicode="\" glyph-name="backslash" horiz-adv-x="917" d="M94 1393L205 1423L850 -70L741 -104L94 1393Z" />
<glyph unicode="]" glyph-name="bracketright" horiz-adv-x="641" d="M414 651Q414 -97 395 -301Q314 -317 111 -317Q102 -308 97 -289T94 -258Q238 -250 299 -236Q317 -110 317 653Q317 1142 313 1316T299 1544Q215 1563 94 1567Q89 1599 111 1622Q315 1617 395
1606Q414 1482 414 651Z" />
<glyph unicode="^" glyph-name="asciicircum" horiz-adv-x="1052" d="M850 600L526 1098L203 600H188L168 711Q219 787 308 940T442 1180L506 1300L530 1317H541L608 1188Q648 1107 743 941T885 711L864 600H850Z" />
<glyph unicode="_" glyph-name="underscore" horiz-adv-x="1024" d="M0 -158H1024V-250H0V-158Z" />
<glyph unicode="`" glyph-name="grave" horiz-adv-x="675" d="M240 1348L248 1343Q271 1293 327 1186T403 1047V1038H360Q329 1068 230 1178T102 1329Q96 1338 102 1348H240Z" />
<glyph unicode="a" glyph-name="a" horiz-adv-x="1124" d="M678 315L336 285Q306 282 291 272T264 236L162 4Q154 -8 137 -8L6 2Q4 8 4 23Q48 69 128 189T295 479Q440 757 471 854Q484 886 492 932Q534 974 582 997L596 993Q603 947 652 835T813 496Q970 172 1013
106Q1050 51 1089 37Q1100 33 1118 29Q1120 25 1120 17T1116 2Q1096 0 1010 0Q910 0 836 6L834 18L840 33Q744 243 715 299Q709 311 702 314T678 315ZM506 741L342 397Q342 390 352 387Q393 377 496 377Q582 377 672 383L676 387L506 741Z" />
<glyph unicode="b" glyph-name="b" horiz-adv-x="964" d="M47 913L51 942Q271 967 422 967Q625 967 728 917T831 760Q831 680 764 617T608 530V520Q748 507 807 467Q891 409 891 309Q891 249 864 193T785 91T649 16T461 -12Q275 -12 160 23Q172 83 176 181T180
526Q180 727 175 794T156 877Q133 901 47 913ZM348 905V532Q517 532 569 571Q608 603 627 636T647 719Q647 814 576 859T348 905ZM348 465V236Q348 163 353 139T379 98Q415 66 537 66Q619 66 666 114T713 248Q713 364 641 415T416 467Q410 467 384 466T348 465Z"
/>
<glyph unicode="c" glyph-name="c" horiz-adv-x="1005" d="M971 907L928 823L915 776L891 772Q866 825 799 863T610 901Q461 901 389 838Q272 744 272 532Q272 466 286 404T331 285T408 184T522 116T672 90Q777 90 855 120T981 195H993L985 145L877 43Q751 -25
565 -25Q418 -25 306 44T137 223T80 467Q80 721 291 877Q368 926 457 952T676 979Q753 979 822 967T922 945T971 924V907Z" />
<glyph unicode="d" glyph-name="d" horiz-adv-x="1220" d="M53 915L59 946Q289 965 532 965Q789 965 909 920Q1016 878 1078 781T1141 539Q1141 426 1107 329T1005 155T820 33T551 -12Q394 -12 219 8L176 -4L164 4Q180 116 180 496Q180 724 175 796T152 885Q124
905 53 915ZM352 887V203Q352 145 358 124T385 88Q430 55 561 55Q643 55 710 80T832 157T916 298T946 506Q946 903 508 903Q417 903 360 897L352 887Z" />
<glyph unicode="e" glyph-name="e" horiz-adv-x="880" d="M37 899L141 963Q293 950 432 950H612Q741 950 795 969L805 963V778L803 774L784 762H778L694 868Q683 883 662 883L352 864V549L358 541Q399 537 537 537Q667 537 758 545Q762 537 762 535Q762 532 758
520Q689 472 676 465Q458 441 352 438V117Q452 94 655 94Q781 94 866 115L868 111L864 92Q808 47 758 20Q670 -4 496 -4Q406 -4 238 2L176 -16L164 -6Q180 148 180 502Q180 686 174 760T152 850Q132 869 35 883L37 899Z" />
<glyph unicode="f" glyph-name="f" horiz-adv-x="841" d="M37 899L141 963Q293 950 432 950H612Q743 950 797 969L807 963V778L805 774L786 762H780L696 868Q685 883 662 883L352 864V537L362 528Q401 524 535 524Q586 524 656 526T758 528Q762 524 762 518Q762
514 758 506Q703 465 674 453Q553 434 352 424Q352 206 362 18L358 12L301 10L178 -14L168 -8Q180 124 180 502Q180 684 174 759T152 852Q137 868 35 883L37 899Z" />
<glyph unicode="g" glyph-name="g" horiz-adv-x="1171" d="M975 758L950 756Q918 824 839 862T643 901Q571 901 514 887T431 858T377 821Q320 770 292 705T264 543Q264 331 388 199T694 66Q749 66 806 75T885 94Q892 273 881 377L807 391L805 408L817 426Q982
455 1067 455L1071 434L1051 410Q1033 242 1040 129L1065 119Q1069 101 1063 92Q1003 65 970 52T870 17T733 -15T582 -25Q429 -25 314 41T140 220T80 477Q80 728 305 879Q454 979 690 979Q810 979 900 957T1028 911V891L985 807L975 758Z" />
<glyph unicode="h" glyph-name="h" horiz-adv-x="1294" d="M74 946L377 963L385 950L369 922Q352 850 352 571Q358 555 377 549Q423 535 670 535Q725 535 820 541T934 551L942 559Q944 601 941 737T930 909L936 920Q964 930 1029 946T1124 967L1133 954Q1114 891
1114 514Q1114 276 1124 195L1163 172V170Q1145 150 1135 109Q1133 101 1130 87T1123 63T1116 45L958 -18L936 -6Q942 102 942 264V457Q940 468 935 471T915 475L365 442L352 426Q352 176 362 31L356 23L305 18L178 -20L166 -10Q180 190 180 492Q180 705 174 786T150
887Q129 910 66 920V930L74 946Z" />
<glyph unicode="i" glyph-name="i" horiz-adv-x="532" d="M66 930L74 948L303 958L350 971L362 963Q352 885 352 506Q352 218 360 33L352 23L307 18L182 -18L168 -8Q180 70 180 492Q180 711 175 785T150 879T66 918V930Z" />
<glyph unicode="j" glyph-name="j" horiz-adv-x="528" d="M35 932L59 948Q186 948 319 958L358 975L373 967Q360 908 356 829T352 545Q352 501 354 326T356 37Q356 -49 330 -118T238 -264Q206 -300 148 -348T33 -428L-10 -414V-395Q72 -337 110 -271T164 -94T180
227V547Q180 736 172 800T145 885Q130 902 35 920V932Z" />
<glyph unicode="k" glyph-name="k" horiz-adv-x="1093" d="M63 932L74 946L377 963L381 950L367 922Q352 820 352 518Q424 530 494 580Q537 634 615 743T741 926L743 961Q808 961 891 954T1001 942V911Q944 906 912 892T819 827Q786 801 696 708T565 565V557Q785
302 890 186T1031 40T1102 -6Q1102 -28 1092 -35Q1054 -33 968 -18T844 10Q778 64 654 195T412 463H352Q346 293 360 31L352 23L301 16L178 -18L162 -10Q180 58 180 489Q180 704 173 783T145 885Q132 903 66 920L63 932Z" />
<glyph unicode="l" glyph-name="l" horiz-adv-x="825" d="M66 922V932L76 950Q240 950 381 961L385 952V946L369 920Q352 845 352 539Q352 247 356 117Q456 94 635 94Q763 94 834 111L838 106L834 92Q790 50 741 20Q668 -2 489 -2Q252 -2 154 4V14Q162 32 168
47Q180 165 180 500Q180 711 175 787T150 887Q131 907 66 922Z" />
<glyph unicode="m" glyph-name="m" horiz-adv-x="1474" d="M57 926L68 950L231 961L285 979H305Q354 877 512 621Q587 499 629 432T694 329T725 285T737 276Q746 276 796 350T981 633Q1108 830 1151 952L1169 958L1192 938Q1253 965 1317 979L1327 954Q1305 939
1296 920T1282 862Q1275 775 1286 518Q1300 129 1331 82Q1347 60 1367 53T1446 37L1448 27L1436 4Q1329 -6 1163 -6Q1150 0 1145 6T1135 27L1122 721L1114 723L715 33L688 12L680 14L276 717H268Q268 709 259 416T250 14L244 6L195 0L123 -20L113 -10Q140 98 162
311T193 662Q199 758 196 798T176 864Q162 888 140 898T61 911L57 926Z" />
<glyph unicode="n" glyph-name="n" horiz-adv-x="1241" d="M49 928L59 954L225 963L276 975H297L625 614Q842 375 977 246Q977 282 978 420T979 608Q979 793 958 924L965 938Q1037 958 1114 973Q1120 970 1120 961L1096 922Q1083 875 1072 697T1061 410Q1061 93
1071 -23L1059 -35L995 -18Q903 66 635 350T279 737H272Q267 258 289 12L283 4L227 0L152 -23L141 -8Q171 105 188 569Q193 711 189 777T170 868Q153 890 130 899T53 918L49 928Z" />
<glyph unicode="o" glyph-name="o" horiz-adv-x="1261" d="M700 985Q933 985 1056 870T1180 543Q1180 296 1047 160Q837 -29 571 -29Q452 -29 357 11T203 120T112 279T80 471Q80 578 119 670T233 833T429 944T700 985ZM633 915Q460 915 368 807T276 520Q276 403
306 312T388 166T504 83T643 55Q804 55 894 168T985 496Q985 694 894 804T633 915Z" />
<glyph unicode="p" glyph-name="p" horiz-adv-x="935" d="M55 913L59 944Q287 967 432 967Q668 967 771 912T874 723Q874 650 835 592T730 499T584 445T416 426L397 467V479Q690 492 690 700Q690 805 609 855T352 905V432Q352 206 358 29L348 16L305 12L180 -18L168
-8Q180 102 180 528Q180 733 175 798T152 883Q136 900 55 913Z" />
<glyph unicode="q" glyph-name="q" horiz-adv-x="1277" d="M1602 -319V-332L1587 -348Q1550 -358 1485 -367T1374 -375Q1221 -340 969 -197Q729 -58 672 -18Q613 -29 571 -29Q452 -29 357 11T203 121T112 280T80 471Q80 578 119 670T233 833T427 944T698 985Q932
985 1056 871T1180 543Q1180 428 1145 326T1047 162Q966 86 879 43Q933 4 1062 -78T1298 -217Q1404 -273 1469 -294T1602 -319ZM633 915Q460 915 368 807T276 520Q276 404 306 312T387 165T504 80T643 51Q804 51 894 166T985 496Q985 694 894 804T633 915Z" />
<glyph unicode="r" glyph-name="r" horiz-adv-x="1019" d="M350 444V276Q350 107 360 29L356 18L301 16L174 -18L164 -10Q180 126 180 528Q180 729 175 794T154 877Q134 899 47 911L51 940Q256 965 424 965Q531 965 608 956T747 924T841 859T872 756Q872 606 645
506V498Q712 390 813 248T963 57Q1006 14 1047 0V-12L1032 -23Q1001 -23 925 -12T815 12Q746 63 634 209T465 455L350 444ZM350 903V528Q350 519 360 516Q381 510 430 510Q550 510 618 561Q690 613 690 713Q690 812 610 857T350 903Z" />
<glyph unicode="s" glyph-name="s" horiz-adv-x="813" d="M647 795H616Q607 842 554 873T418 905Q331 905 284 864T236 760Q236 691 281 653T473 571Q553 549 604 523T681 464T716 399T725 319Q725 236 671 158T521 30T315 -20Q156 -20 63 18V31L90 184H125Q125
166 131 143Q150 109 208 83T344 57Q444 57 499 109T555 227Q555 303 511 343T322 430Q204 467 146 523T88 682Q88 800 188 887T461 975Q588 975 686 936V922L653 842L647 795Z" />
<glyph unicode="t" glyph-name="t" horiz-adv-x="923" d="M-6 815L55 973Q116 946 391 946H559Q860 946 926 967Q934 963 934 950Q881 907 815 866L567 856L559 844Q551 762 551 485Q551 107 569 14L563 4H494L365 -20L354 -10Q379 134 379 487Q379 662 373 842L365
852H223Q124 852 90 845T10 807Q-2 807 -6 815Z" />
<glyph unicode="u" glyph-name="u" horiz-adv-x="1222" d="M78 938L84 954L387 963L389 944L369 922Q354 864 354 629Q354 386 373 297T455 152Q529 82 678 82Q845 82 909 182Q940 230 952 293T965 496Q965 737 940 922L946 934Q1012 943 1077 967L1087 958Q1061
836 1061 506Q1061 378 1049 295T991 143Q886 -18 641 -18Q507 -18 421 8T274 98Q226 150 203 231T180 455Q180 637 177 732T168 854T152 893Q136 911 78 920V938Z" />
<glyph unicode="v" glyph-name="v" horiz-adv-x="1054" d="M516 -27L500 -20Q476 70 285 498Q168 761 136 822T76 899Q53 910 -6 920L-8 936L4 950Q212 963 307 963V944L291 926L582 236H586L766 623Q875 860 897 958Q904 967 913 967L1057 958Q1061 954 1061
940Q1023 904 956 797T811 532Q689 287 647 190T598 33Q536 -2 516 -27Z" />
<glyph unicode="w" glyph-name="w" horiz-adv-x="1515" d="M446 -27L432 -20Q392 138 242 537Q162 745 127 815T68 901Q41 917 -6 920V934L4 950Q170 963 301 963V944L279 928L522 225H526L717 592Q595 881 555 905Q539 917 494 920L492 934L502 954Q659 965 715
961Q729 956 733 950L817 743Q893 890 911 954Q914 960 924 963L1053 958Q1056 948 1053 938Q978 867 858 670L1049 227H1053L1212 582Q1252 667 1297 786T1354 954Q1359 963 1370 963L1513 958Q1522 947 1513 936Q1477 903 1415 794T1298 571Q1166 300 1124 200T1069
33Q1015 1 987 -27L971 -20Q942 114 758 512Q641 296 592 192T526 25Q470 -3 446 -27Z" />
<glyph unicode="x" glyph-name="x" horiz-adv-x="1044" d="M287 973L559 594Q606 647 667 714T758 815T822 888T877 951T913 997Q934 1005 944 995Q944 903 928 809L637 496Q673 444 794 281T950 76Q1007 9 1057 -20Q1057 -39 1049 -47Q934 -32 825 6Q713 126
510 383Q432 300 290 161T109 -10Q71 -31 -6 -53Q-19 -44 -16 -25Q14 3 197 207T438 477L215 778Q154 859 127 879T31 911L29 926L37 946L229 958L270 973H287Z" />
<glyph unicode="y" glyph-name="y" horiz-adv-x="937" d="M528 510L641 713Q743 898 764 954Q777 963 793 963L938 952Q941 949 941 941T938 928Q868 902 737 711Q647 578 578 457Q565 430 565 379Q565 184 575 23L567 12L510 6L397 -20L385 -14Q402 119 399 389Q382
441 238 676Q110 880 80 897Q50 917 -14 922V934L-4 950Q87 966 258 973Q263 964 287 925T339 839T389 752Q478 597 522 510H528Z" />
<glyph unicode="z" glyph-name="z" horiz-adv-x="929" d="M51 780L104 963Q203 946 473 946Q826 946 891 954L901 934Q793 803 582 518T291 115Q401 90 618 90Q802 90 913 111L915 100L911 82Q840 34 805 16Q702 -2 477 -2Q419 -2 286 1T135 4Q68 4 14 -4L4 16Q78
102 335 450T633 860Q579 864 418 864Q350 864 268 858T156 846Q116 825 74 770L51 780Z" />
<glyph unicode="{" glyph-name="braceleft" horiz-adv-x="653" d="M63 641L78 688Q178 688 225 738T272 870Q272 902 258 1075T244 1321Q244 1383 274 1437T354 1527T459 1588T573 1624V1567Q466 1528 427 1463T387 1255V940Q387 735 209 659V649Q387 574 387
369V53Q387 -88 426 -153T573 -258V-315Q516 -305 461 -281T356 -220T276 -129T246 -12Q246 61 259 233T272 438Q272 521 225 571T78 621L63 641Z" />
<glyph unicode="|" glyph-name="bar" horiz-adv-x="421" d="M156 1536H266V-512H156V1536Z" />
<glyph unicode="}" glyph-name="braceright" horiz-adv-x="653" d="M588 670L573 621Q474 621 427 571T379 438Q379 406 392 234T406 -12Q406 -74 376 -128T296 -219T191 -280T78 -315V-258Q185 -219 224 -154T264 53V369Q264 574 442 649V659Q264 736 264 940V1255Q264
1397 225 1462T78 1567V1624Q136 1612 191 1588T297 1528T377 1437T408 1321Q408 1248 394 1075T379 870Q379 788 426 738T573 688L588 670Z" />
<glyph unicode="~" glyph-name="asciitilde" horiz-adv-x="1052" d="M131 518H111L80 594Q117 687 172 739T319 791Q364 791 411 775T498 735T576 689T655 650T733 633Q841 633 920 799H940L971 727Q950 678 922 636T842 560T731 526Q684 526 637 542T551 582T475
628T398 667T322 684Q287 684 258 673T211 649T176 609T152 566T131 518Z" />
</font>
</defs>
</svg>
