<?xml version="1.0" standalone="no"?> <!DOCTYPE svg PUBLIC "-//W3C//DTD SVG 1.0//EN" "http://www.w3.org/TR/2001/REC-SVG-20010904/DTD/svg10.dtd" > <svg xmlns="http://www.w3.org/2000/svg" width="100%" height="100%">
<defs >
<font id="stonesansstdsemibolditalic" horiz-adv-x="1102" ><font-face
    font-family="ITC Stone Sans Std Medium"
    units-per-em="2048"
    panose-1="2 11 7 2 3 5 3 9 2 4"
    ascent="1506"
    descent="-543"
    alphabetic="0" />
<missing-glyph horiz-adv-x="1290" d="M266 0V1434H1290V0H266ZM778 809L1126 1331H430L778 809ZM840 717L1188 195V1239L840 717ZM430 102H1126L778 625L430 102ZM369 1239V195L717 717L369 1239Z" />
<glyph unicode=" " glyph-name="space" horiz-adv-x="569" />
<glyph unicode="!" glyph-name="exclam" horiz-adv-x="606" d="M442 412H283L307 817L436 1505H698L569 817L442 412ZM279 -25Q226 -25 193 16T160 106Q160 162 212 228T340 295Q393 295 426 255T459 168Q459 89 397 32T279 -25Z" />
<glyph unicode="&quot;" glyph-name="quotedbl" horiz-adv-x="757" d="M543 1339L418 922Q406 872 387 862Q380 858 371 858Q361 858 355 862T348 875T346 891T347 909T348 922L377 1339Q378 1364 382 1387T398 1440T433 1487T492 1505Q526 1505 543 1487T560
1441T557 1388T543 1339ZM854 1339L729 922Q717 872 698 862Q691 858 682 858Q672 858 666 862T659 875T657 891T658 909T659 922L688 1339Q689 1364 693 1387T709 1440T744 1487T803 1505T854 1487T871 1441T868 1388T854 1339Z" />
<glyph unicode="#" glyph-name="numbersign" horiz-adv-x="1175" d="M1063 598L1032 438H842L707 0H584L719 438H479L342 0H217L356 438H174L205 598H410L492 862H303L334 1022H541L672 1434H793L666 1022H901L1030 1434H1153L1024 1022H1188L1159 862H975L893
598H1063ZM850 862H614L532 598H770L850 862Z" />
<glyph unicode="$" glyph-name="dollar" horiz-adv-x="1175" d="M698 578L604 178Q678 191 733 242T793 389Q794 428 766 481T698 578ZM727 897L813 1264Q786 1264 757 1255T699 1226T651 1173T631 1094Q630 1059 643 1025T673 967T727 897ZM993 1507L977 1440Q1109
1418 1184 1335L1077 1204Q1007 1249 936 1262L827 803Q927 700 978 599T1030 385Q1030 283 972 194T804 45T557 -27L524 -166H399L434 -18Q232 9 131 115L250 266Q355 188 477 168L602 696Q472 836 421 918T369 1085Q369 1247 499 1349T856 1458L870 1507H993Z"
/>
<glyph unicode="%" glyph-name="percent" horiz-adv-x="1857" d="M512 700Q564 700 607 747T677 866T717 1016T731 1163Q731 1189 727 1214T713 1267T680 1310T627 1327Q568 1327 523 1276T454 1151T420 1009T408 893Q408 700 512 700ZM485 569Q410 569 353 599T264
682T217 794T201 924Q201 976 217 1042T269 1182T356 1317T483 1418T651 1458Q721 1458 775 1433T859 1371T908 1289T932 1207T938 1141Q938 1041 904 939T812 755T667 621T485 569ZM1444 106Q1496 106 1539 153T1609 272T1649 422T1663 569Q1663 595 1659 620T1645
673T1612 716T1559 733Q1500 733 1455 682T1386 557T1351 415T1339 299Q1339 106 1444 106ZM1417 -25Q1342 -25 1285 5T1196 88T1149 200T1133 330Q1133 382 1149 448T1201 588T1287 723T1415 824T1583 864Q1653 864 1707 839T1791 777T1840 695T1864 613T1870
547Q1870 447 1836 346T1743 162T1599 27T1417 -25ZM606 0H440L1479 1434H1642L606 0Z" />
<glyph unicode="&amp;" glyph-name="ampersand" horiz-adv-x="1554" d="M987 250L635 688Q455 589 455 422Q455 352 482 298T552 215T639 171T725 156Q790 156 862 180T987 250ZM795 856L1126 430Q1174 526 1180 635Q1183 692 1158 765T1092 881H907L999 1026H1599L1509
881H1294Q1363 783 1360 625Q1353 444 1245 276L1397 94L1202 -25L1094 119Q1026 61 918 18T700 -25Q585 -25 493 5T348 81T259 185T210 294T197 389Q197 472 224 543T299 666T405 755T532 819Q488 883 457 960T426 1106Q426 1182 450 1243T512 1343T603 1409T710
1447T823 1458Q984 1458 1106 1360L1004 1217Q916 1278 827 1278Q761 1278 719 1237T676 1126Q676 1093 712 1005T795 856Z" />
<glyph unicode="&apos;" glyph-name="quotesingle" horiz-adv-x="417" d="M541 1339L416 922Q401 858 369 858Q359 858 353 862T346 875T344 891T345 909T346 922L375 1339Q376 1358 378 1376T387 1419T407 1462T440 1492T489 1505Q523 1505 540 1487T558 1441T555
1388T541 1339Z" />
<glyph unicode="(" glyph-name="parenleft" horiz-adv-x="720" d="M834 1505L909 1413Q852 1372 788 1304T654 1132T529 911T437 644T401 344Q401 122 453 -41T621 -332L498 -442Q325 -280 253 -94T180 360Q180 537 235 713T383 1035T591 1301T834 1505Z" />
<glyph unicode=")" glyph-name="parenright" horiz-adv-x="720" d="M66 -442L-10 -350Q47 -309 111 -241T245 -69T370 152T462 419T498 719Q498 941 446 1104T279 1395L401 1505Q574 1343 646 1157T719 702Q719 526 664 350T516 28T308 -238T66 -442Z" />
<glyph unicode="*" glyph-name="asterisk" horiz-adv-x="872" d="M539 1434L797 1421L715 1184L948 1286L1010 1090L743 1040L924 860L702 721L604 950L457 721L276 864L485 1036L252 1090L346 1294L559 1188L539 1434Z" />
<glyph unicode="+" glyph-name="plus" horiz-adv-x="1251" d="M590 598V1036H750V598H1186V438H750V0H590V438H154V598H590Z" />
<glyph unicode="," glyph-name="comma" horiz-adv-x="569" d="M111 -348L6 -297L190 63Q252 184 287 224T381 264Q416 264 439 241T461 176Q458 124 399 41L111 -348Z" />
<glyph unicode="-" glyph-name="hyphen" horiz-adv-x="681" d="M610 399H152L184 575H643L610 399Z" />
<glyph unicode="." glyph-name="period" horiz-adv-x="569" d="M281 -25Q228 -25 195 14T162 100Q162 177 216 230T336 283Q387 283 418 243T449 158T432 76T387 18T333 -14T281 -25Z" />
<glyph unicode="/" glyph-name="slash" horiz-adv-x="796" d="M131 -221H-8L911 1505H1053L131 -221Z" />
<glyph unicode="0" glyph-name="zero" horiz-adv-x="1175" d="M844 1458Q940 1458 1011 1412T1122 1285T1181 1107T1200 893Q1200 820 1185 728T1139 532T1058 329T942 152T786 24T590 -25Q504 -25 436 11T326 103T257 230T220 368T209 496Q209 661 243 811T337
1078T476 1281T650 1412T844 1458ZM805 1270Q748 1270 688 1210T578 1049T498 808T467 516Q467 463 474 410T497 300T548 208T629 172Q698 172 754 240T844 405T901 615T933 813T942 946Q942 1270 805 1270Z" />
<glyph unicode="1" glyph-name="one" horiz-adv-x="1175" d="M1006 1458L731 0H471L707 1260L432 1145L418 1303L799 1458H1006Z" />
<glyph unicode="2" glyph-name="two" horiz-adv-x="1175" d="M80 0L106 143L391 406Q693 683 807 826T922 1077Q922 1169 876 1217T766 1266Q614 1266 459 1118L373 1266Q588 1458 860 1458Q940 1458 1008 1429T1119 1353T1187 1249T1212 1135Q1212 1083 1203
1038T1168 943T1114 853T1029 751T921 640T780 504L475 213H1051L1010 0H80Z" />
<glyph unicode="3" glyph-name="three" horiz-adv-x="1175" d="M424 680L451 825Q544 822 634 856T788 963T852 1126Q852 1169 838 1202T805 1252T759 1281T714 1295T676 1298Q619 1298 554 1275T440 1219L393 1372Q575 1458 782 1458Q827 1458 871 1450T960 1419T1040
1364T1096 1275T1118 1151Q1118 1084 1089 1023T1010 917T909 840T799 784V780Q827 775 861 759T932 711T1001 641T1052 545T1073 426Q1073 227 914 99T496 -27Q320 -25 152 49L250 213Q285 185 352 162T487 139Q626 139 712 217T799 401Q799 493 742 559T601 653T424
680Z" />
<glyph unicode="4" glyph-name="four" horiz-adv-x="1175" d="M1161 1434L995 555H1153L1118 375H963L893 0H637L709 375H113L137 504L973 1434H1161ZM377 555H741L840 1075L836 1079L377 555Z" />
<glyph unicode="5" glyph-name="five" horiz-adv-x="1175" d="M635 1434H1217L1128 1235H752L627 946Q702 925 764 894T868 829T941 754T991 676T1020 596T1034 522T1038 455Q1038 322 964 212T764 38T487 -25Q361 -25 266 5T74 111L188 283Q338 160 461 160Q600
160 683 237T766 451Q766 563 653 661T340 782L635 1434Z" />
<glyph unicode="6" glyph-name="six" horiz-adv-x="1175" d="M1243 1458L1212 1298Q992 1262 832 1143T584 844L588 840Q681 889 805 889Q899 889 982 833T1113 688T1161 504Q1161 368 1096 248T909 51T637 -25Q546 -25 472 -1T351 65T270 154T219 256T194 352T186
430Q186 601 271 777T497 1095T835 1336T1243 1458ZM645 135Q760 135 827 230T895 479Q895 518 885 559T854 640T792 707T694 733Q667 733 637 724T571 689T509 626T463 524T444 381Q444 285 501 210T645 135Z" />
<glyph unicode="7" glyph-name="seven" horiz-adv-x="1175" d="M1294 1434L1266 1280L401 -20L176 39L989 1235H391L428 1434H1294Z" />
<glyph unicode="8" glyph-name="eight" horiz-adv-x="1175" d="M664 676Q618 655 576 625T497 553T437 457T414 344Q414 322 420 296T441 241T479 189T537 151T618 135Q663 135 706 151T786 198T845 286T868 414Q868 491 795 570T664 676ZM903 788Q986 738 1060
637T1135 430Q1135 338 1101 261T1011 132T884 44T741 -9T598 -25Q487 -25 398 8T256 95T175 212T147 340Q147 412 171 476T232 585T318 671T411 734T500 778Q428 832 380 916T332 1081Q332 1132 346 1182T396 1282T483 1371T619 1434T807 1458Q991 1458 1101 1369T1212
1155Q1212 1102 1195 1055T1152 976T1090 913T1023 863T956 822T903 788ZM750 877Q834 930 866 961Q954 1046 954 1167Q954 1184 946 1207T922 1255T873 1298T799 1315Q708 1315 653 1256T598 1106Q598 1034 642 976T750 877Z" />
<glyph unicode="9" glyph-name="nine" horiz-adv-x="1175" d="M211 -25L238 147Q429 182 592 300T840 590L836 594Q745 545 647 545Q483 545 373 666T262 954Q262 1057 296 1143T384 1286T507 1383T643 1440T774 1458Q980 1458 1108 1329T1237 1004Q1237 890 1199
772T1093 545T929 339T720 166T477 41T211 -25ZM741 705Q768 705 797 714T860 747T919 807T962 903T979 1040Q979 1147 923 1222T766 1298Q664 1298 596 1209T528 971Q528 935 540 893T575 807T642 734T741 705Z" />
<glyph unicode=":" glyph-name="colon" horiz-adv-x="569" d="M283 -25Q230 -25 197 14T164 100Q164 177 218 230T338 283Q389 283 420 243T451 158T434 76T389 18T335 -14T283 -25ZM422 707Q369 707 336 746T303 831Q303 908 357 961T477 1014Q528 1014 559 974T590
889Q590 830 560 787T492 725T422 707Z" />
<glyph unicode=";" glyph-name="semicolon" horiz-adv-x="569" d="M111 -348L6 -297L190 63Q252 184 287 224T381 264Q416 264 439 241T461 176Q458 124 399 41L111 -348ZM444 705Q391 705 359 744T326 829Q326 906 380 959T500 1012Q551 1012 581 972T612 887T595
806T551 748T496 716T444 705Z" />
<glyph unicode="&lt;" glyph-name="less" horiz-adv-x="1251" d="M1186 137V-16L143 463V573L1186 1053V899L362 518L1186 137Z" />
<glyph unicode="=" glyph-name="equal" horiz-adv-x="1251" d="M1186 797V637H154V797H1186ZM1186 399V240H154V399H1186Z" />
<glyph unicode="&gt;" glyph-name="greater" horiz-adv-x="1251" d="M143 137L965 518L143 899V1053L1186 573V463L143 -16V137Z" />
<glyph unicode="?" glyph-name="question" horiz-adv-x="948" d="M588 432H379Q383 486 397 532T445 630T497 708T567 799Q690 954 732 1028T774 1167Q774 1236 736 1281T631 1327Q606 1327 583 1321T534 1299T494 1275T449 1240T410 1208L324 1323Q535 1505 741
1505Q896 1505 986 1424T1077 1225Q1077 1173 1066 1134T1026 1051T965 973T872 868T758 729Q713 672 691 642T639 554T588 432ZM393 -25Q340 -25 307 16T274 106Q274 140 295 182T359 260T455 295T540 255T573 168Q573 89 512 32T393 -25Z" />
<glyph unicode="@" glyph-name="at" horiz-adv-x="1554" d="M1214 1061H1364L1151 537Q1144 517 1139 487Q1136 457 1156 438T1208 418Q1264 418 1329 495T1441 696T1487 936Q1487 1051 1429 1134T1278 1255T1073 1294Q946 1294 834 1243T643 1112T508 933T423
738T395 561Q395 470 421 394T500 259T637 168T834 135Q1027 135 1192 207L1229 72Q988 -25 784 -25Q639 -25 526 19T343 139T237 316T201 532Q201 664 243 797T367 1049T557 1259T807 1404T1104 1458Q1356 1458 1511 1324T1667 961Q1667 884 1648 797T1586 620T1485
460T1341 343T1157 297Q1115 297 1082 310T1030 342T999 385T984 427T983 459Q921 397 875 368Q797 319 719 319Q649 319 610 378T571 522Q571 570 588 638T644 785T734 931T863 1042T1028 1087Q1151 1087 1178 975H1182L1214 1061ZM1028 944Q967 944 904 884T802
737T762 573Q762 529 780 505T831 481Q889 481 952 547T1056 701T1096 852Q1096 865 1094 878T1086 907T1065 934T1028 944Z" />
<glyph unicode="A" glyph-name="A" horiz-adv-x="1251" d="M805 1434H1004L1221 0H946L899 391H451L244 0H10L805 1434ZM539 555H879Q836 918 829 1143H825Q718 897 539 555Z" />
<glyph unicode="B" glyph-name="B" horiz-adv-x="1138" d="M649 1268L567 831H651Q782 831 866 903T950 1094Q950 1165 906 1216T782 1268H649ZM539 666L444 166H578Q662 166 728 194T839 290T883 455Q883 544 826 605T668 666H539ZM582 0H154L422 1434H887Q1042
1434 1125 1354T1208 1159Q1208 1087 1184 1026T1126 926T1043 854T957 806T877 778V774Q995 768 1078 674T1161 459Q1161 410 1145 354T1087 234T983 119T816 34T582 0Z" />
<glyph unicode="C" glyph-name="C" horiz-adv-x="1290" d="M1399 1360L1292 1196Q1150 1257 1034 1257Q876 1257 749 1171T554 941T485 627Q485 570 495 513T534 393T606 284T720 207T883 176Q994 176 1141 238L1182 57Q980 -25 815 -25Q685 -25 579 15T405 119T290
270T225 444T207 623Q211 793 276 946T454 1212T726 1391T1071 1458Q1165 1458 1261 1427T1399 1360Z" />
<glyph unicode="D" glyph-name="D" horiz-adv-x="1441" d="M430 1434H877Q985 1434 1074 1412T1224 1355T1330 1269T1402 1168T1444 1059T1465 955T1470 864Q1470 852 1468 827T1457 744T1431 628T1383 493T1307 351T1195 219T1042 106T840 29T584 0H162L430 1434ZM659
1262L455 172H616Q726 172 817 205T966 291T1068 413T1135 547T1171 678T1188 784T1192 848Q1192 903 1182 957T1147 1068T1083 1166T983 1235T842 1262H659Z" />
<glyph unicode="E" glyph-name="E" horiz-adv-x="1062" d="M1114 1434L1079 1251H647L571 846H995L961 664H537L446 182H961L926 0H154L422 1434H1114Z" />
<glyph unicode="F" glyph-name="F" horiz-adv-x="985" d="M1112 1434L1077 1251H647L555 760H981L944 578H520L414 0H154L422 1434H1112Z" />
<glyph unicode="G" glyph-name="G" horiz-adv-x="1441" d="M1128 655H1391L1278 53Q1052 -25 834 -25Q704 -25 598 15T424 119T309 270T243 444T225 623Q229 793 295 946T473 1212T745 1391T1090 1458Q1184 1458 1280 1428T1417 1360L1311 1196Q1169 1257 1053
1257Q894 1257 768 1171T573 941T504 627Q504 570 514 513T553 393T625 284T739 207T901 176Q974 176 1044 209L1128 655Z" />
<glyph unicode="H" glyph-name="H" horiz-adv-x="1402" d="M1481 1430L1212 0H952L1083 692H543L414 0H154L422 1434H682L578 874H1116L1221 1430H1481Z" />
<glyph unicode="I" glyph-name="I" horiz-adv-x="606" d="M420 0H160L428 1434H688L420 0Z" />
<glyph unicode="J" glyph-name="J" horiz-adv-x="606" d="M428 1434H688L438 92Q393 -141 265 -265T-41 -389L-10 -219Q59 -197 94 -145Q118 -112 141 -45T178 96L428 1434Z" />
<glyph unicode="K" glyph-name="K" horiz-adv-x="1175" d="M682 1434L565 817L569 813L1149 1454L1335 1348L795 778L1163 53L901 -20L551 725H547L414 0H154L422 1434H682Z" />
<glyph unicode="L" glyph-name="L" horiz-adv-x="985" d="M154 0L422 1434H682L449 182H961L926 0H154Z" />
<glyph unicode="M" glyph-name="M" horiz-adv-x="1820" d="M1886 1434L1618 0H1358Q1522 893 1577 1106L1573 1110Q1494 943 920 0H780Q764 73 721 273T652 593T597 866T555 1110H551Q506 746 362 0H143L412 1434H731L950 403L1573 1434H1886Z" />
<glyph unicode="N" glyph-name="N" horiz-adv-x="1478" d="M1565 1434L1296 0H1098Q631 845 530 1053H526Q503 831 356 0H135L403 1434H606Q999 728 1169 393H1174Q1181 467 1194 562T1228 780T1264 990T1306 1227T1343 1434H1565Z" />
<glyph unicode="O" glyph-name="O" horiz-adv-x="1517" d="M205 594Q205 726 231 841T301 1043T406 1200T534 1318T675 1397T818 1444T952 1458Q1205 1458 1365 1292T1526 844Q1526 772 1513 693T1470 528T1399 364T1294 214T1157 90T983 6T772 -25T561 14T381
127T253 322T205 594ZM483 594Q483 573 485 546T495 476T515 394T551 313T605 240T683 190T786 170Q865 170 932 199T1046 274T1128 383T1187 509T1223 640T1242 758T1247 852Q1247 1036 1165 1150T922 1264Q832 1264 753 1219T614 1091T518 880T483 594Z" />
<glyph unicode="P" glyph-name="P" horiz-adv-x="1138" d="M651 1268L414 0H154L422 1434H827Q931 1434 1011 1400T1138 1308T1206 1186T1229 1049Q1229 824 1057 683T582 541L612 719L664 725Q798 738 878 813T958 1036Q958 1057 953 1084T933 1144T897 1204T840
1249T762 1268H651Z" />
<glyph unicode="Q" glyph-name="Q" horiz-adv-x="1554" d="M1464 -162L1329 -340L819 -25H791Q703 -25 621 -1T467 73T340 195T255 369T223 594Q223 776 273 926T401 1173T581 1336T780 1430T971 1458Q1224 1458 1384 1292T1544 844Q1545 710 1501 573T1388 331T1237
151T1081 53L1464 -162ZM940 1264Q754 1264 628 1085T502 594Q502 573 504 546T514 477T534 394T570 313T624 240T702 190T805 170Q884 170 951 199T1065 274T1147 383T1206 509T1242 640T1261 758T1266 852Q1266 972 1232 1063T1123 1209T940 1264Z" />
<glyph unicode="R" glyph-name="R" horiz-adv-x="1175" d="M651 1268L555 752H662Q732 752 788 782T877 858T925 953T942 1049Q942 1140 895 1204T758 1268H651ZM154 0L422 1434H856Q949 1434 1021 1403T1134 1320T1196 1206T1217 1077Q1217 932 1126 814T905
635L1147 45L887 -20L676 586H524L414 0H154Z" />
<glyph unicode="S" glyph-name="S" horiz-adv-x="1024" d="M1120 1339L1006 1204Q968 1226 944 1238T880 1262T805 1274Q730 1274 670 1226T610 1098Q610 1068 612 1053T628 1002T678 915T776 795Q890 666 932 577T975 393Q975 322 947 251T862 117T707 15T483
-25Q373 -25 264 12T96 119L215 274Q265 239 282 227T338 195T408 167T479 160Q538 160 584 181T656 235T695 306T709 381Q709 406 703 433T691 480T667 529T642 572T608 618T577 657T542 697T510 733Q409 850 377 918T344 1094Q344 1188 400 1271T560 1406T791
1458Q984 1458 1120 1339Z" />
<glyph unicode="T" glyph-name="T" horiz-adv-x="1138" d="M676 0H416L649 1251H252L287 1434H1343L1309 1251H909L676 0Z" />
<glyph unicode="U" glyph-name="U" horiz-adv-x="1366" d="M412 1434H674L520 610Q500 495 500 426Q500 296 564 236T737 176Q785 176 824 186T901 225T970 299T1026 419T1071 594L1229 1434H1460L1294 543Q1265 388 1210 276T1078 99T911 5T709 -25Q472 -25 347
87T231 420Q233 471 248 557L412 1434Z" />
<glyph unicode="V" glyph-name="V" horiz-adv-x="1251" d="M688 0H475L262 1430L532 1454Q645 596 662 311H666Q771 558 1227 1454L1450 1401L688 0Z" />
<glyph unicode="W" glyph-name="W" horiz-adv-x="1857" d="M274 1434L535 1454Q570 828 584 311H588Q611 380 652 481T754 716T861 951T983 1212T1087 1434H1307Q1399 602 1415 311H1419Q1524 620 1878 1454L2085 1393L1466 0H1202L1102 991H1098L635 0H367L274 1434Z" />
<glyph unicode="X" glyph-name="X" horiz-adv-x="1290" d="M1180 12L915 -20Q785 354 713 602L289 -20L70 53Q94 85 159 172T254 300T342 417T439 545T531 661T631 786Q517 1042 373 1430L645 1454Q750 1141 799 958Q914 1139 1139 1454L1348 1393Q1036 981 872
782Q991 513 1180 12Z" />
<glyph unicode="Y" glyph-name="Y" horiz-adv-x="1175" d="M666 0H406L516 600L291 1407L555 1454Q567 1403 592 1299T632 1130T667 969T700 786H705Q739 846 777 909T845 1019T918 1136T984 1239T1057 1351T1124 1454L1352 1425L778 600L666 0Z" />
<glyph unicode="Z" glyph-name="Z" horiz-adv-x="1251" d="M1364 1434L1346 1343L465 186H1153L1118 0H70L88 98L975 1247H408L442 1434H1364Z" />
<glyph unicode="[" glyph-name="bracketleft" horiz-adv-x="681" d="M426 1505H881L852 1362H602L301 -252H549L524 -395H70L426 1505Z" />
<glyph unicode="\" glyph-name="backslash" horiz-adv-x="1175" d="M1262 -221H1122L201 1505H342L1262 -221Z" />
<glyph unicode="]" glyph-name="bracketright" horiz-adv-x="681" d="M483 -395H29L57 -252H307L608 1362H360L385 1505H840L483 -395Z" />
<glyph unicode="^" glyph-name="asciicircum" horiz-adv-x="1251" d="M385 686H227L604 1434H778L1153 686H997L690 1292L385 686Z" />
<glyph unicode="_" glyph-name="underscore" horiz-adv-x="1024" d="M1024 -256H0V-154H1024V-256Z" />
<glyph unicode="`" glyph-name="grave" horiz-adv-x="645" d="M459 1483L657 1262L582 1188L319 1376Q298 1394 282 1421T270 1477Q284 1544 356 1544Q400 1544 459 1483Z" />
<glyph unicode="a" glyph-name="a" horiz-adv-x="1175" d="M1217 1024L1026 0H782L815 152L811 156L762 98Q727 59 640 17T451 -25Q316 -25 236 81T156 356Q156 478 200 602T318 825T498 986T721 1049Q789 1049 854 1024T954 954L971 1024H1217ZM930 801Q873 854
839 868T733 883Q699 883 660 866T577 808T498 712T441 568T418 377Q418 275 462 215T578 154Q617 154 655 170T738 232T819 347T885 534T930 801Z" />
<glyph unicode="b" glyph-name="b" horiz-adv-x="1175" d="M422 213Q465 167 505 148T598 129Q677 129 742 181T847 313T908 484T930 659Q930 777 898 831T799 885Q755 885 710 861T619 784T535 654T466 463T422 213ZM131 0L416 1505H659L537 860L541 856Q708
1049 901 1049Q941 1049 980 1038T1058 998T1126 927T1173 817T1192 664Q1192 584 1173 495T1108 312T1000 145T839 23T627 -25Q490 -25 389 70L379 0H131Z" />
<glyph unicode="c" glyph-name="c" horiz-adv-x="909" d="M817 229L895 90Q805 28 732 2T573 -25Q376 -25 260 100T143 426Q143 515 168 604T244 773T363 914T525 1012T721 1049Q890 1049 995 930L893 803Q891 804 872 815T847 830T821 843T788 855T755 862T713
866Q585 866 496 743T406 430Q406 313 461 236T614 158Q652 158 685 166T734 182T779 207T817 229Z" />
<glyph unicode="d" glyph-name="d" horiz-adv-x="1175" d="M762 0L795 152L791 156L741 98Q707 59 620 17T430 -25Q295 -25 215 81T135 356Q135 478 179 602T297 825T477 986T700 1049Q768 1049 833 1024T934 954L1040 1505H1286L1006 0H762ZM909 801Q852 855
818 870T713 885Q679 885 639 868T556 810T477 712T420 568T397 377Q397 275 441 215T557 154Q596 154 635 170T718 232T798 347T865 534T909 801Z" />
<glyph unicode="e" glyph-name="e" horiz-adv-x="948" d="M829 254L899 119Q705 -25 455 -25Q311 -25 224 84T137 377Q137 464 163 557T244 738T371 895T548 1007T768 1049Q829 1049 886 1028T984 956T1026 836Q1026 760 982 692T870 577T716 495T549 442T397
422Q394 399 394 374T397 319T413 261T444 210T495 173T571 158Q625 156 693 180T829 254ZM420 565Q573 579 683 642T799 799T705 893Q622 893 542 800T420 565Z" />
<glyph unicode="f" glyph-name="f" horiz-adv-x="606" d="M397 0H152L317 885H170L197 1024H344L365 1141Q383 1237 427 1310T527 1424T640 1485T752 1505Q867 1505 936 1460L868 1325Q823 1343 766 1343Q749 1343 730 1337T688 1315T647 1268T621 1190L588 1024H809L784
885H563L397 0Z" />
<glyph unicode="g" glyph-name="g" horiz-adv-x="1175" d="M1212 1024L1036 92Q1005 -72 941 -192T791 -381T610 -480T406 -512Q191 -512 37 -416L117 -248Q230 -336 422 -336Q551 -336 649 -247T778 12L811 152L807 156L758 98Q723 58 636 17T446 -25Q312 -25
232 81T152 356Q152 478 196 602T314 825T494 986T717 1049Q785 1049 850 1024T950 954L967 1024H1212ZM926 801Q869 855 835 870T729 885Q686 885 635 855T533 768T448 607T414 377Q414 275 458 215T573 154Q612 154 651 170T734 232T815 347T881 534T926 801Z"
/>
<glyph unicode="h" glyph-name="h" horiz-adv-x="1175" d="M659 1505L520 831L532 827Q643 950 743 999T950 1049Q1056 1049 1110 993T1165 813Q1165 720 1139 590L1018 0H774L893 588Q911 676 911 729Q916 807 887 837T801 868Q757 868 703 826T596 715T501 547T438
342L377 0H131L414 1505H659Z" />
<glyph unicode="i" glyph-name="i" horiz-adv-x="530" d="M322 1024H567L377 0H131L322 1024ZM471 1159Q409 1159 378 1210T358 1331Q370 1392 419 1440T528 1489Q591 1489 627 1441T651 1331Q638 1262 587 1211T471 1159Z" />
<glyph unicode="j" glyph-name="j" horiz-adv-x="569" d="M-90 -512L-72 -412Q-2 -397 39 -334Q85 -251 115 -82L322 1024H567L362 -74Q338 -200 297 -287T196 -422T68 -491T-90 -512ZM471 1159Q409 1159 378 1210T358 1331Q370 1392 419 1440T528 1489Q591 1489
627 1441T651 1331Q638 1262 587 1211T471 1159Z" />
<glyph unicode="k" glyph-name="k" horiz-adv-x="985" d="M131 0L412 1505H657L492 621H518L909 1044L1085 926L725 565L963 70L725 -20L479 541H475L375 0H131Z" />
<glyph unicode="l" glyph-name="l" horiz-adv-x="530" d="M377 0H131L412 1505H657L377 0Z" />
<glyph unicode="m" glyph-name="m" horiz-adv-x="1705" d="M559 1024L528 836L532 831Q598 929 701 989T885 1049Q922 1049 955 1039T1019 1006T1070 938T1092 831H1096Q1138 898 1213 950T1355 1025T1470 1049Q1588 1049 1643 995T1698 813Q1701 723 1673 590L1561
0H1317L1421 588Q1438 679 1438 729Q1438 810 1417 839T1350 868Q1293 868 1225 800T1102 621T1028 393L965 0H721L825 588Q842 679 842 729Q842 810 821 839T754 868Q697 868 629 800T506 621T432 393L369 0H125L315 1024H559Z" />
<glyph unicode="n" glyph-name="n" horiz-adv-x="1175" d="M565 1024L520 831L524 827Q635 950 735 999T942 1049Q1054 1049 1109 993T1165 813Q1165 720 1139 590L1018 0H774L893 588Q911 676 911 729Q916 807 887 837T801 868Q757 868 703 826T596 715T501 547T438
342L377 0H131L324 1024H565Z" />
<glyph unicode="o" glyph-name="o" horiz-adv-x="1138" d="M584 -25Q456 -25 354 37T199 199T145 418Q145 542 180 648T274 826T407 950T562 1025T719 1049Q811 1049 886 1024T1010 957T1092 859T1139 744T1153 623Q1153 524 1129 430T1056 253T940 109T781 11T584
-25ZM633 123Q661 123 690 133T757 176T823 262T871 410T891 631Q891 747 844 824T702 901Q637 901 584 868T499 785T446 669T416 546T408 434Q408 285 463 204T633 123Z" />
<glyph unicode="p" glyph-name="p" horiz-adv-x="1175" d="M422 213Q465 167 505 148T598 129Q677 129 742 181T847 313T908 484T930 659Q930 777 898 831T799 885Q755 885 710 861T619 784T535 654T466 463T422 213ZM569 1024L537 860L541 856Q708 1049 901 1049Q941
1049 980 1038T1058 998T1126 927T1173 817T1192 664Q1192 584 1173 495T1108 312T1000 145T839 23T627 -25Q490 -25 389 70L283 -512H37L324 1024H569Z" />
<glyph unicode="q" glyph-name="q" horiz-adv-x="1175" d="M1217 1024L930 -512H684L815 152L811 156L762 98Q727 59 640 17T451 -25Q316 -25 236 81T156 356Q156 478 200 602T318 825T498 986T721 1049Q789 1049 854 1024T954 954L971 1024H1217ZM930 801Q873
855 839 870T733 885Q690 885 639 855T537 768T452 607T418 377Q418 275 462 215T578 154Q617 154 655 170T738 232T819 347T885 534T930 801Z" />
<glyph unicode="r" glyph-name="r" horiz-adv-x="757" d="M565 1024L530 848L535 844L600 924Q621 948 635 963T675 1001T729 1037T782 1049Q822 1049 860 1028T922 975L791 782Q733 803 694 803Q622 803 561 732T471 506L375 0H131L322 1024H565Z" />
<glyph unicode="s" glyph-name="s" horiz-adv-x="796" d="M846 958L760 848Q677 897 614 897Q567 897 526 862T485 762Q485 735 502 704T537 651T601 578Q612 565 618 559Q674 500 711 424T748 283Q748 139 637 57T362 -25Q265 -25 197 3T59 82L162 221Q278 131
342 131Q413 131 457 175T502 287Q502 312 495 334T466 386T426 437T365 504Q240 641 240 745Q240 809 261 861T316 947T397 1005T491 1039T588 1049Q675 1049 741 1023T846 958Z" />
<glyph unicode="t" glyph-name="t" horiz-adv-x="720" d="M682 176L700 41Q579 -25 446 -25Q302 -25 242 60T223 342L336 885H207L231 1024H360L408 1270L664 1331L606 1024H848L821 885H580L473 375Q425 141 559 141Q610 141 682 176Z" />
<glyph unicode="u" glyph-name="u" horiz-adv-x="1138" d="M739 0L786 205L782 209Q684 78 591 27T397 -25Q359 -25 323 -12T253 29T200 103T180 211Q180 306 207 434L328 1024H571L453 436Q434 350 434 295Q430 222 464 187T528 152Q618 152 722 310T866 682L928
1024H1174L981 0H739Z" />
<glyph unicode="v" glyph-name="v" horiz-adv-x="985" d="M551 0H379L188 1012L446 1044Q532 468 539 270H543Q643 509 932 1044L1122 983L551 0Z" />
<glyph unicode="w" glyph-name="w" horiz-adv-x="1554" d="M197 1016L449 1044Q451 1028 454 993Q507 451 500 291L504 287Q517 320 536 364T575 447T625 545T676 640T734 745T788 840T844 939T893 1024H1061Q1151 460 1157 287H1161Q1232 505 1493 1044L1696
991L1192 0H985Q915 441 899 750H895Q745 415 514 0H326L197 1016Z" />
<glyph unicode="x" glyph-name="x" horiz-adv-x="1024" d="M963 51L711 -20Q595 248 545 397Q441 245 221 -20L41 74Q52 86 108 150T183 234T249 308T326 393T396 467T475 549Q455 583 434 622T400 687T362 763T331 829T296 905T264 973L514 1044Q596 848 643
692Q751 848 915 1044L1102 975Q837 685 700 553Q805 375 963 51Z" />
<glyph unicode="y" glyph-name="y" horiz-adv-x="985" d="M188 1008L446 1044Q532 468 539 270H543Q643 509 932 1044L1122 983Q865 534 674 180T322 -516L129 -461L377 25L188 1008Z" />
<glyph unicode="z" glyph-name="z" horiz-adv-x="1024" d="M1077 1024L1059 926L444 164H942L913 0H78L92 78L737 864H317L346 1024H1077Z" />
<glyph unicode="{" glyph-name="braceleft" horiz-adv-x="681" d="M852 1505L827 1378Q759 1367 706 1314T637 1171L582 883Q559 757 518 684T379 545Q488 443 467 319L393 -123Q383 -180 418 -229T514 -289L492 -416Q389 -416 318 -374T220 -269T205 -139L283
336Q301 447 178 494L199 596Q288 626 327 681T387 850L438 1126Q509 1505 852 1505Z" />
<glyph unicode="|" glyph-name="bar" horiz-adv-x="530" d="M350 -512V1536H510V-512H350Z" />
<glyph unicode="}" glyph-name="braceright" horiz-adv-x="681" d="M12 -416L37 -289Q106 -277 158 -225T227 -82L283 207Q305 332 346 405T485 545Q376 647 397 770L471 1212Q482 1269 446 1318T350 1378L373 1505Q451 1505 511 1481T606 1416T654 1328T659 1229L582
754Q562 644 686 596L666 494Q577 464 538 408T477 240L426 -37Q354 -416 12 -416Z" />
<glyph unicode="~" glyph-name="asciitilde" horiz-adv-x="1251" d="M1083 662L1190 590Q1156 539 1133 510T1076 448T1004 402T920 387Q839 387 713 451Q665 472 642 481T576 501T492 512Q461 512 434 502T389 481T353 445T326 411T303 375L199 449Q264 555 327
608T485 662Q557 662 713 600Q856 537 907 537Q952 537 988 558T1043 602T1083 662Z" />
</font>
</defs>
</svg>
