<?xml version="1.0" standalone="no"?>
<!DOCTYPE svg PUBLIC "-//W3C//DTD SVG 1.1//EN" "http://www.w3.org/Graphics/SVG/1.1/DTD/svg11.dtd" >
<svg xmlns="http://www.w3.org/2000/svg" width="100%" height="100%">
<metadata>
Created by FontForge 20120702 at Wed Apr 17 15:14:15 2013

(c) 2003 Adobe Systems Incorporated. All rights reserved.
</metadata>
<defs>
<font id="savaproregular" horiz-adv-x="1052" >
  <font-face
    font-family="Sava Pro Regular"
    font-weight="400"
    font-stretch="normal"
    units-per-em="2048"
    panose-1="4 2 4 5 6 2 2 2 2 4"
    ascent="2048"
    descent="-563"
    x-height="963"
    cap-height="1378"
    bbox="-436 -666 3260 2052"
    underline-thickness="102"
    underline-position="-102"
    unicode-range="U+0020-FB06"
  />
<missing-glyph horiz-adv-x="1024"
d="M0 0v1434h1024v-1434h-1024zM512 809l348 522h-696zM573 717l349 -522v1044zM164 102h696l-348 523zM102 1239v-1044l349 522z" />
    <glyph glyph-name="C_T" unicode="CT" horiz-adv-x="2494"
d="M1315 1313l28 73q37 -19 136.5 -25.5t296.5 -6.5h229q454 0 504 28q7 -5 12 -14q-91 -70 -158 -102l-354 -15l-12 -16q-10 -210 -10 -539q0 -532 22 -682l-2 -12l-74 2l-145 -31l-12 11q26 198 26 712q0 409 -8 537l-14 16h-142q-148 -2 -231.5 -11.5t-120.5 -35.5
l-20 -63l-25 -9q-13 69 -118 124t-255 55q-245 0 -389 -119q-66 -58 -115 -166t-49 -266q0 -102 21 -196t68 -179t116 -147.5t171 -99t227 -36.5q155 0 251 39t189 115h12l-10 -57l-146 -144q-147 -88 -407 -88q-163 0 -297.5 57t-222 154t-135.5 223t-48 267
q0 200 77.5 340t224.5 247q217 146 526 146q138 0 236.5 -26.5t146.5 -59.5z" />
    <glyph glyph-name="C_T.sc" unicode="&#xe010;&#xe18e;" horiz-adv-x="1837"
d="M942 924l16 49q80 -27 347 -27h168q302 0 366 23q8 -4 8 -17q-35 -30 -118 -86l-248 -10l-8 -12q-9 -74 -9 -359q0 -380 19 -471l-6 -10h-70l-129 -24l-10 10q24 147 24 497q0 175 -6 355l-8 10h-141q-158 0 -205 -31l-17 -49l-22 -2q-14 51 -87 91t-196 40
q-142 0 -221 -63q-117 -94 -117 -306q0 -66 14 -128t45.5 -119.5t77 -100.5t113.5 -68.5t150 -25.5q105 0 183.5 30.5t127.5 74.5h10l-8 -50l-106 -102q-129 -68 -314 -68q-147 0 -259 69t-169 179.5t-57 243.5q0 254 211 410q77 49 166.5 75.5t218.5 26.5q153 0 266 -55z
" />
    <glyph glyph-name="C_Tcaron" unicode="C&#x164;" horiz-adv-x="2494"
d="M1315 1313l28 73q37 -19 136.5 -25.5t296.5 -6.5h229q454 0 504 28q7 -5 12 -14q-91 -70 -158 -102l-354 -15l-12 -16q-10 -210 -10 -539q0 -532 22 -682l-2 -12l-74 2l-145 -31l-12 11q26 198 26 712q0 409 -8 537l-14 16h-142q-148 -2 -231.5 -11.5t-120.5 -35.5
l-20 -63l-25 -9q-13 69 -118 124t-255 55q-245 0 -389 -119q-66 -58 -115 -166t-49 -266q0 -102 21 -196t68 -179t116 -147.5t171 -99t227 -36.5q155 0 251 39t189 115h12l-10 -57l-146 -144q-147 -88 -407 -88q-163 0 -297.5 57t-222 154t-135.5 223t-48 267
q0 200 77.5 340t224.5 247q217 146 526 146q138 0 236.5 -26.5t146.5 -59.5zM1692 1724l204 -131l203 131h51v-10l-235 -256h-39l-234 256v10h50z" />
    <glyph glyph-name="C_Tcaron.sc" unicode="&#xe010;&#xe1cc;" horiz-adv-x="1837"
d="M942 924l16 49q80 -27 347 -27h168q302 0 366 23q8 -4 8 -17q-35 -30 -118 -86l-248 -10l-8 -12q-9 -74 -9 -359q0 -380 19 -471l-6 -10h-70l-129 -24l-10 10q24 147 24 497q0 175 -6 355l-8 10h-141q-158 0 -205 -31l-17 -49l-22 -2q-14 51 -87 91t-196 40
q-142 0 -221 -63q-117 -94 -117 -306q0 -66 14 -128t45.5 -119.5t77 -100.5t113.5 -68.5t150 -25.5q105 0 183.5 30.5t127.5 74.5h10l-8 -50l-106 -102q-129 -68 -314 -68q-147 0 -259 69t-169 179.5t-57 243.5q0 254 211 410q77 49 166.5 75.5t218.5 26.5q153 0 266 -55z
M1204 1360l174 -178l174 178h50v-10l-203 -312h-39l-205 312v10h49z" />
    <glyph glyph-name="C_Tcommaaccent" unicode="C&#x162;" horiz-adv-x="2494"
d="M1315 1313l26 73q39 -19 138.5 -25.5t296.5 -6.5h229q454 0 504 28q7 -5 12 -14q-91 -70 -158 -102l-354 -15l-12 -16q-10 -210 -10 -539q0 -532 22 -682l-2 -12l-74 2l-145 -31l-12 11q26 198 26 712q0 409 -8 537l-14 16h-142q-148 -2 -231.5 -11.5t-120.5 -35.5
l-20 -63l-25 -9q-13 69 -118 124t-255 55q-245 0 -389 -119q-66 -58 -115 -166t-49 -266q0 -102 21 -196t68 -179t116 -147.5t171 -99t227 -36.5q155 0 251 39t189 115h12l-10 -57l-146 -144q-147 -88 -407 -88q-163 0 -297.5 57t-222 154t-135.5 223t-48 267
q0 200 77.5 340t224.5 247q217 146 526 146q138 0 236.5 -26.5t146.5 -59.5zM2009 -225q0 -60 -56 -166t-106 -158q-30 -4 -39 12q67 115 70 244q-24 38 -78 86q-6 6 0 21q12 21 36.5 49t45.5 41q9 5 21 2q42 -16 100 -74q6 -21 6 -57z" />
    <glyph glyph-name="C_Tcommaaccent.sc" unicode="&#xe010;&#xe1d7;" horiz-adv-x="1837"
d="M942 924l16 49q77 -27 345 -27h170q302 0 366 23q8 -4 8 -17q-35 -30 -118 -86l-248 -10l-8 -12q-9 -74 -9 -359q0 -380 19 -471l-6 -10h-70l-129 -24l-10 10q24 147 24 497q0 175 -6 355l-8 10h-141q-158 0 -205 -31l-17 -49l-22 -2q-14 51 -87 91t-196 40
q-142 0 -221 -63q-117 -94 -117 -306q0 -66 14 -128t45.5 -119.5t77 -100.5t113.5 -68.5t150 -25.5q105 0 183.5 30.5t127.5 74.5h10l-8 -50l-106 -102q-129 -68 -314 -68q-147 0 -259 69t-169 179.5t-57 243.5q0 254 211 410q77 49 166.5 75.5t218.5 26.5q153 0 266 -55z
M1485 -225q0 -60 -56 -166t-106 -158q-31 -4 -39 12q67 115 70 244q-21 35 -78 86q-7 7 0 23q11 19 36 47t46 41q9 5 20 2q42 -15 101 -74q6 -21 6 -57z" />
    <glyph glyph-name="Ccaron_T" unicode="&#x10c;T" horiz-adv-x="2494"
d="M1315 1313l28 73q37 -19 136.5 -25.5t296.5 -6.5h229q454 0 504 28q7 -5 12 -14q-91 -70 -158 -102l-354 -15l-12 -16q-10 -210 -10 -539q0 -532 22 -682l-2 -12l-74 2l-145 -31l-12 11q26 198 26 712q0 409 -8 537l-14 16h-142q-148 -2 -231.5 -11.5t-120.5 -35.5
l-20 -63l-25 -9q-13 69 -118 124t-255 55q-245 0 -389 -119q-66 -58 -115 -166t-49 -266q0 -102 21 -196t68 -179t116 -147.5t171 -99t227 -36.5q155 0 251 39t189 115h12l-10 -57l-146 -144q-147 -88 -407 -88q-163 0 -297.5 57t-222 154t-135.5 223t-48 267
q0 200 77.5 340t224.5 247q217 146 526 146q138 0 236.5 -26.5t146.5 -59.5zM670 1753l204 -131l205 131h49v-10l-235 -256h-39l-236 256v10h52z" />
    <glyph glyph-name="Ccaron_T.sc" unicode="&#xe018;&#xe18e;" horiz-adv-x="1837"
d="M942 924l16 49q80 -27 347 -27h168q302 0 366 23q8 -4 8 -17q-35 -30 -118 -86l-248 -10l-8 -12q-9 -74 -9 -359q0 -380 19 -471l-6 -10h-70l-129 -24l-10 10q24 147 24 497q0 175 -6 355l-8 10h-141q-158 0 -205 -31l-17 -49l-22 -2q-14 51 -87 91t-196 40
q-142 0 -221 -63q-117 -94 -117 -306q0 -66 14 -128t45.5 -119.5t77 -100.5t113.5 -68.5t150 -25.5q105 0 183.5 30.5t127.5 74.5h10l-8 -50l-106 -102q-129 -68 -314 -68q-147 0 -259 69t-169 179.5t-57 243.5q0 254 211 410q77 49 166.5 75.5t218.5 26.5q153 0 266 -55z
M440 1360l174 -178l174 178h50v-10l-205 -312h-39l-205 312v10h51z" />
    <glyph glyph-name="Ccedilla_T" unicode="&#xc7;T" horiz-adv-x="2494"
d="M1370 254l-10 -57l-146 -144q-126 -73 -331 -86l-49 -73q-9 -11 -6 -18.5t20 -16.5q7 -5 27 -17.5t27.5 -18t23 -17t22 -20t15 -21t11.5 -26t3 -28.5q0 -69 -77.5 -123.5t-186.5 -68.5l-23 39v16q66 6 108 34.5t42 72.5q0 23 -18.5 47.5t-37 38.5t-59.5 43q-24 18 0 47
l90 108q-210 -2 -373.5 90.5t-250.5 252t-87 358.5q0 200 77.5 340t224.5 247q217 146 526 146q138 0 236.5 -26.5t146.5 -59.5l28 73q37 -19 136.5 -25.5t296.5 -6.5h229q454 0 504 28q7 -5 12 -14q-91 -70 -158 -102l-354 -15l-12 -16q-10 -210 -10 -539q0 -532 22 -682
l-2 -12l-74 2l-145 -31l-12 11q26 198 26 712q0 409 -8 537l-14 16h-142q-148 -2 -231.5 -11.5t-120.5 -35.5l-22 -63l-25 -9q-13 69 -118 124t-253 55q-245 0 -389 -119q-66 -58 -115 -166t-49 -266q0 -102 21 -196t68 -179t116 -147.5t171 -99t227 -36.5q82 0 148.5 11.5
t119 35t90 47.5t80.5 60h14z" />
    <glyph glyph-name="Ccedilla_T.sc" unicode="&#xe01b;&#xe18e;" horiz-adv-x="1837"
d="M1483 14l-6 -10h-70l-129 -24l-10 10q24 147 24 497q0 175 -6 355l-8 10h-141q-158 0 -205 -31l-17 -49l-22 -2q-14 51 -87 91t-196 40q-142 0 -221 -63q-117 -94 -117 -306q0 -66 14 -128t45.5 -119.5t77.5 -100.5t114 -68.5t151 -25.5q104 0 182.5 30.5t126.5 74.5h10
l-8 -50l-106 -102q-101 -54 -248 -66l-58 -81q-7 -11 -5 -17.5t16 -13.5q35 -21 51.5 -31.5t39.5 -30t32.5 -39t9.5 -43.5q0 -68 -76.5 -118.5t-189.5 -63.5l-21 39v16q67 4 109.5 32.5t42.5 68.5q0 15 -5.5 27.5t-19 25t-24 20t-34 23t-34.5 23.5q-23 16 2 45l94 116
q-145 1 -256 69.5t-168 179.5t-57 243q0 254 211 410q79 49 169 75.5t218 26.5q87 0 157.5 -18t106.5 -37l16 49q80 -27 347 -27h168q302 0 366 23q8 -4 8 -17q-35 -30 -118 -86l-248 -10l-8 -12q-9 -74 -9 -357q0 -379 19 -473z" />
    <glyph glyph-name="E_A" unicode="EA" horiz-adv-x="2510"
d="M59 1303l148 71q104 -16 362 -16h113q253 0 326 26l14 -8v-235l-4 -6l-17 -17h-6l-110 152q-18 22 -47 20l-424 -30v-482l14 -12q55 -6 209 -6q173 0 311 6q6 -3 6 -12q0 -11 -6 -17q-63 -42 -119 -65q-123 -21 -415 -35v-500q146 -28 366 -28q176 0 301 26
q155 233 318 551q199 385 243 539q14 51 19 106q16 20 45.5 49.5t46.5 40.5l10 -4q20 -140 291 -710q79 -165 129.5 -268.5t94.5 -182.5t69 -118t54 -64.5t48 -33t52 -13.5q4 -18 -2 -27q-37 -2 -154 -2t-191 4l-6 10l17 21q-81 190 -199 420q-13 23 -47 20l-463 -39
q-48 -3 -70.5 -17t-39.5 -50q-81 -157 -162 -363q-10 -13 -29 -16q-22 11 -61 40.5t-54 47.5l-102 -51q-102 -29 -350 -29q-110 0 -289 6l-80 -22l-12 10q13 117 17.5 240t4.5 487q0 308 -8.5 407.5t-30.5 122.5q-25 28 -135 35zM1681 1081l-239 -516q0 -11 10 -14
q70 -12 227 -12t232 10l4 6z" />
    <glyph glyph-name="E_A.sc" unicode="&#xe02b;&#xe000;" horiz-adv-x="1908"
d="M37 899l104 64q152 -13 291 -13h180q129 0 183 19l10 -6v-185l-2 -4l-19 -12h-6l-84 106q-11 15 -32 15l-310 -19v-315l6 -8q41 -4 179 -4q130 0 221 8q4 -8 4 -10q0 -3 -4 -15q-69 -48 -82 -55q-218 -24 -324 -27v-321q100 -23 303 -23q140 0 203 19q107 141 221 366
q145 281 176 377q16 37 21 76q42 42 90 65l14 -4q18 -86 217 -497q58 -119 89.5 -183t64 -123t47.5 -82t35.5 -43.5t33.5 -25.5t36 -10q2 -4 1.5 -12.5t-3.5 -14.5q-27 -3 -123.5 -2.5t-155.5 6.5l-4 12l8 15q-15 30 -40.5 85.5t-46.5 100t-40 80.5q-6 12 -12.5 15t-22.5 1
l-344 -30q-30 -3 -45 -14t-24 -35l-105 -234q-10 -10 -22 -10q-15 4 -53 25.5t-56 35.5l-59 -33q-83 -24 -258 -24q-92 0 -260 6l-62 -18l-12 10q16 150 16 508q0 184 -6.5 258t-21.5 90q-20 19 -117 33zM1290 743l-164 -346q0 -7 11 -10q40 -10 143 -10q88 0 176 6l4 4z
" />
    <glyph glyph-name="E_Aacute" unicode="E&#xc1;" horiz-adv-x="2510"
d="M59 1303l148 71q104 -16 362 -16h113q253 0 326 26l14 -8v-235l-4 -6l-17 -17h-6l-110 152q-18 22 -47 20l-424 -30v-482l14 -12q55 -6 209 -6q173 0 311 6q6 -3 6 -12q0 -11 -6 -17q-63 -42 -119 -65q-123 -21 -415 -35v-500q146 -28 366 -28q176 0 301 26
q155 233 318 551q199 385 243 539q14 51 19 106q16 20 45.5 49.5t46.5 40.5l10 -4q20 -140 291 -710q79 -165 129.5 -268.5t94.5 -182.5t69 -118t54 -64.5t48 -33t52 -13.5q4 -18 -2 -27q-37 -2 -154 -2t-191 4l-6 10l17 21q-81 190 -199 420q-13 23 -47 20l-463 -39
q-48 -3 -70.5 -17t-39.5 -50q-81 -157 -162 -363q-10 -13 -29 -16q-22 11 -61 40.5t-54 47.5l-102 -51q-102 -29 -350 -29q-110 0 -289 6l-80 -22l-12 10q13 117 17.5 240t4.5 487q0 308 -8.5 407.5t-30.5 122.5q-25 28 -135 35zM1681 1081l-239 -516q0 -11 10 -14
q70 -12 227 -12t232 10l4 6zM1794 1739l8 4h146q8 -8 2 -19q-30 -33 -146 -140t-153 -138h-41v10q162 243 184 283z" />
    <glyph glyph-name="E_Aacute.sc" unicode="&#xe02b;&#xe003;" horiz-adv-x="1908"
d="M37 899l104 64q152 -13 291 -13h180q129 0 183 19l10 -6v-185l-2 -4l-19 -12h-6l-84 106q-11 15 -32 15l-310 -19v-315l6 -8q41 -4 179 -4q130 0 221 8q4 -8 4 -10q0 -3 -4 -15q-69 -48 -82 -55q-218 -24 -324 -27v-321q100 -23 303 -23q140 0 203 19q107 141 221 366
q145 281 176 377q16 37 21 76q42 42 90 65l14 -4q18 -86 217 -497q58 -119 89.5 -183t64 -123t47.5 -82t35.5 -43.5t33.5 -25.5t36 -10q2 -4 1.5 -12.5t-3.5 -14.5q-27 -3 -123.5 -2.5t-155.5 6.5l-4 12l8 15q-15 30 -40.5 85.5t-46.5 100t-40 80.5q-6 12 -12.5 15t-22.5 1
l-344 -30q-30 -3 -45 -14t-24 -35l-105 -234q-10 -10 -22 -10q-15 4 -53 25.5t-56 35.5l-59 -33q-83 -24 -258 -24q-92 0 -260 6l-62 -18l-12 10q16 150 16 508q0 184 -6.5 258t-21.5 90q-20 19 -117 33zM1290 743l-164 -346q0 -7 11 -10q40 -10 143 -10q88 0 176 6l4 4z
M1382 1343l9 5h137q6 -10 0 -19q-29 -40 -129 -149.5t-133 -141.5h-43v9q21 34 78 140.5t81 155.5z" />
    <glyph glyph-name="E_Acircumflex" unicode="E&#xc2;" horiz-adv-x="2510"
d="M59 1303l148 71q104 -16 362 -16h113q253 0 326 26l14 -8v-235l-4 -6l-17 -17h-6l-110 152q-18 22 -47 20l-424 -30v-482l14 -12q55 -6 209 -6q173 0 311 6q6 -3 6 -12q0 -11 -6 -17q-63 -42 -119 -65q-123 -21 -415 -35v-500q146 -28 366 -28q176 0 301 26
q155 233 318 551q199 385 243 539q14 51 19 106q16 20 45.5 49.5t46.5 40.5l10 -4q20 -140 291 -710q79 -165 129.5 -268.5t94.5 -182.5t69 -118t54 -64.5t48 -33t52 -13.5q4 -18 -2 -27q-37 -2 -154 -2t-191 4l-6 10l17 21q-81 190 -199 420q-13 23 -47 20l-463 -39
q-48 -3 -70.5 -17t-39.5 -50q-81 -157 -162 -363q-10 -13 -29 -16q-22 11 -61 40.5t-54 47.5l-102 -51q-102 -29 -350 -29q-110 0 -289 6l-80 -22l-12 10q13 117 17.5 240t4.5 487q0 308 -8.5 407.5t-30.5 122.5q-25 28 -135 35zM1681 1081l-239 -516q0 -11 10 -14
q70 -12 227 -12t232 10l4 6zM1513 1458h-49v10l236 256h39l235 -256v-10h-51l-205 131z" />
    <glyph glyph-name="E_Acircumflex.sc" unicode="&#xe02b;&#xe005;" horiz-adv-x="1908"
d="M37 899l104 64q152 -13 291 -13h180q129 0 183 19l10 -6v-185l-2 -4l-19 -12h-6l-84 106q-11 15 -32 15l-310 -19v-315l6 -8q41 -4 179 -4q130 0 221 8q4 -8 4 -10q0 -3 -4 -15q-69 -48 -82 -55q-218 -24 -324 -27v-321q100 -23 303 -23q140 0 203 19q107 141 221 366
q145 281 176 377q16 37 21 76q42 42 90 65l14 -4q18 -86 217 -497q58 -119 89.5 -183t64 -123t47.5 -82t35.5 -43.5t33.5 -25.5t36 -10q2 -4 1.5 -12.5t-3.5 -14.5q-27 -3 -123.5 -2.5t-155.5 6.5l-4 12l8 15q-15 30 -40.5 85.5t-46.5 100t-40 80.5q-6 12 -12.5 15t-22.5 1
l-344 -30q-30 -3 -45 -14t-24 -35l-105 -234q-10 -10 -22 -10q-15 4 -53 25.5t-56 35.5l-59 -33q-83 -24 -258 -24q-92 0 -260 6l-62 -18l-12 10q16 150 16 508q0 184 -6.5 258t-21.5 90q-20 19 -117 33zM1290 743l-164 -346q0 -7 11 -10q40 -10 143 -10q88 0 176 6l4 4z
M1145 1038h-51v11l204 311h39l205 -311v-11h-49l-174 179z" />
    <glyph glyph-name="E_Adieresis" unicode="E&#xc4;" horiz-adv-x="2510"
d="M59 1303l148 71q104 -16 362 -16h113q253 0 326 26l14 -8v-235l-4 -6l-17 -17h-6l-110 152q-18 22 -47 20l-424 -30v-482l14 -12q55 -6 209 -6q173 0 311 6q6 -3 6 -12q0 -11 -6 -17q-63 -42 -119 -65q-123 -21 -415 -35v-500q146 -28 366 -28q176 0 301 26
q155 233 318 551q199 385 243 539q14 51 19 106q16 20 45.5 49.5t46.5 40.5l10 -4q20 -140 291 -710q79 -165 129.5 -268.5t94.5 -182.5t69 -118t54 -64.5t48 -33t52 -13.5q4 -18 -2 -27q-37 -2 -154 -2t-191 4l-6 10l17 21q-81 190 -199 420q-13 23 -47 20l-463 -39
q-48 -3 -70.5 -17t-39.5 -50q-81 -157 -162 -363q-10 -13 -29 -16q-22 11 -61 40.5t-54 47.5l-102 -51q-102 -29 -350 -29q-110 0 -289 6l-80 -22l-12 10q13 117 17.5 240t4.5 487q0 308 -8.5 407.5t-30.5 122.5q-25 28 -135 35zM1681 1081l-239 -516q0 -11 10 -14
q70 -12 227 -12t232 10l4 6zM1632 1591v-14q-15 -33 -61 -96q-39 3 -82.5 26.5t-63.5 53.5q-1 1 -1 6t1 8q21 46 76 96q8 5 17 2q87 -47 114 -82zM2013 1591v-14q-16 -45 -57 -96q-41 3 -82.5 26t-65.5 54q-2 1 -2 6t2 8q24 47 78 96q9 6 15 2q34 -18 68.5 -42.5t43.5 -39.5
z" />
    <glyph glyph-name="E_Adieresis.sc" unicode="&#xe02b;&#xe006;" horiz-adv-x="1908"
d="M37 899l104 64q152 -13 291 -13h180q129 0 183 19l10 -6v-185l-2 -4l-19 -12h-6l-84 106q-11 15 -32 15l-310 -19v-315l6 -8q41 -4 179 -4q130 0 221 8q4 -8 4 -10q0 -3 -4 -15q-69 -48 -82 -55q-218 -24 -324 -27v-321q100 -23 303 -23q140 0 203 19q107 141 221 366
q145 281 176 377q16 37 21 76q42 42 90 65l14 -4q18 -86 217 -497q58 -119 89.5 -183t64 -123t47.5 -82t35.5 -43.5t33.5 -25.5t36 -10q2 -4 1.5 -12.5t-3.5 -14.5q-27 -3 -123.5 -2.5t-155.5 6.5l-4 12l8 15q-15 30 -40.5 85.5t-46.5 100t-40 80.5q-6 12 -12.5 15t-22.5 1
l-344 -30q-30 -3 -45 -14t-24 -35l-105 -234q-10 -10 -22 -10q-15 4 -53 25.5t-56 35.5l-59 -33q-83 -24 -258 -24q-92 0 -260 6l-62 -18l-12 10q16 150 16 508q0 184 -6.5 258t-21.5 90q-20 19 -117 33zM1290 743l-164 -346q0 -7 11 -10q40 -10 143 -10q88 0 176 6l4 4z
M1260 1196v-14q-17 -45 -58 -95q-38 5 -77 27.5t-66 50.5q-6 6 -2 15q12 22 37.5 52.5t40.5 41.5q6 10 14 2q21 -9 61 -38t50 -42zM1599 1196v-14q-10 -34 -55 -95q-38 5 -77.5 27.5t-67.5 50.5q-6 6 -2 15q13 22 39.5 52.5t40.5 41.5q6 10 14 2q21 -9 60.5 -38.5
t47.5 -41.5z" />
    <glyph glyph-name="E_Agrave" unicode="E&#xc0;" horiz-adv-x="2510"
d="M59 1303l148 71q104 -16 362 -16h113q253 0 326 26l14 -8v-235l-4 -6l-17 -17h-6l-110 152q-18 22 -47 20l-424 -30v-482l14 -12q55 -6 209 -6q173 0 311 6q6 -3 6 -12q0 -11 -6 -17q-63 -42 -119 -65q-123 -21 -415 -35v-500q146 -28 366 -28q176 0 301 26
q155 233 318 551q199 385 243 539q14 51 19 106q16 20 45.5 49.5t46.5 40.5l10 -4q20 -140 291 -710q79 -165 129.5 -268.5t94.5 -182.5t69 -118t54 -64.5t48 -33t52 -13.5q4 -18 -2 -27q-37 -2 -154 -2t-191 4l-6 10l17 21q-81 190 -199 420q-13 23 -47 20l-463 -39
q-48 -3 -70.5 -17t-39.5 -50q-81 -157 -162 -363q-10 -13 -29 -16q-22 11 -61 40.5t-54 47.5l-102 -51q-102 -29 -350 -29q-110 0 -289 6l-80 -22l-12 10q13 117 17.5 240t4.5 487q0 308 -8.5 407.5t-30.5 122.5q-25 28 -135 35zM1681 1081l-239 -516q0 -11 10 -14
q70 -12 227 -12t232 10l4 6zM1653 1743l8 -4q22 -40 89 -141t97 -142v-10h-43q-244 218 -297 278q-6 10 0 19h146z" />
    <glyph glyph-name="E_Agrave.sc" unicode="&#xe02b;&#xe007;" horiz-adv-x="1908"
d="M37 899l104 64q152 -13 291 -13h180q129 0 183 19l10 -6v-185l-2 -4l-19 -12h-6l-84 106q-11 15 -32 15l-310 -19v-315l6 -8q41 -4 179 -4q130 0 221 8q4 -8 4 -10q0 -3 -4 -15q-69 -48 -82 -55q-218 -24 -324 -27v-321q100 -23 303 -23q140 0 203 19q107 141 221 366
q145 281 176 377q16 37 21 76q42 42 90 65l14 -4q18 -86 217 -497q58 -119 89.5 -183t64 -123t47.5 -82t35.5 -43.5t33.5 -25.5t36 -10q2 -4 1.5 -12.5t-3.5 -14.5q-27 -3 -123.5 -2.5t-155.5 6.5l-4 12l8 15q-15 30 -40.5 85.5t-46.5 100t-40 80.5q-6 12 -12.5 15t-22.5 1
l-344 -30q-30 -3 -45 -14t-24 -35l-105 -234q-10 -10 -22 -10q-15 4 -53 25.5t-56 35.5l-59 -33q-83 -24 -258 -24q-92 0 -260 6l-62 -18l-12 10q16 150 16 508q0 184 -6.5 258t-21.5 90q-20 19 -117 33zM1290 743l-164 -346q0 -7 11 -10q40 -10 143 -10q88 0 176 6l4 4z
M1280 1348l8 -5q32 -65 86 -167t72 -129v-9h-43q-28 27 -128 138t-132 153q-5 7 2 19h135z" />
    <glyph glyph-name="E_Amacron" unicode="E&#x100;" horiz-adv-x="2510"
d="M59 1303l148 71q104 -16 362 -16h113q253 0 326 26l14 -8v-235l-4 -6l-17 -17h-6l-110 152q-18 22 -47 20l-424 -30v-482l14 -12q55 -6 209 -6q173 0 311 6q6 -3 6 -12q0 -11 -6 -17q-63 -42 -119 -65q-123 -21 -415 -35v-500q146 -28 366 -28q176 0 301 26
q155 233 318 551q199 385 243 539q14 51 19 106q16 20 45.5 49.5t46.5 40.5l10 -4q20 -140 291 -710q79 -165 129.5 -268.5t94.5 -182.5t69 -118t54 -64.5t48 -33t52 -13.5q4 -18 -2 -27q-37 -2 -154 -2t-191 4l-6 10l17 21q-81 190 -199 420q-13 23 -47 20l-463 -39
q-48 -3 -70.5 -17t-39.5 -50q-81 -157 -162 -363q-10 -13 -29 -16q-22 11 -61 40.5t-54 47.5l-102 -51q-102 -29 -350 -29q-110 0 -289 6l-80 -22l-12 10q13 117 17.5 240t4.5 487q0 308 -8.5 407.5t-30.5 122.5q-25 28 -135 35zM1681 1081l-239 -516q0 -11 10 -14
q70 -12 227 -12t232 10l4 6zM1473 1597h477v-94h-477v94z" />
    <glyph glyph-name="E_Amacron.sc" unicode="&#xe02b;&#xe00a;" horiz-adv-x="1908"
d="M37 899l104 64q152 -13 291 -13h180q129 0 183 19l10 -6v-185l-2 -4l-19 -12h-6l-84 106q-11 15 -32 15l-310 -19v-315l6 -8q41 -4 179 -4q130 0 221 8q4 -8 4 -10q0 -3 -4 -15q-69 -48 -82 -55q-218 -24 -324 -27v-321q100 -23 303 -23q140 0 203 19q107 141 221 366
q145 281 176 377q16 37 21 76q42 42 90 65l14 -4q18 -86 217 -497q58 -119 89.5 -183t64 -123t47.5 -82t35.5 -43.5t33.5 -25.5t36 -10q2 -4 1.5 -12.5t-3.5 -14.5q-27 -3 -123.5 -2.5t-155.5 6.5l-4 12l8 15q-15 30 -40.5 85.5t-46.5 100t-40 80.5q-6 12 -12.5 15t-22.5 1
l-344 -30q-30 -3 -45 -14t-24 -35l-105 -234q-10 -10 -22 -10q-15 4 -53 25.5t-56 35.5l-59 -33q-83 -24 -258 -24q-92 0 -260 6l-62 -18l-12 10q16 150 16 508q0 184 -6.5 258t-21.5 90q-20 19 -117 33zM1290 743l-164 -346q0 -7 11 -10q40 -10 143 -10q88 0 176 6l4 4z
M1079 1245h477v-94h-477v94z" />
    <glyph glyph-name="E_Aogonek" unicode="E&#x104;" horiz-adv-x="2510"
d="M1022 1376v-235l-4 -6l-17 -17h-6l-110 152q-18 22 -47 20l-424 -30v-482l14 -12q55 -6 209 -6q173 0 311 6q6 -3 6 -12q0 -11 -6 -17q-63 -42 -119 -65q-123 -21 -415 -35v-500q146 -28 366 -28q176 0 301 26q155 233 318 551q199 385 243 539q14 51 19 106
q16 20 45.5 49.5t46.5 40.5l10 -4q21 -147 291 -710q78 -164 129 -268t94.5 -182t69 -117t54.5 -64.5t48 -33t52 -13.5q4 -16 -2 -27q-11 -2 -82 -2q-150 -134 -150 -231q0 -47 29 -74t67 -27q68 0 119 49h12l-6 -45l-63 -75q-43 -31 -119 -31q-82 0 -125 45.5t-43 109.5
q0 113 205 279q-83 0 -191 4l-4 10l17 23q-77 178 -199 416q-13 23 -47 20l-463 -39q-48 -3 -70.5 -17t-39.5 -50q-81 -157 -162 -363q-10 -13 -29 -16q-22 11 -61 40.5t-54 47.5l-102 -51q-102 -29 -350 -29q-130 0 -289 8l-80 -24l-12 10q13 117 17.5 240t4.5 487
q0 308 -8.5 407.5t-30.5 122.5q-25 28 -135 35l4 21l148 71q104 -16 362 -16h113q253 0 326 26zM1915 555l-234 526l-239 -516q0 -11 10 -14q70 -12 227 -12t232 10z" />
    <glyph glyph-name="E_Aogonek.sc" unicode="&#xe02b;&#xe00b;" horiz-adv-x="1908"
d="M805 963v-185l-2 -4l-19 -12h-6l-84 106q-11 15 -32 15l-310 -19v-315l6 -8q41 -4 179 -4q130 0 221 8q4 -8 4 -10q0 -3 -4 -15q-69 -48 -82 -55q-218 -24 -324 -27v-321q100 -23 303 -23q140 0 203 19q103 135 221 366q145 281 176 377q16 37 21 76q42 42 90 65l14 -4
q18 -86 217 -497q58 -119 89.5 -183t64 -123t47.5 -82t35.5 -43.5t33.5 -25.5t36 -10q2 -4 1.5 -12.5t-3.5 -14.5q-11 -2 -52 -2q-168 -118 -168 -211q0 -45 30 -70.5t65 -25.5q72 0 120 49h13l-6 -45l-66 -70q-35 -28 -113 -28t-119.5 42.5t-41.5 106.5q0 62 57.5 127
t157.5 125q-97 0 -158 6l-2 12l6 15q-96 210 -125 266q-6 12 -12.5 15t-22.5 1l-344 -30q-30 -3 -45 -13.5t-26 -35.5l-103 -234q-10 -10 -22 -10q-15 4 -53 25.5t-56 35.5l-59 -33q-83 -24 -258 -24q-92 0 -260 6l-62 -18l-12 10q16 154 16 508q0 184 -6.5 258t-21.5 90
q-20 19 -117 33l2 16l104 64q152 -13 291 -13h180q129 0 183 19zM1290 743l-164 -346q0 -7 11 -10q43 -10 143 -10q88 0 176 6l4 4z" />
    <glyph glyph-name="E_Aring" unicode="E&#xc5;" horiz-adv-x="2510"
d="M59 1303l148 71q104 -16 362 -16h113q253 0 326 26l14 -8v-235l-4 -6l-17 -17h-6l-110 152q-18 22 -47 20l-424 -30v-482l14 -12q55 -6 209 -6q173 0 311 6q6 -3 6 -12q0 -11 -6 -17q-63 -42 -119 -65q-123 -21 -415 -35v-500q146 -28 366 -28q176 0 301 26
q155 233 318 551q199 385 243 539q14 51 19 106q16 20 45.5 49.5t46.5 40.5l10 -4q20 -140 291 -710q79 -165 129.5 -268.5t94.5 -182.5t69 -118t54 -64.5t48 -33t52 -13.5q4 -18 -2 -27q-37 -2 -154 -2t-191 4l-6 10l17 21q-81 190 -199 420q-13 23 -47 20l-463 -39
q-48 -3 -70.5 -17t-39.5 -50q-81 -157 -162 -363q-10 -13 -29 -16q-22 11 -61 40.5t-54 47.5l-102 -51q-102 -29 -350 -29q-110 0 -289 6l-80 -22l-12 10q13 117 17.5 240t4.5 487q0 308 -8.5 407.5t-30.5 122.5q-25 28 -135 35zM1681 1081l-239 -516q0 -11 10 -14
q70 -12 229 -12q155 0 230 10l4 6zM1706 1790q74 0 127 -48.5t53 -119.5t-53 -119.5t-129 -48.5t-129 48.5t-53 119.5q0 72 53.5 120t130.5 48zM1702 1731q-43 0 -68.5 -31.5t-25.5 -77.5t25.5 -77.5t70.5 -31.5q44 0 70 31.5t26 77.5t-26 77.5t-72 31.5z" />
    <glyph glyph-name="E_Aring.sc" unicode="&#xe02b;&#xe00c;" horiz-adv-x="1908"
d="M37 899l104 64q152 -13 291 -13h180q129 0 183 19l10 -6v-185l-2 -4l-19 -12h-6l-84 106q-11 15 -32 15l-310 -19v-315l6 -8q41 -4 179 -4q130 0 221 8q4 -8 4 -10q0 -3 -4 -15q-69 -48 -82 -55q-218 -24 -324 -27v-321q100 -23 303 -23q139 0 205 19q109 149 219 366
q145 281 176 377q16 30 21 76q43 43 92 65l12 -4q18 -86 217 -497q58 -120 89.5 -183.5t64 -123t47.5 -82t36 -43t34 -25.5t37 -10q4 -11 -4 -27q-27 -3 -123.5 -2.5t-155.5 6.5l-2 12l6 15q-83 181 -127 266q-6 12 -12.5 15t-22.5 1l-342 -30q-32 -3 -47 -13.5t-24 -35.5
l-105 -234q-10 -10 -22 -10q-15 4 -53 25.5t-56 35.5l-59 -33q-85 -24 -260 -24q-90 0 -258 6l-62 -18l-12 10q16 150 16 508q0 184 -6.5 258t-21.5 90q-20 19 -117 33zM1290 743l-162 -346q0 -7 9 -10q43 -10 145 -10q88 0 174 6l4 4zM1319 1374q75 0 127.5 -48t52.5 -120
q0 -71 -53 -119.5t-129 -48.5t-129 48.5t-53 119.5q0 72 53.5 120t130.5 48zM1315 1315q-44 0 -69 -31t-25 -78q0 -46 25.5 -77t70.5 -31q44 0 70 31t26 77q0 47 -26 78t-72 31z" />
    <glyph glyph-name="E_Atilde" unicode="E&#xc3;" horiz-adv-x="2510"
d="M59 1303l148 71q104 -16 362 -16h113q253 0 326 26l14 -8v-235l-4 -6l-17 -17h-6l-110 152q-18 22 -47 20l-424 -30v-482l14 -12q55 -6 209 -6q173 0 311 6q6 -3 6 -12q0 -11 -6 -17q-63 -42 -119 -65q-123 -21 -415 -35v-500q146 -28 366 -28q176 0 301 26
q155 233 318 551q199 385 243 539q14 51 19 106q16 20 45.5 49.5t46.5 40.5l10 -4q20 -140 291 -710q79 -165 129.5 -268.5t94.5 -182.5t69 -118t54 -64.5t48 -33t52 -13.5q4 -18 -2 -27q-37 -2 -154 -2t-191 4l-6 10l17 21q-81 190 -199 420q-13 23 -47 20l-463 -39
q-48 -3 -70.5 -17t-39.5 -50q-81 -157 -162 -363q-10 -13 -29 -16q-22 11 -61 40.5t-54 47.5l-102 -51q-102 -29 -350 -29q-110 0 -289 6l-80 -22l-12 10q13 117 17.5 240t4.5 487q0 308 -8.5 407.5t-30.5 122.5q-25 28 -135 35zM1681 1081l-239 -516q0 -11 10 -14
q70 -12 227 -12t232 10l4 6zM2048 1661l37 -21v-8l-49 -76q-61 -92 -138 -92q-45 0 -148 40.5t-146 41.5q-73 0 -138 -96l-36 23v8l47 65q74 103 147 103q45 0 147 -40.5t142 -41.5q45 0 73.5 21.5t61.5 72.5z" />
    <glyph glyph-name="E_Atilde.sc" unicode="&#xe02b;&#xe00d;" horiz-adv-x="1908"
d="M37 899l104 64q152 -13 291 -13h180q129 0 183 19l10 -6v-185l-2 -4l-19 -12h-6l-84 106q-11 15 -32 15l-310 -19v-315l6 -8q41 -4 179 -4q130 0 221 8q4 -8 4 -10q0 -3 -4 -15q-69 -48 -82 -55q-218 -24 -324 -27v-321q100 -23 303 -23q140 0 203 19q107 141 221 366
q145 281 176 377q16 37 21 76q42 42 90 65l14 -4q18 -86 217 -497q58 -119 89.5 -183t64 -123t47.5 -82t35.5 -43.5t33.5 -25.5t36 -10q2 -4 1.5 -12.5t-3.5 -14.5q-27 -3 -123.5 -2.5t-155.5 6.5l-4 12l8 15q-15 30 -40.5 85.5t-46.5 100t-40 80.5q-6 12 -12.5 15t-22.5 1
l-344 -30q-30 -3 -45 -14t-24 -35l-105 -234q-10 -10 -22 -10q-15 4 -53 25.5t-56 35.5l-59 -33q-83 -24 -258 -24q-92 0 -260 6l-62 -18l-12 10q16 150 16 508q0 184 -6.5 258t-21.5 90q-20 19 -117 33zM1290 743l-164 -346q0 -7 11 -10q40 -10 143 -10q88 0 176 6l4 4z
M1573 1309l39 -19v-8l-41 -70q-56 -96 -127 -96q-31 0 -106 39t-105 39q-74 0 -125 -90l-37 18v8l33 54q66 112 145 112q28 0 102 -38.5t103 -38.5q45 0 70.5 20.5t48.5 69.5z" />
    <glyph glyph-name="Eacute_A" unicode="&#xc9;A" horiz-adv-x="2510"
d="M59 1303l148 71q104 -16 362 -16h113q253 0 326 26l14 -8v-235l-4 -6l-17 -17h-6l-110 152q-18 22 -47 20l-424 -30v-482l14 -12q55 -6 209 -6q173 0 311 6q6 -3 6 -12q0 -11 -6 -17q-63 -42 -119 -65q-123 -21 -415 -35v-500q146 -28 366 -28q176 0 301 26
q155 233 318 551q199 385 243 539q14 51 19 106q16 20 45.5 49.5t46.5 40.5l10 -4q20 -140 291 -710q79 -165 129.5 -268.5t94.5 -182.5t69 -118t54 -64.5t48 -33t52 -13.5q4 -18 -2 -27q-37 -2 -154 -2t-191 4l-6 10l17 21q-81 190 -199 420q-13 23 -47 20l-463 -39
q-48 -3 -70.5 -17t-39.5 -50q-81 -157 -162 -363q-10 -13 -29 -16q-22 11 -61 40.5t-54 47.5l-102 -51q-102 -29 -350 -29q-110 0 -289 6l-80 -22l-12 10q13 117 17.5 240t4.5 487q0 308 -8.5 407.5t-30.5 122.5q-25 28 -135 35zM1681 1081l-239 -516q0 -11 10 -14
q70 -12 227 -12t232 10l4 6zM678 1739l8 4h145q7 -9 0 -19q-30 -34 -296 -278h-43v10q30 41 97 142t89 141z" />
    <glyph glyph-name="Eacute_A.sc" unicode="&#xe040;&#xe000;" horiz-adv-x="1908"
d="M37 899l104 64q152 -13 291 -13h180q129 0 183 19l10 -6v-185l-2 -4l-19 -12h-6l-84 106q-11 15 -32 15l-310 -19v-315l6 -8q41 -4 179 -4q130 0 221 8q4 -8 4 -10q0 -3 -4 -15q-69 -48 -82 -55q-218 -24 -324 -27v-321q100 -23 303 -23q140 0 203 19q107 141 221 366
q145 281 176 377q16 37 21 76q42 42 90 65l14 -4q18 -86 217 -497q58 -119 89.5 -183t64 -123t47.5 -82t35.5 -43.5t33.5 -25.5t36 -10q2 -4 1.5 -12.5t-3.5 -14.5q-27 -3 -123.5 -2.5t-155.5 6.5l-4 12l8 15q-15 30 -40.5 85.5t-46.5 100t-40 80.5q-6 12 -12.5 15t-22.5 1
l-344 -30q-30 -3 -45 -14t-24 -35l-105 -234q-10 -10 -22 -10q-15 4 -53 25.5t-56 35.5l-59 -33q-83 -24 -258 -24q-92 0 -260 6l-62 -18l-12 10q16 150 16 508q0 184 -6.5 258t-21.5 90q-20 19 -117 33zM1290 743l-164 -346q0 -7 11 -10q40 -10 143 -10q88 0 176 6l4 4z
M524 1343l8 5h138q6 -10 0 -19q-29 -40 -129 -149.5t-133 -141.5h-43v9q18 28 74 133t85 163z" />
    <glyph glyph-name="Eacute_Acircumflex" unicode="&#xc9;&#xc2;" horiz-adv-x="2510"
d="M59 1303l148 71q104 -16 362 -16h113q253 0 326 26l14 -8v-235l-4 -6l-17 -17h-6l-110 152q-18 22 -47 20l-424 -30v-482l14 -12q55 -6 209 -6q173 0 311 6q6 -3 6 -12q0 -11 -6 -17q-63 -42 -119 -65q-123 -21 -415 -35v-500q146 -28 366 -28q176 0 301 26
q155 233 318 551q199 385 243 539q14 51 19 106q16 20 45.5 49.5t46.5 40.5l10 -4q20 -140 291 -710q79 -165 129.5 -268.5t94.5 -182.5t69 -118t54 -64.5t48 -33t52 -13.5q4 -18 -2 -27q-37 -2 -154 -2t-191 4l-6 10l17 21q-81 190 -199 420q-13 23 -47 20l-463 -39
q-48 -3 -70.5 -17t-39.5 -50q-81 -157 -162 -363q-10 -13 -29 -16q-22 11 -61 40.5t-54 47.5l-102 -51q-102 -29 -350 -29q-110 0 -289 6l-80 -22l-12 10q13 117 17.5 240t4.5 487q0 308 -8.5 407.5t-30.5 122.5q-25 28 -135 35zM1681 1081l-239 -516q0 -11 10 -14
q70 -12 227 -12t232 10l4 6zM678 1739l8 4h145q7 -9 0 -19q-30 -34 -296 -278h-43v10q30 41 97 142t89 141zM1513 1458h-49v10l236 256h39l235 -256v-10h-51l-205 131z" />
    <glyph glyph-name="Eacute_Acircumflex.sc" unicode="&#xe040;&#xe005;" horiz-adv-x="1908"
d="M37 899l104 64q152 -13 291 -13h180q129 0 183 19l10 -6v-185l-2 -4l-19 -12h-6l-84 106q-11 15 -32 15l-310 -19v-315l6 -8q41 -4 179 -4q130 0 221 8q4 -8 4 -10q0 -3 -4 -15q-69 -48 -82 -55q-218 -24 -324 -27v-321q100 -23 303 -23q140 0 203 19q107 141 221 366
q145 281 176 377q16 37 21 76q42 42 90 65l14 -4q18 -86 217 -497q58 -119 89.5 -183t64 -123t47.5 -82t35.5 -43.5t33.5 -25.5t36 -10q2 -4 1.5 -12.5t-3.5 -14.5q-27 -3 -123.5 -2.5t-155.5 6.5l-4 12l8 15q-15 30 -40.5 85.5t-46.5 100t-40 80.5q-6 12 -12.5 15t-22.5 1
l-344 -30q-30 -3 -45 -14t-24 -35l-105 -234q-10 -10 -22 -10q-15 4 -53 25.5t-56 35.5l-59 -33q-83 -24 -258 -24q-92 0 -260 6l-62 -18l-12 10q16 150 16 508q0 184 -6.5 258t-21.5 90q-20 19 -117 33zM1290 743l-164 -346q0 -7 11 -10q40 -10 143 -10q88 0 176 6l4 4z
M524 1343l8 5h138q6 -10 0 -19q-29 -40 -129 -149.5t-133 -141.5h-43v9q18 28 74 133t85 163zM1145 1038h-49v11l204 311h39l203 -311v-11h-49l-174 179z" />
    <glyph glyph-name="Edieresis_A" unicode="&#xcb;A" horiz-adv-x="2510"
d="M59 1303l148 71q104 -16 362 -16h113q253 0 326 26l14 -8v-235l-4 -6l-17 -17h-6l-110 152q-18 22 -47 20l-424 -30v-482l14 -12q55 -6 209 -6q173 0 311 6q6 -3 6 -12q0 -11 -6 -17q-63 -42 -119 -65q-123 -21 -415 -35v-500q146 -28 366 -28q176 0 301 26
q155 233 318 551q199 385 243 539q14 51 19 106q16 20 45.5 49.5t46.5 40.5l10 -4q20 -140 291 -710q79 -165 129.5 -268.5t94.5 -182.5t69 -118t54 -64.5t48 -33t52 -13.5q4 -18 -2 -27q-37 -2 -154 -2t-191 4l-6 10l17 21q-81 190 -199 420q-13 23 -47 20l-463 -39
q-48 -3 -70.5 -17t-39.5 -50q-81 -157 -162 -363q-10 -13 -29 -16q-22 11 -61 40.5t-54 47.5l-102 -51q-102 -29 -350 -29q-110 0 -289 6l-80 -22l-12 10q13 117 17.5 240t4.5 487q0 308 -8.5 407.5t-30.5 122.5q-25 28 -135 35zM1681 1081l-239 -516q0 -11 10 -14
q70 -12 227 -12t232 10l4 6zM532 1591v-14q-17 -42 -61 -96q-39 3 -82 26.5t-61 53.5q-2 1 -2 6t2 8q17 45 73 96q10 6 17 2q87 -47 114 -82zM915 1591v-14q-19 -47 -59 -96q-41 3 -82.5 26t-64.5 54q-1 1 -1 6t1 8q28 51 77 96q11 6 15 2q34 -17 69 -42t45 -40z" />
    <glyph glyph-name="Edieresis_A.sc" unicode="&#xe050;&#xe000;" horiz-adv-x="1908"
d="M37 899l104 64q152 -13 291 -13h180q129 0 183 19l10 -6v-185l-2 -4l-19 -12h-6l-84 106q-11 15 -32 15l-310 -19v-315l6 -8q41 -4 179 -4q130 0 221 8q4 -8 4 -10q0 -3 -4 -15q-69 -48 -82 -55q-218 -24 -324 -27v-321q100 -23 303 -23q140 0 203 19q107 141 221 366
q145 281 176 377q16 37 21 76q42 42 90 65l14 -4q18 -86 217 -497q58 -119 89.5 -183t64 -123t47.5 -82t35.5 -43.5t33.5 -25.5t36 -10q2 -4 1.5 -12.5t-3.5 -14.5q-27 -3 -123.5 -2.5t-155.5 6.5l-4 12l8 15q-15 30 -40.5 85.5t-46.5 100t-40 80.5q-6 12 -12.5 15t-22.5 1
l-344 -30q-30 -3 -45 -14t-24 -35l-105 -234q-10 -10 -22 -10q-15 4 -53 25.5t-56 35.5l-59 -33q-83 -24 -258 -24q-92 0 -260 6l-62 -18l-12 10q16 150 16 508q0 184 -6.5 258t-21.5 90q-20 19 -117 33zM1290 743l-164 -346q0 -7 11 -10q40 -10 143 -10q88 0 176 6l4 4z
M414 1196v-14q-17 -45 -58 -95q-37 5 -77 27.5t-66 50.5q-6 6 -2 15q11 21 37 51.5t41 42.5q6 10 14 2q21 -9 61 -38t50 -42zM754 1196v-14q-14 -39 -56 -95q-38 5 -77.5 27.5t-67.5 50.5q-6 6 -2 15q13 21 38.5 52t39.5 42q9 9 16 2q20 -9 60.5 -38.5t48.5 -41.5z" />
    <glyph glyph-name="Egrave_A" unicode="&#xc8;A" horiz-adv-x="2510"
d="M59 1303l148 71q104 -16 362 -16h113q253 0 326 26l14 -8v-235l-4 -6l-17 -17h-6l-110 152q-18 22 -47 20l-424 -30v-482l14 -12q55 -6 209 -6q173 0 311 6q6 -3 6 -12q0 -11 -6 -17q-63 -42 -119 -65q-123 -21 -415 -35v-500q146 -28 366 -28q176 0 301 26
q155 233 318 551q199 385 243 539q14 51 19 106q16 20 45.5 49.5t46.5 40.5l10 -4q20 -140 291 -710q79 -165 129.5 -268.5t94.5 -182.5t69 -118t54 -64.5t48 -33t52 -13.5q4 -18 -2 -27q-37 -2 -154 -2t-191 4l-6 10l17 21q-81 190 -199 420q-13 23 -47 20l-463 -39
q-48 -3 -70.5 -17t-39.5 -50q-81 -157 -162 -363q-10 -13 -29 -16q-22 11 -61 40.5t-54 47.5l-102 -51q-102 -29 -350 -29q-110 0 -289 6l-80 -22l-12 10q13 117 17.5 240t4.5 487q0 308 -8.5 407.5t-30.5 122.5q-25 28 -135 35zM1681 1081l-239 -516q0 -11 10 -14
q70 -12 227 -12t232 10l4 6zM573 1743l9 -4q22 -40 90 -143t96 -140v-10h-43q-244 218 -297 278q-6 10 0 19h145z" />
    <glyph glyph-name="Egrave_A.sc" unicode="&#xe058;&#xe000;" horiz-adv-x="1908"
d="M37 899l104 64q152 -13 291 -13h180q129 0 183 19l10 -6v-185l-2 -4l-19 -12h-6l-84 106q-11 15 -32 15l-310 -19v-315l6 -8q41 -4 179 -4q130 0 221 8q4 -8 4 -10q0 -3 -4 -15q-69 -48 -82 -55q-218 -24 -324 -27v-321q100 -23 303 -23q140 0 203 19q107 141 221 366
q145 281 176 377q16 37 21 76q42 42 90 65l14 -4q18 -86 217 -497q58 -119 89.5 -183t64 -123t47.5 -82t35.5 -43.5t33.5 -25.5t36 -10q2 -4 1.5 -12.5t-3.5 -14.5q-27 -3 -123.5 -2.5t-155.5 6.5l-4 12l8 15q-15 30 -40.5 85.5t-46.5 100t-40 80.5q-6 12 -12.5 15t-22.5 1
l-344 -30q-30 -3 -45 -14t-24 -35l-105 -234q-10 -10 -22 -10q-15 4 -53 25.5t-56 35.5l-59 -33q-83 -24 -258 -24q-92 0 -260 6l-62 -18l-12 10q16 150 16 508q0 184 -6.5 258t-21.5 90q-20 19 -117 33zM1290 743l-164 -346q0 -7 11 -10q40 -10 143 -10q88 0 176 6l4 4z
M438 1348l8 -5q23 -50 79.5 -156.5t76.5 -139.5v-9h-43q-30 28 -129 139t-129 152q-6 9 0 19h137z" />
    <glyph glyph-name="Epsilon_Alpha" unicode="&#x395;&#x391;" horiz-adv-x="2510"
d="M59 1303l148 71q104 -16 362 -16h113q253 0 326 26l14 -8v-235l-4 -6l-17 -17h-6l-110 152q-18 22 -47 20l-424 -30v-482l14 -12q55 -6 209 -6q173 0 311 6q6 -3 6 -12q0 -11 -6 -17q-63 -42 -119 -65q-123 -21 -415 -35v-500q146 -28 366 -28q176 0 301 26
q155 233 318 551q199 385 243 539q14 51 19 106q16 20 45.5 49.5t46.5 40.5l10 -4q20 -140 291 -710q79 -165 129.5 -268.5t94.5 -182.5t69 -118t54 -64.5t48 -33t52 -13.5q4 -18 -2 -27q-37 -2 -154 -2t-191 4l-6 10l17 21q-81 190 -199 420q-13 23 -47 20l-463 -39
q-48 -3 -70.5 -17t-39.5 -50q-81 -157 -162 -363q-10 -13 -29 -16q-22 11 -61 40.5t-54 47.5l-102 -51q-102 -29 -350 -29q-110 0 -289 6l-80 -22l-12 10q13 117 17.5 240t4.5 487q0 308 -8.5 407.5t-30.5 122.5q-25 28 -135 35zM1681 1081l-239 -516q0 -11 10 -14
q70 -12 227 -12t232 10l4 6z" />
    <glyph glyph-name="Epsilon_Alpha.sc" unicode="&#xe064;&#xe008;" horiz-adv-x="1908"
d="M37 899l104 64q152 -13 291 -13h180q129 0 183 19l10 -6v-185l-2 -4l-19 -12h-6l-84 106q-11 15 -32 15l-310 -19v-315l6 -8q41 -4 179 -4q130 0 221 8q4 -8 4 -10q0 -3 -4 -15q-69 -48 -82 -55q-218 -24 -324 -27v-321q100 -23 303 -23q140 0 203 19q107 141 221 366
q145 281 176 377q16 37 21 76q42 42 90 65l14 -4q18 -86 217 -497q58 -119 89.5 -183t64 -123t47.5 -82t35.5 -43.5t33.5 -25.5t36 -10q2 -4 1.5 -12.5t-3.5 -14.5q-27 -3 -123.5 -2.5t-155.5 6.5l-4 12l8 15q-15 30 -40.5 85.5t-46.5 100t-40 80.5q-6 12 -12.5 15t-22.5 1
l-344 -30q-30 -3 -45 -14t-24 -35l-105 -234q-10 -10 -22 -10q-15 4 -53 25.5t-56 35.5l-59 -33q-83 -24 -258 -24q-92 0 -260 6l-62 -18l-12 10q16 150 16 508q0 184 -6.5 258t-21.5 90q-20 19 -117 33zM1290 743l-164 -346q0 -7 11 -10q40 -10 143 -10q88 0 176 6l4 4z
" />
    <glyph glyph-name="Epsilontonos_Alpha" unicode="&#x388;&#x391;" horiz-adv-x="2705"
d="M1217 1374v-233l-5 -6l-16 -17h-6l-111 152q-16 22 -47 20l-424 -30v-482l15 -12q55 -6 208 -6q174 0 312 6q6 -3 6 -12q0 -11 -6 -17q-70 -45 -119 -65q-123 -20 -416 -35v-500q147 -28 367 -28q176 0 301 26q151 227 317 551q202 389 244 539q14 53 18 106q55 66 93 90
l10 -4q9 -66 69 -218t222 -492q79 -166 129.5 -268.5t94.5 -182.5t68.5 -118t53.5 -64t48 -33.5t52 -13.5q4 -18 -2 -27q-37 -2 -153.5 -2t-190.5 4l-6 10l16 21q-69 164 -198 420q-15 23 -47 20l-463 -39q-48 -3 -70.5 -17t-40.5 -50q-74 -145 -162 -363q-10 -13 -28 -16
q-23 11 -61.5 40.5t-53.5 47.5l-102 -51q-103 -29 -351 -29q-111 0 -288 6l-80 -22l-13 10q14 116 18.5 239t4.5 488q0 308 -8.5 407.5t-30.5 122.5q-26 28 -135 35l4 21l147 71q104 -16 363 -16h113q252 0 325 26zM2109 555l-233 526l-240 -516q0 -12 11 -14
q71 -12 227 -12t231 10zM27 1374l6 8l162 21q6 -2 9.5 -8t0.5 -13q-13 -45 -66.5 -164.5t-95.5 -197.5h-41v8q20 245 25 346z" />
    <glyph glyph-name="Epsilontonos_Alpha.sc" unicode="&#xe069;&#xe008;" horiz-adv-x="2091"
d="M989 961v-183l-2 -4l-18 -12h-6l-84 106q-12 15 -33 15l-309 -19v-315l6 -8q41 -4 178 -4q130 0 221 8q4 -8 4 -10q0 -3 -4 -15q-60 -43 -82 -55q-215 -24 -323 -27v-321q99 -23 303 -23q139 0 202 19q106 138 222 366q145 281 176 377q16 39 20 76q44 42 90 65l15 -4
q16 -86 217 -497q159 -325 202 -391q37 -55 75 -68q11 -4 28 -8q2 -4 1.5 -12.5t-3.5 -14.5q-27 -3 -123.5 -2.5t-155.5 6.5l-4 12l8 15q-15 30 -40.5 85.5t-46.5 100t-40 80.5q-6 12 -12.5 15t-21.5 1l-344 -30q-30 -3 -45.5 -14t-24.5 -35l-105 -234q-10 -10 -22 -10
q-15 4 -53 25.5t-56 35.5l-59 -33q-81 -24 -258 -24q-90 0 -260 6l-62 -18l-12 10q17 160 17 508q0 183 -6.5 257.5t-22.5 90.5q-21 19 -117 33l2 16l105 64q150 -13 290 -13h181q123 0 182 17zM1475 743l-164 -346q0 -7 10 -10q44 -10 143 -10q88 0 176 6l5 4zM25 958l6 9
l141 22q9 -9 6 -18q-17 -57 -60 -157.5t-75 -154.5h-43v9q8 62 25 290z" />
    <glyph glyph-name="K_A" unicode="KA" horiz-adv-x="2760"
d="M221 -25l-14 9q22 134 22 716q0 316 -6 428.5t-26 145.5q-19 31 -129 51l-2 12l12 19l371 20l6 -12l-21 -41q-20 -137 -20 -600q43 13 102 39.5t90 48.5q57 75 193 261t180 249l2 51q185 0 324 -18l2 -31q-62 -4 -109 -28t-127 -89q-51 -40 -182 -184t-201 -236v-8
q64 -76 173 -207t158 -188.5t115 -135t104 -120t65 -68.5q136 217 346 627q198 386 241 539q16 50 21 108q16 20 45 48.5t47 39.5l10 -4q20 -149 291 -710q78 -164 129 -268.5t94.5 -183t68.5 -117.5t54 -64.5t48 -33t52 -13.5q6 -18 -2 -27q-36 -2 -153.5 -2t-192.5 4
l-4 10l17 21q-71 166 -199 420q-16 23 -49 20l-461 -37q-48 -4 -70.5 -18t-40.5 -49q-79 -155 -163 -369q-8 -10 -17 -10q-57 5 -150.5 21.5t-144.5 31.5q-83 65 -259 250t-347 381h-100q-11 -289 12 -631l-12 -12l-62 -6zM1931 1081l-239 -516q0 -11 10 -14q71 -12 227 -12
q157 0 232 10l4 6z" />
    <glyph glyph-name="K_A.sc" unicode="&#xe0c2;&#xe000;" horiz-adv-x="2082"
d="M178 -18l-16 8q18 68 18 499q0 215 -6.5 293.5t-28.5 102.5q-13 18 -79 35l-3 12l11 14l303 17l4 -13l-14 -28q-15 -102 -15 -404q72 12 142 62q43 54 121 163t126 183l2 35q65 0 148 -7t110 -12v-31q-57 -5 -89 -19t-93 -65q-33 -26 -123 -119t-131 -143v-8
q139 -172 266 -321.5t164 -184.5q116 159 256 428q145 278 176 375q16 37 21 78q42 42 90 65l14 -4q16 -93 217 -497q58 -119 89 -183t63 -123t47 -82t36 -43.5t34 -25.5t37 -10q2 -4 1.5 -12.5t-3.5 -14.5q-27 -3 -124.5 -2.5t-156.5 6.5l-2 12l6 15q-96 210 -125 266
q-6 12 -12.5 15t-24.5 1l-342 -30q-30 -3 -45 -13.5t-26 -35.5l-103 -232q-8 -12 -24 -12q-147 5 -273 43q-128 104 -409 428h-60q-6 -170 8 -432l-8 -11l-51 -4zM1462 741l-164 -344q0 -8 11 -10q40 -10 143 -10q88 0 176 6l4 4z" />
    <glyph glyph-name="K_Aacute" unicode="K&#xc1;" horiz-adv-x="2760"
d="M221 -25l-14 9q22 134 22 716q0 316 -6 428.5t-26 145.5q-19 31 -129 51l-2 12l12 19l371 20l6 -12l-21 -41q-20 -137 -20 -600q43 13 102 39.5t90 48.5q57 75 193 261t180 249l2 51q185 0 324 -18l2 -31q-62 -4 -109 -28t-127 -89q-51 -40 -182 -184t-201 -236v-8
q64 -76 173 -207t158 -188.5t115 -135t104 -120t65 -68.5q136 217 346 627q198 386 241 539q16 50 21 108q16 20 45 48.5t47 39.5l10 -4q20 -149 291 -710q78 -164 129 -268.5t94.5 -183t68.5 -117.5t54 -64.5t48 -33t52 -13.5q6 -18 -2 -27q-36 -2 -153.5 -2t-192.5 4
l-4 10l17 21q-71 166 -199 420q-16 23 -49 20l-461 -37q-48 -4 -70.5 -18t-40.5 -49q-79 -155 -163 -369q-8 -10 -17 -10q-57 5 -150.5 21.5t-144.5 31.5q-83 65 -259 250t-347 381h-100q-11 -289 12 -631l-12 -12l-62 -6zM1931 1081l-239 -516q0 -11 10 -14q71 -12 227 -12
q157 0 232 10l4 6zM2044 1739l8 4h146q7 -11 0 -19q-29 -32 -142 -137t-155 -141h-41v10q162 243 184 283z" />
    <glyph glyph-name="K_Aacute.sc" unicode="&#xe0c2;&#xe003;" horiz-adv-x="2082"
d="M178 -18l-16 8q18 68 18 499q0 215 -6.5 293.5t-28.5 102.5q-13 18 -79 35l-3 12l11 14l303 17l4 -13l-14 -28q-15 -102 -15 -404q72 12 142 62q43 54 121 163t126 183l2 35q65 0 148 -7t110 -12v-31q-57 -5 -89 -19t-93 -65q-33 -26 -123 -119t-131 -143v-8
q139 -172 266 -321.5t164 -184.5q116 159 256 428q145 278 176 375q16 37 21 78q42 42 90 65l14 -4q16 -93 217 -497q58 -119 89 -183t63 -123t47 -82t36 -43.5t34 -25.5t37 -10q2 -4 1.5 -12.5t-3.5 -14.5q-27 -3 -124.5 -2.5t-156.5 6.5l-2 12l6 15q-96 210 -125 266
q-6 12 -12.5 15t-24.5 1l-342 -30q-30 -3 -45 -13.5t-26 -35.5l-103 -232q-8 -12 -24 -12q-147 5 -273 43q-128 104 -409 428h-60q-6 -170 8 -432l-8 -11l-51 -4zM1462 741l-164 -344q0 -8 11 -10q40 -10 143 -10q88 0 176 6l4 4zM1554 1343l9 5h137q6 -10 0 -19
q-30 -41 -131.5 -152.5t-132.5 -138.5h-41v9q21 34 78 140.5t81 155.5z" />
    <glyph glyph-name="K_Acircumflex" unicode="K&#xc2;" horiz-adv-x="2760"
d="M221 -25l-14 9q22 134 22 716q0 316 -6 428.5t-26 145.5q-19 31 -129 51l-2 12l12 19l371 20l6 -12l-21 -41q-20 -137 -20 -600q43 13 102 39.5t90 48.5q57 75 193 261t180 249l2 51q185 0 324 -18l2 -31q-62 -4 -109 -28t-127 -89q-51 -40 -182 -184t-201 -236v-8
q64 -76 173 -207t158 -188.5t115 -135t104 -120t65 -68.5q136 217 346 627q198 386 241 539q16 50 21 108q16 20 45 48.5t47 39.5l10 -4q20 -149 291 -710q78 -164 129 -268.5t94.5 -183t68.5 -117.5t54 -64.5t48 -33t52 -13.5q6 -18 -2 -27q-36 -2 -153.5 -2t-192.5 4
l-4 10l17 21q-71 166 -199 420q-16 23 -49 20l-461 -37q-48 -4 -70.5 -18t-40.5 -49q-79 -155 -163 -369q-8 -10 -17 -10q-57 5 -150.5 21.5t-144.5 31.5q-83 65 -259 250t-347 381h-100q-11 -289 12 -631l-12 -12l-62 -6zM1931 1081l-239 -516q0 -11 10 -14q71 -12 227 -12
q157 0 232 10l4 6zM1763 1458h-49v10l234 256h41l233 -256v-10h-49l-205 131z" />
    <glyph glyph-name="K_Acircumflex.sc" unicode="&#xe0c2;&#xe005;" horiz-adv-x="2082"
d="M178 -18l-16 8q18 68 18 499q0 215 -6.5 293.5t-28.5 102.5q-13 18 -79 35l-3 12l11 14l303 17l4 -13l-14 -28q-15 -102 -15 -404q72 12 142 62q43 54 121 163t126 183l2 35q65 0 148 -7t110 -12v-31q-57 -5 -89 -19t-93 -65q-33 -26 -123 -119t-131 -143v-8
q139 -172 266 -321.5t164 -184.5q116 159 256 428q145 278 176 375q16 37 21 78q42 42 90 65l14 -4q16 -93 217 -497q58 -119 89 -183t63 -123t47 -82t36 -43.5t34 -25.5t37 -10q2 -4 1.5 -12.5t-3.5 -14.5q-27 -3 -124.5 -2.5t-156.5 6.5l-2 12l6 15q-96 210 -125 266
q-6 12 -12.5 15t-24.5 1l-342 -30q-30 -3 -45 -13.5t-26 -35.5l-103 -232q-8 -12 -24 -12q-147 5 -273 43q-128 104 -409 428h-60q-6 -170 8 -432l-8 -11l-51 -4zM1462 741l-164 -344q0 -8 11 -10q40 -10 143 -10q88 0 176 6l4 4zM1317 1038h-51v11l204 311h39l205 -311v-11
h-49l-174 179z" />
    <glyph glyph-name="K_Adieresis" unicode="K&#xc4;" horiz-adv-x="2760"
d="M221 -25l-14 9q22 134 22 716q0 316 -6 428.5t-26 145.5q-19 31 -129 51l-2 12l12 19l371 20l6 -12l-21 -41q-20 -137 -20 -600q43 13 102 39.5t90 48.5q57 75 193 261t180 249l2 51q185 0 324 -18l2 -31q-62 -4 -109 -28t-127 -89q-51 -40 -182 -184t-201 -236v-8
q64 -76 173 -207t158 -188.5t115 -135t104 -120t65 -68.5q136 217 346 627q198 386 241 539q16 50 21 108q16 20 45 48.5t47 39.5l10 -4q20 -149 291 -710q78 -164 129 -268.5t94.5 -183t68.5 -117.5t54 -64.5t48 -33t52 -13.5q6 -18 -2 -27q-36 -2 -153.5 -2t-192.5 4
l-4 10l17 21q-71 166 -199 420q-16 23 -49 20l-461 -37q-48 -4 -70.5 -18t-40.5 -49q-79 -155 -163 -369q-8 -10 -17 -10q-57 5 -150.5 21.5t-144.5 31.5q-83 65 -259 250t-347 381h-100q-11 -289 12 -631l-12 -12l-62 -6zM1931 1081l-239 -516q0 -11 10 -14q71 -12 227 -12
q157 0 232 10l4 6zM1882 1591v-14q-15 -33 -61 -96q-40 3 -83 26.5t-63 53.5q-1 1 -1 6t1 8q21 46 76 96q9 6 16 2q89 -48 115 -82zM2263 1591v-14q-16 -45 -57 -96q-41 3 -82.5 26t-65.5 54q-3 1 -3 6t3 8q24 47 78 96q8 5 14 2q35 -18 69.5 -42.5t43.5 -39.5z" />
    <glyph glyph-name="K_Adieresis.sc" unicode="&#xe0c2;&#xe006;" horiz-adv-x="2082"
d="M178 -18l-16 8q18 68 18 499q0 215 -6.5 293.5t-28.5 102.5q-13 18 -79 35l-3 12l11 14l303 17l4 -13l-14 -28q-15 -102 -15 -404q72 12 142 62q43 54 121 163t126 183l2 35q65 0 148 -7t110 -12v-31q-57 -5 -89 -19t-93 -65q-33 -26 -123 -119t-131 -143v-8
q139 -172 266 -321.5t164 -184.5q116 159 256 428q145 278 176 375q16 37 21 78q42 42 90 65l14 -4q16 -93 217 -497q58 -119 89 -183t63 -123t47 -82t36 -43.5t34 -25.5t37 -10q2 -4 1.5 -12.5t-3.5 -14.5q-27 -3 -124.5 -2.5t-156.5 6.5l-2 12l6 15q-96 210 -125 266
q-6 12 -12.5 15t-24.5 1l-342 -30q-30 -3 -45 -13.5t-26 -35.5l-103 -232q-8 -12 -24 -12q-147 5 -273 43q-128 104 -409 428h-60q-6 -170 8 -432l-8 -11l-51 -4zM1462 741l-164 -344q0 -8 11 -10q40 -10 143 -10q88 0 176 6l4 4zM1430 1196v-14q-14 -44 -56 -95
q-38 5 -77 27.5t-66 50.5q-6 6 -2 15q12 22 37.5 52.5t40.5 41.5q6 10 14 2q21 -9 60.5 -38.5t48.5 -41.5zM1772 1196v-14q-14 -39 -56 -95q-38 5 -77.5 27.5t-67.5 50.5q-6 6 -2 15q13 22 39.5 52.5t40.5 41.5q6 10 14 2q20 -9 60.5 -38.5t48.5 -41.5z" />
    <glyph glyph-name="K_Agrave" unicode="K&#xc0;" horiz-adv-x="2760"
d="M221 -25l-14 9q22 134 22 716q0 316 -6 428.5t-26 145.5q-19 31 -129 51l-2 12l12 19l371 20l6 -12l-21 -41q-20 -137 -20 -600q43 13 102 39.5t90 48.5q57 75 193 261t180 249l2 51q185 0 324 -18l2 -31q-62 -4 -109 -28t-127 -89q-51 -40 -182 -184t-201 -236v-8
q64 -76 173 -207t158 -188.5t115 -135t104 -120t65 -68.5q136 217 346 627q198 386 241 539q16 50 21 108q16 20 45 48.5t47 39.5l10 -4q20 -149 291 -710q78 -164 129 -268.5t94.5 -183t68.5 -117.5t54 -64.5t48 -33t52 -13.5q6 -18 -2 -27q-36 -2 -153.5 -2t-192.5 4
l-4 10l17 21q-71 166 -199 420q-16 23 -49 20l-461 -37q-48 -4 -70.5 -18t-40.5 -49q-79 -155 -163 -369q-8 -10 -17 -10q-57 5 -150.5 21.5t-144.5 31.5q-83 65 -259 250t-347 381h-100q-11 -289 12 -631l-12 -12l-62 -6zM1931 1081l-239 -516q0 -11 10 -14q71 -12 227 -12
q157 0 232 10l4 6zM1903 1743l8 -4q23 -41 91.5 -144.5t94.5 -138.5v-10h-43q-244 218 -297 278q-6 10 0 19h146z" />
    <glyph glyph-name="K_Agrave.sc" unicode="&#xe0c2;&#xe007;" horiz-adv-x="2082"
d="M178 -18l-16 8q18 68 18 499q0 215 -6.5 293.5t-28.5 102.5q-13 18 -79 35l-3 12l11 14l303 17l4 -13l-14 -28q-15 -102 -15 -404q72 12 142 62q43 54 121 163t126 183l2 35q65 0 148 -7t110 -12v-31q-57 -5 -89 -19t-93 -65q-33 -26 -123 -119t-131 -143v-8
q139 -172 266 -321.5t164 -184.5q116 159 256 428q145 278 176 375q16 37 21 78q42 42 90 65l14 -4q16 -93 217 -497q58 -119 89 -183t63 -123t47 -82t36 -43.5t34 -25.5t37 -10q2 -4 1.5 -12.5t-3.5 -14.5q-27 -3 -124.5 -2.5t-156.5 6.5l-2 12l6 15q-96 210 -125 266
q-6 12 -12.5 15t-24.5 1l-342 -30q-30 -3 -45 -13.5t-26 -35.5l-103 -232q-8 -12 -24 -12q-147 5 -273 43q-128 104 -409 428h-60q-6 -170 8 -432l-8 -11l-51 -4zM1462 741l-164 -344q0 -8 11 -10q40 -10 143 -10q88 0 176 6l4 4zM1452 1348l8 -5q32 -65 86 -167t72 -129v-9
h-43q-28 27 -128 138t-132 153q-5 7 2 19h135z" />
    <glyph glyph-name="K_Amacron" unicode="K&#x100;" horiz-adv-x="2760"
d="M221 -25l-14 9q22 134 22 716q0 316 -6 428.5t-26 145.5q-19 31 -129 51l-2 12l12 19l371 20l6 -12l-21 -41q-20 -137 -20 -600q43 13 102 39.5t90 48.5q57 75 193 261t180 249l2 51q185 0 324 -18l2 -31q-62 -4 -109 -28t-127 -89q-51 -40 -182 -184t-201 -236v-8
q64 -76 173 -207t158 -188.5t115 -135t104 -120t65 -68.5q136 217 346 627q198 386 241 539q16 50 21 108q16 20 45 48.5t47 39.5l10 -4q20 -149 291 -710q78 -164 129 -268.5t94.5 -183t68.5 -117.5t54 -64.5t48 -33t52 -13.5q6 -18 -2 -27q-36 -2 -153.5 -2t-192.5 4
l-4 10l17 21q-71 166 -199 420q-16 23 -49 20l-461 -37q-48 -4 -70.5 -18t-40.5 -49q-79 -155 -163 -369q-8 -10 -17 -10q-57 5 -150.5 21.5t-144.5 31.5q-83 65 -259 250t-347 381h-100q-11 -289 12 -631l-12 -12l-62 -6zM1931 1081l-239 -516q0 -11 10 -14q71 -12 227 -12
q157 0 232 10l4 6zM1722 1597h476v-94h-476v94z" />
    <glyph glyph-name="K_Amacron.sc" unicode="&#xe0c2;&#xe00a;" horiz-adv-x="2082"
d="M178 -18l-16 8q18 68 18 499q0 215 -6.5 293.5t-28.5 102.5q-13 18 -79 35l-3 12l11 14l303 17l4 -13l-14 -28q-15 -102 -15 -404q72 12 142 62q43 54 121 163t126 183l2 35q65 0 148 -7t110 -12v-31q-57 -5 -89 -19t-93 -65q-33 -26 -123 -119t-131 -143v-8
q139 -172 266 -321.5t164 -184.5q116 159 256 428q145 278 176 375q16 37 21 78q42 42 90 65l14 -4q16 -93 217 -497q58 -119 89 -183t63 -123t47 -82t36 -43.5t34 -25.5t37 -10q2 -4 1.5 -12.5t-3.5 -14.5q-27 -3 -124.5 -2.5t-156.5 6.5l-2 12l6 15q-96 210 -125 266
q-6 12 -12.5 15t-24.5 1l-342 -30q-30 -3 -45 -13.5t-26 -35.5l-103 -232q-8 -12 -24 -12q-147 5 -273 43q-128 104 -409 428h-60q-6 -170 8 -432l-8 -11l-51 -4zM1462 741l-164 -344q0 -8 11 -10q40 -10 143 -10q88 0 176 6l4 4zM1251 1245h478v-94h-478v94z" />
    <glyph glyph-name="K_Aogonek" unicode="K&#x104;" horiz-adv-x="2760"
d="M514 674h-100q-11 -289 12 -631l-12 -12l-62 -6l-131 -50l-14 9q22 134 22 716q0 316 -6 428.5t-26 145.5q-19 31 -129 51l-2 12l12 19l371 20l6 -12l-21 -41q-20 -137 -20 -600q43 13 102 39.5t90 48.5q57 75 193 261t180 249l2 51q185 0 324 -18l2 -31q-62 -4 -109 -28
t-127 -89q-51 -40 -182 -184t-201 -236v-8q47 -56 127.5 -152t119 -142t98 -116.5t91.5 -107.5t70.5 -81t63.5 -71.5t45 -46.5q131 209 346 623q198 389 241 541q16 50 21 108q16 20 45 48.5t47 39.5l10 -4q20 -149 291 -710q78 -164 129 -268t94.5 -182t68.5 -117t54 -64.5
t48 -33t52 -13.5q5 -16 -2 -27q-10 -2 -82 -2q-149 -134 -149 -231q0 -47 29 -74t67 -27q68 0 119 49h12l-6 -45l-63 -75q-43 -31 -119 -31q-82 0 -125 45.5t-43 109.5q0 113 205 279q-83 0 -191 4l-4 10l17 23q-78 179 -199 416q-16 23 -49 20l-461 -39q-48 -3 -70.5 -16.5
t-40.5 -48.5q-79 -155 -163 -369q-8 -10 -17 -10q-57 5 -150.5 21.5t-144.5 31.5q-83 65 -259 250t-347 381zM2165 555l-234 526l-239 -516q0 -11 10 -14q71 -12 227 -12q157 0 232 10z" />
    <glyph glyph-name="K_Aogonek.sc" unicode="&#xe0c2;&#xe00b;" horiz-adv-x="2082"
d="M2075 -303l-66 -70q-34 -28 -113 -28q-78 0 -119.5 42.5t-41.5 106.5q0 123 215 252q-97 0 -158 6l-2 12l6 15q-96 210 -125 266q-6 12 -12.5 15t-22.5 1l-344 -30q-30 -3 -45 -13.5t-26 -35.5l-103 -232q-8 -12 -24 -12q-147 5 -273 43q-128 104 -409 428h-60
q-6 -170 8 -432l-8 -11l-51 -4l-123 -34l-16 8q18 68 18 499q0 215 -7 294t-28 102q-13 18 -79 35l-3 12l11 14l303 17l4 -13l-14 -28q-15 -102 -15 -404q34 6 75 24t67 38q43 54 121 163t126 183l2 35q65 0 148 -7t110 -12v-31q-57 -5 -89 -19t-93 -65q-33 -26 -123 -119
t-131 -143v-8q137 -169 264.5 -319.5t165.5 -188.5q120 169 256 430q145 278 176 375q16 37 21 78q42 42 90 65l14 -4q19 -93 217 -497q58 -119 90 -184t64 -123.5t47 -82t36 -43t34 -24.5t37 -10q4 -17 -4 -27q-11 -2 -52 -2q-168 -118 -168 -211q0 -45 30 -70.5t65 -25.5
q72 0 120 49h13zM1462 741l-164 -344q0 -6 11 -10q40 -10 143 -10q88 0 176 6l4 4z" />
    <glyph glyph-name="K_Aring" unicode="K&#xc5;" horiz-adv-x="2760"
d="M221 -25l-14 9q22 134 22 716q0 316 -6 428.5t-26 145.5q-19 31 -129 51l-2 12l12 19l371 20l6 -12l-21 -41q-20 -137 -20 -600q44 13 103.5 39.5t88.5 48.5q55 70 189 253.5t184 256.5l2 51q84 0 187 -6.5t139 -11.5v-31q-62 -4 -109 -28t-127 -89q-51 -40 -182 -184
t-201 -236v-8q43 -51 127 -151.5t120 -143.5t98 -116t92.5 -108.5t70 -81t64.5 -72.5t45 -46q163 269 346 627q198 386 241 539q15 52 19 108q16 20 45 48.5t47 39.5l10 -4q20 -149 291 -710q78 -164 129 -268.5t94.5 -183t68.5 -117.5t54 -64.5t48 -33t52 -13.5
q6 -18 -2 -27q-38 -2 -154.5 -2t-191.5 4l-4 10l15 21q-90 210 -199 420q-13 23 -47 20l-459 -37q-49 -4 -71.5 -18t-41.5 -49q-94 -193 -163 -369q-3 -10 -15 -10q-58 5 -152 21.5t-145 31.5q-83 65 -259 250t-347 381h-100q-11 -289 12 -631l-12 -12l-62 -6zM1931 1081
l-239 -516q0 -11 10 -14q71 -12 227 -12q154 0 232 10l4 6zM1954 1790q74 0 127 -48.5t53 -119.5t-53 -119.5t-129 -48.5q-75 0 -127.5 48.5t-52.5 119.5q0 72 53 120t129 48zM1952 1731q-43 0 -68.5 -31.5t-25.5 -77.5t25.5 -77.5t68.5 -31.5q44 0 70 31.5t26 77.5
t-26 77.5t-70 31.5z" />
    <glyph glyph-name="K_Aring.sc" unicode="&#xe0c2;&#xe00c;" horiz-adv-x="2082"
d="M178 -18l-16 8q18 68 18 499q0 215 -6.5 293.5t-28.5 102.5q-13 18 -79 35l-3 12l11 14l303 17l4 -13l-14 -28q-15 -102 -15 -404q34 6 75 24t67 38q100 124 249 346v35q65 0 149 -7t109 -12l3 -31q-59 -5 -91 -19t-92 -65q-34 -25 -124 -118t-132 -144v-8
q139 -172 266 -321.5t164 -184.5q113 149 258 428q143 280 174 375q15 29 21 78q43 43 92 65l12 -4q19 -93 217 -497q58 -120 89.5 -183.5t64 -123t47.5 -82t36 -43t34 -25.5t37 -10q4 -11 -4 -27q-27 -3 -123.5 -2.5t-155.5 6.5l-2 12l6 15q-83 181 -127 266
q-6 12 -12.5 15t-22.5 1l-342 -30q-32 -3 -47 -13.5t-24 -35.5l-103 -232q-12 -12 -24 -12q-54 2 -136 14t-139 29q-128 104 -409 428h-60q-6 -170 8 -432l-8 -11l-51 -4zM1462 741l-162 -344q0 -7 9 -10q43 -10 145 -10q88 0 174 6l4 4zM1491 1374q75 0 127.5 -48
t52.5 -120q0 -71 -53 -119.5t-129 -48.5t-129 48.5t-53 119.5q0 72 53.5 120t130.5 48zM1487 1315q-44 0 -69 -31t-25 -78q0 -46 25.5 -77t70.5 -31q44 0 70 31t26 77q0 47 -26 78t-72 31z" />
    <glyph glyph-name="K_S" unicode="KS" horiz-adv-x="2363"
d="M221 -25l-14 9q22 134 22 716q0 316 -6 428.5t-26 145.5q-19 31 -129 51l-2 12l12 19l371 20l6 -12l-21 -41q-20 -137 -20 -600q43 13 102 39.5t90 48.5q57 75 193 261t180 249l2 51q185 0 324 -18l2 -31q-62 -4 -109 -28t-127 -89q-50 -40 -181.5 -183t-201.5 -235v-10
q276 -315 410.5 -464t198 -209t104.5 -80l35 182h28q4 -31 11 -49q88 -92 297 -92q136 0 225.5 68t89.5 204q0 54 -13 92t-48 75t-98.5 68t-162.5 62q-181 58 -257 142t-76 224q0 64 32.5 131t92.5 126t159 97t217 38q156 0 289 -47v-11l-37 -98l-12 -61h-25
q-40 135 -268 135q-136 0 -208.5 -59.5t-72.5 -164.5q0 -116 68.5 -177t233.5 -111q114 -35 186.5 -71.5t115 -81.5t58.5 -96t16 -122q0 -134 -84 -240.5t-213 -161.5t-272 -55q-375 0 -578 60q-83 65 -266 258.5t-350 386.5h-100q-11 -292 12 -633l-12 -12l-62 -6z" />
    <glyph glyph-name="K_S.sc" unicode="&#xe0c2;&#xe17e;" horiz-adv-x="1816"
d="M178 -18l-16 8q18 68 18 499q0 215 -6.5 293.5t-28.5 102.5q-13 18 -79 35l-3 12l11 14l303 17l4 -13l-14 -28q-15 -102 -15 -404q72 12 142 62q43 54 121 163t126 183l2 35q65 0 148 -7t110 -12v-31q-57 -5 -89 -19t-93 -65q-33 -26 -123 -119t-131 -143v-8
q173 -207 280.5 -324t152 -153.5t79.5 -50.5l19 147h34q0 -18 7 -43q26 -31 81.5 -53.5t131.5 -22.5q100 0 155.5 52.5t55.5 117.5q0 75 -45 116t-189 87q-117 37 -175 92.5t-58 157.5q0 120 100 207.5t272 87.5q128 0 226 -39v-14l-33 -80l-6 -47h-31q-9 47 -62.5 78.5
t-136.5 31.5q-86 0 -134 -41.5t-48 -103.5q0 -47 17.5 -76.5t69 -56.5t151.5 -56q80 -22 131.5 -48.5t77 -59.5t34.5 -66t9 -80q0 -127 -122 -232t-288 -105q-331 0 -500 53q-116 92 -409 430h-60q-6 -170 8 -432l-8 -11l-51 -4z" />
    <glyph glyph-name="K_Scaron" unicode="K&#x160;" horiz-adv-x="2363"
d="M221 -25l-14 9q22 134 22 716q0 316 -6 428.5t-26 145.5q-19 31 -129 51l-2 12l12 19l371 20l6 -12l-21 -41q-20 -137 -20 -600q43 13 102 39.5t90 48.5q57 75 193 261t180 249l2 51q185 0 324 -18l2 -31q-62 -4 -109 -28t-127 -89q-50 -40 -181.5 -183t-201.5 -235v-10
q276 -315 410.5 -464t198 -209t104.5 -80l35 182h28q4 -31 11 -49q88 -92 297 -92q136 0 225.5 68t89.5 204q0 54 -13 92t-48 75t-98.5 68t-162.5 62q-181 58 -257 142t-76 224q0 64 32.5 131t92.5 126t159 97t217 38q156 0 289 -47v-11l-37 -98l-12 -61h-25
q-40 135 -268 135q-136 0 -208.5 -59.5t-72.5 -164.5q0 -116 68.5 -177t233.5 -111q114 -35 186.5 -71.5t115 -81.5t58.5 -96t16 -122q0 -134 -84 -240.5t-213 -161.5t-272 -55q-375 0 -578 60q-83 65 -266 258.5t-350 386.5h-100q-11 -292 12 -633l-12 -12l-62 -6z
M1667 1724l205 -131l205 131h49v-10l-234 -256h-41l-233 256v10h49z" />
    <glyph glyph-name="K_Scaron.sc" unicode="&#xe0c2;&#xe186;" horiz-adv-x="1816"
d="M178 -18l-16 8q18 68 18 499q0 215 -6.5 293.5t-28.5 102.5q-13 18 -79 35l-3 12l11 14l303 17l4 -13l-14 -28q-15 -102 -15 -404q72 12 142 62q43 54 121 163t126 183l2 35q65 0 148 -7t110 -12v-31q-57 -5 -89 -19t-93 -65q-33 -26 -123 -119t-131 -143v-8
q173 -207 280.5 -324t152 -153.5t79.5 -50.5l19 147h34q0 -18 7 -43q26 -31 81.5 -53.5t131.5 -22.5q100 0 155.5 52.5t55.5 117.5q0 75 -45 116t-189 87q-117 37 -175 92.5t-58 157.5q0 120 100 207.5t272 87.5q128 0 226 -39v-14l-33 -80l-6 -47h-31q-9 47 -62.5 78.5
t-136.5 31.5q-86 0 -134 -41.5t-48 -103.5q0 -47 17.5 -76.5t69 -56.5t151.5 -56q80 -22 131.5 -48.5t77 -59.5t34.5 -66t9 -80q0 -127 -122 -232t-288 -105q-331 0 -500 53q-116 92 -409 430h-60q-6 -170 8 -432l-8 -11l-51 -4zM1241 1360l174 -178l174 178h49v-10
l-204 -312h-39l-205 312v10h51z" />
    <glyph glyph-name="Kappa_Alpha" unicode="&#x39a;&#x391;" horiz-adv-x="2760"
d="M221 -25l-14 9q22 134 22 716q0 316 -6 428.5t-26 145.5q-19 31 -129 51l-2 12l12 19l371 20l6 -12l-21 -41q-20 -137 -20 -600q43 13 102 39.5t90 48.5q57 75 193 261t180 249l2 51q185 0 324 -18l2 -31q-62 -4 -109 -28t-127 -89q-51 -40 -182 -184t-201 -236v-8
q64 -76 173 -207t158 -188.5t115 -135t104 -120t65 -68.5q136 217 346 627q198 386 241 539q16 50 21 108q16 20 45 48.5t47 39.5l10 -4q20 -149 291 -710q78 -164 129 -268.5t94.5 -183t68.5 -117.5t54 -64.5t48 -33t52 -13.5q6 -18 -2 -27q-36 -2 -153.5 -2t-192.5 4
l-4 10l17 21q-71 166 -199 420q-16 23 -49 20l-461 -37q-48 -4 -70.5 -18t-40.5 -49q-79 -155 -163 -369q-8 -10 -17 -10q-57 5 -150.5 21.5t-144.5 31.5q-83 65 -259 250t-347 381h-100q-11 -289 12 -631l-12 -12l-62 -6zM1931 1081l-239 -516q0 -11 10 -14q71 -12 227 -12
q157 0 232 10l4 6z" />
    <glyph glyph-name="Kappa_Alpha.sc" unicode="&#xe0db;&#xe008;" horiz-adv-x="2082"
d="M178 -18l-16 8q18 68 18 499q0 215 -6.5 293.5t-28.5 102.5q-13 18 -79 35l-3 12l11 14l303 17l4 -13l-14 -28q-15 -102 -15 -404q72 12 142 62q43 54 121 163t126 183l2 35q65 0 148 -7t110 -12v-31q-57 -5 -89 -19t-93 -65q-33 -26 -123 -119t-131 -143v-8
q139 -172 266 -321.5t164 -184.5q116 159 256 428q145 278 176 375q16 37 21 78q42 42 90 65l14 -4q16 -93 217 -497q58 -119 89 -183t63 -123t47 -82t36 -43.5t34 -25.5t37 -10q2 -4 1.5 -12.5t-3.5 -14.5q-27 -3 -124.5 -2.5t-156.5 6.5l-2 12l6 15q-96 210 -125 266
q-6 12 -12.5 15t-24.5 1l-342 -30q-30 -3 -45 -13.5t-26 -35.5l-103 -232q-8 -12 -24 -12q-147 5 -273 43q-128 104 -409 428h-60q-6 -170 8 -432l-8 -11l-51 -4zM1462 741l-164 -344q0 -8 11 -10q40 -10 143 -10q88 0 176 6l4 4z" />
    <glyph glyph-name="Kcommaaccent_A" unicode="&#x136;A" horiz-adv-x="2760"
d="M221 -25l-14 9q22 134 22 716q0 316 -6 428.5t-26 145.5q-19 31 -129 51l-2 12l12 19l371 20l6 -12l-21 -41q-20 -137 -20 -600q43 13 102 39.5t90 48.5q57 75 193 261t180 249l2 51q185 0 324 -18l2 -31q-62 -4 -109 -28t-127 -89q-51 -40 -182 -184t-201 -236v-8
q64 -76 173 -207t158 -188.5t115 -135t104 -120t65 -68.5q136 217 346 627q198 386 241 539q16 50 21 108q16 20 45 48.5t47 39.5l10 -4q20 -149 291 -710q78 -164 129 -268.5t94.5 -183t68.5 -117.5t54 -64.5t48 -33t52 -13.5q6 -18 -2 -27q-36 -2 -153.5 -2t-192.5 4
l-4 10l17 21q-71 166 -199 420q-16 23 -49 20l-461 -37q-48 -4 -70.5 -18t-40.5 -49q-79 -155 -163 -369q-8 -10 -17 -10q-57 5 -150.5 21.5t-144.5 31.5q-83 65 -259 250t-347 381h-100q-11 -289 12 -631l-12 -12l-62 -6zM1931 1081l-241 -516q0 -11 12 -14q71 -12 227 -12
q154 0 232 10l4 6zM831 -227q0 -60 -55.5 -166t-105.5 -158q-31 -4 -39 12q66 113 69 244q-14 26 -77 86q-9 7 0 23q11 19 36 47t46 41q9 5 20 2q43 -17 100 -74q6 -21 6 -57z" />
    <glyph glyph-name="Kcommaaccent_A.sc" unicode="&#xe0e0;&#xe000;" horiz-adv-x="2082"
d="M178 -18l-16 8q18 68 18 499q0 215 -6.5 293.5t-28.5 102.5q-13 18 -79 35l-3 12l11 14l303 17l4 -13l-14 -28q-15 -102 -15 -404q72 12 142 62q43 54 121 163t126 183l2 35q65 0 148 -7t110 -12v-31q-57 -5 -89 -19t-93 -65q-33 -26 -123 -119t-131 -143v-8
q139 -172 266 -321.5t164 -184.5q116 159 256 428q145 278 176 375q16 37 21 78q42 42 90 65l14 -4q16 -93 217 -497q58 -119 89 -183t63 -123t47 -82t36 -43.5t34 -25.5t37 -10q2 -4 1.5 -12.5t-3.5 -14.5q-27 -3 -124.5 -2.5t-156.5 6.5l-2 12l6 15q-96 210 -125 266
q-6 12 -12.5 15t-24.5 1l-342 -30q-30 -3 -45 -13.5t-26 -35.5l-103 -232q-8 -12 -24 -12q-147 5 -273 43q-128 104 -409 428h-60q-6 -170 8 -432l-8 -11l-51 -4zM1462 741l-164 -344q0 -6 11 -10q43 -10 145 -10q86 0 174 6l4 4zM674 -225q0 -60 -56 -166t-106 -158
q-30 -4 -41 12q29 48 50 114.5t22 129.5q-28 41 -78 86q-7 7 0 23q11 19 36 47t46 43q8 2 20 2q23 -10 53 -33.5t48 -42.5q6 -21 6 -57z" />
    <glyph glyph-name="Kcommaaccent_S" unicode="&#x136;S" horiz-adv-x="2363"
d="M221 -25l-14 9q22 134 22 716q0 316 -6 428.5t-26 145.5q-19 31 -129 51l-2 12l12 19l371 20l6 -12l-21 -41q-20 -137 -20 -600q43 13 102 39.5t90 48.5q57 75 193 261t180 249l2 51q185 0 324 -18l2 -31q-62 -4 -109 -28t-127 -89q-50 -40 -181.5 -183t-201.5 -235v-10
q276 -315 410.5 -464t198 -209t104.5 -80l35 182h28q4 -31 11 -49q88 -92 297 -92q136 0 225.5 68t89.5 204q0 54 -13 92t-48 75t-98.5 68t-162.5 62q-181 58 -257 142t-76 224q0 64 32.5 131t92.5 126t159 97t217 38q156 0 289 -47v-11l-37 -98l-12 -61h-25
q-40 135 -268 135q-136 0 -208.5 -59.5t-72.5 -164.5q0 -116 68.5 -177t233.5 -111q114 -35 186.5 -71.5t115 -81.5t58.5 -96t16 -122q0 -134 -84 -240.5t-213 -161.5t-272 -55q-375 0 -578 60q-83 65 -266 258.5t-350 386.5h-100q-11 -292 12 -633l-12 -12l-62 -6z
M831 -225q0 -60 -55.5 -165t-105.5 -159q-31 -4 -39 12q28 48 48 114.5t21 129.5q-17 30 -77 86q-9 7 0 23q11 19 36 47t46 43q8 2 20 2q23 -10 53 -33.5t47 -42.5q6 -21 6 -57z" />
    <glyph glyph-name="Kcommaaccent_S.sc" unicode="&#xe0e0;&#xe17e;" horiz-adv-x="1816"
d="M178 -18l-16 8q18 68 18 499q0 215 -6.5 293.5t-28.5 102.5q-13 18 -79 35l-3 12l11 14l303 17l4 -13l-14 -28q-15 -102 -15 -404q72 12 142 62q43 54 121 163t126 183l2 35q65 0 148 -7t110 -12v-31q-57 -5 -89 -19t-93 -65q-33 -26 -123 -119t-131 -143v-8
q173 -207 280.5 -324t152 -153.5t79.5 -50.5l19 147h34q0 -18 7 -43q26 -31 81.5 -53.5t131.5 -22.5q100 0 155.5 52.5t55.5 117.5q0 75 -45 116t-189 87q-117 37 -175 92.5t-58 157.5q0 120 100 207.5t272 87.5q128 0 226 -39v-14l-33 -80l-6 -47h-31q-9 47 -62.5 78.5
t-136.5 31.5q-86 0 -134 -41.5t-48 -103.5q0 -47 17.5 -76.5t69 -56.5t151.5 -56q80 -22 131.5 -48.5t77 -59.5t34.5 -66t9 -80q0 -127 -122 -232t-288 -105q-331 0 -500 53q-116 92 -409 430h-60q-6 -170 8 -432l-8 -11l-51 -4zM674 -223q0 -61 -56 -166t-106 -158
q-32 -5 -41 12q69 112 72 244q-25 36 -78 84q-6 9 0 23q11 19 36 47t46 43q8 2 20 2q23 -10 53 -33.5t48 -42.5q6 -21 6 -55z" />
    <glyph glyph-name="L_A" unicode="LA" horiz-adv-x="2371"
d="M190 6v17q14 19 23 47q16 122 16 647q0 290 -6.5 408t-25.5 147q-14 21 -43.5 31.5t-85.5 21.5l-2 14l14 19q61 -2 193 2t184 10l4 -10v-8l-33 -33q-16 -115 -16 -600q0 -442 8 -586q168 -29 344 -29q111 0 156 5q162 234 335 577q202 389 244 539q15 54 19 106
q15 21 44.5 49.5t47.5 40.5l10 -4q19 -147 291 -710q79 -165 129.5 -268.5t94.5 -182.5t69 -118t53.5 -64.5t47.5 -33t52 -13.5q4 -18 -2 -27q-37 -2 -154 -2t-192 4l-4 10l16 21q-69 164 -198 420q-13 23 -47 20l-463 -39q-48 -3 -70.5 -17t-40.5 -50q-58 -111 -141 -314
q-153 -57 -473 -57q-240 0 -398 10zM1538 1081l-240 -516q0 -12 11 -14q70 -12 227 -12q156 0 231 10l5 6z" />
    <glyph glyph-name="L_A.sc" unicode="&#xe0e7;&#xe000;" horiz-adv-x="1763"
d="M154 4v10q8 18 14 33q12 118 12 453q0 210 -5.5 287t-24.5 100q-19 20 -84 35v10l10 18q164 0 305 11l4 -9v-6l-16 -26q-17 -77 -17 -381q0 -294 4 -424q101 -21 242 -21q90 0 109 2q127 192 227 383q145 278 176 375q15 38 20 78q15 15 43 35.5t48 29.5l12 -4
q17 -88 217 -497q158 -324 202 -390q37 -55 76 -69q11 -4 29 -8q5 -15 -4 -27q-27 -3 -123 -2.5t-155 6.5l-2 12l6 15q-83 181 -127 266q-7 12 -13.5 15t-21.5 1l-342 -30q-31 -3 -45.5 -13.5t-26.5 -35.5l-92 -209q-107 -29 -322 -29q-237 0 -335 6zM1145 743l-164 -346
q0 -7 8 -10q44 -10 146 -10q87 0 174 6l4 4z" />
    <glyph glyph-name="L_Aacute" unicode="L&#xc1;" horiz-adv-x="2371"
d="M190 6v17q14 19 23 47q16 122 16 647q0 290 -6.5 408t-25.5 147q-14 21 -43.5 31.5t-85.5 21.5l-2 14l14 19q61 -2 193 2t184 10l4 -10v-8l-33 -33q-16 -115 -16 -600q0 -442 8 -586q168 -29 344 -29q111 0 156 5q162 234 335 577q202 389 244 539q15 54 19 106
q15 21 44.5 49.5t47.5 40.5l10 -4q19 -147 291 -710q79 -165 129.5 -268.5t94.5 -182.5t69 -118t53.5 -64.5t47.5 -33t52 -13.5q4 -18 -2 -27q-37 -2 -154 -2t-192 4l-4 10l16 21q-69 164 -198 420q-13 23 -47 20l-463 -39q-48 -3 -70.5 -17t-40.5 -50q-58 -111 -141 -314
q-153 -57 -473 -57q-240 0 -398 10zM1538 1081l-240 -516q0 -12 11 -14q70 -12 227 -12q156 0 231 10l5 6zM1651 1739l8 4h145q8 -8 2 -19q-30 -33 -146 -140t-153 -138h-41v10q143 206 185 283z" />
    <glyph glyph-name="L_Aacute.sc" unicode="&#xe0e7;&#xe003;" horiz-adv-x="1763"
d="M154 4v10q8 18 14 33q12 118 12 453q0 210 -5.5 287t-24.5 100q-19 20 -84 35v10l10 18q164 0 305 11l4 -9v-6l-16 -26q-17 -77 -17 -381q0 -294 4 -424q101 -21 242 -21q90 0 109 2q127 192 227 383q145 278 176 375q15 38 20 78q15 15 43 35.5t48 29.5l12 -4
q17 -88 217 -497q158 -324 202 -390q37 -55 76 -69q11 -4 29 -8q5 -15 -4 -27q-27 -3 -123 -2.5t-155 6.5l-2 12l6 15q-83 181 -127 266q-7 12 -13.5 15t-21.5 1l-342 -30q-31 -3 -45.5 -13.5t-26.5 -35.5l-92 -209q-107 -29 -322 -29q-237 0 -335 6zM1145 743l-164 -346
q0 -7 8 -10q44 -10 146 -10q87 0 174 6l4 4zM1235 1343l8 5h137q7 -12 2 -19q-33 -43 -134 -154t-130 -137h-43v9q20 30 77.5 136.5t82.5 159.5z" />
    <glyph glyph-name="L_Acircumflex" unicode="L&#xc2;" horiz-adv-x="2371"
d="M190 6v17q14 19 23 47q16 122 16 647q0 290 -6.5 408t-25.5 147q-14 21 -43.5 31.5t-85.5 21.5l-2 14l14 19q61 -2 193 2t184 10l4 -10v-8l-33 -33q-16 -115 -16 -600q0 -442 8 -586q168 -29 344 -29q111 0 156 5q162 234 335 577q202 389 244 539q15 54 19 106
q15 21 44.5 49.5t47.5 40.5l10 -4q19 -147 291 -710q79 -165 129.5 -268.5t94.5 -182.5t69 -118t53.5 -64.5t47.5 -33t52 -13.5q4 -18 -2 -27q-37 -2 -154 -2t-192 4l-4 10l16 21q-69 164 -198 420q-13 23 -47 20l-463 -39q-48 -3 -70.5 -17t-40.5 -50q-58 -111 -141 -314
q-153 -57 -473 -57q-240 0 -398 10zM1538 1081l-240 -516q0 -12 11 -14q70 -12 227 -12q156 0 231 10l5 6zM1370 1458h-49v10l235 256h39l234 -256v-10h-49l-205 131z" />
    <glyph glyph-name="L_Acircumflex.sc" unicode="&#xe0e7;&#xe005;" horiz-adv-x="1763"
d="M154 4v10q8 18 14 33q12 118 12 453q0 210 -5.5 287t-24.5 100q-19 20 -84 35v10l10 18q164 0 305 11l4 -9v-6l-16 -26q-17 -77 -17 -381q0 -294 4 -424q101 -21 242 -21q90 0 109 2q127 192 227 383q145 278 176 375q15 38 20 78q15 15 43 35.5t48 29.5l12 -4
q17 -88 217 -497q158 -324 202 -390q37 -55 76 -69q11 -4 29 -8q5 -15 -4 -27q-27 -3 -123 -2.5t-155 6.5l-2 12l6 15q-83 181 -127 266q-7 12 -13.5 15t-21.5 1l-342 -30q-31 -3 -45.5 -13.5t-26.5 -35.5l-92 -209q-107 -29 -322 -29q-237 0 -335 6zM1145 743l-164 -346
q0 -7 8 -10q44 -10 146 -10q87 0 174 6l4 4zM999 1038h-51v11l205 311h39l205 -311v-11h-51l-175 179z" />
    <glyph glyph-name="L_Adieresis" unicode="L&#xc4;" horiz-adv-x="2371"
d="M190 6v17q14 19 23 47q16 122 16 647q0 290 -6.5 408t-25.5 147q-14 21 -43.5 31.5t-85.5 21.5l-2 14l14 19q61 -2 193 2t184 10l4 -10v-8l-33 -33q-16 -115 -16 -600q0 -442 8 -586q168 -29 344 -29q111 0 156 5q162 234 335 577q202 389 244 539q15 54 19 106
q15 21 44.5 49.5t47.5 40.5l10 -4q19 -147 291 -710q79 -165 129.5 -268.5t94.5 -182.5t69 -118t53.5 -64.5t47.5 -33t52 -13.5q4 -18 -2 -27q-37 -2 -154 -2t-192 4l-4 10l16 21q-69 164 -198 420q-13 23 -47 20l-463 -39q-48 -3 -70.5 -17t-40.5 -50q-58 -111 -141 -314
q-153 -57 -473 -57q-240 0 -398 10zM1538 1081l-240 -516q0 -12 11 -14q70 -12 227 -12q156 0 231 10l5 6zM1489 1591v-14q-18 -39 -62 -96q-39 3 -82 26.5t-63 53.5q-2 1 -2 6t2 8q21 48 76 96q9 6 16 2q89 -48 115 -82zM1870 1591v-14q-16 -48 -58 -96q-41 3 -82 26
t-65 54q-1 1 -1 6t1 8q24 49 78 96q10 6 14 2q35 -18 69.5 -42.5t43.5 -39.5z" />
    <glyph glyph-name="L_Adieresis.sc" unicode="&#xe0e7;&#xe006;" horiz-adv-x="1763"
d="M154 4v10q8 18 14 33q12 118 12 453q0 210 -5.5 287t-24.5 100q-19 20 -84 35v10l10 18q164 0 305 11l4 -9v-6l-16 -26q-17 -77 -17 -381q0 -294 4 -424q101 -21 242 -21q90 0 109 2q127 192 227 383q145 278 176 375q15 38 20 78q15 15 43 35.5t48 29.5l12 -4
q17 -88 217 -497q158 -324 202 -390q37 -55 76 -69q11 -4 29 -8q5 -15 -4 -27q-27 -3 -123 -2.5t-155 6.5l-2 12l6 15q-83 181 -127 266q-7 12 -13.5 15t-21.5 1l-342 -30q-31 -3 -45.5 -13.5t-26.5 -35.5l-92 -209q-107 -29 -322 -29q-237 0 -335 6zM1145 743l-164 -346
q0 -7 8 -10q44 -10 146 -10q87 0 174 6l4 4zM1112 1194v-12q-8 -24 -55 -97q-74 10 -146 78q-6 6 -2 17q35 51 80 94q6 6 15 2q20 -9 60.5 -39.5t47.5 -42.5zM1454 1194v-12q-12 -34 -57 -97q-72 10 -144 78q-6 6 -2 17q12 19 37.5 49t40.5 45q6 6 17 2q20 -9 60.5 -39.5
t47.5 -42.5z" />
    <glyph glyph-name="L_Agrave" unicode="L&#xc0;" horiz-adv-x="2371"
d="M190 6v17q14 19 23 47q16 122 16 647q0 290 -6.5 408t-25.5 147q-14 21 -43.5 31.5t-85.5 21.5l-2 14l14 19q61 -2 193 2t184 10l4 -10v-8l-33 -33q-16 -115 -16 -600q0 -442 8 -586q168 -29 344 -29q111 0 156 5q162 234 335 577q202 389 244 539q15 54 19 106
q15 21 44.5 49.5t47.5 40.5l10 -4q19 -147 291 -710q79 -165 129.5 -268.5t94.5 -182.5t69 -118t53.5 -64.5t47.5 -33t52 -13.5q4 -18 -2 -27q-37 -2 -154 -2t-192 4l-4 10l16 21q-69 164 -198 420q-13 23 -47 20l-463 -39q-48 -3 -70.5 -17t-40.5 -50q-58 -111 -141 -314
q-153 -57 -473 -57q-240 0 -398 10zM1538 1081l-240 -516q0 -12 11 -14q70 -12 227 -12q156 0 231 10l5 6zM1509 1743l9 -4q22 -40 90 -143t96 -140v-10h-43q-244 218 -297 278q-6 10 0 19h145z" />
    <glyph glyph-name="L_Agrave.sc" unicode="&#xe0e7;&#xe007;" horiz-adv-x="1763"
d="M154 4v10q8 18 14 33q12 118 12 453q0 210 -5.5 287t-24.5 100q-19 20 -84 35v10l10 18q164 0 305 11l4 -9v-6l-16 -26q-17 -77 -17 -381q0 -294 4 -424q101 -21 242 -21q90 0 109 2q127 192 227 383q145 278 176 375q15 38 20 78q15 15 43 35.5t48 29.5l12 -4
q17 -88 217 -497q158 -324 202 -390q37 -55 76 -69q11 -4 29 -8q5 -15 -4 -27q-27 -3 -123 -2.5t-155 6.5l-2 12l6 15q-83 181 -127 266q-7 12 -13.5 15t-21.5 1l-342 -30q-31 -3 -45.5 -13.5t-26.5 -35.5l-92 -209q-107 -29 -322 -29q-237 0 -335 6zM1145 743l-164 -346
q0 -7 8 -10q44 -10 146 -10q87 0 174 6l4 4zM1135 1348l8 -5q23 -50 79.5 -157t75.5 -139v-9h-43q-31 30 -130 140.5t-128 150.5q-6 9 0 19h138z" />
    <glyph glyph-name="L_Amacron" unicode="L&#x100;" horiz-adv-x="2371"
d="M190 6v17q14 19 23 47q16 122 16 647q0 290 -6.5 408t-25.5 147q-14 21 -43.5 31.5t-85.5 21.5l-2 14l14 19q61 -2 193 2t184 10l4 -10v-8l-33 -33q-16 -115 -16 -600q0 -442 8 -586q168 -29 344 -29q111 0 156 5q162 234 335 577q202 389 244 539q15 54 19 106
q15 21 44.5 49.5t47.5 40.5l10 -4q19 -147 291 -710q79 -165 129.5 -268.5t94.5 -182.5t69 -118t53.5 -64.5t47.5 -33t52 -13.5q4 -18 -2 -27q-37 -2 -154 -2t-192 4l-4 10l16 21q-69 164 -198 420q-13 23 -47 20l-463 -39q-48 -3 -70.5 -17t-40.5 -50q-58 -111 -141 -314
q-153 -57 -473 -57q-240 0 -398 10zM1538 1081l-240 -516q0 -12 11 -14q70 -12 227 -12q156 0 231 10l5 6zM1329 1597h475v-94h-475v94z" />
    <glyph glyph-name="L_Amacron.sc" unicode="&#xe0e7;&#xe00a;" horiz-adv-x="1763"
d="M154 4v10q8 18 14 33q12 118 12 453q0 210 -5.5 287t-24.5 100q-19 20 -84 35v10l10 18q164 0 305 11l4 -9v-6l-16 -26q-17 -77 -17 -381q0 -294 4 -424q101 -21 242 -21q90 0 109 2q127 192 227 383q145 278 176 375q15 38 20 78q15 15 43 35.5t48 29.5l12 -4
q17 -88 217 -497q158 -324 202 -390q37 -55 76 -69q11 -4 29 -8q5 -15 -4 -27q-27 -3 -123 -2.5t-155 6.5l-2 12l6 15q-83 181 -127 266q-7 12 -13.5 15t-21.5 1l-342 -30q-31 -3 -45.5 -13.5t-26.5 -35.5l-92 -209q-107 -29 -322 -29q-237 0 -335 6zM1145 743l-164 -346
q0 -7 8 -10q44 -10 146 -10q87 0 174 6l4 4zM934 1245h477v-94h-477v94z" />
    <glyph glyph-name="L_Aogonek" unicode="L&#x104;" horiz-adv-x="2371"
d="M412 717q0 -440 8 -584q168 -29 344 -29q111 0 156 5q161 232 337 577q200 391 242 539q18 65 21 106q15 21 44.5 49.5t47.5 40.5l10 -4q19 -147 291 -710q78 -163 129 -267.5t94.5 -182.5t68.5 -117t53.5 -64.5t47 -33t51.5 -13.5q4 -16 -2 -27q-10 -2 -82 -2
q-147 -135 -147 -231q0 -47 29 -74t67 -27q66 0 117 49h12l-6 -45l-64 -75q-41 -31 -116 -31q-82 0 -125 45.5t-43 109.5q0 113 205 279q-85 0 -191 4l-4 10l16 23q-75 175 -200 416q-13 23 -47 20l-463 -39q-48 -3 -70.5 -17t-40.5 -50q-58 -111 -141 -314
q-153 -57 -473 -57q-240 0 -398 10v17q14 19 23 47q16 122 16 647q0 290 -6.5 407.5t-25.5 147.5q-14 21 -43.5 31.5t-85.5 21.5l-2 14l14 19q61 -2 193 2t184 10l4 -10v-8l-33 -33q-16 -115 -16 -602zM1772 555l-234 526l-240 -516q0 -12 11 -14q70 -12 227 -12
q156 0 231 10z" />
    <glyph glyph-name="L_Aogonek.sc" unicode="&#xe0e7;&#xe00b;" horiz-adv-x="1763"
d="M66 932l10 18q164 0 305 11l4 -9v-6l-16 -26q-17 -75 -17 -381q0 -294 4 -424q101 -21 242 -21q90 0 109 2q127 192 227 383q138 266 176 375q15 38 20 78q15 15 43 35.5t48 29.5l12 -4q17 -88 217 -497q158 -324 202 -390q37 -55 76 -69q11 -4 29 -8q5 -15 -4 -27
q-10 -2 -51 -2q-166 -118 -166 -211q0 -45 29.5 -70.5t64.5 -25.5q70 0 119 49h12l-6 -45l-63 -70q-38 -28 -113 -28q-79 0 -120.5 42.5t-41.5 106.5q0 62 57.5 127t157.5 125q-96 0 -157 6l-2 12l6 15q-96 210 -125 266q-9 19 -35 16l-344 -30q-30 -3 -45 -13.5t-27 -35.5
l-92 -209q-107 -29 -322 -29q-237 0 -335 6v10q8 18 14 33q12 118 12 453q0 211 -5.5 287.5t-24.5 99.5q-19 20 -84 35v10zM1145 741l-164 -344q0 -7 8 -10q44 -10 146 -10q87 0 174 6l4 4z" />
    <glyph glyph-name="L_Aring" unicode="L&#xc5;" horiz-adv-x="2371"
d="M190 6v17q14 19 23 47q16 122 16 647q0 290 -6.5 408t-25.5 147q-14 21 -43.5 31.5t-85.5 21.5l-2 14l14 19q61 -2 193 2t184 10l4 -10v-8l-33 -33q-16 -115 -16 -600q0 -442 8 -586q168 -29 344 -29q111 0 156 5q162 234 335 577q202 389 244 539q15 54 19 106
q15 21 44.5 49.5t47.5 40.5l10 -4q19 -147 291 -710q79 -165 129.5 -268.5t94.5 -182.5t69 -118t53.5 -64.5t47.5 -33t52 -13.5q4 -18 -2 -27q-37 -2 -154 -2t-192 4l-4 10l16 21q-69 164 -198 420q-13 23 -47 20l-463 -39q-48 -3 -70.5 -17t-40.5 -50q-58 -111 -141 -314
q-153 -57 -473 -57q-240 0 -398 10zM1538 1081l-240 -516q0 -12 11 -14q70 -12 229 -12q154 0 229 10l5 6zM1563 1790q74 0 127 -48.5t53 -119.5t-53 -119.5t-129 -48.5t-129.5 48.5t-53.5 119.5q0 72 53.5 120t131.5 48zM1559 1731q-44 0 -69.5 -31.5t-25.5 -77.5t26 -77.5
t71 -31.5q44 0 70 31.5t26 77.5t-26 77.5t-72 31.5z" />
    <glyph glyph-name="L_Aring.sc" unicode="&#xe0e7;&#xe00c;" horiz-adv-x="1763"
d="M154 4v10q8 18 14 33q12 118 12 453q0 210 -5.5 287t-24.5 100q-19 20 -84 35v10l10 18q164 0 305 11l4 -9v-6l-16 -26q-17 -77 -17 -381q0 -294 4 -424q101 -21 242 -21q90 0 109 2q127 192 227 383q145 278 176 375q15 38 20 78q15 15 43 35.5t48 29.5l12 -4
q17 -88 217 -497q158 -324 202 -390q37 -55 76 -69q11 -4 29 -8q5 -15 -4 -27q-27 -3 -123 -2.5t-155 6.5l-2 12l6 15q-83 181 -127 266q-7 12 -13.5 15t-21.5 1l-342 -30q-31 -3 -45.5 -13.5t-26.5 -35.5l-92 -209q-107 -29 -322 -29q-237 0 -335 6zM1145 743l-162 -346
q0 -7 8 -10q44 -10 144 -10q87 0 174 6l4 4zM1171 1374q75 0 128 -48t53 -120q0 -71 -53.5 -119.5t-129.5 -48.5q-74 0 -127 48.5t-53 119.5q0 72 53 120t129 48zM1169 1315q-43 0 -68.5 -31t-25.5 -78q0 -46 25.5 -77t68.5 -31q45 0 71 31t26 77q0 47 -26 78t-71 31z" />
    <glyph glyph-name="L_Atilde" unicode="L&#xc3;" horiz-adv-x="2371"
d="M190 6v17q14 19 23 47q16 122 16 647q0 290 -6.5 408t-25.5 147q-14 21 -43.5 31.5t-85.5 21.5l-2 14l14 19q61 -2 193 2t184 10l4 -10v-8l-33 -33q-16 -115 -16 -600q0 -442 8 -586q168 -29 344 -29q111 0 156 5q162 234 335 577q202 389 244 539q15 54 19 106
q15 21 44.5 49.5t47.5 40.5l10 -4q19 -147 291 -710q79 -165 129.5 -268.5t94.5 -182.5t69 -118t53.5 -64.5t47.5 -33t52 -13.5q4 -18 -2 -27q-37 -2 -154 -2t-192 4l-4 10l16 21q-69 164 -198 420q-13 23 -47 20l-463 -39q-48 -3 -70.5 -17t-40.5 -50q-58 -111 -141 -314
q-153 -57 -473 -57q-240 0 -398 10zM1538 1081l-240 -516q0 -12 11 -14q70 -12 227 -12q156 0 231 10l5 6zM1905 1661l37 -21v-8l-50 -76q-61 -92 -137 -92q-45 0 -148.5 40.5t-146.5 41.5q-72 0 -137 -96l-37 23v8l47 65q74 103 148 103q46 0 147.5 -40.5t140.5 -41.5
q46 0 74.5 21.5t61.5 72.5z" />
    <glyph glyph-name="L_Atilde.sc" unicode="&#xe0e7;&#xe00d;" horiz-adv-x="1763"
d="M154 4v10q8 18 14 33q12 118 12 453q0 210 -5.5 287t-24.5 100q-19 20 -84 35v10l10 18q164 0 305 11l4 -9v-6l-16 -26q-17 -77 -17 -381q0 -294 4 -424q101 -21 242 -21q90 0 109 2q127 192 227 383q145 278 176 375q15 38 20 78q15 15 43 35.5t48 29.5l12 -4
q17 -88 217 -497q158 -324 202 -390q37 -55 76 -69q11 -4 29 -8q5 -15 -4 -27q-27 -3 -123 -2.5t-155 6.5l-2 12l6 15q-83 181 -127 266q-7 12 -13.5 15t-21.5 1l-342 -30q-31 -3 -45.5 -13.5t-26.5 -35.5l-92 -209q-107 -29 -322 -29q-237 0 -335 6zM1145 743l-164 -346
q0 -7 8 -10q44 -10 146 -10q87 0 174 6l4 4zM1427 1309l37 -19v-8l-39 -70q-59 -96 -129 -96q-29 0 -103.5 39t-107.5 39q-75 0 -124 -90l-37 18v8l32 54q69 112 146 112q27 0 101.5 -38.5t105.5 -38.5q44 0 70 21t48 69z" />
    <glyph glyph-name="Lcaron_A" unicode="&#x13d;A" horiz-adv-x="2371"
d="M412 717q0 -440 8 -584q168 -29 344 -29q111 0 156 5q162 234 335 577q202 389 244 539q15 54 19 106q15 21 44.5 49.5t47.5 40.5l10 -4q19 -147 291 -710q79 -165 129.5 -268.5t94.5 -182.5t69 -118t53.5 -64.5t47.5 -33t52 -13.5q4 -18 -2 -27q-37 -2 -154 -2t-192 4
l-4 10l16 21q-69 164 -198 420q-13 23 -47 20l-463 -39q-48 -3 -70.5 -17t-40.5 -50q-58 -111 -141 -314q-153 -57 -473 -57q-240 0 -398 10v17q14 19 23 47q16 122 16 647q0 290 -6.5 407.5t-25.5 147.5q-14 21 -43.5 31.5t-85.5 21.5l-2 14l14 19q61 -2 193 2t184 10
l4 -10v-8l-33 -33q-16 -115 -16 -602zM1772 555l-232 526l-242 -516q0 -12 11 -14q70 -12 229 -12q154 0 229 10zM872 1266q0 -61 -55.5 -166t-105.5 -160q-31 -4 -39 12q66 117 69 244q-16 27 -77 86q-8 9 0 23q11 19 36 47t45 43q9 2 21 2q23 -10 53 -34t47 -42
q6 -21 6 -55z" />
    <glyph glyph-name="Lcaron_A.sc" unicode="&#xe100;&#xe000;" horiz-adv-x="1763"
d="M66 932l10 18q164 0 305 11l4 -9v-6l-16 -26q-17 -77 -17 -381q0 -294 4 -424q101 -21 242 -21q90 0 109 2q127 192 227 383q145 278 176 375q15 38 20 78q15 15 43 35.5t48 29.5l12 -4q17 -88 217 -497q158 -324 202 -390q37 -55 76 -69q11 -4 29 -8q5 -15 -4 -27
q-27 -3 -123 -2.5t-155 6.5l-2 12l6 15q-83 181 -127 266q-7 12 -13.5 15t-21.5 1l-342 -30q-31 -3 -45.5 -13.5t-26.5 -35.5l-92 -209q-107 -29 -322 -29q-237 0 -335 6v10q8 18 14 33q12 118 12 453q0 210 -5.5 287t-24.5 100q-19 20 -84 35v10zM1145 741l-164 -344
q0 -7 8 -10q44 -10 146 -10q87 0 174 6l4 4zM745 860q0 -54 -50.5 -150.5t-96.5 -148.5q-32 -4 -39 10q61 119 64 226q-4 9 -13 20.5t-16 19t-22 22t-19 18.5q-7 7 0 18q40 66 74 86q8 5 20 2q21 -9 50.5 -32t41.5 -40q6 -21 6 -51z" />
    <glyph glyph-name="Lcommaaccent_A" unicode="&#x13b;A" horiz-adv-x="2371"
d="M190 6v17q14 19 23 47q16 122 16 647q0 290 -6.5 408t-25.5 147q-14 21 -43.5 31.5t-85.5 21.5l-2 14l14 19q61 -2 193 2t184 10l4 -10v-8l-33 -33q-16 -115 -16 -600q0 -442 8 -586q168 -29 344 -29q111 0 156 5q162 234 335 577q202 389 244 539q15 54 19 106
q15 21 44.5 49.5t47.5 40.5l10 -4q19 -147 291 -710q79 -165 129.5 -268.5t94.5 -182.5t69 -118t53.5 -64.5t47.5 -33t52 -13.5q4 -18 -2 -27q-37 -2 -154 -2t-192 4l-4 10l16 21q-69 164 -198 420q-13 23 -47 20l-463 -39q-48 -3 -70.5 -17t-40.5 -50q-58 -111 -141 -314
q-153 -57 -473 -57q-240 0 -398 10zM1538 1081l-240 -516q0 -12 11 -14q70 -12 229 -12q154 0 229 10l5 6zM709 -227q0 -60 -56 -166t-106 -158q-31 -4 -39 12q28 48 48 114t22 130q-15 26 -78 86q-7 7 0 23q11 19 36 47t46 41q9 5 20 2q43 -17 100 -74q7 -20 7 -57z" />
    <glyph glyph-name="Lcommaaccent_A.sc" unicode="&#xe105;&#xe000;" horiz-adv-x="1763"
d="M154 4v10q8 18 14 33q12 118 12 453q0 210 -5.5 287t-24.5 100q-19 20 -84 35v10l10 18q164 0 305 11l4 -9v-6l-16 -26q-17 -77 -17 -381q0 -294 4 -424q101 -21 242 -21q90 0 109 2q127 192 227 383q145 278 176 375q15 38 20 78q15 15 43 35.5t48 29.5l12 -4
q17 -88 217 -497q158 -324 202 -390q37 -55 76 -69q11 -4 29 -8q5 -15 -4 -27q-27 -3 -123 -2.5t-155 6.5l-2 12l6 15q-83 181 -127 266q-7 12 -13.5 15t-21.5 1l-342 -30q-31 -3 -45.5 -13.5t-26.5 -35.5l-92 -209q-107 -29 -322 -29q-237 0 -335 6zM1145 743l-164 -346
q0 -7 8 -10q44 -10 146 -10q87 0 174 6l4 4zM573 -225q0 -60 -55.5 -166t-105.5 -158q-31 -4 -39 12q28 48 48 114.5t21 129.5q-17 30 -77 86q-9 7 0 23q11 19 36 47t45 43q9 2 21 2q23 -10 53 -33.5t47 -42.5q6 -21 6 -57z" />
    <glyph glyph-name="Lcommaaccent_Amacron" unicode="&#x13b;&#x100;" horiz-adv-x="2371"
d="M190 6v17q14 19 23 47q16 122 16 647q0 290 -6.5 408t-25.5 147q-14 21 -43.5 31.5t-85.5 21.5l-2 14l14 19q61 -2 193 2t184 10l4 -10v-8l-33 -33q-16 -115 -16 -600q0 -442 8 -586q168 -29 344 -29q111 0 156 5q162 234 335 577q202 389 244 539q15 54 19 106
q15 21 44.5 49.5t47.5 40.5l10 -4q19 -147 291 -710q79 -165 129.5 -268.5t94.5 -182.5t69 -118t53.5 -64.5t47.5 -33t52 -13.5q4 -18 -2 -27q-37 -2 -154 -2t-192 4l-4 10l16 21q-69 164 -198 420q-13 23 -47 20l-463 -39q-48 -3 -70.5 -17t-40.5 -50q-58 -111 -141 -314
q-153 -57 -473 -57q-240 0 -398 10zM1538 1081l-240 -516q0 -12 11 -14q70 -12 229 -12q154 0 229 10l5 6zM709 -227q0 -60 -56 -166t-106 -158q-31 -4 -39 12q28 48 48 114t22 130q-15 26 -78 86q-7 7 0 23q11 19 36 47t46 41q9 5 20 2q43 -17 100 -74q7 -20 7 -57z
M1329 1597h477v-94h-477v94z" />
    <glyph glyph-name="Lcommaaccent_Amacron.sc" unicode="&#xe105;&#xe00a;" horiz-adv-x="1763"
d="M154 4v10q8 18 14 33q12 118 12 453q0 210 -5.5 287t-24.5 100q-19 20 -84 35v10l10 18q164 0 305 11l4 -9v-6l-16 -26q-17 -77 -17 -381q0 -294 4 -424q101 -21 242 -21q90 0 109 2q127 192 227 383q145 278 176 375q15 38 20 78q15 15 43 35.5t48 29.5l12 -4
q17 -88 217 -497q158 -324 202 -390q37 -55 76 -69q11 -4 29 -8q5 -15 -4 -27q-27 -3 -123 -2.5t-155 6.5l-2 12l6 15q-83 181 -127 266q-7 12 -13.5 15t-21.5 1l-342 -30q-31 -3 -45.5 -13.5t-26.5 -35.5l-92 -209q-107 -29 -322 -29q-237 0 -335 6zM1145 743l-164 -346
q0 -7 8 -10q44 -10 146 -10q87 0 174 6l4 4zM573 -225q0 -60 -55.5 -166t-105.5 -158q-31 -4 -39 12q28 48 48 114.5t21 129.5q-17 30 -77 86q-9 7 0 23q11 19 36 47t45 43q9 2 21 2q23 -10 53 -33.5t47 -42.5q6 -21 6 -57zM934 1245h477v-94h-477v94z" />
    <glyph glyph-name="R_S" unicode="RS" horiz-adv-x="2330"
d="M47 1323l6 31q205 28 484 28q184 0 306 -28.5t190.5 -96t68.5 -176.5q0 -114 -80.5 -207.5t-210.5 -156.5v-10q119 -184 261.5 -374.5t205.5 -248.5q48 -46 90 -61l33 182h29q2 -15 12 -45q28 -38 105 -66t190 -28q65 0 120.5 16t99.5 47.5t69.5 85t25.5 123.5
q0 54 -13 92t-48 75t-98 68t-162 62q-182 58 -258 142t-76 224q0 64 32.5 131t92.5 126t159 97t217 38q156 0 289 -47v-11l-37 -98l-12 -61h-24q-41 135 -269 135q-136 0 -208 -59.5t-72 -166.5q0 -115 68 -176t233 -112q114 -35 187 -70.5t115 -80.5t58.5 -96t16.5 -122
q0 -102 -49 -189.5t-129.5 -145.5t-182.5 -91t-209 -33q-361 0 -573 64q-210 191 -490 622l-196 -22v-223q0 -227 14 -373l-8 -10l-55 -4l-148 -48l-12 13q24 161 24 768q0 286 -7.5 390.5t-28.5 127.5q-19 21 -50.5 30.5t-95.5 18.5zM414 1317v-578q0 -15 14 -18
q16 -4 94 -4q169 0 262 65q58 40 85.5 99t27.5 151q0 285 -483 285z" />
    <glyph glyph-name="R_S.sc" unicode="&#xe166;&#xe17e;" horiz-adv-x="1767"
d="M47 911l4 29q205 25 373 25q107 0 184 -9.5t139.5 -32t93.5 -64.5t31 -103q0 -148 -227 -252v-8q63 -102 153.5 -229.5t127.5 -164.5q20 -23 50 -46t48 -31l20 139h35q0 -21 6 -39q25 -29 81 -48.5t132 -19.5q100 0 155.5 52.5t55.5 117.5q0 75 -44.5 116t-188.5 87
q-118 37 -176 92.5t-58 157.5q0 119 100.5 207t272.5 88q130 0 225 -39v-14l-32 -82l-6 -45h-31q-9 47 -62.5 78.5t-136.5 31.5q-87 0 -134.5 -41.5t-47.5 -103.5q0 -69 46 -108t191 -81q81 -22 132 -48t76.5 -59.5t34.5 -66t9 -80.5q0 -129 -124 -233t-306 -104
q-283 0 -456 53q-64 49 -168 186.5t-160 235.5l-115 -11v-168q0 -169 10 -247l-4 -11l-55 -2l-127 -34l-10 8q16 136 16 536q0 202 -5 267.5t-21 83.5q-20 22 -107 34zM350 903v-375q0 -9 10 -12q21 -6 70 -6q120 0 188 51q72 52 72 152q0 99 -80 144.5t-260 45.5z" />
    <glyph glyph-name="R_Sacute" unicode="R&#x15a;" horiz-adv-x="2330"
d="M47 1323l6 31q205 28 484 28q184 0 306 -28.5t190.5 -96t68.5 -176.5q0 -114 -80.5 -207.5t-210.5 -156.5v-10q119 -184 261.5 -374.5t205.5 -248.5q48 -46 90 -61l33 182h29q2 -15 12 -45q28 -38 105 -66t190 -28q65 0 120.5 16t99.5 47.5t69.5 85t25.5 123.5
q0 54 -13 92t-48 75t-98 68t-162 62q-182 58 -258 142t-76 224q0 64 32.5 131t92.5 126t159 97t217 38q156 0 289 -47v-11l-37 -98l-12 -61h-24q-41 135 -269 135q-136 0 -208 -59.5t-72 -166.5q0 -115 68 -176t233 -112q114 -35 187 -70.5t115 -80.5t58.5 -96t16.5 -122
q0 -102 -49 -189.5t-129.5 -145.5t-182.5 -91t-209 -33q-361 0 -573 64q-210 191 -490 622l-196 -22v-223q0 -227 14 -373l-8 -10l-55 -4l-148 -48l-12 13q24 161 24 768q0 286 -7.5 390.5t-28.5 127.5q-19 21 -50.5 30.5t-95.5 18.5zM414 1317v-578q0 -15 14 -18
q16 -4 94 -4q169 0 262 65q58 40 85.5 99t27.5 151q0 285 -483 285zM1956 1767l8 5h145q8 -12 0 -19q-29 -33 -145.5 -141t-151.5 -137h-40v10q163 245 184 282z" />
    <glyph glyph-name="R_Sacute.sc" unicode="&#xe166;&#xe185;" horiz-adv-x="1767"
d="M47 911l4 29q205 25 373 25q107 0 184 -9.5t139.5 -32t93.5 -64.5t31 -103q0 -148 -227 -252v-8q63 -102 153.5 -229.5t127.5 -164.5q20 -23 50 -46t48 -31l20 139h35q0 -21 6 -39q25 -29 81 -48.5t132 -19.5q100 0 155.5 52.5t55.5 117.5q0 75 -44.5 116t-188.5 87
q-118 37 -176 92.5t-58 157.5q0 119 100.5 207t272.5 88q130 0 225 -39v-14l-32 -82l-6 -45h-31q-9 47 -62.5 78.5t-136.5 31.5q-87 0 -134.5 -41.5t-47.5 -103.5q0 -69 46 -108t191 -81q81 -22 132 -48t76.5 -59.5t34.5 -66t9 -80.5q0 -129 -124 -233t-306 -104
q-283 0 -456 53q-64 49 -168 186.5t-160 235.5l-115 -11v-168q0 -169 10 -247l-4 -11l-55 -2l-127 -34l-10 8q16 136 16 536q0 202 -5 267.5t-21 83.5q-20 22 -107 34zM350 903v-375q0 -9 10 -12q21 -6 70 -6q120 0 188 51q72 52 72 152q0 99 -80 144.5t-260 45.5z
M1436 1343l8 5h137q6 -10 0 -19q-29 -40 -130 -150.5t-132 -140.5h-43v9q19 28 74.5 132t85.5 164z" />
    <glyph glyph-name="R_Scaron" unicode="R&#x160;" horiz-adv-x="2330"
d="M47 1323l6 31q205 28 484 28q184 0 306 -28.5t190.5 -96t68.5 -176.5q0 -114 -80.5 -207.5t-210.5 -156.5v-10q119 -184 261.5 -374.5t205.5 -248.5q48 -46 90 -61l33 182h29q2 -15 12 -45q28 -38 105 -66t190 -28q65 0 120.5 16t99.5 47.5t69.5 85t25.5 123.5
q0 54 -13 92t-48 75t-98 68t-162 62q-182 58 -258 142t-76 224q0 64 32.5 131t92.5 126t159 97t217 38q156 0 289 -47v-11l-37 -98l-12 -61h-24q-41 135 -269 135q-136 0 -208 -59.5t-72 -166.5q0 -115 68 -176t233 -112q114 -35 187 -70.5t115 -80.5t58.5 -96t16.5 -122
q0 -102 -49 -189.5t-129.5 -145.5t-182.5 -91t-209 -33q-361 0 -573 64q-210 191 -490 622l-196 -22v-223q0 -227 14 -373l-8 -10l-55 -4l-148 -48l-12 13q24 161 24 768q0 286 -7.5 390.5t-28.5 127.5q-19 21 -50.5 30.5t-95.5 18.5zM414 1317v-578q0 -15 14 -18
q16 -4 94 -4q169 0 262 65q58 40 85.5 99t27.5 151q0 285 -483 285zM1634 1753l205 -131l203 131h51v-10l-235 -256h-39l-236 256v10h51z" />
    <glyph glyph-name="R_Scaron.sc" unicode="&#xe166;&#xe186;" horiz-adv-x="1767"
d="M47 911l4 29q205 25 373 25q107 0 184 -9.5t139.5 -32t93.5 -64.5t31 -103q0 -148 -227 -252v-8q63 -102 153.5 -229.5t127.5 -164.5q20 -23 50 -46t48 -31l20 139h35q0 -21 6 -39q25 -29 81 -48.5t132 -19.5q100 0 155.5 52.5t55.5 117.5q0 75 -44.5 116t-188.5 87
q-118 37 -176 92.5t-58 157.5q0 119 100.5 207t272.5 88q130 0 225 -39v-14l-32 -82l-6 -45h-31q-9 47 -62.5 78.5t-136.5 31.5q-87 0 -134.5 -41.5t-47.5 -103.5q0 -69 46 -108t191 -81q81 -22 132 -48t76.5 -59.5t34.5 -66t9 -80.5q0 -129 -124 -233t-306 -104
q-283 0 -456 53q-64 49 -168 186.5t-160 235.5l-115 -11v-168q0 -169 10 -247l-4 -11l-55 -2l-127 -34l-10 8q16 136 16 536q0 202 -5 267.5t-21 83.5q-20 22 -107 34zM350 903v-375q0 -9 10 -12q21 -6 70 -6q120 0 188 51q72 52 72 152q0 99 -80 144.5t-260 45.5z
M1190 1360l174 -178l174 178h49v-10l-205 -312h-39l-204 312v10h51z" />
    <glyph glyph-name="Rcaron_S" unicode="&#x158;S" horiz-adv-x="2330"
d="M47 1323l6 31q205 28 484 28q184 0 306 -28.5t190.5 -96t68.5 -176.5q0 -114 -80.5 -207.5t-210.5 -156.5v-10q119 -184 261.5 -374.5t205.5 -248.5q48 -46 90 -61l33 182h29q2 -15 12 -45q28 -38 105 -66t190 -28q65 0 120.5 16t99.5 47.5t69.5 85t25.5 123.5
q0 54 -13 92t-48 75t-98 68t-162 62q-182 58 -258 142t-76 224q0 64 32.5 131t92.5 126t159 97t217 38q156 0 289 -47v-11l-37 -98l-12 -61h-24q-41 135 -269 135q-136 0 -208 -59.5t-72 -166.5q0 -115 68 -176t233 -112q114 -35 187 -70.5t115 -80.5t58.5 -96t16.5 -122
q0 -102 -49 -189.5t-129.5 -145.5t-182.5 -91t-209 -33q-361 0 -573 64q-210 191 -490 622l-196 -22v-223q0 -227 14 -373l-8 -10l-55 -4l-148 -48l-12 13q24 161 24 768q0 286 -7.5 390.5t-28.5 127.5q-19 21 -50.5 30.5t-95.5 18.5zM414 1317v-578q0 -15 14 -18
q16 -4 94 -4q169 0 262 65q58 40 85.5 99t27.5 151q0 285 -483 285zM387 1724l203 -131l205 131h51v-10l-236 -256h-39l-235 256v10h51z" />
    <glyph glyph-name="Rcaron_S.sc" unicode="&#xe174;&#xe17e;" horiz-adv-x="1767"
d="M47 911l4 29q205 25 373 25q107 0 184 -9.5t139.5 -32t93.5 -64.5t31 -103q0 -148 -227 -252v-8q63 -102 153.5 -229.5t127.5 -164.5q20 -23 50 -46t48 -31l20 139h35q0 -21 6 -39q25 -29 81 -48.5t132 -19.5q100 0 155.5 52.5t55.5 117.5q0 75 -44.5 116t-188.5 87
q-118 37 -176 92.5t-58 157.5q0 119 100.5 207t272.5 88q130 0 225 -39v-14l-32 -82l-6 -45h-31q-9 47 -62.5 78.5t-136.5 31.5q-87 0 -134.5 -41.5t-47.5 -103.5q0 -69 46 -108t191 -81q81 -22 132 -48t76.5 -59.5t34.5 -66t9 -80.5q0 -129 -124 -233t-306 -104
q-283 0 -456 53q-64 49 -168 186.5t-160 235.5l-115 -11v-168q0 -169 10 -247l-4 -11l-55 -2l-127 -34l-10 8q16 136 16 536q0 202 -5 267.5t-21 83.5q-20 22 -107 34zM350 903v-375q0 -9 10 -12q21 -6 70 -6q120 0 188 51q72 52 72 152q0 99 -80 144.5t-260 45.5zM303 1360
l174 -178l174 178h51v-10l-204 -312h-41l-203 312v10h49z" />
    <glyph glyph-name="S_T" unicode="ST" horiz-adv-x="2078"
d="M881 1339l16 50q58 -19 162 -26t303 -9h229q455 0 504 30q9 -6 12 -16q-99 -71 -157 -102l-355 -15l-12 -16q-10 -210 -10 -539q0 -530 22 -680l-2 -12l-73 2l-146 -31l-12 11q27 208 27 710q0 393 -9 537l-14 16l-184 -2q-246 0 -326 -18l-12 -55l-25 2
q-40 135 -268 135q-136 0 -208.5 -59.5t-72.5 -164.5q0 -60 17 -103.5t56 -77.5t92 -58t136 -49q114 -35 187 -71.5t115.5 -81.5t58.5 -96t16 -122q0 -134 -84 -240.5t-213 -161.5t-272 -55q-105 0 -196.5 19t-116.5 35v14l40 186h29q0 -30 6 -51q108 -108 301 -108
q65 0 120.5 16t100 47.5t70 85t25.5 123.5q0 72 -24.5 119.5t-95.5 92t-202 85.5q-182 58 -258 142t-76 224q0 64 32.5 131t93 126t159 97t217.5 38q171 0 277 -54z" />
    <glyph glyph-name="S_T.sc" unicode="&#xe17e;&#xe18e;" horiz-adv-x="1585"
d="M674 932l16 41q97 -27 365 -27h168q300 0 366 21q8 -4 8 -17q-49 -39 -118 -84l-248 -10l-8 -12q-9 -92 -9 -359q0 -370 19 -471l-6 -10h-70l-129 -24l-10 10q24 147 24 495q0 171 -6 357l-8 10h-141q-178 0 -234 -23l-6 -38l-31 2q-8 48 -61.5 80t-136.5 32
q-87 0 -134.5 -41.5t-47.5 -103.5q0 -69 45.5 -107t191.5 -82q80 -23 131.5 -49t77 -59t34.5 -66t9 -80q0 -128 -122 -232.5t-288 -104.5q-159 0 -252 38v13l27 151h35q0 -16 6 -39q19 -34 77 -60t136 -26q100 0 155.5 52.5t55.5 117.5q0 76 -44.5 116.5t-188.5 86.5
q-118 37 -176 93.5t-58 158.5q0 118 100.5 205.5t272.5 87.5q88 0 213 -43z" />
    <glyph glyph-name="S_Tcaron" unicode="S&#x164;" horiz-adv-x="2078"
d="M881 1339l16 50q58 -19 162 -26t303 -9h229q455 0 504 30q9 -6 12 -16q-99 -71 -157 -102l-355 -15l-12 -16q-10 -210 -10 -539q0 -530 22 -680l-2 -12l-73 2l-146 -31l-12 11q27 208 27 710q0 393 -9 537l-14 16l-184 -2q-246 0 -326 -18l-12 -55l-25 2
q-40 135 -268 135q-136 0 -208.5 -59.5t-72.5 -164.5q0 -60 17 -103.5t56 -77.5t92 -58t136 -49q114 -35 187 -71.5t115.5 -81.5t58.5 -96t16 -122q0 -134 -84 -240.5t-213 -161.5t-272 -55q-105 0 -196.5 19t-116.5 35v14l40 186h29q0 -30 6 -51q108 -108 301 -108
q65 0 120.5 16t100 47.5t70 85t25.5 123.5q0 72 -24.5 119.5t-95.5 92t-202 85.5q-182 58 -258 142t-76 224q0 64 32.5 131t93 126t159 97t217.5 38q171 0 277 -54zM1278 1724l205 -131l203 131h51v-10l-236 -256h-39l-233 256v10h49z" />
    <glyph glyph-name="S_Tcaron.sc" unicode="&#xe17e;&#xe1cc;" horiz-adv-x="1585"
d="M674 932l16 41q97 -27 365 -27h168q300 0 366 21q8 -4 8 -17q-49 -39 -118 -84l-248 -10l-8 -12q-9 -92 -9 -359q0 -370 19 -471l-6 -10h-70l-129 -24l-10 10q24 147 24 495q0 171 -6 357l-8 10h-141q-178 0 -234 -23l-6 -38l-31 2q-8 48 -61.5 80t-136.5 32
q-87 0 -134.5 -41.5t-47.5 -103.5q0 -69 45.5 -107t191.5 -82q80 -23 131.5 -49t77 -59t34.5 -66t9 -80q0 -128 -122 -232.5t-288 -104.5q-159 0 -252 38v13l27 151h35q0 -16 6 -39q19 -34 77 -60t136 -26q100 0 155.5 52.5t55.5 117.5q0 76 -44.5 116.5t-188.5 86.5
q-118 37 -176 93.5t-58 158.5q0 118 100.5 205.5t272.5 87.5q88 0 213 -43zM954 1360l174 -178l175 178h49v-10l-203 -312h-39l-205 312v10h49z" />
    <glyph glyph-name="S_Tcommaaccent" unicode="S&#x162;" horiz-adv-x="2078"
d="M881 1339l16 50q58 -19 162 -26t303 -9h229q455 0 504 30q9 -6 12 -16q-99 -71 -157 -102l-355 -15l-12 -16q-10 -210 -10 -539q0 -530 22 -680l-2 -12l-73 2l-146 -31l-12 11q27 208 27 710q0 393 -9 537l-14 16l-184 -2q-246 0 -326 -18l-12 -55l-25 2
q-40 135 -268 135q-136 0 -208.5 -59.5t-72.5 -164.5q0 -60 17 -103.5t56 -77.5t92 -58t136 -49q114 -35 187 -71.5t115.5 -81.5t58.5 -96t16 -122q0 -134 -84 -240.5t-213 -161.5t-272 -55q-105 0 -196.5 19t-116.5 35v14l40 186h29q0 -30 6 -51q108 -108 301 -108
q65 0 120.5 16t100 47.5t70 85t25.5 123.5q0 72 -24.5 119.5t-95.5 92t-202 85.5q-182 58 -258 142t-76 224q0 64 32.5 131t93 126t159 97t217.5 38q171 0 277 -54zM1595 -223q0 -61 -55.5 -166t-105.5 -160q-31 -4 -39 12q66 117 69 244q-16 30 -78 86q-7 7 0 23
q12 19 37 47t45 43q9 2 21 2q23 -10 53 -33.5t47 -42.5q6 -21 6 -55z" />
    <glyph glyph-name="S_Tcommaaccent.sc" unicode="&#xe17e;&#xe1d7;" horiz-adv-x="1585"
d="M674 932l14 41q97 -27 365 -27h170q300 0 366 21q8 -4 8 -17q-49 -39 -118 -84l-248 -10l-8 -12q-9 -92 -9 -359q0 -370 19 -471l-6 -10h-70l-129 -24l-10 10q24 147 24 495q0 171 -6 357l-8 10h-141q-178 0 -234 -23l-6 -38l-31 2q-8 48 -61.5 80t-136.5 32
q-87 0 -134.5 -41.5t-47.5 -103.5q0 -69 45.5 -107t191.5 -82q80 -23 131.5 -49t77 -59t34.5 -66t9 -80q0 -128 -122 -232.5t-288 -104.5q-159 0 -252 38v13l27 151h35q0 -16 6 -39q19 -34 77 -60t136 -26q100 0 155.5 52.5t55.5 117.5q0 76 -44.5 116.5t-188.5 86.5
q-118 37 -176 93.5t-58 158.5q0 118 100.5 205.5t272.5 87.5q88 0 213 -43zM1235 -225q0 -60 -56 -166t-106 -158q-31 -4 -39 12q28 48 48.5 114.5t21.5 129.5q-18 32 -78 86q-7 7 0 23q11 19 36 47t46 43q8 2 20 2q43 -18 101 -76q6 -21 6 -57z" />
    <glyph glyph-name="Scaron_T" unicode="&#x160;T" horiz-adv-x="2078"
d="M881 1339l16 50q58 -19 162 -26t303 -9h229q455 0 504 30q9 -6 12 -16q-99 -71 -157 -102l-355 -15l-12 -16q-10 -210 -10 -539q0 -530 22 -680l-2 -12l-73 2l-146 -31l-12 11q27 208 27 710q0 393 -9 537l-14 16l-184 -2q-246 0 -326 -18l-12 -55l-25 2
q-40 135 -268 135q-136 0 -208.5 -59.5t-72.5 -164.5q0 -60 17 -103.5t56 -77.5t92 -58t136 -49q114 -35 187 -71.5t115.5 -81.5t58.5 -96t16 -122q0 -134 -84 -240.5t-213 -161.5t-272 -55q-105 0 -196.5 19t-116.5 35v14l40 186h29q0 -30 6 -51q108 -108 301 -108
q65 0 120.5 16t100 47.5t70 85t25.5 123.5q0 72 -24.5 119.5t-95.5 92t-202 85.5q-182 58 -258 142t-76 224q0 64 32.5 131t93 126t159 97t217.5 38q171 0 277 -54zM342 1753l203 -131l205 131h51v-10l-236 -256h-39l-235 256v10h51z" />
    <glyph glyph-name="Scaron_T.sc" unicode="&#xe186;&#xe18e;" horiz-adv-x="1585"
d="M674 932l16 41q97 -27 365 -27h168q300 0 366 21q8 -4 8 -17q-49 -39 -118 -84l-248 -10l-8 -12q-9 -92 -9 -359q0 -370 19 -471l-6 -10h-70l-129 -24l-10 10q24 147 24 495q0 171 -6 357l-8 10h-141q-178 0 -234 -23l-6 -38l-31 2q-8 48 -61.5 80t-136.5 32
q-87 0 -134.5 -41.5t-47.5 -103.5q0 -69 45.5 -107t191.5 -82q80 -23 131.5 -49t77 -59t34.5 -66t9 -80q0 -128 -122 -232.5t-288 -104.5q-159 0 -252 38v13l27 151h35q0 -16 6 -39q19 -34 77 -60t136 -26q100 0 155.5 52.5t55.5 117.5q0 76 -44.5 116.5t-188.5 86.5
q-118 37 -176 93.5t-58 158.5q0 118 100.5 205.5t272.5 87.5q88 0 213 -43zM238 1360l174 -178l172 178h51v-10l-205 -312h-39l-205 312v10h52z" />
    <glyph glyph-name="Scaron_Tcaron" unicode="&#x160;&#x164;" horiz-adv-x="2078"
d="M881 1339l16 50q58 -19 162 -26t303 -9h229q455 0 504 30q9 -6 12 -16q-99 -71 -157 -102l-355 -15l-12 -16q-10 -210 -10 -539q0 -530 22 -680l-2 -12l-73 2l-146 -31l-12 11q27 208 27 710q0 393 -9 537l-14 16l-184 -2q-246 0 -326 -18l-12 -55l-25 2
q-40 135 -268 135q-136 0 -208.5 -59.5t-72.5 -164.5q0 -60 17 -103.5t56 -77.5t92 -58t136 -49q114 -35 187 -71.5t115.5 -81.5t58.5 -96t16 -122q0 -134 -84 -240.5t-213 -161.5t-272 -55q-105 0 -196.5 19t-116.5 35v14l40 186h29q0 -30 6 -51q108 -108 301 -108
q65 0 120.5 16t100 47.5t70 85t25.5 123.5q0 72 -24.5 119.5t-95.5 92t-202 85.5q-182 58 -258 142t-76 224q0 64 32.5 131t93 126t159 97t217.5 38q171 0 277 -54zM342 1753l203 -131l205 131h51v-10l-236 -256h-39l-235 256v10h51zM1278 1724l205 -131l203 131h51v-10
l-236 -256h-39l-233 256v10h49z" />
    <glyph glyph-name="Scaron_Tcaron.sc" unicode="&#xe186;&#xe1cc;" horiz-adv-x="1585"
d="M674 932l16 41q97 -27 365 -27h168q300 0 366 21q8 -4 8 -17q-49 -39 -118 -84l-248 -10l-8 -12q-9 -92 -9 -359q0 -370 19 -471l-6 -10h-70l-129 -24l-10 10q24 147 24 495q0 171 -6 357l-8 10h-141q-178 0 -234 -23l-6 -38l-31 2q-8 48 -61.5 80t-136.5 32
q-87 0 -134.5 -41.5t-47.5 -103.5q0 -69 45.5 -107t191.5 -82q80 -23 131.5 -49t77 -59t34.5 -66t9 -80q0 -128 -122 -232.5t-288 -104.5q-159 0 -252 38v13l27 151h35q0 -16 6 -39q19 -34 77 -60t136 -26q100 0 155.5 52.5t55.5 117.5q0 76 -44.5 116.5t-188.5 86.5
q-118 37 -176 93.5t-58 158.5q0 118 100.5 205.5t272.5 87.5q88 0 213 -43zM238 1360l174 -178l172 178h51v-10l-205 -312h-39l-205 312v10h52zM954 1360l174 -178l175 178h49v-10l-203 -312h-39l-205 312v10h49z" />
    <glyph glyph-name="T_H" unicode="TH" horiz-adv-x="2793"
d="M-10 1202l86 184q36 -20 129 -26t295 -6h336q534 0 698 47l12 -10l-22 -45q-21 -157 -21 -543q13 -19 33 -29q117 -22 430 -22q123 0 251 6.5t153 15.5l12 14q5 42 0 256.5t-15 253.5l7 15q35 14 204 67l15 -12q-27 -97 -27 -633q0 -326 14 -463l54 -28v-6
q-20 -25 -37 -84q-14 -61 -27 -91l-180 -88l-18 15q10 225 10 391v291q-5 11 -12 14t-27 2l-825 -41l-15 -22q-11 -193 13 -580l-9 -10l-67 -6l-131 -54l-17 11q27 104 27 716q0 544 -31 601q-38 -9 -174 -23.5t-223 -19.5l-158 -9l-12 -16q-10 -210 -10 -539
q0 -532 22 -682l-2 -10h-74l-145 -31l-12 11q26 198 26 712q0 409 -8 537l-14 16l-152 -2q-176 0 -230 -9t-118 -46q-9 0 -14 10z" />
    <glyph glyph-name="T_H.sc" unicode="&#xe18e;&#xe07f;" horiz-adv-x="2109"
d="M-6 815l61 158q61 -27 336 -27h256q418 0 547 27l8 -12l-18 -29q-15 -82 -15 -361q8 -16 25 -22q46 -14 291 -14q57 0 151 5.5t113 10.5l8 8q2 42 -1 178t-11 172l6 11q28 10 93.5 26.5t94.5 20.5l9 -13q-19 -63 -19 -440q0 -238 10 -319l39 -23v-2q-18 -20 -28 -61
q-14 -54 -19 -64l-157 -63l-23 12q6 104 6 270v193q-1 10 -6.5 14t-19.5 4l-549 -33l-13 -16q0 -250 11 -395l-6 -8l-52 -5l-127 -38l-12 10q14 199 14 502q0 358 -28 409q-99 -37 -260 -37l-142 -6l-8 -12q-8 -82 -8 -359q0 -377 18 -473l-6 -10h-69l-129 -24l-11 10
q25 144 25 497q0 175 -6 355l-8 10h-142q-99 0 -133 -7.5t-80 -37.5q-12 0 -16 8z" />
    <glyph glyph-name="T_Hbar" unicode="T&#x126;" horiz-adv-x="2793"
d="M2746 1120l-14 -73h-162q-4 -182 -4 -312q0 -326 14 -463l54 -28v-6q-20 -25 -37 -84q-14 -61 -27 -91l-180 -88l-18 15q10 225 10 391v291q-5 11 -12 14t-27 2l-825 -41l-15 -22q-11 -193 13 -580l-9 -10l-67 -6l-131 -54l-17 11q27 104 27 716q0 544 -31 601
q-38 -9 -174 -23.5t-223 -19.5l-158 -9l-12 -16q-10 -210 -10 -539q0 -532 22 -682l-2 -10h-74l-145 -31l-12 11q26 198 26 712q0 409 -8 537l-14 16l-152 -2q-176 0 -230 -9t-118 -46q-9 0 -14 10l86 184q36 -20 129 -26t295 -6h336q534 0 698 47l12 -10l-22 -45
q-10 -77 -17 -226h873q-3 135 -13 178l9 15q52 21 204 67l15 -12q-15 -63 -21 -248h172zM2382 1047h-877q-2 -86 -2 -244q13 -19 33 -29q117 -22 430 -22q123 0 251 6.5t153 15.5l12 14q4 29 0 259z" />
    <glyph glyph-name="T_Hbar.sc" unicode="&#xe18e;&#xe08e;" horiz-adv-x="2109"
d="M2068 782l-14 -71h-123q-2 -58 -2 -197q0 -238 10 -319l39 -23v-2q-18 -20 -28 -61q-14 -54 -19 -64l-157 -63l-23 12q6 104 6 270v193q-1 10 -6.5 14t-19.5 4l-549 -33l-13 -16q0 -250 11 -395l-6 -8l-52 -5l-127 -38l-12 10q14 199 14 502q0 358 -28 409
q-99 -37 -260 -37l-142 -6l-8 -12q-8 -82 -8 -359q0 -377 18 -473l-6 -10h-69l-129 -24l-11 10q25 144 25 497q0 175 -6 355l-8 10h-142q-99 0 -133 -7.5t-80 -37.5q-12 0 -16 8l61 158q61 -27 336 -27h256q418 0 547 27l8 -12l-18 -29q-8 -42 -13 -150h584q-3 94 -10 127
l6 11q31 10 95 26.5t93 20.5l11 -13q-12 -44 -15 -172h133zM1757 711h-586q-2 -54 -2 -140q8 -16 25 -22q46 -14 291 -14q57 0 151 5.5t113 10.5l8 8v152z" />
    <glyph glyph-name="T_I" unicode="TI" horiz-adv-x="1728"
d="M-10 1202l86 184q36 -20 129 -26t295 -6h336q534 0 698 47l10 -10l-22 -45q-21 -163 -21 -641q0 -451 12 -660l-8 -10l-67 -6l-131 -54l-17 11q27 104 27 716q0 527 -27 598q-171 -26 -399 -40l-158 -9l-12 -16q-10 -210 -10 -539q0 -532 22 -682l-2 -12l-74 2l-145 -31
l-12 11q26 198 26 712q0 409 -8 537l-14 16l-152 -2q-176 0 -230 -9t-118 -46q-9 0 -14 10z" />
    <glyph glyph-name="T_I.sc" unicode="&#xe18e;&#xe095;" horiz-adv-x="1345"
d="M-6 815l61 158q61 -27 336 -27h246q413 0 553 27l8 -12l-18 -29q-15 -75 -15 -434q0 -292 11 -467l-7 -8l-49 -5l-129 -38l-12 10q14 199 14 499q0 355 -24 412q-46 -18 -123 -27.5t-137 -9.5l-142 -6l-8 -12q-8 -82 -8 -359q0 -380 18 -473l-6 -10h-69l-129 -24l-11 10
q25 144 25 497q0 175 -6 355l-8 10h-142q-99 0 -133 -7.5t-80 -37.5q-12 0 -16 8z" />
    <glyph glyph-name="T_IJ" unicode="T&#x132;" horiz-adv-x="2349"
d="M657 6l-145 -33l-12 11q26 198 26 712q0 409 -8 537l-14 16l-152 -2q-176 0 -230 -9t-118 -46q-9 0 -14 10l86 184q36 -20 129 -26t295 -6h336q534 0 698 47l10 -10l-22 -45q-21 -163 -21 -641q0 -451 12 -660l-8 -10l-67 -6l-131 -54l-17 11q27 104 27 716
q0 527 -27 598q-171 -26 -399 -40l-158 -9l-12 -16q-10 -210 -10 -539q0 -530 22 -680l-2 -12zM1759 1331l35 23q174 5 307 14l51 23l13 -5q-23 -120 -23 -563q0 -57 2 -297.5t2 -359.5q0 -128 -33.5 -225t-113.5 -189q-58 -66 -141.5 -129.5t-133.5 -83.5l-38 23v12
q60 44 96.5 77t70.5 83t51.5 106.5t31 146.5t18 202.5t4.5 275.5v315q0 269 -8.5 368.5t-30.5 123.5q-27 31 -160 47v12z" />
    <glyph glyph-name="T_IJ.sc" unicode="&#xe18e;&#xe098;" horiz-adv-x="1875"
d="M1169 23l-49 -5l-129 -38l-12 10q14 199 14 499q0 355 -24 412q-46 -18 -123 -27.5t-137 -9.5l-142 -6l-8 -12q-8 -82 -8 -359q0 -380 18 -473l-6 -10h-69l-129 -24l-11 10q25 144 25 497q0 175 -6 355l-8 10h-142q-99 0 -133 -7.5t-80 -37.5q-12 0 -16 8l61 158
q61 -27 336 -27h246q413 0 553 27l8 -12l-18 -29q-15 -75 -15 -434q0 -292 11 -467zM1380 930l25 18q127 0 260 10l39 17l14 -8q-12 -60 -16 -139.5t-4 -284.5q0 -44 2 -218.5t2 -287.5q0 -86 -27 -155t-92 -146q-32 -36 -90.5 -84.5t-114.5 -79.5l-43 14v19q82 58 121 124
t54.5 176.5t15.5 319.5v320q0 186 -8 251.5t-27 86.5q-14 17 -111 35v12z" />
    <glyph glyph-name="T_Iacute" unicode="T&#xcd;" horiz-adv-x="1728"
d="M-10 1202l86 184q36 -20 129 -26t295 -6h336q534 0 698 47l10 -10l-22 -45q-21 -163 -21 -641q0 -451 12 -660l-8 -10l-67 -6l-131 -54l-17 11q27 104 27 716q0 527 -27 598q-171 -26 -399 -40l-158 -9l-12 -16q-10 -210 -10 -539q0 -532 22 -682l-2 -12l-74 2l-145 -31
l-12 11q26 198 26 712q0 409 -8 537l-14 16l-152 -2q-176 0 -230 -9t-118 -46q-9 0 -14 10zM1460 1739l8 4h146q6 -9 0 -19q-28 -32 -135 -131.5t-160 -146.5h-43v10q138 199 184 283z" />
    <glyph glyph-name="T_Iacute.sc" unicode="&#xe18e;&#xe09b;" horiz-adv-x="1345"
d="M-6 815l61 158q61 -27 336 -27h246q413 0 553 27l8 -12l-18 -29q-15 -75 -15 -434q0 -292 11 -467l-7 -8l-49 -5l-129 -38l-12 10q14 199 14 499q0 355 -24 412q-46 -18 -123 -27.5t-137 -9.5l-142 -6l-8 -12q-8 -82 -8 -359q0 -380 18 -473l-6 -10h-69l-129 -24l-11 10
q25 144 25 497q0 175 -6 355l-8 10h-142q-99 0 -133 -7.5t-80 -37.5q-12 0 -16 8zM1114 1343l8 5h138q6 -10 0 -19q-33 -42 -134 -153t-129 -138h-43v9q19 28 74.5 132t85.5 164z" />
    <glyph glyph-name="T_Icircumflex" unicode="T&#xce;" horiz-adv-x="1728"
d="M-10 1202l86 184q36 -20 129 -26t295 -6h336q534 0 698 47l10 -10l-22 -45q-21 -163 -21 -641q0 -451 12 -660l-8 -10l-67 -6l-131 -54l-17 11q27 104 27 716q0 527 -27 598q-171 -26 -399 -40l-158 -9l-12 -16q-10 -210 -10 -539q0 -532 22 -682l-2 -12l-74 2l-145 -31
l-12 11q26 198 26 712q0 409 -8 537l-14 16l-152 -2q-176 0 -230 -9t-118 -46q-9 0 -14 10zM1204 1458h-51v10l236 256h38l236 -256v-10h-51l-205 131z" />
    <glyph glyph-name="T_Icircumflex.sc" unicode="&#xe18e;&#xe0a1;" horiz-adv-x="1345"
d="M-6 815l61 158q61 -27 336 -27h246q413 0 553 27l8 -12l-18 -29q-15 -75 -15 -434q0 -292 11 -467l-7 -8l-49 -5l-129 -38l-12 10q14 199 14 499q0 355 -24 412q-46 -18 -123 -27.5t-137 -9.5l-142 -6l-8 -12q-8 -82 -8 -359q0 -380 18 -473l-6 -10h-69l-129 -24l-11 10
q25 144 25 497q0 175 -6 355l-8 10h-142q-99 0 -133 -7.5t-80 -37.5q-12 0 -16 8zM899 1038h-49v11l205 311h39l202 -311v-11h-49l-174 179z" />
    <glyph glyph-name="T_Igrave" unicode="T&#xcc;" horiz-adv-x="1728"
d="M-10 1202l86 184q36 -20 129 -26t295 -6h336q534 0 698 47l10 -10l-22 -45q-21 -163 -21 -641q0 -451 12 -660l-8 -10l-67 -6l-131 -54l-17 11q27 104 27 716q0 527 -27 598q-171 -26 -399 -40l-158 -9l-12 -16q-10 -210 -10 -539q0 -532 22 -682l-2 -12l-74 2l-145 -31
l-12 11q26 198 26 712q0 409 -8 537l-14 16l-152 -2q-176 0 -230 -9t-118 -46q-9 0 -14 10zM1315 1743l8 -4q22 -40 89.5 -142.5t94.5 -140.5v-10h-43q-244 218 -297 278q-6 10 0 19h148z" />
    <glyph glyph-name="T_Igrave.sc" unicode="&#xe18e;&#xe0aa;" horiz-adv-x="1345"
d="M-6 815l61 158q61 -27 336 -27h246q413 0 553 27l8 -12l-18 -29q-15 -75 -15 -434q0 -292 11 -467l-7 -8l-49 -5l-129 -38l-12 10q14 199 14 499q0 355 -24 412q-46 -18 -123 -27.5t-137 -9.5l-142 -6l-8 -12q-8 -82 -8 -359q0 -380 18 -473l-6 -10h-69l-129 -24l-11 10
q25 144 25 497q0 175 -6 355l-8 10h-142q-99 0 -133 -7.5t-80 -37.5q-12 0 -16 8zM1020 1348l8 -5q24 -52 80.5 -158.5t75.5 -137.5v-9h-43q-30 28 -129 139t-129 152q-6 9 0 19h137z" />
    <glyph glyph-name="T_Imacron" unicode="T&#x12a;" horiz-adv-x="1728"
d="M-10 1202l86 184q36 -20 129 -26t295 -6h336q534 0 698 47l10 -10l-22 -45q-21 -163 -21 -641q0 -451 12 -660l-8 -10l-67 -6l-131 -54l-17 11q27 104 27 716q0 527 -27 598q-171 -26 -399 -40l-158 -9l-12 -16q-10 -210 -10 -539q0 -532 22 -682l-2 -12l-74 2l-145 -31
l-12 11q26 198 26 712q0 409 -8 537l-14 16l-152 -2q-176 0 -230 -9t-118 -46q-9 0 -14 10zM1165 1597h475v-94h-475v94z" />
    <glyph glyph-name="T_Imacron.sc" unicode="&#xe18e;&#xe0ad;" horiz-adv-x="1345"
d="M-6 815l61 158q61 -27 336 -27h246q413 0 553 27l8 -12l-18 -29q-15 -75 -15 -434q0 -292 11 -467l-7 -8l-49 -5l-129 -38l-12 10q14 199 14 499q0 355 -24 412q-46 -18 -123 -27.5t-137 -9.5l-142 -6l-8 -12q-8 -82 -8 -359q0 -380 18 -473l-6 -10h-69l-129 -24l-11 10
q25 144 25 497q0 175 -6 355l-8 10h-142q-99 0 -133 -7.5t-80 -37.5q-12 0 -16 8zM827 1245h478v-94h-478v94z" />
    <glyph glyph-name="T_Iogonek" unicode="T&#x12e;" horiz-adv-x="1728"
d="M657 6l-145 -33l-12 11q26 198 26 712q0 409 -8 537l-14 16l-152 -2q-176 0 -230 -9t-118 -46q-9 0 -14 10l86 184q36 -20 129 -26t295 -6h336q534 0 698 47l10 -10l-22 -45q-21 -163 -21 -641q0 -423 15 -662q-191 -172 -191 -274q0 -47 29 -74t67 -27q71 0 121 49h12
l-6 -45l-63 -75q-43 -31 -119 -31q-82 0 -125 45.5t-43 109.5q0 121 242 308l-129 -31l-15 8q21 103 21 696q0 527 -27 598q-171 -26 -399 -40l-158 -9l-12 -16q-10 -210 -10 -539q0 -530 22 -680l-2 -12z" />
    <glyph glyph-name="T_Iogonek.sc" unicode="&#xe18e;&#xe0b0;" horiz-adv-x="1345"
d="M1235 -258l-6 -45l-64 -70q-20 -14 -54.5 -22t-63.5 -8q-74 0 -117 42t-43 99q0 63 55.5 130.5t149.5 147.5l-97 -22l-14 10q12 114 12 485q0 355 -24 412q-46 -18 -123 -27.5t-137 -9.5l-142 -6l-8 -12q-8 -82 -8 -359q0 -380 18 -473l-6 -10h-69l-129 -24l-11 10
q25 144 25 497q0 175 -6 355l-8 10h-142q-99 0 -133 -7.5t-80 -37.5q-12 0 -16 8l61 158q61 -27 336 -27h246q413 0 553 27l8 -12l-18 -29q-11 -57 -15 -432q-2 -241 9 -469q-168 -152 -168 -242q0 -46 29 -71t69 -25q70 0 119 49h12z" />
    <glyph glyph-name="T_T" unicode="TT" horiz-adv-x="2136"
d="M-10 1202l86 184q36 -20 129 -26t295 -6h229q158 0 229 2l35 76q37 -19 132.5 -26t291.5 -7h230q453 0 503 28q9 -5 13 -16q-75 -58 -158 -100l-354 -15l-13 -16q-10 -322 -10 -584q0 -535 23 -682l-2 -10h-74l-145 -31l-13 11q27 194 27 712q0 394 -8 582l-15 16
q-134 0 -228.5 -5t-181.5 -15t-93 -10l-185 -13l-12 -16q-10 -210 -10 -539q0 -532 22 -682l-2 -12l-74 2l-145 -31l-12 11q26 198 26 712q0 409 -8 537l-14 16l-152 -2q-176 0 -230 -9t-118 -46q-9 0 -14 10z" />
    <glyph glyph-name="T_T.sc" unicode="&#xe18e;&#xe18e;" horiz-adv-x="1611"
d="M-6 815l61 158q61 -27 336 -27h340l27 66q64 -27 323 -27h168q298 0 367 19q8 -6 8 -17q-71 -55 -119 -82l-248 -10l-8 -12q-8 -156 -8 -396q0 -382 19 -473l-7 -10h-69l-129 -24l-11 10q25 144 25 497q0 97 -6 394l-8 10q-114 0 -244 -13.5t-135 -13.5l-109 -6l-8 -12
q-8 -82 -8 -359q0 -377 18 -473l-6 -10h-69l-129 -24l-11 10q25 144 25 497q0 175 -6 355l-8 10h-142q-99 0 -133 -7.5t-80 -37.5q-12 0 -16 8z" />
    <glyph glyph-name="T_U" unicode="TU" horiz-adv-x="2691"
d="M-10 1202l86 184q36 -20 129 -26t295 -6h321q508 0 715 22q8 -12 2 -24l-31 -21q-9 -39 -14.5 -235t-5.5 -402q0 -184 19 -283t65 -163q60 -88 155 -127t236 -39q235 0 348 166q78 125 78 385q0 233 -12 422.5t-23 265.5l8 14q22 4 77 20t75 27l12 -12
q-17 -58 -26 -278.5t-9 -427.5q0 -197 -29 -309t-91 -191q-156 -191 -463 -191q-186 0 -300 39.5t-188 126.5q-63 77 -92 193t-29 334q0 548 -22 634q-141 -28 -356 -38l-187 -11l-12 -16q-10 -210 -10 -539q0 -532 22 -682l-2 -12l-74 2l-145 -31l-12 11q26 198 26 712
q0 409 -8 537l-14 16l-152 -2q-176 0 -230 -9t-118 -46q-9 0 -14 10z" />
    <glyph glyph-name="T_U.sc" unicode="&#xe18e;&#xe1e3;" horiz-adv-x="2023"
d="M-6 815l61 158q61 -27 336 -27h262q416 0 533 23l4 -17l-21 -22q-14 -75 -14 -303q0 -167 9 -256t29 -135t62 -84q75 -70 224 -70q166 0 231 98q31 47 43 111t12 203q0 248 -24 426l6 12q62 9 131 33l10 -9q-26 -122 -26 -452q0 -127 -12.5 -210.5t-57.5 -150.5
q-106 -161 -350 -161q-134 0 -220.5 26.5t-146.5 89.5q-48 52 -71 132.5t-23 222.5q0 249 -5.5 339.5t-17.5 110.5q-109 -38 -256 -41l-135 -6l-8 -12q-8 -82 -8 -359q0 -378 18 -471l-6 -10h-69l-129 -24l-11 10q25 144 25 495q0 177 -6 357l-8 10h-142q-99 0 -133 -7.5
t-80 -37.5q-12 0 -16 8z" />
    <glyph glyph-name="T_Uacute" unicode="T&#xda;" horiz-adv-x="2691"
d="M-10 1202l86 184q36 -20 129 -26t295 -6h321q508 0 715 22q8 -12 2 -24l-31 -21q-9 -39 -14.5 -235t-5.5 -402q0 -184 19 -283t65 -163q60 -88 155 -127t236 -39q235 0 348 166q78 125 78 385q0 233 -12 422.5t-23 265.5l8 14q22 4 77 20t75 27l12 -12
q-17 -58 -26 -278.5t-9 -427.5q0 -197 -29 -309t-91 -191q-156 -191 -463 -191q-186 0 -300 39.5t-188 126.5q-63 77 -92 193t-29 334q0 548 -22 634q-141 -28 -356 -38l-187 -11l-12 -16q-10 -210 -10 -539q0 -532 22 -682l-2 -12l-74 2l-145 -31l-12 11q26 198 26 712
q0 409 -8 537l-14 16l-152 -2q-176 0 -230 -9t-118 -46q-9 0 -14 10zM2011 1739l8 4h148q6 -9 0 -19q-30 -33 -146 -140t-153 -138h-41v10q162 243 184 283z" />
    <glyph glyph-name="T_Uacute.sc" unicode="&#xe18e;&#xe1e4;" horiz-adv-x="2023"
d="M-6 815l61 158q61 -27 336 -27h262q416 0 533 23l4 -17l-21 -22q-14 -75 -14 -303q0 -167 9 -256t29 -135t62 -84q75 -70 224 -70q166 0 231 98q31 47 43 111t12 203q0 248 -24 426l6 12q62 9 131 33l10 -9q-26 -122 -26 -452q0 -127 -12.5 -210.5t-57.5 -150.5
q-106 -161 -350 -161q-134 0 -220.5 26.5t-146.5 89.5q-48 52 -71 132.5t-23 222.5q0 249 -5.5 339.5t-17.5 110.5q-109 -38 -256 -41l-135 -6l-8 -12q-8 -82 -8 -359q0 -378 18 -471l-6 -10h-69l-129 -24l-11 10q25 144 25 495q0 177 -6 357l-8 10h-142q-99 0 -133 -7.5
t-80 -37.5q-12 0 -16 8zM1509 1343l9 5h137q6 -10 0 -19q-29 -40 -129 -149.5t-133 -141.5h-43v9q21 34 78 140.5t81 155.5z" />
    <glyph glyph-name="T_Udieresis" unicode="T&#xdc;" horiz-adv-x="2691"
d="M-10 1202l86 184q36 -20 129 -26t295 -6h321q508 0 715 22q8 -12 2 -24l-31 -21q-9 -39 -14.5 -235t-5.5 -402q0 -184 19 -283t65 -163q60 -88 155 -127t236 -39q235 0 348 166q78 125 78 385q0 233 -12 422.5t-23 265.5l8 14q22 4 77 20t75 27l12 -12
q-17 -58 -26 -278.5t-9 -427.5q0 -197 -29 -309t-91 -191q-156 -191 -463 -191q-186 0 -300 39.5t-188 126.5q-63 77 -92 193t-29 334q0 548 -22 634q-141 -28 -356 -38l-187 -11l-12 -16q-10 -210 -10 -539q0 -532 22 -682l-2 -12l-74 2l-145 -31l-12 11q26 198 26 712
q0 409 -8 537l-14 16l-152 -2q-176 0 -230 -9t-118 -46q-9 0 -14 10zM1862 1589v-12q-16 -33 -62 -98q-38 3 -82 27t-63 53q-4 4 0 16q19 41 76 96q9 6 16 2q93 -55 115 -84zM2243 1589v-12q-17 -47 -58 -98q-40 3 -82 26.5t-65 53.5q-4 4 0 16q22 42 78 96q10 6 14 2
q96 -53 113 -84z" />
    <glyph glyph-name="T_Udieresis.sc" unicode="&#xe18e;&#xe1e7;" horiz-adv-x="2023"
d="M-6 815l61 158q61 -27 336 -27h262q416 0 533 23l4 -17l-21 -22q-14 -75 -14 -303q0 -167 9 -256t29 -135t62 -84q75 -70 224 -70q166 0 231 98q31 47 43 111t12 203q0 248 -24 426l6 12q62 9 131 33l10 -9q-26 -122 -26 -452q0 -127 -12.5 -210.5t-57.5 -150.5
q-106 -161 -350 -161q-134 0 -220.5 26.5t-146.5 89.5q-48 52 -71 132.5t-23 222.5q0 249 -5.5 339.5t-17.5 110.5q-109 -38 -256 -41l-135 -6l-8 -12q-8 -82 -8 -359q0 -378 18 -471l-6 -10h-69l-129 -24l-11 10q25 144 25 495q0 177 -6 357l-8 10h-142q-99 0 -133 -7.5
t-80 -37.5q-12 0 -16 8zM1384 1194v-14q-12 -43 -55 -95q-38 5 -77 27.5t-66 50.5q-6 6 -2 15q12 21 37.5 51.5t40.5 42.5q6 6 14 2q21 -9 60.5 -38.5t47.5 -41.5zM1726 1194v-14q-10 -34 -55 -95q-38 5 -77.5 27.5t-67.5 50.5q-6 6 -2 15q14 21 40 52t40 42q6 6 14 2
q21 -9 60.5 -38.5t47.5 -41.5z" />
    <glyph glyph-name="T_Ugrave" unicode="T&#xd9;" horiz-adv-x="2691"
d="M-10 1202l86 184q36 -20 129 -26t295 -6h321q508 0 715 22q8 -12 2 -24l-31 -21q-9 -39 -14.5 -235t-5.5 -402q0 -184 19 -283t65 -163q60 -88 155 -127t236 -39q235 0 348 166q78 125 78 385q0 233 -12 422.5t-23 265.5l8 14q22 4 77 20t75 27l12 -12
q-17 -58 -26 -278.5t-9 -427.5q0 -197 -29 -309t-91 -191q-156 -191 -463 -191q-186 0 -300 39.5t-188 126.5q-63 77 -92 193t-29 334q0 548 -22 634q-141 -28 -356 -38l-187 -11l-12 -16q-10 -210 -10 -539q0 -532 22 -682l-2 -12l-74 2l-145 -31l-12 11q26 198 26 712
q0 409 -8 537l-14 16l-152 -2q-176 0 -230 -9t-118 -46q-9 0 -14 10zM1896 1743l9 -4q22 -40 90 -143t96 -140v-10h-43q-39 33 -153.5 139t-143.5 139q-7 8 0 19h145z" />
    <glyph glyph-name="T_Ugrave.sc" unicode="&#xe18e;&#xe1e8;" horiz-adv-x="2023"
d="M-6 815l61 158q61 -27 336 -27h262q416 0 533 23l4 -17l-21 -22q-14 -75 -14 -303q0 -167 9 -256t29 -135t62 -84q75 -70 224 -70q166 0 231 98q31 47 43 111t12 203q0 248 -24 426l6 12q62 9 131 33l10 -9q-26 -122 -26 -452q0 -127 -12.5 -210.5t-57.5 -150.5
q-106 -161 -350 -161q-134 0 -220.5 26.5t-146.5 89.5q-48 52 -71 132.5t-23 222.5q0 249 -5.5 339.5t-17.5 110.5q-109 -38 -256 -41l-135 -6l-8 -12q-8 -82 -8 -359q0 -378 18 -471l-6 -10h-69l-129 -24l-11 10q25 144 25 495q0 177 -6 357l-8 10h-142q-99 0 -133 -7.5
t-80 -37.5q-12 0 -16 8zM1407 1348l10 -5q27 -57 82 -162.5t74 -133.5v-9h-43q-30 28 -129 139t-129 152q-6 9 0 19h135z" />
    <glyph glyph-name="T_Uhungarumlaut" unicode="T&#x170;" horiz-adv-x="2691"
d="M-10 1202l86 184q36 -20 129 -26t295 -6h321q508 0 715 22q8 -12 2 -24l-31 -21q-9 -39 -14.5 -235t-5.5 -402q0 -184 19 -283t65 -163q60 -88 155 -127t236 -39q235 0 348 166q78 125 78 385q0 233 -12 422.5t-23 265.5l8 14q22 4 77 20t75 27l12 -12
q-17 -58 -26 -278.5t-9 -427.5q0 -197 -29 -309t-91 -191q-156 -191 -463 -191q-186 0 -300 39.5t-188 126.5q-63 77 -92 193t-29 334q0 548 -22 634q-141 -28 -356 -38l-187 -11l-12 -16q-10 -210 -10 -539q0 -532 22 -682l-2 -12l-74 2l-145 -31l-12 11q26 198 26 712
q0 409 -8 537l-14 16l-152 -2q-176 0 -230 -9t-118 -46q-9 0 -14 10zM1896 1739l9 4h131q6 -9 0 -19q-29 -37 -125 -140t-129 -134h-43v10q18 27 77 131t80 148zM2136 1739l8 4h131q6 -9 0 -19q-29 -37 -125 -140t-129 -134h-43v10q17 25 76 128.5t82 150.5z" />
    <glyph glyph-name="T_Uhungarumlaut.sc" unicode="&#xe18e;&#xe1e9;" horiz-adv-x="2023"
d="M-6 815l61 158q61 -27 336 -27h262q416 0 533 23l4 -17l-21 -22q-14 -75 -14 -303q0 -167 9 -256t29 -135t62 -84q75 -70 224 -70q166 0 231 98q31 47 43 111t12 203q0 248 -24 426l6 12q62 9 131 33l10 -9q-26 -122 -26 -452q0 -127 -12.5 -210.5t-57.5 -150.5
q-106 -161 -350 -161q-134 0 -220.5 26.5t-146.5 89.5q-48 52 -71 132.5t-23 222.5q0 249 -5.5 339.5t-17.5 110.5q-109 -38 -256 -41l-135 -6l-8 -12q-8 -82 -8 -359q0 -378 18 -471l-6 -10h-69l-129 -24l-11 10q25 144 25 495q0 177 -6 357l-8 10h-142q-99 0 -133 -7.5
t-80 -37.5q-12 0 -16 8zM1389 1341l6 5h123q7 -9 2 -19q-25 -35 -116.5 -145t-115.5 -135h-43v8q83 150 144 286zM1624 1341l6 5h123q7 -9 2 -19q-25 -33 -116 -143.5t-115 -136.5h-43v8q94 177 143 286z" />
    <glyph glyph-name="T_Umacron" unicode="T&#x16a;" horiz-adv-x="2691"
d="M-10 1202l86 184q36 -20 129 -26t295 -6h321q508 0 715 22q8 -12 2 -24l-31 -21q-9 -39 -14.5 -235t-5.5 -402q0 -184 19 -283t65 -163q60 -88 155 -127t236 -39q235 0 348 166q78 125 78 385q0 233 -12 422.5t-23 265.5l8 14q22 4 77 20t75 27l12 -12
q-17 -58 -26 -278.5t-9 -427.5q0 -197 -29 -309t-91 -191q-156 -191 -463 -191q-186 0 -300 39.5t-188 126.5q-63 77 -92 193t-29 334q0 548 -22 634q-141 -28 -356 -38l-187 -11l-12 -16q-10 -210 -10 -539q0 -532 22 -682l-2 -12l-74 2l-145 -31l-12 11q26 198 26 712
q0 409 -8 537l-14 16l-152 -2q-176 0 -230 -9t-118 -46q-9 0 -14 10zM1704 1597h475v-94h-475v94z" />
    <glyph glyph-name="T_Umacron.sc" unicode="&#xe18e;&#xe1ea;" horiz-adv-x="2023"
d="M-6 815l61 158q61 -27 336 -27h262q416 0 533 23l4 -17l-21 -22q-14 -75 -14 -303q0 -167 9 -256t29 -135t62 -84q75 -70 224 -70q166 0 231 98q31 47 43 111t12 203q0 248 -24 426l6 12q62 9 131 33l10 -9q-26 -122 -26 -452q0 -127 -12.5 -210.5t-57.5 -150.5
q-106 -161 -350 -161q-134 0 -220.5 26.5t-146.5 89.5q-48 52 -71 132.5t-23 222.5q0 249 -5.5 339.5t-17.5 110.5q-109 -38 -256 -41l-135 -6l-8 -12q-8 -82 -8 -359q0 -378 18 -471l-6 -10h-69l-129 -24l-11 10q25 144 25 495q0 177 -6 357l-8 10h-142q-99 0 -133 -7.5
t-80 -37.5q-12 0 -16 8zM1210 1245h478v-94h-478v94z" />
    <glyph glyph-name="T_Uogonek" unicode="T&#x172;" horiz-adv-x="2691"
d="M657 4l-145 -31l-12 11q26 198 26 712q0 409 -8 537l-14 16l-152 -2q-176 0 -230 -9t-118 -46q-9 0 -14 10l86 184q36 -20 129 -26t295 -6h321q508 0 715 22q8 -12 2 -24l-31 -21q-9 -39 -14.5 -235t-5.5 -402q0 -184 19 -283t65 -163q60 -88 155 -127t236 -39
q235 0 348 166q78 125 78 385q0 233 -12 422.5t-23 265.5l8 14q22 4 77 20t75 27l12 -12q-17 -58 -26 -278.5t-9 -427.5q0 -197 -29 -309t-91 -191q-106 -129 -279 -168q-143 -136 -143 -227q0 -47 29 -74t67 -27q71 0 119 49h12l-6 -45l-64 -75q-19 -15 -54 -23t-64 -8
q-82 0 -125 45.5t-43 109.5q0 105 180 259q-38 -7 -92 -7q-186 0 -300 39.5t-188 126.5q-63 77 -92 193t-29 334q0 548 -22 634q-141 -28 -356 -38l-187 -11l-12 -16q-10 -210 -10 -539q0 -532 22 -682l-2 -10h-74z" />
    <glyph glyph-name="T_Uogonek.sc" unicode="&#xe18e;&#xe1eb;" horiz-adv-x="2023"
d="M1669 -303l-63 -70q-44 -30 -119 -30q-80 0 -120 43t-40 108q0 56 50 117.5t134 120.5q-44 -4 -69 -4q-134 0 -220.5 26.5t-146.5 89.5q-48 52 -71 132.5t-23 222.5q0 249 -5.5 339.5t-17.5 110.5q-109 -38 -256 -41l-135 -6l-8 -12q-8 -82 -8 -359q0 -378 18 -471
l-6 -10h-69l-129 -24l-11 10q25 144 25 497q0 175 -6 355l-8 10h-142q-99 0 -133 -7.5t-80 -37.5q-12 0 -16 8l61 158q61 -27 336 -27h262q416 0 533 23l4 -17l-21 -22q-14 -75 -14 -303q0 -242 19.5 -330.5t80.5 -144.5q75 -70 224 -70q165 0 233 98q30 47 41.5 110.5
t11.5 203.5q0 248 -24 426l6 12q69 10 131 33l10 -9q-12 -63 -19 -211t-7 -256q0 -114 -14 -198.5t-58 -151.5q-67 -98 -188 -137q-72 -54 -114 -111.5t-42 -101.5q0 -46 29 -71t69 -25q70 0 119 49h12z" />
    <glyph glyph-name="T_Uring" unicode="T&#x16e;" horiz-adv-x="2691"
d="M-10 1202l86 184q36 -20 129 -26t295 -6h321q508 0 715 22q7 -11 4 -24l-33 -21q-9 -39 -14.5 -235t-5.5 -402q0 -184 19 -283t65 -163q60 -88 155 -127t236 -39q235 0 348 166q78 125 78 385q0 233 -12 422.5t-23 265.5l8 14q22 4 77 20t75 27l12 -12
q-17 -58 -26 -278.5t-9 -427.5q0 -197 -29 -309t-91 -191q-156 -191 -463 -191q-185 0 -299.5 39.5t-188.5 126.5q-63 77 -92 193t-29 334q0 548 -22 634q-141 -28 -356 -38l-187 -11l-12 -16q-10 -210 -10 -539q0 -532 22 -682l-2 -12l-74 2l-145 -31l-12 11q26 198 26 712
q0 409 -8 537l-14 16l-152 -2q-176 0 -230 -9t-118 -46q-9 0 -14 10zM1964 1790q74 0 127 -48.5t53 -119.5t-53 -119.5t-129 -48.5t-129 48.5t-53 119.5q0 72 53.5 120t130.5 48zM1960 1731q-43 0 -68.5 -31.5t-25.5 -77.5t26 -77.5t70 -31.5t70 31.5t26 77.5t-26 77.5
t-72 31.5z" />
    <glyph glyph-name="T_Uring.sc" unicode="&#xe18e;&#xe1f0;" horiz-adv-x="2023"
d="M-6 815l61 158q61 -27 336 -27h262q416 0 533 23l4 -17l-21 -22q-14 -75 -14 -303q0 -167 9 -256t29 -135t62 -84q75 -70 224 -70q166 0 231 98q31 47 43 111t12 203q0 248 -24 426l6 12q62 9 131 33l10 -9q-26 -122 -26 -452q0 -127 -12.5 -210.5t-57.5 -150.5
q-106 -161 -350 -161q-134 0 -220.5 26.5t-146.5 89.5q-48 52 -71 132.5t-23 222.5q0 249 -5.5 339.5t-17.5 110.5q-109 -38 -256 -41l-135 -6l-8 -12q-8 -82 -8 -359q0 -378 18 -471l-6 -10h-69l-129 -24l-11 10q25 144 25 495q0 177 -6 357l-8 10h-142q-99 0 -133 -7.5
t-80 -37.5q-12 0 -16 8zM1462 1374q75 0 127.5 -48t52.5 -120t-53 -120t-129 -48q-74 0 -127 48.5t-53 119.5q0 72 53 120t129 48zM1460 1315q-43 0 -68.5 -31t-25.5 -78q0 -46 25.5 -77t68.5 -31q45 0 70.5 31t25.5 77q0 47 -25.5 78t-70.5 31z" />
    <glyph glyph-name="T_V" unicode="TV" horiz-adv-x="2494"
d="M-10 1202l86 184q36 -20 129 -26t295 -6h456q144 0 313 10t171 10v-20l-35 -23l428 -1026h8l258 586q181 419 193 473q12 12 20 12l168 -6q7 -11 0 -27q-115 -119 -336 -579q-157 -323 -220.5 -480t-76.5 -249q-46 -28 -84 -70l-14 4q-33 139 -324 805q-181 423 -227 486
q-10 13 -25.5 16t-56.5 0l-383 -25l-12 -16q-10 -210 -10 -539q0 -532 22 -682l-2 -12l-74 2l-145 -31l-12 11q26 198 26 712q0 409 -8 537l-14 16l-152 -2q-176 0 -230 -9t-118 -46q-9 0 -14 10z" />
    <glyph glyph-name="T_V.sc" unicode="&#xe18e;&#xe1f2;" horiz-adv-x="1853"
d="M-6 815l61 158q61 -27 336 -27h348q153 0 365 17v-19l-19 -20l293 -688h4l181 387q110 247 131 335q4 9 16 9l141 -9q10 -6 4 -18q-37 -37 -104 -144.5t-145 -263.5q-121 -246 -162.5 -342.5t-50.5 -156.5q-62 -38 -82 -60l-15 7q-12 48 -55 151.5t-160 366.5
q-144 326 -172 364q-9 13 -25.5 16.5t-56.5 0.5l-260 -21l-8 -12q-8 -82 -8 -359q0 -377 18 -473l-6 -10h-69l-129 -24l-11 10q25 144 25 497q0 175 -6 355l-8 10h-142q-99 0 -133 -7.5t-80 -37.5q-12 0 -16 8z" />
    <glyph glyph-name="T_W" unicode="TW" horiz-adv-x="3125"
d="M-10 1202l86 184q36 -20 129 -26t295 -6h467q145 0 497 22v-22l-34 -21l364 -1028h8l266 559q-98 223 -152 325t-83 118q-22 13 -96 26v10l12 21q48 5 141.5 8t132.5 2q21 -8 27 -16l133 -309q74 142 139 315q3 8 15 12l160 -6q10 -13 0 -27q-61 -44 -121.5 -134
t-145.5 -251l279 -659h10l246 596q122 299 162 469q12 12 22 12l166 -6q6 -13 0 -27q-49 -58 -117.5 -187t-183.5 -384q-151 -335 -211 -489.5t-78 -247.5q-18 -11 -45 -34t-39 -36l-12 4q-15 83 -79 246.5t-234 546.5q-168 -338 -237 -494.5t-83 -232.5q-60 -43 -84 -70
l-12 6q-54 210 -268 793q-157 417 -205 496q-7 13 -28 17t-71 1l-395 -27l-12 -16q-10 -210 -10 -539q0 -532 22 -682l-2 -12l-74 2l-145 -31l-12 11q26 198 26 712q0 409 -8 537l-14 16l-152 -2q-176 0 -230 -9t-118 -46q-9 0 -14 10z" />
    <glyph glyph-name="T_W.sc" unicode="&#xe18e;&#xe1f3;" horiz-adv-x="2338"
d="M-6 815l61 158q61 -27 336 -27h346q60 0 129.5 2.5t114 5t92 6t49.5 3.5v-19l-22 -18l246 -703h4l190 369q-129 294 -162 311q-19 14 -61 17l-2 12l8 22q157 11 213 7q13 -4 18 -11l84 -207q75 145 95 211q7 6 14 9l129 -5q3 -10 0 -20q-74 -68 -195 -268l189 -443h4
l162 355q43 95 86.5 211t52.5 161q8 9 16 9l144 -5q11 -11 0 -22q-35 -33 -97.5 -143t-117.5 -222q-130 -270 -172.5 -370.5t-57.5 -167.5q-62 -41 -80 -60l-16 7q-13 64 -57 175t-158 357q-119 -222 -167.5 -324.5t-63.5 -162.5q-51 -24 -80 -52l-15 7q-35 153 -190 557
q-98 261 -145 333q-5 9 -20.5 10.5t-55.5 -1.5l-275 -21l-8 -12q-8 -82 -8 -359q0 -380 18 -473l-6 -10h-69l-129 -24l-11 10q25 144 25 497q0 175 -6 355l-8 10h-142q-99 0 -133 -7.5t-80 -37.5q-12 0 -16 8z" />
    <glyph glyph-name="T_Y" unicode="TY" horiz-adv-x="2279"
d="M-10 1202l86 184q36 -20 129 -26t295 -6h235q238 0 350.5 6.5t221.5 25.5q18 -26 190 -315q144 -238 201 -354h12l170 305q12 23 55 101t79 145t48 96q3 10 15 10l188 -14q7 -14 0 -27q-47 -15 -121.5 -100.5t-150.5 -200.5q-125 -183 -224 -377q-16 -35 -20 -55t-4 -57
q0 -260 14 -512l-6 -11l-65 -6l-134 -39l-10 9q8 69 14 243t5 334q-13 38 -73.5 152.5t-146.5 253.5q-180 294 -219 329q-100 -29 -239 -39l-152 -6l-12 -16q-10 -210 -10 -539q0 -532 22 -682l-2 -12l-74 2l-145 -31l-12 11q26 198 26 712q0 409 -8 537l-14 16l-152 -2
q-176 0 -230 -9t-118 -46q-9 0 -14 10z" />
    <glyph glyph-name="T_Y.sc" unicode="&#xe18e;&#xe1fa;" horiz-adv-x="1705"
d="M-6 815l61 158q61 -27 336 -27h215q276 0 420 29q6 -10 30 -49t52.5 -87t50.5 -87q89 -155 133 -242h6l113 203q102 185 123 241q13 9 29 9l145 -11q3 -3 3 -11t-3 -13q-70 -26 -201 -217q-90 -133 -159 -254q-13 -27 -13 -78q0 -198 11 -356l-9 -11l-57 -6l-113 -26
l-12 6q17 133 14 403q-20 58 -161 285q-119 186 -158 229q-92 -37 -160 -37l-123 -8l-8 -12q-8 -82 -8 -359q0 -380 18 -473l-6 -10h-69l-129 -24l-11 10q25 144 25 497q0 175 -6 355l-8 10h-142q-99 0 -133 -7.5t-80 -37.5q-12 0 -16 8z" />
    <glyph glyph-name="T_Yacute" unicode="T&#xdd;" horiz-adv-x="2279"
d="M-10 1202l86 184q36 -20 129 -26t295 -6h235q238 0 350.5 6.5t221.5 25.5q18 -26 190 -315q144 -238 201 -354h12l170 305q12 23 55 101t79 145t48 96q3 10 15 10l188 -14q7 -14 0 -27q-47 -15 -121.5 -100.5t-150.5 -200.5q-125 -183 -224 -377q-16 -35 -20 -55t-4 -57
q0 -260 14 -512l-6 -11l-65 -6l-134 -39l-10 9q8 69 14 243t5 334q-13 38 -73.5 152.5t-146.5 253.5q-180 294 -219 329q-100 -29 -239 -39l-152 -6l-12 -16q-10 -210 -10 -539q0 -532 22 -682l-2 -12l-74 2l-145 -31l-12 11q26 198 26 712q0 409 -8 537l-14 16l-152 -2
q-176 0 -230 -9t-118 -46q-9 0 -14 10zM1776 1739l8 4h147q6 -9 0 -19q-53 -60 -297 -278h-43v10q143 206 185 283z" />
    <glyph glyph-name="T_Yacute.sc" unicode="&#xe18e;&#xe1fb;" horiz-adv-x="1705"
d="M-6 815l61 158q61 -27 336 -27h215q276 0 420 29q6 -10 30 -49t52.5 -87t50.5 -87q89 -155 133 -242h6l113 203q102 185 123 241q13 9 29 9l145 -11q3 -3 3 -11t-3 -13q-70 -26 -201 -217q-90 -133 -159 -254q-13 -27 -13 -78q0 -198 11 -356l-9 -11l-57 -6l-113 -26
l-12 6q17 133 14 403q-20 58 -161 285q-119 186 -158 229q-92 -37 -160 -37l-123 -8l-8 -12q-8 -82 -8 -359q0 -380 18 -473l-6 -10h-69l-129 -24l-11 10q25 144 25 497q0 175 -6 355l-8 10h-142q-99 0 -133 -7.5t-80 -37.5q-12 0 -16 8zM1339 1343l9 5h137q6 -10 0 -19
q-30 -41 -131.5 -151.5t-132.5 -139.5h-41v9q21 34 78 140.5t81 155.5z" />
    <glyph glyph-name="Tau_Eta" unicode="&#x3a4;&#x397;" horiz-adv-x="2793"
d="M-10 1202l86 184q36 -20 129 -26t295 -6h336q534 0 698 47l12 -10l-22 -45q-21 -157 -21 -543q13 -19 33 -29q117 -22 430 -22q123 0 251 6.5t153 15.5l12 14q5 42 0 256.5t-15 253.5l7 15q35 14 204 67l15 -12q-27 -97 -27 -633q0 -326 14 -463l54 -28v-6
q-20 -25 -37 -84q-14 -61 -27 -91l-180 -88l-18 15q10 225 10 391v291q-5 11 -12 14t-27 2l-825 -41l-15 -22q-11 -193 13 -580l-9 -10l-67 -6l-131 -54l-17 11q27 104 27 716q0 544 -31 601q-38 -9 -174 -23.5t-223 -19.5l-158 -9l-12 -16q-10 -210 -10 -539
q0 -532 22 -682l-2 -10h-74l-145 -31l-12 11q26 198 26 712q0 409 -8 537l-14 16l-152 -2q-176 0 -230 -9t-118 -46q-9 0 -14 10z" />
    <glyph glyph-name="Tau_Eta.sc" unicode="&#xe1c0;&#xe06d;" horiz-adv-x="2109"
d="M-6 815l61 158q61 -27 336 -27h256q418 0 547 27l8 -12l-18 -29q-15 -82 -15 -361q8 -16 25 -22q46 -14 291 -14q57 0 151 5.5t113 10.5l8 8q2 42 -1 178t-11 172l6 11q28 10 93.5 26.5t94.5 20.5l9 -13q-19 -63 -19 -440q0 -238 10 -319l39 -23v-2q-18 -20 -28 -61
q-14 -54 -19 -64l-157 -63l-23 12q6 104 6 270v193q-1 10 -6.5 14t-19.5 4l-549 -33l-13 -16q0 -250 11 -395l-6 -8l-52 -5l-127 -38l-12 10q14 199 14 502q0 358 -28 409q-99 -37 -260 -37l-142 -6l-8 -12q-8 -82 -8 -359q0 -377 18 -473l-6 -10h-69l-129 -24l-11 10
q25 144 25 497q0 175 -6 355l-8 10h-142q-99 0 -133 -7.5t-80 -37.5q-12 0 -16 8z" />
    <glyph glyph-name="Tau_Iota" unicode="&#x3a4;&#x399;" horiz-adv-x="1728"
d="M-10 1202l86 184q36 -20 129 -26t295 -6h336q534 0 698 47l10 -10l-22 -45q-21 -163 -21 -641q0 -451 12 -660l-8 -10l-67 -6l-131 -54l-17 11q27 104 27 716q0 527 -27 598q-171 -26 -399 -40l-158 -9l-12 -16q-10 -210 -10 -539q0 -532 22 -682l-2 -12l-74 2l-145 -31
l-12 11q26 198 26 712q0 409 -8 537l-14 16l-152 -2q-176 0 -230 -9t-118 -46q-9 0 -14 10z" />
    <glyph glyph-name="Tau_Iota.sc" unicode="&#xe1c0;&#xe0b3;" horiz-adv-x="1345"
d="M-6 815l61 158q61 -27 336 -27h246q413 0 553 27l8 -12l-18 -29q-15 -75 -15 -434q0 -292 11 -467l-7 -8l-49 -5l-129 -38l-12 10q14 199 14 499q0 355 -24 412q-46 -18 -123 -27.5t-137 -9.5l-142 -6l-8 -12q-8 -82 -8 -359q0 -380 18 -473l-6 -10h-69l-129 -24l-11 10
q25 144 25 497q0 175 -6 355l-8 10h-142q-99 0 -133 -7.5t-80 -37.5q-12 0 -16 8z" />
    <glyph glyph-name="Tau_Tau" unicode="&#x3a4;&#x3a4;" horiz-adv-x="2136"
d="M-10 1202l86 184q36 -20 129 -26t295 -6h229q158 0 229 2l35 76q37 -19 132.5 -26t291.5 -7h230q453 0 503 28q9 -5 13 -16q-75 -58 -158 -100l-354 -15l-13 -16q-10 -322 -10 -584q0 -535 23 -682l-2 -10h-74l-145 -31l-13 11q27 194 27 712q0 394 -8 582l-15 16
q-134 0 -228.5 -5t-181.5 -15t-93 -10l-185 -13l-12 -16q-10 -210 -10 -539q0 -532 22 -682l-2 -12l-74 2l-145 -31l-12 11q26 198 26 712q0 409 -8 537l-14 16l-152 -2q-176 0 -230 -9t-118 -46q-9 0 -14 10z" />
    <glyph glyph-name="Tau_Tau.sc" unicode="&#xe1c0;&#xe1c0;" horiz-adv-x="1611"
d="M-6 815l61 158q61 -27 336 -27h340l27 66q64 -27 323 -27h168q298 0 367 19q8 -6 8 -17q-71 -55 -119 -82l-248 -10l-8 -12q-8 -156 -8 -396q0 -382 19 -473l-7 -10h-69l-129 -24l-11 10q25 144 25 497q0 97 -6 394l-8 10q-114 0 -244 -13.5t-135 -13.5l-109 -6l-8 -12
q-8 -82 -8 -359q0 -377 18 -473l-6 -10h-69l-129 -24l-11 10q25 144 25 497q0 175 -6 355l-8 10h-142q-99 0 -133 -7.5t-80 -37.5q-12 0 -16 8z" />
    <glyph glyph-name="Tcaron_I" unicode="&#x164;I" horiz-adv-x="1728"
d="M-10 1202l86 184q36 -20 129 -26t295 -6h336q534 0 698 47l10 -10l-22 -45q-21 -163 -21 -641q0 -451 12 -660l-8 -10l-67 -6l-131 -54l-17 11q27 104 27 716q0 527 -27 598q-171 -26 -399 -40l-158 -9l-12 -16q-10 -210 -10 -539q0 -532 22 -682l-2 -12l-74 2l-145 -31
l-12 11q26 198 26 712q0 409 -8 537l-14 16l-152 -2q-176 0 -230 -9t-118 -46q-9 0 -14 10zM416 1724l205 -131l202 131h51v-10l-235 -256h-39l-233 256v10h49z" />
    <glyph glyph-name="Tcaron_I.sc" unicode="&#xe1cc;&#xe095;" horiz-adv-x="1345"
d="M-6 815l61 158q61 -27 336 -27h246q413 0 553 27l8 -12l-18 -29q-15 -75 -15 -434q0 -292 11 -467l-7 -8l-49 -5l-129 -38l-12 10q14 199 14 499q0 355 -24 412q-46 -18 -123 -27.5t-137 -9.5l-142 -6l-8 -12q-8 -82 -8 -359q0 -380 18 -473l-6 -10h-69l-129 -24l-11 10
q25 144 25 497q0 175 -6 355l-8 10h-142q-99 0 -133 -7.5t-80 -37.5q-12 0 -16 8zM291 1360l174 -178l174 178h51v-10l-205 -312h-39l-204 312v10h49z" />
    <glyph glyph-name="Tcaron_T" unicode="&#x164;T" horiz-adv-x="2136"
d="M-10 1202l86 184q36 -20 129 -26t295 -6h229q158 0 229 2l35 76q37 -19 132.5 -26t291.5 -7h230q453 0 503 28q9 -5 13 -16q-75 -58 -158 -100l-354 -15l-13 -16q-10 -322 -10 -584q0 -535 23 -682l-2 -10h-74l-145 -31l-13 11q27 194 27 712q0 394 -8 582l-15 16
q-134 0 -228.5 -5t-181.5 -15t-93 -10l-185 -13l-12 -16q-10 -210 -10 -539q0 -532 22 -682l-2 -12l-74 2l-145 -31l-12 11q26 198 26 712q0 409 -8 537l-14 16l-152 -2q-176 0 -230 -9t-118 -46q-9 0 -14 10zM416 1724l205 -131l202 131h51v-10l-235 -256h-39l-233 256v10
h49z" />
    <glyph glyph-name="Tcaron_T.sc" unicode="&#xe1cc;&#xe18e;" horiz-adv-x="1611"
d="M-6 815l61 158q61 -27 336 -27h340l27 66q64 -27 323 -27h168q298 0 367 19q8 -6 8 -17q-71 -55 -119 -82l-248 -10l-8 -12q-8 -156 -8 -396q0 -382 19 -473l-7 -10h-69l-129 -24l-11 10q25 144 25 497q0 97 -6 394l-8 10q-114 0 -244 -13.5t-135 -13.5l-109 -6l-8 -12
q-8 -82 -8 -359q0 -377 18 -473l-6 -10h-69l-129 -24l-11 10q25 144 25 497q0 175 -6 355l-8 10h-142q-99 0 -133 -7.5t-80 -37.5q-12 0 -16 8zM291 1360l174 -178l174 178h51v-10l-205 -312h-39l-204 312v10h49z" />
    <glyph glyph-name="Tcaron_U" unicode="&#x164;U" horiz-adv-x="2691"
d="M-10 1202l86 184q36 -20 129 -26t295 -6h321q508 0 715 22q8 -12 2 -24l-31 -21q-9 -39 -14.5 -235t-5.5 -402q0 -184 19 -283t65 -163q60 -88 155 -127t236 -39q235 0 348 166q78 125 78 385q0 233 -12 422.5t-23 265.5l8 14q22 4 77 20t75 27l12 -12
q-17 -58 -26 -278.5t-9 -427.5q0 -197 -29 -309t-91 -191q-156 -191 -463 -191q-186 0 -300 39.5t-188 126.5q-63 77 -92 193t-29 334q0 548 -22 634q-141 -28 -356 -38l-187 -11l-12 -16q-10 -210 -10 -539q0 -532 22 -682l-2 -12l-74 2l-145 -31l-12 11q26 198 26 712
q0 409 -8 537l-14 16l-152 -2q-176 0 -230 -9t-118 -46q-9 0 -14 10zM416 1724l205 -131l202 131h51v-10l-235 -256h-39l-233 256v10h49z" />
    <glyph glyph-name="Tcaron_U.sc" unicode="&#xe1cc;&#xe1e3;" horiz-adv-x="2023"
d="M-6 815l61 158q61 -27 336 -27h262q416 0 533 23l4 -17l-21 -22q-14 -75 -14 -303q0 -167 9 -256t29 -135t62 -84q75 -70 224 -70q166 0 231 98q31 47 43 111t12 203q0 248 -24 426l6 12q62 9 131 33l10 -9q-26 -122 -26 -452q0 -127 -12.5 -210.5t-57.5 -150.5
q-106 -161 -350 -161q-134 0 -220.5 26.5t-146.5 89.5q-48 52 -71 132.5t-23 222.5q0 249 -5.5 339.5t-17.5 110.5q-109 -38 -256 -41l-135 -6l-8 -12q-8 -82 -8 -359q0 -378 18 -471l-6 -10h-69l-129 -24l-11 10q25 144 25 495q0 177 -6 357l-8 10h-142q-99 0 -133 -7.5
t-80 -37.5q-12 0 -16 8zM291 1360l174 -178l174 178h51v-10l-205 -312h-39l-204 312v10h49z" />
    <glyph glyph-name="Tcaron_Uring" unicode="&#x164;&#x16e;" horiz-adv-x="2691"
d="M-10 1202l86 184q36 -20 129 -26t295 -6h321q508 0 715 22q7 -11 4 -24l-33 -21q-9 -39 -14.5 -235t-5.5 -402q0 -184 19 -283t65 -163q60 -88 155 -127t236 -39q235 0 348 166q78 125 78 385q0 233 -12 422.5t-23 265.5l8 14q22 4 77 20t75 27l12 -12
q-17 -58 -26 -278.5t-9 -427.5q0 -197 -29 -309t-91 -191q-156 -191 -463 -191q-185 0 -299.5 39.5t-188.5 126.5q-63 77 -92 193t-29 334q0 548 -22 634q-141 -28 -356 -38l-187 -11l-12 -16q-10 -210 -10 -539q0 -532 22 -682l-2 -12l-74 2l-145 -31l-12 11q26 198 26 712
q0 409 -8 537l-14 16l-152 -2q-176 0 -230 -9t-118 -46q-9 0 -14 10zM416 1724l205 -131l202 131h51v-10l-235 -256h-39l-233 256v10h49zM1964 1790q74 0 127 -48.5t53 -119.5t-53 -119.5t-129 -48.5t-129 48.5t-53 119.5q0 72 53.5 120t130.5 48zM1960 1731
q-43 0 -68.5 -31.5t-25.5 -77.5t26 -77.5t70 -31.5t70 31.5t26 77.5t-26 77.5t-72 31.5z" />
    <glyph glyph-name="Tcaron_Uring.sc" unicode="&#xe1cc;&#xe1f0;" horiz-adv-x="2023"
d="M-6 815l61 158q61 -27 336 -27h262q416 0 533 23l4 -17l-21 -22q-14 -75 -14 -303q0 -167 9 -256t29 -135t62 -84q75 -70 224 -70q166 0 231 98q31 47 43 111t12 203q0 248 -24 426l6 12q62 9 131 33l10 -9q-26 -122 -26 -452q0 -127 -12.5 -210.5t-57.5 -150.5
q-106 -161 -350 -161q-134 0 -220.5 26.5t-146.5 89.5q-48 52 -71 132.5t-23 222.5q0 249 -5.5 339.5t-17.5 110.5q-109 -38 -256 -41l-135 -6l-8 -12q-8 -82 -8 -359q0 -378 18 -471l-6 -10h-69l-129 -24l-11 10q25 144 25 495q0 177 -6 357l-8 10h-142q-99 0 -133 -7.5
t-80 -37.5q-12 0 -16 8zM291 1360l174 -178l174 178h51v-10l-205 -312h-39l-204 312v10h49zM1462 1374q75 0 127.5 -48t52.5 -120t-53 -120t-129 -48q-74 0 -127 48.5t-53 119.5q0 72 53 120t129 48zM1460 1315q-43 0 -68.5 -31t-25.5 -78q0 -46 25.5 -77t68.5 -31
q45 0 70.5 31t25.5 77q0 47 -25.5 78t-70.5 31z" />
    <glyph glyph-name="Tcommaaccent_I" unicode="&#x162;I" horiz-adv-x="1728"
d="M-10 1202l86 184q36 -20 129 -26t295 -6h336q534 0 698 47l10 -10l-22 -45q-21 -163 -21 -641q0 -451 12 -660l-8 -10l-67 -6l-131 -54l-17 11q27 104 27 716q0 527 -27 598q-171 -26 -399 -40l-158 -9l-12 -16q-10 -210 -10 -539q0 -532 22 -682l-2 -12l-74 2l-145 -31
l-12 11q26 198 26 712q0 409 -8 537l-14 16l-152 -2q-176 0 -230 -9t-118 -46q-9 0 -14 10zM733 -225q0 -60 -55.5 -165t-106.5 -159q-30 -4 -39 12q67 119 70 244q-18 32 -78 86q-7 7 0 23q12 19 37 47t45 43q8 2 21 2q23 -10 53.5 -33.5t46.5 -42.5q6 -21 6 -57z" />
    <glyph glyph-name="Tcommaaccent_I.sc" unicode="&#xe1d7;&#xe095;" horiz-adv-x="1345"
d="M-6 815l61 158q64 -27 336 -27h248q411 0 551 27l8 -12l-18 -29q-15 -75 -15 -434q0 -292 11 -467l-7 -8l-49 -5l-129 -38l-12 10q14 199 14 499q0 355 -24 412q-46 -18 -123 -27.5t-137 -9.5l-142 -6l-8 -12q-8 -82 -8 -359q0 -380 18 -473l-6 -10h-69l-129 -24l-11 10
q25 144 25 497q0 175 -6 355l-8 10h-142q-99 0 -133 -7.5t-80 -37.5q-12 0 -16 8zM573 -225q0 -60 -55.5 -165t-105.5 -159q-31 -4 -39 12q66 117 69 244q-17 30 -77 86q-9 7 0 23q11 19 36 47t45 43q9 2 21 2q23 -10 53 -33.5t47 -42.5q6 -21 6 -57z" />
    <glyph glyph-name="Tcommaaccent_U" unicode="&#x162;U" horiz-adv-x="2691"
d="M-10 1202l86 184q36 -20 129 -26t295 -6h321q508 0 715 22q8 -12 2 -24l-31 -21q-9 -39 -14.5 -235t-5.5 -402q0 -184 19 -283t65 -163q60 -88 155 -127t236 -39q235 0 348 166q78 125 78 385q0 233 -12 422.5t-23 265.5l8 14q22 4 77 20t75 27l12 -12
q-17 -58 -26 -278.5t-9 -427.5q0 -197 -29 -309t-91 -191q-156 -191 -463 -191q-186 0 -300 39.5t-188 126.5q-63 77 -92 193t-29 334q0 548 -22 634q-141 -28 -356 -38l-187 -11l-12 -16q-10 -210 -10 -539q0 -532 22 -682l-2 -12l-74 2l-145 -31l-12 11q26 198 26 712
q0 409 -8 537l-14 16l-152 -2q-176 0 -230 -9t-118 -46q-9 0 -14 10zM733 -225q0 -60 -56 -166t-106 -158q-30 -4 -39 12q67 115 70 244q-18 32 -78 86q-6 6 0 21q12 21 37 48.5t45 41.5q9 5 21 2q22 -8 52 -31.5t48 -42.5q6 -21 6 -57z" />
    <glyph glyph-name="Tcommaaccent_U.sc" unicode="&#xe1d7;&#xe1e3;" horiz-adv-x="2023"
d="M-6 815l61 158q64 -27 336 -27h264q414 0 531 23l4 -17l-21 -22q-14 -75 -14 -303q0 -167 9 -256t29 -135t62 -84q75 -70 224 -70q166 0 231 98q31 47 43 111t12 203q0 248 -24 426l6 12q62 9 131 33l10 -9q-26 -122 -26 -452q0 -127 -12.5 -210.5t-57.5 -150.5
q-106 -161 -350 -161q-134 0 -220.5 26.5t-146.5 89.5q-48 52 -71 132.5t-23 222.5q0 249 -5.5 339.5t-17.5 110.5q-109 -38 -256 -41l-135 -6l-8 -12q-8 -82 -8 -359q0 -378 18 -471l-6 -10h-69l-129 -24l-11 10q25 144 25 495q0 177 -6 357l-8 10h-142q-99 0 -133 -7.5
t-80 -37.5q-12 0 -16 8zM573 -225q0 -60 -55.5 -166t-105.5 -158q-31 -4 -39 12q66 113 69 244q-17 30 -77 86q-9 7 0 23q11 19 36 46.5t45 41.5q10 5 21 2q45 -16 100 -74q6 -21 6 -57z" />
    <glyph glyph-name="Tcommaaccent_Y" unicode="&#x162;Y" horiz-adv-x="2279"
d="M-10 1202l86 184q36 -20 129 -26t295 -6h235q238 0 350.5 6.5t221.5 25.5q18 -26 190 -315q144 -238 201 -354h12l170 305q12 23 55 101t79 145t48 96q3 10 15 10l188 -14q7 -14 0 -27q-47 -15 -121.5 -100.5t-150.5 -200.5q-125 -183 -224 -377q-16 -35 -20 -55t-4 -57
q0 -260 14 -512l-6 -11l-65 -6l-134 -39l-10 9q8 69 14 243t5 334q-13 38 -73.5 152.5t-146.5 253.5q-180 294 -219 329q-100 -29 -239 -39l-152 -6l-12 -16q-10 -210 -10 -539q0 -532 22 -682l-2 -12l-74 2l-145 -31l-12 11q26 198 26 712q0 409 -8 537l-14 16l-152 -2
q-176 0 -230 -9t-118 -46q-9 0 -14 10zM733 -225q0 -61 -56 -166.5t-106 -157.5q-31 -4 -39 12q67 115 70 244q-13 24 -78 84q-6 9 0 23q12 19 37 47t45 43q8 2 21 2q23 -11 53.5 -34.5t46.5 -41.5q6 -21 6 -55z" />
    <glyph glyph-name="Tcommaaccent_Y.sc" unicode="&#xe1d7;&#xe1fa;" horiz-adv-x="1705"
d="M-6 815l61 158q64 -27 336 -27h217q277 0 418 29q6 -10 30 -49t52.5 -87t50.5 -87q89 -155 133 -242h6l113 203q102 185 123 241q13 9 29 9l145 -11q3 -3 3 -11t-3 -13q-70 -26 -201 -217q-90 -133 -159 -254q-13 -27 -13 -78q0 -198 11 -356l-9 -11l-57 -6l-113 -26
l-12 6q17 133 14 403q-20 58 -161 285q-119 186 -158 229q-92 -37 -160 -37l-123 -8l-8 -12q-8 -82 -8 -359q0 -380 18 -473l-6 -10h-69l-129 -24l-11 10q25 144 25 497q0 175 -6 355l-8 10h-142q-99 0 -133 -7.5t-80 -37.5q-12 0 -16 8zM573 -225q0 -60 -55.5 -165
t-105.5 -159q-31 -4 -39 12q66 117 69 244q-17 30 -77 86q-9 7 0 23q11 19 36 47t45 43q9 2 21 2q23 -10 53 -33.5t47 -42.5q6 -21 6 -57z" />
    <glyph glyph-name="Z_A" unicode="ZA" horiz-adv-x="2631"
d="M70 1161l75 213q133 -20 521 -20q456 0 540 8l11 -19q-146 -181 -453 -598t-430 -598q83 -16 253.5 -26t305.5 -10q179 0 299 6q157 236 328 569q197 384 241 541q16 45 21 106q16 20 45 48.5t47 39.5l10 -4q20 -146 291 -710q78 -164 129 -268.5t94.5 -183t68.5 -117.5
t54 -64.5t48 -33t52 -13.5q4 -18 -2 -27q-36 -2 -153.5 -2t-192.5 4l-4 10l15 21q-82 192 -197 420q-16 23 -49 20l-461 -39q-49 -3 -71 -16.5t-40 -48.5q-62 -121 -141 -314q-125 -26 -306.5 -42.5t-348.5 -16.5q-81 0 -269 5t-215 5q-92 0 -170 -12l-10 22
q105 122 469 619.5t453 630.5q-8 0 -130 1t-204 1q-295 0 -397 -25q-37 -19 -103 -94zM1802 1083l-241 -518q0 -12 12 -14q70 -12 227 -12q154 0 232 10l4 6z" />
    <glyph glyph-name="Z_A.sc" unicode="&#xe200;&#xe000;" horiz-adv-x="1939"
d="M51 780l53 183q99 -17 369 -17q353 0 418 8l10 -20q-108 -131 -319.5 -416.5t-290.5 -402.5q110 -25 327 -25q198 0 265 10q103 146 225 379q138 266 176 375q17 47 21 78q35 38 90 65l12 -4q15 -81 217 -497q158 -324 202 -390q37 -55 76 -69q11 -4 29 -8
q2 -4 1.5 -12.5t-3.5 -14.5q-28 -3 -124.5 -2.5t-155.5 6.5l-2 12l6 15q-82 180 -125 266q-6 12 -13 15t-24 1l-342 -30q-30 -3 -45 -13.5t-27 -35.5l-86 -195q-61 -18 -203 -30.5t-311 -12.5q-58 0 -191 3t-151 3q-63 0 -121 -8l-10 20q76 89 335.5 439t293.5 405
q-54 4 -215 4q-68 0 -150.5 -6t-111.5 -12q-40 -21 -82 -76zM1319 741l-164 -344q0 -7 8 -10q44 -10 146 -10q86 0 176 6l4 4z" />
    <glyph glyph-name="Z_Aacute" unicode="Z&#xc1;" horiz-adv-x="2631"
d="M70 1161l75 213q133 -20 521 -20q456 0 540 8l11 -19q-146 -181 -453 -598t-430 -598q83 -16 253.5 -26t305.5 -10q179 0 299 6q157 236 328 569q197 384 241 541q16 45 21 106q16 20 45 48.5t47 39.5l10 -4q20 -146 291 -710q78 -164 129 -268.5t94.5 -183t68.5 -117.5
t54 -64.5t48 -33t52 -13.5q4 -18 -2 -27q-36 -2 -153.5 -2t-192.5 4l-4 10l15 21q-82 192 -197 420q-16 23 -49 20l-461 -39q-49 -3 -71 -16.5t-40 -48.5q-62 -121 -141 -314q-125 -26 -306.5 -42.5t-348.5 -16.5q-81 0 -269 5t-215 5q-92 0 -170 -12l-10 22
q105 122 469 619.5t453 630.5q-8 0 -130 1t-204 1q-295 0 -397 -25q-37 -19 -103 -94zM1802 1083l-241 -518q0 -12 12 -14q70 -12 227 -12q154 0 232 10l4 6zM1915 1739l8 4h145q7 -9 0 -19q-30 -34 -296 -278h-43v10q30 41 97 142t89 141z" />
    <glyph glyph-name="Z_Aacute.sc" unicode="&#xe200;&#xe003;" horiz-adv-x="1939"
d="M51 780l53 183q99 -17 369 -17q353 0 418 8l10 -20q-108 -131 -319.5 -416.5t-290.5 -402.5q110 -25 327 -25q198 0 265 10q103 146 225 379q138 266 176 375q17 47 21 78q35 38 90 65l12 -4q15 -81 217 -497q158 -324 202 -390q37 -55 76 -69q11 -4 29 -8
q2 -4 1.5 -12.5t-3.5 -14.5q-28 -3 -124.5 -2.5t-155.5 6.5l-2 12l6 15q-82 180 -125 266q-6 12 -13 15t-24 1l-342 -30q-30 -3 -45 -13.5t-27 -35.5l-86 -195q-61 -18 -203 -30.5t-311 -12.5q-58 0 -191 3t-151 3q-63 0 -121 -8l-10 20q76 89 335.5 439t293.5 405
q-54 4 -215 4q-68 0 -150.5 -6t-111.5 -12q-40 -21 -82 -76zM1319 741l-164 -344q0 -7 8 -10q44 -10 146 -10q86 0 176 6l4 4zM1409 1343l10 5h137q7 -10 0 -19q-33 -43 -134 -154t-130 -137h-43v9q20 30 77.5 136.5t82.5 159.5z" />
    <glyph glyph-name="Z_Acircumflex" unicode="Z&#xc2;" horiz-adv-x="2631"
d="M70 1161l75 213q133 -20 521 -20q456 0 540 8l11 -19q-146 -181 -453 -598t-430 -598q83 -16 253.5 -26t305.5 -10q179 0 299 6q157 236 328 569q197 384 241 541q16 45 21 106q16 20 45 48.5t47 39.5l10 -4q20 -146 291 -710q78 -164 129 -268.5t94.5 -183t68.5 -117.5
t54 -64.5t48 -33t52 -13.5q4 -18 -2 -27q-36 -2 -153.5 -2t-192.5 4l-4 10l15 21q-82 192 -197 420q-16 23 -49 20l-461 -39q-49 -3 -71 -16.5t-40 -48.5q-62 -121 -141 -314q-125 -26 -306.5 -42.5t-348.5 -16.5q-81 0 -269 5t-215 5q-92 0 -170 -12l-10 22
q105 122 469 619.5t453 630.5q-8 0 -130 1t-204 1q-295 0 -397 -25q-37 -19 -103 -94zM1802 1083l-241 -518q0 -12 12 -14q70 -12 227 -12q154 0 232 10l4 6zM1634 1458h-51v10l236 256h39l235 -256v-10h-51l-203 131z" />
    <glyph glyph-name="Z_Acircumflex.sc" unicode="&#xe200;&#xe005;" horiz-adv-x="1939"
d="M51 780l53 183q99 -17 369 -17q353 0 418 8l10 -20q-108 -131 -319.5 -416.5t-290.5 -402.5q110 -25 327 -25q198 0 265 10q103 146 225 379q138 266 176 375q17 47 21 78q35 38 90 65l12 -4q15 -81 217 -497q158 -324 202 -390q37 -55 76 -69q11 -4 29 -8
q2 -4 1.5 -12.5t-3.5 -14.5q-28 -3 -124.5 -2.5t-155.5 6.5l-2 12l6 15q-82 180 -125 266q-6 12 -13 15t-24 1l-342 -30q-30 -3 -45 -13.5t-27 -35.5l-86 -195q-61 -18 -203 -30.5t-311 -12.5q-58 0 -191 3t-151 3q-63 0 -121 -8l-10 20q76 89 335.5 439t293.5 405
q-54 4 -215 4q-68 0 -150.5 -6t-111.5 -12q-40 -21 -82 -76zM1319 741l-164 -344q0 -7 8 -10q44 -10 146 -10q86 0 176 6l4 4zM1174 1038h-52v11l205 311h39l205 -311v-11h-49l-174 179z" />
    <glyph glyph-name="Z_Adieresis" unicode="Z&#xc4;" horiz-adv-x="2631"
d="M70 1161l75 213q133 -20 521 -20q456 0 540 8l11 -19q-146 -181 -453 -598t-430 -598q83 -16 253.5 -26t305.5 -10q179 0 299 6q157 236 328 569q197 384 241 541q16 45 21 106q16 20 45 48.5t47 39.5l10 -4q20 -146 291 -710q78 -164 129 -268.5t94.5 -183t68.5 -117.5
t54 -64.5t48 -33t52 -13.5q4 -18 -2 -27q-36 -2 -153.5 -2t-192.5 4l-4 10l15 21q-82 192 -197 420q-16 23 -49 20l-461 -39q-49 -3 -71 -16.5t-40 -48.5q-62 -121 -141 -314q-125 -26 -306.5 -42.5t-348.5 -16.5q-81 0 -269 5t-215 5q-92 0 -170 -12l-10 22
q105 122 469 619.5t453 630.5q-8 0 -130 1t-204 1q-295 0 -397 -25q-37 -19 -103 -94zM1802 1083l-241 -518q0 -12 12 -14q70 -12 227 -12q154 0 232 10l4 6zM1751 1591v-14q-13 -33 -59 -96q-40 3 -84 26.5t-62 53.5q-2 1 -2 6t2 8q21 52 76 96q9 6 16 2q93 -53 113 -82z
M2134 1591v-14q-16 -39 -57 -96q-41 3 -83 25.5t-67 54.5q-1 1 -1 6t1 8q33 59 80 96q8 6 12 2q34 -18 69.5 -42.5t45.5 -39.5z" />
    <glyph glyph-name="Z_Adieresis.sc" unicode="&#xe200;&#xe006;" horiz-adv-x="1939"
d="M51 780l53 183q99 -17 369 -17q353 0 418 8l10 -20q-108 -131 -319.5 -416.5t-290.5 -402.5q110 -25 327 -25q198 0 265 10q103 146 225 379q138 266 176 375q17 47 21 78q35 38 90 65l12 -4q15 -81 217 -497q158 -324 202 -390q37 -55 76 -69q11 -4 29 -8
q2 -4 1.5 -12.5t-3.5 -14.5q-28 -3 -124.5 -2.5t-155.5 6.5l-2 12l6 15q-82 180 -125 266q-6 12 -13 15t-24 1l-342 -30q-30 -3 -45 -13.5t-27 -35.5l-86 -195q-61 -18 -203 -30.5t-311 -12.5q-58 0 -191 3t-151 3q-63 0 -121 -8l-10 20q76 89 335.5 439t293.5 405
q-54 4 -215 4q-68 0 -150.5 -6t-111.5 -12q-40 -21 -82 -76zM1319 741l-164 -344q0 -7 8 -10q44 -10 146 -10q86 0 176 6l4 4zM1286 1196v-14q-11 -31 -55 -95q-38 5 -78 27.5t-68 50.5q-7 7 0 15q12 22 38 52.5t40 41.5q7 10 15 2q20 -9 60.5 -38.5t47.5 -41.5zM1628 1196
v-14q-14 -39 -57 -95q-36 5 -76 27.5t-68 50.5q-6 6 -2 15q13 21 39 52t39 42q9 10 17 2q20 -9 60.5 -38.5t47.5 -41.5z" />
    <glyph glyph-name="Z_Agrave" unicode="Z&#xc0;" horiz-adv-x="2631"
d="M70 1161l75 213q133 -20 521 -20q456 0 540 8l11 -19q-146 -181 -453 -598t-430 -598q83 -16 253.5 -26t305.5 -10q179 0 299 6q157 236 328 569q197 384 241 541q16 45 21 106q16 20 45 48.5t47 39.5l10 -4q20 -146 291 -710q78 -164 129 -268.5t94.5 -183t68.5 -117.5
t54 -64.5t48 -33t52 -13.5q4 -18 -2 -27q-36 -2 -153.5 -2t-192.5 4l-4 10l15 21q-82 192 -197 420q-16 23 -49 20l-461 -39q-49 -3 -71 -16.5t-40 -48.5q-62 -121 -141 -314q-125 -26 -306.5 -42.5t-348.5 -16.5q-81 0 -269 5t-215 5q-92 0 -170 -12l-10 22
q105 122 469 619.5t453 630.5q-8 0 -130 1t-204 1q-295 0 -397 -25q-37 -19 -103 -94zM1802 1083l-241 -518q0 -12 12 -14q70 -12 227 -12q154 0 232 10l4 6zM1774 1743l8 -4q46 -84 184 -283v-10h-41q-39 33 -153.5 139t-143.5 139q-7 8 0 19h146z" />
    <glyph glyph-name="Z_Agrave.sc" unicode="&#xe200;&#xe007;" horiz-adv-x="1939"
d="M51 780l53 183q99 -17 369 -17q353 0 418 8l10 -20q-108 -131 -319.5 -416.5t-290.5 -402.5q110 -25 327 -25q198 0 265 10q103 146 225 379q138 266 176 375q17 47 21 78q35 38 90 65l12 -4q15 -81 217 -497q158 -324 202 -390q37 -55 76 -69q11 -4 29 -8
q2 -4 1.5 -12.5t-3.5 -14.5q-28 -3 -124.5 -2.5t-155.5 6.5l-2 12l6 15q-82 180 -125 266q-6 12 -13 15t-24 1l-342 -30q-30 -3 -45 -13.5t-27 -35.5l-86 -195q-61 -18 -203 -30.5t-311 -12.5q-58 0 -191 3t-151 3q-63 0 -121 -8l-10 20q76 89 335.5 439t293.5 405
q-54 4 -215 4q-68 0 -150.5 -6t-111.5 -12q-40 -21 -82 -76zM1319 741l-164 -344q0 -7 8 -10q44 -10 146 -10q86 0 176 6l4 4zM1309 1348l8 -5q30 -61 84.5 -164.5t71.5 -131.5v-9h-41q-27 24 -126.5 135t-134.5 156q-6 10 3 19h135z" />
    <glyph glyph-name="Z_Amacron" unicode="Z&#x100;" horiz-adv-x="2631"
d="M70 1161l75 213q133 -20 521 -20q456 0 540 8l11 -19q-146 -181 -453 -598t-430 -598q83 -16 253.5 -26t305.5 -10q179 0 299 6q157 236 328 569q197 384 241 541q16 45 21 106q16 20 45 48.5t47 39.5l10 -4q20 -146 291 -710q78 -164 129 -268.5t94.5 -183t68.5 -117.5
t54 -64.5t48 -33t52 -13.5q4 -18 -2 -27q-36 -2 -153.5 -2t-192.5 4l-4 10l15 21q-82 192 -197 420q-16 23 -49 20l-461 -39q-49 -3 -71 -16.5t-40 -48.5q-62 -121 -141 -314q-125 -26 -306.5 -42.5t-348.5 -16.5q-81 0 -269 5t-215 5q-92 0 -170 -12l-10 22
q105 122 469 619.5t453 630.5q-8 0 -130 1t-204 1q-295 0 -397 -25q-37 -19 -103 -94zM1802 1083l-241 -518q0 -12 12 -14q70 -12 227 -12q154 0 232 10l4 6zM1591 1597h477v-94h-477v94z" />
    <glyph glyph-name="Z_Amacron.sc" unicode="&#xe200;&#xe00a;" horiz-adv-x="1939"
d="M51 780l53 183q99 -17 369 -17q353 0 418 8l10 -20q-108 -131 -319.5 -416.5t-290.5 -402.5q110 -25 327 -25q198 0 265 10q103 146 225 379q138 266 176 375q17 47 21 78q35 38 90 65l12 -4q15 -81 217 -497q158 -324 202 -390q37 -55 76 -69q11 -4 29 -8
q2 -4 1.5 -12.5t-3.5 -14.5q-28 -3 -124.5 -2.5t-155.5 6.5l-2 12l6 15q-82 180 -125 266q-6 12 -13 15t-24 1l-342 -30q-30 -3 -45 -13.5t-27 -35.5l-86 -195q-61 -18 -203 -30.5t-311 -12.5q-58 0 -191 3t-151 3q-63 0 -121 -8l-10 20q76 89 335.5 439t293.5 405
q-54 4 -215 4q-68 0 -150.5 -6t-111.5 -12q-40 -21 -82 -76zM1319 741l-164 -344q0 -7 8 -10q44 -10 146 -10q86 0 176 6l4 4zM1108 1245h477v-94h-477v94z" />
    <glyph glyph-name="Z_Aogonek" unicode="Z&#x104;" horiz-adv-x="2631"
d="M1208 1362l9 -19q-146 -181 -453 -598t-430 -598q83 -16 253.5 -26t305.5 -10q179 0 299 6q157 236 328 569q197 384 241 541q16 45 21 106q16 20 45 48.5t47 39.5l10 -4q20 -146 291 -710q78 -164 129 -268t94.5 -182t68.5 -117t54 -64.5t48 -33t52 -13.5q4 -16 -2 -27
q-10 -2 -82 -2q-149 -134 -149 -231q0 -47 29 -74t67 -27q68 0 119 49h12l-6 -45l-63 -75q-43 -31 -119 -31q-82 0 -125 45.5t-43 109.5q0 113 205 279q-83 0 -191 4l-4 10l17 23q-66 151 -199 416q-16 23 -49 20l-461 -39q-48 -3 -70.5 -16.5t-40.5 -48.5
q-46 -90 -141 -314q-123 -26 -305 -42.5t-350 -16.5q-81 0 -268.5 5t-213.5 5q-96 0 -170 -12l-12 22q107 124 474.5 626t447.5 624q-8 0 -130 1t-204 1q-295 0 -397 -25q-37 -19 -103 -94l-24 12l75 213q133 -20 523 -20q453 0 540 8zM2036 555l-234 528l-239 -518
q0 -11 10 -14q70 -12 227 -12t232 10z" />
    <glyph glyph-name="Z_Atilde" unicode="Z&#xc3;" horiz-adv-x="2631"
d="M70 1161l75 213q133 -20 521 -20q456 0 540 8l11 -19q-146 -181 -453 -598t-430 -598q83 -16 253.5 -26t305.5 -10q179 0 299 6q157 236 328 569q197 384 241 541q16 45 21 106q16 20 45 48.5t47 39.5l10 -4q20 -146 291 -710q78 -164 129 -268.5t94.5 -183t68.5 -117.5
t54 -64.5t48 -33t52 -13.5q4 -18 -2 -27q-36 -2 -153.5 -2t-192.5 4l-4 10l15 21q-82 192 -197 420q-16 23 -49 20l-461 -39q-49 -3 -71 -16.5t-40 -48.5q-62 -121 -141 -314q-125 -26 -306.5 -42.5t-348.5 -16.5q-81 0 -269 5t-215 5q-92 0 -170 -12l-10 22
q105 122 469 619.5t453 630.5q-8 0 -130 1t-204 1q-295 0 -397 -25q-37 -19 -103 -94zM1802 1083l-241 -518q0 -12 12 -14q70 -12 227 -12q154 0 232 10l4 6zM2169 1661l37 -21v-8l-49 -76q-65 -92 -138 -92q-45 0 -148.5 40.5t-146.5 41.5q-71 0 -139 -96l-37 23v8l47 65
q77 103 150 103q45 0 147 -40.5t142 -41.5q45 0 72.5 21t62.5 73z" />
    <glyph glyph-name="Z_Atilde.sc" unicode="&#xe200;&#xe00d;" horiz-adv-x="1939"
d="M51 780l53 183q99 -17 369 -17q353 0 418 8l10 -20q-108 -131 -319.5 -416.5t-290.5 -402.5q110 -25 327 -25q198 0 265 10q103 146 225 379q138 266 176 375q17 47 21 78q35 38 90 65l12 -4q15 -81 217 -497q158 -324 202 -390q37 -55 76 -69q11 -4 29 -8
q2 -4 1.5 -12.5t-3.5 -14.5q-28 -3 -124.5 -2.5t-155.5 6.5l-2 12l6 15q-82 180 -125 266q-6 12 -13 15t-24 1l-342 -30q-30 -3 -45 -13.5t-27 -35.5l-86 -195q-61 -18 -203 -30.5t-311 -12.5q-58 0 -191 3t-151 3q-63 0 -121 -8l-10 20q76 89 335.5 439t293.5 405
q-54 4 -215 4q-68 0 -150.5 -6t-111.5 -12q-40 -21 -82 -76zM1319 741l-164 -344q0 -7 8 -10q44 -10 146 -10q86 0 176 6l4 4zM1602 1309l36 -19v-8l-39 -70q-54 -96 -129 -96q-29 0 -103.5 39t-106.5 39q-74 0 -123 -90l-37 18v8l30 54q71 112 146 112q27 0 102.5 -38.5
t104.5 -38.5q44 0 70 21t49 69z" />
    <glyph glyph-name="Zcaron_A" unicode="&#x17d;A" horiz-adv-x="2631"
d="M70 1161l75 213q133 -20 521 -20q456 0 540 8l11 -19q-146 -181 -453 -598t-430 -598q83 -16 253.5 -26t305.5 -10q179 0 299 6q157 236 328 569q197 384 241 541q16 45 21 106q16 20 45 48.5t47 39.5l10 -4q20 -146 291 -710q78 -164 129 -268.5t94.5 -183t68.5 -117.5
t54 -64.5t48 -33t52 -13.5q4 -18 -2 -27q-36 -2 -153.5 -2t-192.5 4l-4 10l15 21q-82 192 -197 420q-16 23 -49 20l-461 -39q-49 -3 -71 -16.5t-40 -48.5q-62 -121 -141 -314q-125 -26 -306.5 -42.5t-348.5 -16.5q-81 0 -269 5t-215 5q-92 0 -170 -12l-10 22
q105 122 469 619.5t453 630.5q-8 0 -130 1t-204 1q-295 0 -397 -25q-37 -19 -103 -94zM1802 1083l-241 -518q0 -12 12 -14q70 -12 227 -12q154 0 232 10l4 6zM475 1724l203 -131l205 131h51v-10l-236 -256h-39l-235 256v10h51z" />
    <glyph glyph-name="Zcaron_A.sc" unicode="&#xe216;&#xe000;" horiz-adv-x="1939"
d="M51 780l53 183q99 -17 369 -17q353 0 418 8l10 -20q-108 -131 -319.5 -416.5t-290.5 -402.5q110 -25 327 -25q198 0 265 10q103 146 225 379q138 266 176 375q17 47 21 78q35 38 90 65l12 -4q15 -81 217 -497q158 -324 202 -390q37 -55 76 -69q11 -4 29 -8
q2 -4 1.5 -12.5t-3.5 -14.5q-28 -3 -124.5 -2.5t-155.5 6.5l-2 12l6 15q-82 180 -125 266q-6 12 -13 15t-24 1l-342 -30q-30 -3 -45 -13.5t-27 -35.5l-86 -195q-61 -18 -203 -30.5t-311 -12.5q-58 0 -191 3t-151 3q-63 0 -121 -8l-10 20q76 89 335.5 439t293.5 405
q-54 4 -215 4q-68 0 -150.5 -6t-111.5 -12q-40 -21 -82 -76zM1319 741l-164 -344q0 -7 8 -10q44 -10 146 -10q86 0 176 6l4 4zM303 1360l174 -178l174 178h49v-10l-204 -312h-39l-205 312v10h51z" />
    <glyph glyph-name="Zcaron_Aacute" unicode="&#x17d;&#xc1;" horiz-adv-x="2631"
d="M70 1161l75 213q133 -20 521 -20q456 0 540 8l11 -19q-146 -181 -453 -598t-430 -598q83 -16 253.5 -26t305.5 -10q179 0 299 6q157 236 328 569q197 384 241 541q16 45 21 106q16 20 45 48.5t47 39.5l10 -4q20 -146 291 -710q78 -164 129 -268.5t94.5 -183t68.5 -117.5
t54 -64.5t48 -33t52 -13.5q4 -18 -2 -27q-36 -2 -153.5 -2t-192.5 4l-4 10l15 21q-82 192 -197 420q-16 23 -49 20l-461 -39q-49 -3 -71 -16.5t-40 -48.5q-62 -121 -141 -314q-125 -26 -306.5 -42.5t-348.5 -16.5q-81 0 -269 5t-215 5q-92 0 -170 -12l-10 22
q105 122 469 619.5t453 630.5q-8 0 -130 1t-204 1q-295 0 -397 -25q-37 -19 -103 -94zM1802 1083l-241 -518q0 -12 12 -14q70 -12 227 -12q154 0 232 10l4 6zM475 1724l203 -131l205 131h51v-10l-236 -256h-39l-235 256v10h51zM1915 1739l8 4h145q7 -9 0 -19
q-30 -34 -296 -278h-43v10q30 41 97 142t89 141z" />
    <glyph glyph-name="Zcaron_Aacute.sc" unicode="&#xe216;&#xe003;" horiz-adv-x="1939"
d="M51 780l53 183q99 -17 369 -17q353 0 418 8l10 -20q-108 -131 -319.5 -416.5t-290.5 -402.5q110 -25 327 -25q198 0 265 10q103 146 225 379q138 266 176 375q17 47 21 78q35 38 90 65l12 -4q15 -81 217 -497q158 -324 202 -390q37 -55 76 -69q11 -4 29 -8
q2 -4 1.5 -12.5t-3.5 -14.5q-28 -3 -124.5 -2.5t-155.5 6.5l-2 12l6 15q-82 180 -125 266q-6 12 -13 15t-24 1l-342 -30q-30 -3 -45 -13.5t-27 -35.5l-86 -195q-61 -18 -203 -30.5t-311 -12.5q-58 0 -191 3t-151 3q-63 0 -121 -8l-10 20q76 89 335.5 439t293.5 405
q-54 4 -215 4q-68 0 -150.5 -6t-111.5 -12q-40 -21 -82 -76zM1319 741l-164 -344q0 -7 8 -10q44 -10 146 -10q86 0 176 6l4 4zM303 1360l174 -178l174 178h49v-10l-204 -312h-39l-205 312v10h51zM1409 1343l10 5h137q7 -10 0 -19q-33 -43 -134 -154t-130 -137h-43v9
q20 30 77.5 136.5t82.5 159.5z" />
    <glyph glyph-name="Zcaron_Amacron" unicode="&#x17d;&#x100;" horiz-adv-x="2631"
d="M70 1161l75 213q133 -20 521 -20q456 0 540 8l11 -19q-146 -181 -453 -598t-430 -598q83 -16 253.5 -26t305.5 -10q179 0 299 6q157 236 328 569q197 384 241 541q16 45 21 106q16 20 45 48.5t47 39.5l10 -4q20 -146 291 -710q78 -164 129 -268.5t94.5 -183t68.5 -117.5
t54 -64.5t48 -33t52 -13.5q4 -18 -2 -27q-36 -2 -153.5 -2t-192.5 4l-4 10l15 21q-82 192 -197 420q-16 23 -49 20l-461 -39q-49 -3 -71 -16.5t-40 -48.5q-62 -121 -141 -314q-125 -26 -306.5 -42.5t-348.5 -16.5q-81 0 -269 5t-215 5q-92 0 -170 -12l-10 22
q105 122 469 619.5t453 630.5q-8 0 -130 1t-204 1q-295 0 -397 -25q-37 -19 -103 -94zM1802 1083l-241 -518q0 -12 12 -14q70 -12 227 -12q154 0 232 10l4 6zM475 1722l203 -131l205 131h51v-10l-236 -254h-39l-235 254v10h51zM1591 1597h477v-94h-477v94z" />
    <glyph glyph-name="Zcaron_Amacron.sc" unicode="&#xe216;&#xe00a;" horiz-adv-x="1939"
d="M51 780l53 183q99 -17 369 -17q353 0 418 8l10 -20q-108 -131 -319.5 -416.5t-290.5 -402.5q110 -25 327 -25q198 0 265 10q103 146 225 379q138 266 176 375q17 47 21 78q35 38 90 65l12 -4q15 -81 217 -497q158 -324 202 -390q37 -55 76 -69q11 -4 29 -8
q2 -4 1.5 -12.5t-3.5 -14.5q-28 -3 -124.5 -2.5t-155.5 6.5l-2 12l6 15q-82 180 -125 266q-6 12 -13 15t-24 1l-342 -30q-30 -3 -45 -13.5t-27 -35.5l-86 -195q-61 -18 -203 -30.5t-311 -12.5q-58 0 -191 3t-151 3q-63 0 -121 -8l-10 20q76 89 335.5 439t293.5 405
q-54 4 -215 4q-68 0 -150.5 -6t-111.5 -12q-40 -21 -82 -76zM1319 741l-164 -344q0 -7 8 -10q44 -10 146 -10q86 0 176 6l4 4zM303 1360l174 -178l174 178h49v-10l-204 -312h-39l-205 312v10h51zM1108 1245h477v-94h-477v94z" />
    <glyph glyph-name="Zdotaccent_A" unicode="&#x17b;A" horiz-adv-x="2631"
d="M70 1161l75 213q133 -20 521 -20q456 0 540 8l11 -19q-146 -181 -453 -598t-430 -598q83 -16 253.5 -26t305.5 -10q179 0 299 6q157 236 328 569q197 384 241 541q16 45 21 106q16 20 45 48.5t47 39.5l10 -4q20 -146 291 -710q78 -164 129 -268.5t94.5 -183t68.5 -117.5
t54 -64.5t48 -33t52 -13.5q4 -18 -2 -27q-36 -2 -153.5 -2t-192.5 4l-4 10l15 21q-82 192 -197 420q-16 23 -49 20l-461 -39q-49 -3 -71 -16.5t-40 -48.5q-62 -121 -141 -314q-125 -26 -306.5 -42.5t-348.5 -16.5q-81 0 -269 5t-215 5q-92 0 -170 -12l-10 22
q105 122 469 619.5t453 630.5q-8 0 -130 1t-204 1q-295 0 -397 -25q-37 -19 -103 -94zM1802 1083l-241 -518q0 -12 12 -14q70 -12 227 -12q154 0 232 10l4 6zM770 1604v-15q-43 -80 -70 -106q-40 5 -90.5 32.5t-66.5 55.5q-4 8 0 16q9 19 36.5 54.5t45.5 52.5q12 6 20 2
q31 -16 70.5 -45.5t54.5 -46.5z" />
    <glyph glyph-name="Zdotaccent_A.sc" unicode="&#xe21f;&#xe000;" horiz-adv-x="1939"
d="M51 780l53 183q99 -17 369 -17q353 0 418 8l10 -20q-108 -131 -319.5 -416.5t-290.5 -402.5q110 -25 327 -25q198 0 265 10q103 146 225 379q138 266 176 375q17 47 21 78q35 38 90 65l12 -4q15 -81 217 -497q158 -324 202 -390q37 -55 76 -69q11 -4 29 -8
q2 -4 1.5 -12.5t-3.5 -14.5q-28 -3 -124.5 -2.5t-155.5 6.5l-2 12l6 15q-82 180 -125 266q-6 12 -13 15t-24 1l-342 -30q-30 -3 -45 -13.5t-27 -35.5l-86 -195q-61 -18 -203 -30.5t-311 -12.5q-58 0 -191 3t-151 3q-63 0 -121 -8l-10 20q76 89 335.5 439t293.5 405
q-54 4 -215 4q-68 0 -150.5 -6t-111.5 -12q-40 -21 -82 -76zM1319 741l-164 -344q0 -7 8 -10q44 -10 146 -10q86 0 176 6l4 4zM602 1198v-14q-38 -74 -67 -107q-42 5 -92.5 32.5t-65.5 55.5q-3 3 -3 8.5t3 8.5q7 19 34.5 54.5t45.5 51.5q12 6 20 2q32 -15 71 -45t54 -47z
" />
    <glyph glyph-name="Zdotaccent_Aogonek" unicode="&#x17b;&#x104;" horiz-adv-x="2631"
d="M1208 1362l9 -19q-146 -181 -453 -598t-430 -598q83 -16 253.5 -26t305.5 -10q179 0 299 6q157 236 328 569q197 384 241 541q16 45 21 106q16 20 45 48.5t47 39.5l10 -4q20 -146 291 -710q78 -164 129 -268t94.5 -182t68.5 -117t54 -64.5t48 -33t52 -13.5q4 -16 -2 -27
q-10 -2 -82 -2q-149 -134 -149 -231q0 -47 29 -74t67 -27q68 0 119 49h12l-6 -45l-63 -75q-43 -31 -119 -31q-82 0 -125 45.5t-43 109.5q0 113 205 279q-83 0 -191 4l-4 10l17 23q-66 151 -199 416q-16 23 -49 20l-461 -39q-48 -3 -70.5 -16.5t-40.5 -48.5
q-46 -90 -141 -314q-123 -26 -305 -42.5t-350 -16.5q-81 0 -268.5 5t-213.5 5q-96 0 -170 -12l-12 22q107 124 474.5 626t447.5 624q-8 0 -130 1t-204 1q-295 0 -397 -25q-37 -19 -103 -94l-24 12l75 213q133 -20 523 -20q453 0 540 8zM1802 1083l-239 -518q0 -11 10 -14
q70 -12 227 -12t232 10l4 6zM770 1604v-15q-42 -79 -68 -106q-42 5 -92 32.5t-65 55.5q-4 8 0 16q7 19 34 54.5t46 52.5q12 6 20 2q31 -16 70.5 -45.5t54.5 -46.5z" />
    <glyph glyph-name="Zdotaccent_Aogonek.sc" unicode="&#xe21f;&#xe00b;" horiz-adv-x="1939"
d="M891 954l10 -20q-108 -131 -319.5 -416.5t-290.5 -402.5q113 -25 327 -25q194 0 267 10q106 150 223 379q138 266 176 375q17 47 21 78q42 42 90 65l14 -4q15 -81 217 -497q158 -324 202 -390q37 -55 76 -69q11 -4 29 -8q5 -15 -4 -27q-10 -2 -51 -2q-168 -117 -168 -211
q0 -45 29.5 -70.5t64.5 -25.5q72 0 121 49h12l-6 -45l-65 -70q-35 -28 -113 -28q-79 0 -120.5 42.5t-41.5 106.5q0 62 57.5 127t157.5 125q-96 0 -157 6l-2 12l6 15q-96 210 -125 266q-9 19 -35 16l-344 -30q-30 -3 -45 -13.5t-27 -35.5l-86 -195q-59 -18 -201.5 -30.5
t-312.5 -12.5q-58 0 -190 3t-150 3q-65 0 -123 -8l-10 20q77 88 335 437t294 407q-54 4 -213 4q-68 0 -151.5 -6t-112.5 -12q-43 -25 -82 -76l-23 10l53 183q102 -17 371 -17q353 0 416 8zM1319 743l-164 -346q0 -7 10 -10q41 -10 144 -10q86 0 176 6l4 4zM602 1198v-14
q-38 -74 -67 -107q-42 4 -91.5 32t-66.5 56q-4 9 0 17q7 19 35 55t47 51q9 6 18 2q32 -15 71 -45t54 -47z" />
    <glyph glyph-name="Zeta_Alpha" unicode="&#x396;&#x391;" horiz-adv-x="2631"
d="M70 1161l75 213q133 -20 521 -20q456 0 540 8l11 -19q-146 -181 -453 -598t-430 -598q83 -16 253.5 -26t305.5 -10q179 0 299 6q157 236 328 569q197 384 241 541q16 45 21 106q16 20 45 48.5t47 39.5l10 -4q20 -146 291 -710q78 -164 129 -268.5t94.5 -183t68.5 -117.5
t54 -64.5t48 -33t52 -13.5q4 -18 -2 -27q-36 -2 -153.5 -2t-192.5 4l-4 10l15 21q-82 192 -197 420q-16 23 -49 20l-461 -39q-49 -3 -71 -16.5t-40 -48.5q-62 -121 -141 -314q-125 -26 -306.5 -42.5t-348.5 -16.5q-81 0 -269 5t-215 5q-92 0 -170 -12l-10 22
q105 122 469 619.5t453 630.5q-8 0 -130 1t-204 1q-295 0 -397 -25q-37 -19 -103 -94zM1802 1083l-241 -518q0 -12 12 -14q70 -12 227 -12q154 0 232 10l4 6z" />
    <glyph glyph-name="Zeta_Alpha.sc" unicode="&#xe226;&#xe008;" horiz-adv-x="1939"
d="M51 780l53 183q99 -17 369 -17q353 0 418 8l10 -20q-108 -131 -319.5 -416.5t-290.5 -402.5q110 -25 327 -25q198 0 265 10q103 146 225 379q138 266 176 375q17 47 21 78q35 38 90 65l12 -4q15 -81 217 -497q158 -324 202 -390q37 -55 76 -69q11 -4 29 -8
q2 -4 1.5 -12.5t-3.5 -14.5q-28 -3 -124.5 -2.5t-155.5 6.5l-2 12l6 15q-82 180 -125 266q-6 12 -13 15t-24 1l-342 -30q-30 -3 -45 -13.5t-27 -35.5l-86 -195q-61 -18 -203 -30.5t-311 -12.5q-58 0 -191 3t-151 3q-63 0 -121 -8l-10 20q76 89 335.5 439t293.5 405
q-54 4 -215 4q-68 0 -150.5 -6t-111.5 -12q-40 -21 -82 -76zM1319 741l-164 -344q0 -7 8 -10q44 -10 146 -10q86 0 176 6l4 4z" />
    <glyph glyph-name="c_t" unicode="ct" horiz-adv-x="1837"
d="M942 924l16 49q80 -27 347 -27h168q302 0 366 23q8 -4 8 -17q-35 -30 -118 -86l-248 -10l-8 -12q-9 -74 -9 -359q0 -380 19 -471l-6 -10h-70l-129 -24l-10 10q24 147 24 497q0 175 -6 355l-8 10h-141q-158 0 -205 -31l-17 -49l-22 -2q-14 51 -87 91t-196 40
q-142 0 -221 -63q-117 -94 -117 -306q0 -66 14 -128t45.5 -119.5t77 -100.5t113.5 -68.5t150 -25.5q105 0 183.5 30.5t127.5 74.5h10l-8 -50l-106 -102q-129 -68 -314 -68q-147 0 -259 69t-169 179.5t-57 243.5q0 254 211 410q77 49 166.5 75.5t218.5 26.5q153 0 266 -55z
" />
    <glyph glyph-name="c_tcaron" unicode="c&#x165;" horiz-adv-x="1837"
d="M942 924l16 49q80 -27 347 -27h168q302 0 366 23q8 -4 8 -17q-35 -30 -118 -86l-248 -10l-8 -12q-9 -74 -9 -359q0 -380 19 -471l-6 -10h-70l-129 -24l-10 10q24 147 24 497q0 175 -6 355l-8 10h-141q-158 0 -205 -31l-17 -49l-22 -2q-14 51 -87 91t-196 40
q-142 0 -221 -63q-117 -94 -117 -306q0 -66 14 -128t45.5 -119.5t77 -100.5t113.5 -68.5t150 -25.5q105 0 183.5 30.5t127.5 74.5h10l-8 -50l-106 -102q-129 -68 -314 -68q-147 0 -259 69t-169 179.5t-57 243.5q0 254 211 410q77 49 166.5 75.5t218.5 26.5q153 0 266 -55z
M1204 1360l174 -178l174 178h50v-10l-203 -312h-39l-205 312v10h49z" />
    <glyph glyph-name="c_tcommaaccent" unicode="c&#x163;" horiz-adv-x="1837"
d="M942 924l16 49q77 -27 345 -27h170q302 0 366 23q8 -4 8 -17q-35 -30 -118 -86l-248 -10l-8 -12q-9 -74 -9 -359q0 -380 19 -471l-6 -10h-70l-129 -24l-10 10q24 147 24 497q0 175 -6 355l-8 10h-141q-158 0 -205 -31l-17 -49l-22 -2q-14 51 -87 91t-196 40
q-142 0 -221 -63q-117 -94 -117 -306q0 -66 14 -128t45.5 -119.5t77 -100.5t113.5 -68.5t150 -25.5q105 0 183.5 30.5t127.5 74.5h10l-8 -50l-106 -102q-129 -68 -314 -68q-147 0 -259 69t-169 179.5t-57 243.5q0 254 211 410q77 49 166.5 75.5t218.5 26.5q153 0 266 -55z
M1485 -225q0 -60 -56 -166t-106 -158q-31 -4 -39 12q67 115 70 244q-21 35 -78 86q-7 7 0 23q11 19 36 47t46 41q9 5 20 2q42 -15 101 -74q6 -21 6 -57z" />
    <glyph glyph-name="ccaron_t" unicode="&#x10d;t" horiz-adv-x="1837"
d="M942 924l16 49q80 -27 347 -27h168q302 0 366 23q8 -4 8 -17q-35 -30 -118 -86l-248 -10l-8 -12q-9 -74 -9 -359q0 -380 19 -471l-6 -10h-70l-129 -24l-10 10q24 147 24 497q0 175 -6 355l-8 10h-141q-158 0 -205 -31l-17 -49l-22 -2q-14 51 -87 91t-196 40
q-142 0 -221 -63q-117 -94 -117 -306q0 -66 14 -128t45.5 -119.5t77 -100.5t113.5 -68.5t150 -25.5q105 0 183.5 30.5t127.5 74.5h10l-8 -50l-106 -102q-129 -68 -314 -68q-147 0 -259 69t-169 179.5t-57 243.5q0 254 211 410q77 49 166.5 75.5t218.5 26.5q153 0 266 -55z
M440 1360l174 -178l174 178h50v-10l-205 -312h-39l-205 312v10h51z" />
    <glyph glyph-name="ccedilla_t" unicode="&#xe7;t" horiz-adv-x="1837"
d="M1483 14l-6 -10h-70l-129 -24l-10 10q24 147 24 497q0 175 -6 355l-8 10h-141q-158 0 -205 -31l-17 -49l-22 -2q-14 51 -87 91t-196 40q-142 0 -221 -63q-117 -94 -117 -306q0 -66 14 -128t45.5 -119.5t77.5 -100.5t114 -68.5t151 -25.5q104 0 182.5 30.5t126.5 74.5h10
l-8 -50l-106 -102q-101 -54 -248 -66l-58 -81q-7 -11 -5 -17.5t16 -13.5q35 -21 51.5 -31.5t39.5 -30t32.5 -39t9.5 -43.5q0 -68 -76.5 -118.5t-189.5 -63.5l-21 39v16q67 4 109.5 32.5t42.5 68.5q0 15 -5.5 27.5t-19 25t-24 20t-34 23t-34.5 23.5q-23 16 2 45l94 116
q-145 1 -256 69.5t-168 179.5t-57 243q0 254 211 410q79 49 169 75.5t218 26.5q87 0 157.5 -18t106.5 -37l16 49q80 -27 347 -27h168q302 0 366 23q8 -4 8 -17q-35 -30 -118 -86l-248 -10l-8 -12q-9 -74 -9 -357q0 -379 19 -473z" />
    <glyph glyph-name="e_a" unicode="ea" horiz-adv-x="1908"
d="M37 899l104 64q152 -13 291 -13h180q129 0 183 19l10 -6v-185l-2 -4l-19 -12h-6l-84 106q-11 15 -32 15l-310 -19v-315l6 -8q41 -4 179 -4q130 0 221 8q4 -8 4 -10q0 -3 -4 -15q-69 -48 -82 -55q-218 -24 -324 -27v-321q100 -23 303 -23q140 0 203 19q107 141 221 366
q145 281 176 377q16 37 21 76q42 42 90 65l14 -4q18 -86 217 -497q58 -119 89.5 -183t64 -123t47.5 -82t35.5 -43.5t33.5 -25.5t36 -10q2 -4 1.5 -12.5t-3.5 -14.5q-27 -3 -123.5 -2.5t-155.5 6.5l-4 12l8 15q-15 30 -40.5 85.5t-46.5 100t-40 80.5q-6 12 -12.5 15t-22.5 1
l-344 -30q-30 -3 -45 -14t-24 -35l-105 -234q-10 -10 -22 -10q-15 4 -53 25.5t-56 35.5l-59 -33q-83 -24 -258 -24q-92 0 -260 6l-62 -18l-12 10q16 150 16 508q0 184 -6.5 258t-21.5 90q-20 19 -117 33zM1290 743l-164 -346q0 -7 11 -10q40 -10 143 -10q88 0 176 6l4 4z
" />
    <glyph glyph-name="e_aacute" unicode="e&#xe1;" horiz-adv-x="1908"
d="M37 899l104 64q152 -13 291 -13h180q129 0 183 19l10 -6v-185l-2 -4l-19 -12h-6l-84 106q-11 15 -32 15l-310 -19v-315l6 -8q41 -4 179 -4q130 0 221 8q4 -8 4 -10q0 -3 -4 -15q-69 -48 -82 -55q-218 -24 -324 -27v-321q100 -23 303 -23q140 0 203 19q107 141 221 366
q145 281 176 377q16 37 21 76q42 42 90 65l14 -4q18 -86 217 -497q58 -119 89.5 -183t64 -123t47.5 -82t35.5 -43.5t33.5 -25.5t36 -10q2 -4 1.5 -12.5t-3.5 -14.5q-27 -3 -123.5 -2.5t-155.5 6.5l-4 12l8 15q-15 30 -40.5 85.5t-46.5 100t-40 80.5q-6 12 -12.5 15t-22.5 1
l-344 -30q-30 -3 -45 -14t-24 -35l-105 -234q-10 -10 -22 -10q-15 4 -53 25.5t-56 35.5l-59 -33q-83 -24 -258 -24q-92 0 -260 6l-62 -18l-12 10q16 150 16 508q0 184 -6.5 258t-21.5 90q-20 19 -117 33zM1290 743l-164 -346q0 -7 11 -10q40 -10 143 -10q88 0 176 6l4 4z
M1382 1343l9 5h137q6 -10 0 -19q-29 -40 -129 -149.5t-133 -141.5h-43v9q21 34 78 140.5t81 155.5z" />
    <glyph glyph-name="e_acircumflex" unicode="e&#xe2;" horiz-adv-x="1908"
d="M37 899l104 64q152 -13 291 -13h180q129 0 183 19l10 -6v-185l-2 -4l-19 -12h-6l-84 106q-11 15 -32 15l-310 -19v-315l6 -8q41 -4 179 -4q130 0 221 8q4 -8 4 -10q0 -3 -4 -15q-69 -48 -82 -55q-218 -24 -324 -27v-321q100 -23 303 -23q140 0 203 19q107 141 221 366
q145 281 176 377q16 37 21 76q42 42 90 65l14 -4q18 -86 217 -497q58 -119 89.5 -183t64 -123t47.5 -82t35.5 -43.5t33.5 -25.5t36 -10q2 -4 1.5 -12.5t-3.5 -14.5q-27 -3 -123.5 -2.5t-155.5 6.5l-4 12l8 15q-15 30 -40.5 85.5t-46.5 100t-40 80.5q-6 12 -12.5 15t-22.5 1
l-344 -30q-30 -3 -45 -14t-24 -35l-105 -234q-10 -10 -22 -10q-15 4 -53 25.5t-56 35.5l-59 -33q-83 -24 -258 -24q-92 0 -260 6l-62 -18l-12 10q16 150 16 508q0 184 -6.5 258t-21.5 90q-20 19 -117 33zM1290 743l-164 -346q0 -7 11 -10q40 -10 143 -10q88 0 176 6l4 4z
M1145 1038h-51v11l204 311h39l205 -311v-11h-49l-174 179z" />
    <glyph glyph-name="e_adieresis" unicode="e&#xe4;" horiz-adv-x="1908"
d="M37 899l104 64q152 -13 291 -13h180q129 0 183 19l10 -6v-185l-2 -4l-19 -12h-6l-84 106q-11 15 -32 15l-310 -19v-315l6 -8q41 -4 179 -4q130 0 221 8q4 -8 4 -10q0 -3 -4 -15q-69 -48 -82 -55q-218 -24 -324 -27v-321q100 -23 303 -23q140 0 203 19q107 141 221 366
q145 281 176 377q16 37 21 76q42 42 90 65l14 -4q18 -86 217 -497q58 -119 89.5 -183t64 -123t47.5 -82t35.5 -43.5t33.5 -25.5t36 -10q2 -4 1.5 -12.5t-3.5 -14.5q-27 -3 -123.5 -2.5t-155.5 6.5l-4 12l8 15q-15 30 -40.5 85.5t-46.5 100t-40 80.5q-6 12 -12.5 15t-22.5 1
l-344 -30q-30 -3 -45 -14t-24 -35l-105 -234q-10 -10 -22 -10q-15 4 -53 25.5t-56 35.5l-59 -33q-83 -24 -258 -24q-92 0 -260 6l-62 -18l-12 10q16 150 16 508q0 184 -6.5 258t-21.5 90q-20 19 -117 33zM1290 743l-164 -346q0 -7 11 -10q40 -10 143 -10q88 0 176 6l4 4z
M1260 1196v-14q-17 -45 -58 -95q-38 5 -77 27.5t-66 50.5q-6 6 -2 15q12 22 37.5 52.5t40.5 41.5q6 10 14 2q21 -9 61 -38t50 -42zM1599 1196v-14q-10 -34 -55 -95q-38 5 -77.5 27.5t-67.5 50.5q-6 6 -2 15q13 22 39.5 52.5t40.5 41.5q6 10 14 2q21 -9 60.5 -38.5
t47.5 -41.5z" />
    <glyph glyph-name="e_agrave" unicode="e&#xe0;" horiz-adv-x="1908"
d="M37 899l104 64q152 -13 291 -13h180q129 0 183 19l10 -6v-185l-2 -4l-19 -12h-6l-84 106q-11 15 -32 15l-310 -19v-315l6 -8q41 -4 179 -4q130 0 221 8q4 -8 4 -10q0 -3 -4 -15q-69 -48 -82 -55q-218 -24 -324 -27v-321q100 -23 303 -23q140 0 203 19q107 141 221 366
q145 281 176 377q16 37 21 76q42 42 90 65l14 -4q18 -86 217 -497q58 -119 89.5 -183t64 -123t47.5 -82t35.5 -43.5t33.5 -25.5t36 -10q2 -4 1.5 -12.5t-3.5 -14.5q-27 -3 -123.5 -2.5t-155.5 6.5l-4 12l8 15q-15 30 -40.5 85.5t-46.5 100t-40 80.5q-6 12 -12.5 15t-22.5 1
l-344 -30q-30 -3 -45 -14t-24 -35l-105 -234q-10 -10 -22 -10q-15 4 -53 25.5t-56 35.5l-59 -33q-83 -24 -258 -24q-92 0 -260 6l-62 -18l-12 10q16 150 16 508q0 184 -6.5 258t-21.5 90q-20 19 -117 33zM1290 743l-164 -346q0 -7 11 -10q40 -10 143 -10q88 0 176 6l4 4z
M1280 1348l8 -5q32 -65 86 -167t72 -129v-9h-43q-28 27 -128 138t-132 153q-5 7 2 19h135z" />
    <glyph glyph-name="e_amacron" unicode="e&#x101;" horiz-adv-x="1908"
d="M37 899l104 64q152 -13 291 -13h180q129 0 183 19l10 -6v-185l-2 -4l-19 -12h-6l-84 106q-11 15 -32 15l-310 -19v-315l6 -8q41 -4 179 -4q130 0 221 8q4 -8 4 -10q0 -3 -4 -15q-69 -48 -82 -55q-218 -24 -324 -27v-321q100 -23 303 -23q140 0 203 19q107 141 221 366
q145 281 176 377q16 37 21 76q42 42 90 65l14 -4q18 -86 217 -497q58 -119 89.5 -183t64 -123t47.5 -82t35.5 -43.5t33.5 -25.5t36 -10q2 -4 1.5 -12.5t-3.5 -14.5q-27 -3 -123.5 -2.5t-155.5 6.5l-4 12l8 15q-15 30 -40.5 85.5t-46.5 100t-40 80.5q-6 12 -12.5 15t-22.5 1
l-344 -30q-30 -3 -45 -14t-24 -35l-105 -234q-10 -10 -22 -10q-15 4 -53 25.5t-56 35.5l-59 -33q-83 -24 -258 -24q-92 0 -260 6l-62 -18l-12 10q16 150 16 508q0 184 -6.5 258t-21.5 90q-20 19 -117 33zM1290 743l-164 -346q0 -7 11 -10q40 -10 143 -10q88 0 176 6l4 4z
M1079 1245h477v-94h-477v94z" />
    <glyph glyph-name="e_aogonek" unicode="e&#x105;" horiz-adv-x="1908"
d="M805 963v-185l-2 -4l-19 -12h-6l-84 106q-11 15 -32 15l-310 -19v-315l6 -8q41 -4 179 -4q130 0 221 8q4 -8 4 -10q0 -3 -4 -15q-69 -48 -82 -55q-218 -24 -324 -27v-321q100 -23 303 -23q140 0 203 19q103 135 221 366q145 281 176 377q16 37 21 76q42 42 90 65l14 -4
q18 -86 217 -497q58 -119 89.5 -183t64 -123t47.5 -82t35.5 -43.5t33.5 -25.5t36 -10q2 -4 1.5 -12.5t-3.5 -14.5q-11 -2 -52 -2q-168 -118 -168 -211q0 -45 30 -70.5t65 -25.5q72 0 120 49h13l-6 -45l-66 -70q-35 -28 -113 -28t-119.5 42.5t-41.5 106.5q0 62 57.5 127
t157.5 125q-97 0 -158 6l-2 12l6 15q-96 210 -125 266q-6 12 -12.5 15t-22.5 1l-344 -30q-30 -3 -45 -13.5t-26 -35.5l-103 -234q-10 -10 -22 -10q-15 4 -53 25.5t-56 35.5l-59 -33q-83 -24 -258 -24q-92 0 -260 6l-62 -18l-12 10q16 154 16 508q0 184 -6.5 258t-21.5 90
q-20 19 -117 33l2 16l104 64q152 -13 291 -13h180q129 0 183 19zM1290 743l-164 -346q0 -7 11 -10q43 -10 143 -10q88 0 176 6l4 4z" />
    <glyph glyph-name="e_aring" unicode="e&#xe5;" horiz-adv-x="1908"
d="M37 899l104 64q152 -13 291 -13h180q129 0 183 19l10 -6v-185l-2 -4l-19 -12h-6l-84 106q-11 15 -32 15l-310 -19v-315l6 -8q41 -4 179 -4q130 0 221 8q4 -8 4 -10q0 -3 -4 -15q-69 -48 -82 -55q-218 -24 -324 -27v-321q100 -23 303 -23q139 0 205 19q109 149 219 366
q145 281 176 377q16 30 21 76q43 43 92 65l12 -4q18 -86 217 -497q58 -120 89.5 -183.5t64 -123t47.5 -82t36 -43t34 -25.5t37 -10q4 -11 -4 -27q-27 -3 -123.5 -2.5t-155.5 6.5l-2 12l6 15q-83 181 -127 266q-6 12 -12.5 15t-22.5 1l-342 -30q-32 -3 -47 -13.5t-24 -35.5
l-105 -234q-10 -10 -22 -10q-15 4 -53 25.5t-56 35.5l-59 -33q-85 -24 -260 -24q-90 0 -258 6l-62 -18l-12 10q16 150 16 508q0 184 -6.5 258t-21.5 90q-20 19 -117 33zM1290 743l-162 -346q0 -7 9 -10q43 -10 145 -10q88 0 174 6l4 4zM1319 1374q75 0 127.5 -48t52.5 -120
q0 -71 -53 -119.5t-129 -48.5t-129 48.5t-53 119.5q0 72 53.5 120t130.5 48zM1315 1315q-44 0 -69 -31t-25 -78q0 -46 25.5 -77t70.5 -31q44 0 70 31t26 77q0 47 -26 78t-72 31z" />
    <glyph glyph-name="e_atilde" unicode="e&#xe3;" horiz-adv-x="1908"
d="M37 899l104 64q152 -13 291 -13h180q129 0 183 19l10 -6v-185l-2 -4l-19 -12h-6l-84 106q-11 15 -32 15l-310 -19v-315l6 -8q41 -4 179 -4q130 0 221 8q4 -8 4 -10q0 -3 -4 -15q-69 -48 -82 -55q-218 -24 -324 -27v-321q100 -23 303 -23q140 0 203 19q107 141 221 366
q145 281 176 377q16 37 21 76q42 42 90 65l14 -4q18 -86 217 -497q58 -119 89.5 -183t64 -123t47.5 -82t35.5 -43.5t33.5 -25.5t36 -10q2 -4 1.5 -12.5t-3.5 -14.5q-27 -3 -123.5 -2.5t-155.5 6.5l-4 12l8 15q-15 30 -40.5 85.5t-46.5 100t-40 80.5q-6 12 -12.5 15t-22.5 1
l-344 -30q-30 -3 -45 -14t-24 -35l-105 -234q-10 -10 -22 -10q-15 4 -53 25.5t-56 35.5l-59 -33q-83 -24 -258 -24q-92 0 -260 6l-62 -18l-12 10q16 150 16 508q0 184 -6.5 258t-21.5 90q-20 19 -117 33zM1290 743l-164 -346q0 -7 11 -10q40 -10 143 -10q88 0 176 6l4 4z
M1573 1309l39 -19v-8l-41 -70q-56 -96 -127 -96q-31 0 -106 39t-105 39q-74 0 -125 -90l-37 18v8l33 54q66 112 145 112q28 0 102 -38.5t103 -38.5q45 0 70.5 20.5t48.5 69.5z" />
    <glyph glyph-name="eacute_a" unicode="&#xe9;a" horiz-adv-x="1908"
d="M37 899l104 64q152 -13 291 -13h180q129 0 183 19l10 -6v-185l-2 -4l-19 -12h-6l-84 106q-11 15 -32 15l-310 -19v-315l6 -8q41 -4 179 -4q130 0 221 8q4 -8 4 -10q0 -3 -4 -15q-69 -48 -82 -55q-218 -24 -324 -27v-321q100 -23 303 -23q140 0 203 19q107 141 221 366
q145 281 176 377q16 37 21 76q42 42 90 65l14 -4q18 -86 217 -497q58 -119 89.5 -183t64 -123t47.5 -82t35.5 -43.5t33.5 -25.5t36 -10q2 -4 1.5 -12.5t-3.5 -14.5q-27 -3 -123.5 -2.5t-155.5 6.5l-4 12l8 15q-15 30 -40.5 85.5t-46.5 100t-40 80.5q-6 12 -12.5 15t-22.5 1
l-344 -30q-30 -3 -45 -14t-24 -35l-105 -234q-10 -10 -22 -10q-15 4 -53 25.5t-56 35.5l-59 -33q-83 -24 -258 -24q-92 0 -260 6l-62 -18l-12 10q16 150 16 508q0 184 -6.5 258t-21.5 90q-20 19 -117 33zM1290 743l-164 -346q0 -7 11 -10q40 -10 143 -10q88 0 176 6l4 4z
M524 1343l8 5h138q6 -10 0 -19q-29 -40 -129 -149.5t-133 -141.5h-43v9q18 28 74 133t85 163z" />
    <glyph glyph-name="eacute_acircumflex" unicode="&#xe9;&#xe2;" horiz-adv-x="1908"
d="M37 899l104 64q152 -13 291 -13h180q129 0 183 19l10 -6v-185l-2 -4l-19 -12h-6l-84 106q-11 15 -32 15l-310 -19v-315l6 -8q41 -4 179 -4q130 0 221 8q4 -8 4 -10q0 -3 -4 -15q-69 -48 -82 -55q-218 -24 -324 -27v-321q100 -23 303 -23q140 0 203 19q107 141 221 366
q145 281 176 377q16 37 21 76q42 42 90 65l14 -4q18 -86 217 -497q58 -119 89.5 -183t64 -123t47.5 -82t35.5 -43.5t33.5 -25.5t36 -10q2 -4 1.5 -12.5t-3.5 -14.5q-27 -3 -123.5 -2.5t-155.5 6.5l-4 12l8 15q-15 30 -40.5 85.5t-46.5 100t-40 80.5q-6 12 -12.5 15t-22.5 1
l-344 -30q-30 -3 -45 -14t-24 -35l-105 -234q-10 -10 -22 -10q-15 4 -53 25.5t-56 35.5l-59 -33q-83 -24 -258 -24q-92 0 -260 6l-62 -18l-12 10q16 150 16 508q0 184 -6.5 258t-21.5 90q-20 19 -117 33zM1290 743l-164 -346q0 -7 11 -10q40 -10 143 -10q88 0 176 6l4 4z
M524 1343l8 5h138q6 -10 0 -19q-29 -40 -129 -149.5t-133 -141.5h-43v9q18 28 74 133t85 163zM1145 1038h-49v11l204 311h39l203 -311v-11h-49l-174 179z" />
    <glyph glyph-name="edieresis_a" unicode="&#xeb;a" horiz-adv-x="1908"
d="M37 899l104 64q152 -13 291 -13h180q129 0 183 19l10 -6v-185l-2 -4l-19 -12h-6l-84 106q-11 15 -32 15l-310 -19v-315l6 -8q41 -4 179 -4q130 0 221 8q4 -8 4 -10q0 -3 -4 -15q-69 -48 -82 -55q-218 -24 -324 -27v-321q100 -23 303 -23q140 0 203 19q107 141 221 366
q145 281 176 377q16 37 21 76q42 42 90 65l14 -4q18 -86 217 -497q58 -119 89.5 -183t64 -123t47.5 -82t35.5 -43.5t33.5 -25.5t36 -10q2 -4 1.5 -12.5t-3.5 -14.5q-27 -3 -123.5 -2.5t-155.5 6.5l-4 12l8 15q-15 30 -40.5 85.5t-46.5 100t-40 80.5q-6 12 -12.5 15t-22.5 1
l-344 -30q-30 -3 -45 -14t-24 -35l-105 -234q-10 -10 -22 -10q-15 4 -53 25.5t-56 35.5l-59 -33q-83 -24 -258 -24q-92 0 -260 6l-62 -18l-12 10q16 150 16 508q0 184 -6.5 258t-21.5 90q-20 19 -117 33zM1290 743l-164 -346q0 -7 11 -10q40 -10 143 -10q88 0 176 6l4 4z
M414 1196v-14q-17 -45 -58 -95q-37 5 -77 27.5t-66 50.5q-6 6 -2 15q11 21 37 51.5t41 42.5q6 10 14 2q21 -9 61 -38t50 -42zM754 1196v-14q-14 -39 -56 -95q-38 5 -77.5 27.5t-67.5 50.5q-6 6 -2 15q13 21 38.5 52t39.5 42q9 9 16 2q20 -9 60.5 -38.5t48.5 -41.5z" />
    <glyph glyph-name="egrave_a" unicode="&#xe8;a" horiz-adv-x="1908"
d="M37 899l104 64q152 -13 291 -13h180q129 0 183 19l10 -6v-185l-2 -4l-19 -12h-6l-84 106q-11 15 -32 15l-310 -19v-315l6 -8q41 -4 179 -4q130 0 221 8q4 -8 4 -10q0 -3 -4 -15q-69 -48 -82 -55q-218 -24 -324 -27v-321q100 -23 303 -23q140 0 203 19q107 141 221 366
q145 281 176 377q16 37 21 76q42 42 90 65l14 -4q18 -86 217 -497q58 -119 89.5 -183t64 -123t47.5 -82t35.5 -43.5t33.5 -25.5t36 -10q2 -4 1.5 -12.5t-3.5 -14.5q-27 -3 -123.5 -2.5t-155.5 6.5l-4 12l8 15q-15 30 -40.5 85.5t-46.5 100t-40 80.5q-6 12 -12.5 15t-22.5 1
l-344 -30q-30 -3 -45 -14t-24 -35l-105 -234q-10 -10 -22 -10q-15 4 -53 25.5t-56 35.5l-59 -33q-83 -24 -258 -24q-92 0 -260 6l-62 -18l-12 10q16 150 16 508q0 184 -6.5 258t-21.5 90q-20 19 -117 33zM1290 743l-164 -346q0 -7 11 -10q40 -10 143 -10q88 0 176 6l4 4z
M438 1348l8 -5q23 -50 79.5 -156.5t76.5 -139.5v-9h-43q-30 28 -129 139t-129 152q-6 9 0 19h137z" />
    <glyph glyph-name="epsilon_alpha" unicode="&#x3b5;&#x3b1;" horiz-adv-x="1908"
d="M37 899l104 64q152 -13 291 -13h180q129 0 183 19l10 -6v-185l-2 -4l-19 -12h-6l-84 106q-11 15 -32 15l-310 -19v-315l6 -8q41 -4 179 -4q130 0 221 8q4 -8 4 -10q0 -3 -4 -15q-69 -48 -82 -55q-218 -24 -324 -27v-321q100 -23 303 -23q140 0 203 19q107 141 221 366
q145 281 176 377q16 37 21 76q42 42 90 65l14 -4q18 -86 217 -497q58 -119 89.5 -183t64 -123t47.5 -82t35.5 -43.5t33.5 -25.5t36 -10q2 -4 1.5 -12.5t-3.5 -14.5q-27 -3 -123.5 -2.5t-155.5 6.5l-4 12l8 15q-15 30 -40.5 85.5t-46.5 100t-40 80.5q-6 12 -12.5 15t-22.5 1
l-344 -30q-30 -3 -45 -14t-24 -35l-105 -234q-10 -10 -22 -10q-15 4 -53 25.5t-56 35.5l-59 -33q-83 -24 -258 -24q-92 0 -260 6l-62 -18l-12 10q16 150 16 508q0 184 -6.5 258t-21.5 90q-20 19 -117 33zM1290 743l-164 -346q0 -7 11 -10q40 -10 143 -10q88 0 176 6l4 4z
" />
    <glyph glyph-name="epsilontonos_alpha" unicode="&#x3ad;&#x3b1;" horiz-adv-x="2091"
d="M989 961v-183l-2 -4l-18 -12h-6l-84 106q-12 15 -33 15l-309 -19v-315l6 -8q41 -4 178 -4q130 0 221 8q4 -8 4 -10q0 -3 -4 -15q-60 -43 -82 -55q-215 -24 -323 -27v-321q99 -23 303 -23q139 0 202 19q106 138 222 366q145 281 176 377q16 39 20 76q44 42 90 65l15 -4
q16 -86 217 -497q159 -325 202 -391q37 -55 75 -68q11 -4 28 -8q2 -4 1.5 -12.5t-3.5 -14.5q-27 -3 -123.5 -2.5t-155.5 6.5l-4 12l8 15q-15 30 -40.5 85.5t-46.5 100t-40 80.5q-6 12 -12.5 15t-21.5 1l-344 -30q-30 -3 -45.5 -14t-24.5 -35l-105 -234q-10 -10 -22 -10
q-15 4 -53 25.5t-56 35.5l-59 -33q-81 -24 -258 -24q-90 0 -260 6l-62 -18l-12 10q17 160 17 508q0 183 -6.5 257.5t-22.5 90.5q-21 19 -117 33l2 16l105 64q150 -13 290 -13h181q123 0 182 17zM1475 743l-164 -346q0 -7 10 -10q44 -10 143 -10q88 0 176 6l5 4zM25 958l6 9
l141 22q9 -9 6 -18q-17 -57 -60 -157.5t-75 -154.5h-43v9q8 62 25 290z" />
    <glyph glyph-name="k_a" unicode="ka" horiz-adv-x="2082"
d="M178 -18l-16 8q18 68 18 499q0 215 -6.5 293.5t-28.5 102.5q-13 18 -79 35l-3 12l11 14l303 17l4 -13l-14 -28q-15 -102 -15 -404q72 12 142 62q43 54 121 163t126 183l2 35q65 0 148 -7t110 -12v-31q-57 -5 -89 -19t-93 -65q-33 -26 -123 -119t-131 -143v-8
q139 -172 266 -321.5t164 -184.5q116 159 256 428q145 278 176 375q16 37 21 78q42 42 90 65l14 -4q16 -93 217 -497q58 -119 89 -183t63 -123t47 -82t36 -43.5t34 -25.5t37 -10q2 -4 1.5 -12.5t-3.5 -14.5q-27 -3 -124.5 -2.5t-156.5 6.5l-2 12l6 15q-96 210 -125 266
q-6 12 -12.5 15t-24.5 1l-342 -30q-30 -3 -45 -13.5t-26 -35.5l-103 -232q-8 -12 -24 -12q-147 5 -273 43q-128 104 -409 428h-60q-6 -170 8 -432l-8 -11l-51 -4zM1462 741l-164 -344q0 -8 11 -10q40 -10 143 -10q88 0 176 6l4 4z" />
    <glyph glyph-name="k_aacute" unicode="k&#xe1;" horiz-adv-x="2082"
d="M178 -18l-16 8q18 68 18 499q0 215 -6.5 293.5t-28.5 102.5q-13 18 -79 35l-3 12l11 14l303 17l4 -13l-14 -28q-15 -102 -15 -404q72 12 142 62q43 54 121 163t126 183l2 35q65 0 148 -7t110 -12v-31q-57 -5 -89 -19t-93 -65q-33 -26 -123 -119t-131 -143v-8
q139 -172 266 -321.5t164 -184.5q116 159 256 428q145 278 176 375q16 37 21 78q42 42 90 65l14 -4q16 -93 217 -497q58 -119 89 -183t63 -123t47 -82t36 -43.5t34 -25.5t37 -10q2 -4 1.5 -12.5t-3.5 -14.5q-27 -3 -124.5 -2.5t-156.5 6.5l-2 12l6 15q-96 210 -125 266
q-6 12 -12.5 15t-24.5 1l-342 -30q-30 -3 -45 -13.5t-26 -35.5l-103 -232q-8 -12 -24 -12q-147 5 -273 43q-128 104 -409 428h-60q-6 -170 8 -432l-8 -11l-51 -4zM1462 741l-164 -344q0 -8 11 -10q40 -10 143 -10q88 0 176 6l4 4zM1554 1343l9 5h137q6 -10 0 -19
q-30 -41 -131.5 -152.5t-132.5 -138.5h-41v9q21 34 78 140.5t81 155.5z" />
    <glyph glyph-name="k_acircumflex" unicode="k&#xe2;" horiz-adv-x="2082"
d="M178 -18l-16 8q18 68 18 499q0 215 -6.5 293.5t-28.5 102.5q-13 18 -79 35l-3 12l11 14l303 17l4 -13l-14 -28q-15 -102 -15 -404q72 12 142 62q43 54 121 163t126 183l2 35q65 0 148 -7t110 -12v-31q-57 -5 -89 -19t-93 -65q-33 -26 -123 -119t-131 -143v-8
q139 -172 266 -321.5t164 -184.5q116 159 256 428q145 278 176 375q16 37 21 78q42 42 90 65l14 -4q16 -93 217 -497q58 -119 89 -183t63 -123t47 -82t36 -43.5t34 -25.5t37 -10q2 -4 1.5 -12.5t-3.5 -14.5q-27 -3 -124.5 -2.5t-156.5 6.5l-2 12l6 15q-96 210 -125 266
q-6 12 -12.5 15t-24.5 1l-342 -30q-30 -3 -45 -13.5t-26 -35.5l-103 -232q-8 -12 -24 -12q-147 5 -273 43q-128 104 -409 428h-60q-6 -170 8 -432l-8 -11l-51 -4zM1462 741l-164 -344q0 -8 11 -10q40 -10 143 -10q88 0 176 6l4 4zM1317 1038h-51v11l204 311h39l205 -311v-11
h-49l-174 179z" />
    <glyph glyph-name="k_adieresis" unicode="k&#xe4;" horiz-adv-x="2082"
d="M178 -18l-16 8q18 68 18 499q0 215 -6.5 293.5t-28.5 102.5q-13 18 -79 35l-3 12l11 14l303 17l4 -13l-14 -28q-15 -102 -15 -404q72 12 142 62q43 54 121 163t126 183l2 35q65 0 148 -7t110 -12v-31q-57 -5 -89 -19t-93 -65q-33 -26 -123 -119t-131 -143v-8
q139 -172 266 -321.5t164 -184.5q116 159 256 428q145 278 176 375q16 37 21 78q42 42 90 65l14 -4q16 -93 217 -497q58 -119 89 -183t63 -123t47 -82t36 -43.5t34 -25.5t37 -10q2 -4 1.5 -12.5t-3.5 -14.5q-27 -3 -124.5 -2.5t-156.5 6.5l-2 12l6 15q-96 210 -125 266
q-6 12 -12.5 15t-24.5 1l-342 -30q-30 -3 -45 -13.5t-26 -35.5l-103 -232q-8 -12 -24 -12q-147 5 -273 43q-128 104 -409 428h-60q-6 -170 8 -432l-8 -11l-51 -4zM1462 741l-164 -344q0 -8 11 -10q40 -10 143 -10q88 0 176 6l4 4zM1430 1196v-14q-14 -44 -56 -95
q-38 5 -77 27.5t-66 50.5q-6 6 -2 15q12 22 37.5 52.5t40.5 41.5q6 10 14 2q21 -9 60.5 -38.5t48.5 -41.5zM1772 1196v-14q-14 -39 -56 -95q-38 5 -77.5 27.5t-67.5 50.5q-6 6 -2 15q13 22 39.5 52.5t40.5 41.5q6 10 14 2q20 -9 60.5 -38.5t48.5 -41.5z" />
    <glyph glyph-name="k_agrave" unicode="k&#xe0;" horiz-adv-x="2082"
d="M178 -18l-16 8q18 68 18 499q0 215 -6.5 293.5t-28.5 102.5q-13 18 -79 35l-3 12l11 14l303 17l4 -13l-14 -28q-15 -102 -15 -404q72 12 142 62q43 54 121 163t126 183l2 35q65 0 148 -7t110 -12v-31q-57 -5 -89 -19t-93 -65q-33 -26 -123 -119t-131 -143v-8
q139 -172 266 -321.5t164 -184.5q116 159 256 428q145 278 176 375q16 37 21 78q42 42 90 65l14 -4q16 -93 217 -497q58 -119 89 -183t63 -123t47 -82t36 -43.5t34 -25.5t37 -10q2 -4 1.5 -12.5t-3.5 -14.5q-27 -3 -124.5 -2.5t-156.5 6.5l-2 12l6 15q-96 210 -125 266
q-6 12 -12.5 15t-24.5 1l-342 -30q-30 -3 -45 -13.5t-26 -35.5l-103 -232q-8 -12 -24 -12q-147 5 -273 43q-128 104 -409 428h-60q-6 -170 8 -432l-8 -11l-51 -4zM1462 741l-164 -344q0 -8 11 -10q40 -10 143 -10q88 0 176 6l4 4zM1452 1348l8 -5q32 -65 86 -167t72 -129v-9
h-43q-28 27 -128 138t-132 153q-5 7 2 19h135z" />
    <glyph glyph-name="k_amacron" unicode="k&#x101;" horiz-adv-x="2082"
d="M178 -18l-16 8q18 68 18 499q0 215 -6.5 293.5t-28.5 102.5q-13 18 -79 35l-3 12l11 14l303 17l4 -13l-14 -28q-15 -102 -15 -404q72 12 142 62q43 54 121 163t126 183l2 35q65 0 148 -7t110 -12v-31q-57 -5 -89 -19t-93 -65q-33 -26 -123 -119t-131 -143v-8
q139 -172 266 -321.5t164 -184.5q116 159 256 428q145 278 176 375q16 37 21 78q42 42 90 65l14 -4q16 -93 217 -497q58 -119 89 -183t63 -123t47 -82t36 -43.5t34 -25.5t37 -10q2 -4 1.5 -12.5t-3.5 -14.5q-27 -3 -124.5 -2.5t-156.5 6.5l-2 12l6 15q-96 210 -125 266
q-6 12 -12.5 15t-24.5 1l-342 -30q-30 -3 -45 -13.5t-26 -35.5l-103 -232q-8 -12 -24 -12q-147 5 -273 43q-128 104 -409 428h-60q-6 -170 8 -432l-8 -11l-51 -4zM1462 741l-164 -344q0 -8 11 -10q40 -10 143 -10q88 0 176 6l4 4zM1251 1245h478v-94h-478v94z" />
    <glyph glyph-name="k_aogonek" unicode="k&#x105;" horiz-adv-x="2082"
d="M2075 -303l-66 -70q-34 -28 -113 -28q-78 0 -119.5 42.5t-41.5 106.5q0 123 215 252q-97 0 -158 6l-2 12l6 15q-96 210 -125 266q-6 12 -12.5 15t-22.5 1l-344 -30q-30 -3 -45 -13.5t-26 -35.5l-103 -232q-8 -12 -24 -12q-147 5 -273 43q-128 104 -409 428h-60
q-6 -170 8 -432l-8 -11l-51 -4l-123 -34l-16 8q18 68 18 499q0 215 -7 294t-28 102q-13 18 -79 35l-3 12l11 14l303 17l4 -13l-14 -28q-15 -102 -15 -404q34 6 75 24t67 38q43 54 121 163t126 183l2 35q65 0 148 -7t110 -12v-31q-57 -5 -89 -19t-93 -65q-33 -26 -123 -119
t-131 -143v-8q137 -169 264.5 -319.5t165.5 -188.5q120 169 256 430q145 278 176 375q16 37 21 78q42 42 90 65l14 -4q19 -93 217 -497q58 -119 90 -184t64 -123.5t47 -82t36 -43t34 -24.5t37 -10q4 -17 -4 -27q-11 -2 -52 -2q-168 -118 -168 -211q0 -45 30 -70.5t65 -25.5
q72 0 120 49h13zM1462 741l-164 -344q0 -6 11 -10q40 -10 143 -10q88 0 176 6l4 4z" />
    <glyph glyph-name="k_aring" unicode="k&#xe5;" horiz-adv-x="2082"
d="M178 -18l-16 8q18 68 18 499q0 215 -6.5 293.5t-28.5 102.5q-13 18 -79 35l-3 12l11 14l303 17l4 -13l-14 -28q-15 -102 -15 -404q34 6 75 24t67 38q100 124 249 346v35q65 0 149 -7t109 -12l3 -31q-59 -5 -91 -19t-92 -65q-34 -25 -124 -118t-132 -144v-8
q139 -172 266 -321.5t164 -184.5q113 149 258 428q143 280 174 375q15 29 21 78q43 43 92 65l12 -4q19 -93 217 -497q58 -120 89.5 -183.5t64 -123t47.5 -82t36 -43t34 -25.5t37 -10q4 -11 -4 -27q-27 -3 -123.5 -2.5t-155.5 6.5l-2 12l6 15q-83 181 -127 266
q-6 12 -12.5 15t-22.5 1l-342 -30q-32 -3 -47 -13.5t-24 -35.5l-103 -232q-12 -12 -24 -12q-54 2 -136 14t-139 29q-128 104 -409 428h-60q-6 -170 8 -432l-8 -11l-51 -4zM1462 741l-162 -344q0 -7 9 -10q43 -10 145 -10q88 0 174 6l4 4zM1491 1374q75 0 127.5 -48
t52.5 -120q0 -71 -53 -119.5t-129 -48.5t-129 48.5t-53 119.5q0 72 53.5 120t130.5 48zM1487 1315q-44 0 -69 -31t-25 -78q0 -46 25.5 -77t70.5 -31q44 0 70 31t26 77q0 47 -26 78t-72 31z" />
    <glyph glyph-name="k_s" unicode="ks" horiz-adv-x="1816"
d="M178 -18l-16 8q18 68 18 499q0 215 -6.5 293.5t-28.5 102.5q-13 18 -79 35l-3 12l11 14l303 17l4 -13l-14 -28q-15 -102 -15 -404q72 12 142 62q43 54 121 163t126 183l2 35q65 0 148 -7t110 -12v-31q-57 -5 -89 -19t-93 -65q-33 -26 -123 -119t-131 -143v-8
q173 -207 280.5 -324t152 -153.5t79.5 -50.5l19 147h34q0 -18 7 -43q26 -31 81.5 -53.5t131.5 -22.5q100 0 155.5 52.5t55.5 117.5q0 75 -45 116t-189 87q-117 37 -175 92.5t-58 157.5q0 120 100 207.5t272 87.5q128 0 226 -39v-14l-33 -80l-6 -47h-31q-9 47 -62.5 78.5
t-136.5 31.5q-86 0 -134 -41.5t-48 -103.5q0 -47 17.5 -76.5t69 -56.5t151.5 -56q80 -22 131.5 -48.5t77 -59.5t34.5 -66t9 -80q0 -127 -122 -232t-288 -105q-331 0 -500 53q-116 92 -409 430h-60q-6 -170 8 -432l-8 -11l-51 -4z" />
    <glyph glyph-name="k_scaron" unicode="k&#x161;" horiz-adv-x="1816"
d="M178 -18l-16 8q18 68 18 499q0 215 -6.5 293.5t-28.5 102.5q-13 18 -79 35l-3 12l11 14l303 17l4 -13l-14 -28q-15 -102 -15 -404q72 12 142 62q43 54 121 163t126 183l2 35q65 0 148 -7t110 -12v-31q-57 -5 -89 -19t-93 -65q-33 -26 -123 -119t-131 -143v-8
q173 -207 280.5 -324t152 -153.5t79.5 -50.5l19 147h34q0 -18 7 -43q26 -31 81.5 -53.5t131.5 -22.5q100 0 155.5 52.5t55.5 117.5q0 75 -45 116t-189 87q-117 37 -175 92.5t-58 157.5q0 120 100 207.5t272 87.5q128 0 226 -39v-14l-33 -80l-6 -47h-31q-9 47 -62.5 78.5
t-136.5 31.5q-86 0 -134 -41.5t-48 -103.5q0 -47 17.5 -76.5t69 -56.5t151.5 -56q80 -22 131.5 -48.5t77 -59.5t34.5 -66t9 -80q0 -127 -122 -232t-288 -105q-331 0 -500 53q-116 92 -409 430h-60q-6 -170 8 -432l-8 -11l-51 -4zM1241 1360l174 -178l174 178h49v-10
l-204 -312h-39l-205 312v10h51z" />
    <glyph glyph-name="kappa_alpha" unicode="&#x3ba;&#x3b1;" horiz-adv-x="2082"
d="M178 -18l-16 8q18 68 18 499q0 215 -6.5 293.5t-28.5 102.5q-13 18 -79 35l-3 12l11 14l303 17l4 -13l-14 -28q-15 -102 -15 -404q72 12 142 62q43 54 121 163t126 183l2 35q65 0 148 -7t110 -12v-31q-57 -5 -89 -19t-93 -65q-33 -26 -123 -119t-131 -143v-8
q139 -172 266 -321.5t164 -184.5q116 159 256 428q145 278 176 375q16 37 21 78q42 42 90 65l14 -4q16 -93 217 -497q58 -119 89 -183t63 -123t47 -82t36 -43.5t34 -25.5t37 -10q2 -4 1.5 -12.5t-3.5 -14.5q-27 -3 -124.5 -2.5t-156.5 6.5l-2 12l6 15q-96 210 -125 266
q-6 12 -12.5 15t-24.5 1l-342 -30q-30 -3 -45 -13.5t-26 -35.5l-103 -232q-8 -12 -24 -12q-147 5 -273 43q-128 104 -409 428h-60q-6 -170 8 -432l-8 -11l-51 -4zM1462 741l-164 -344q0 -8 11 -10q40 -10 143 -10q88 0 176 6l4 4z" />
    <glyph glyph-name="kcommaaccent_a" unicode="&#x137;a" horiz-adv-x="2082"
d="M178 -18l-16 8q18 68 18 499q0 215 -6.5 293.5t-28.5 102.5q-13 18 -79 35l-3 12l11 14l303 17l4 -13l-14 -28q-15 -102 -15 -404q72 12 142 62q43 54 121 163t126 183l2 35q65 0 148 -7t110 -12v-31q-57 -5 -89 -19t-93 -65q-33 -26 -123 -119t-131 -143v-8
q139 -172 266 -321.5t164 -184.5q116 159 256 428q145 278 176 375q16 37 21 78q42 42 90 65l14 -4q16 -93 217 -497q58 -119 89 -183t63 -123t47 -82t36 -43.5t34 -25.5t37 -10q2 -4 1.5 -12.5t-3.5 -14.5q-27 -3 -124.5 -2.5t-156.5 6.5l-2 12l6 15q-96 210 -125 266
q-6 12 -12.5 15t-24.5 1l-342 -30q-30 -3 -45 -13.5t-26 -35.5l-103 -232q-8 -12 -24 -12q-147 5 -273 43q-128 104 -409 428h-60q-6 -170 8 -432l-8 -11l-51 -4zM1462 741l-164 -344q0 -6 11 -10q43 -10 145 -10q86 0 174 6l4 4zM674 -225q0 -60 -56 -166t-106 -158
q-30 -4 -41 12q29 48 50 114.5t22 129.5q-28 41 -78 86q-7 7 0 23q11 19 36 47t46 43q8 2 20 2q23 -10 53 -33.5t48 -42.5q6 -21 6 -57z" />
    <glyph glyph-name="kcommaaccent_s" unicode="&#x137;s" horiz-adv-x="1816"
d="M178 -18l-16 8q18 68 18 499q0 215 -6.5 293.5t-28.5 102.5q-13 18 -79 35l-3 12l11 14l303 17l4 -13l-14 -28q-15 -102 -15 -404q72 12 142 62q43 54 121 163t126 183l2 35q65 0 148 -7t110 -12v-31q-57 -5 -89 -19t-93 -65q-33 -26 -123 -119t-131 -143v-8
q173 -207 280.5 -324t152 -153.5t79.5 -50.5l19 147h34q0 -18 7 -43q26 -31 81.5 -53.5t131.5 -22.5q100 0 155.5 52.5t55.5 117.5q0 75 -45 116t-189 87q-117 37 -175 92.5t-58 157.5q0 120 100 207.5t272 87.5q128 0 226 -39v-14l-33 -80l-6 -47h-31q-9 47 -62.5 78.5
t-136.5 31.5q-86 0 -134 -41.5t-48 -103.5q0 -47 17.5 -76.5t69 -56.5t151.5 -56q80 -22 131.5 -48.5t77 -59.5t34.5 -66t9 -80q0 -127 -122 -232t-288 -105q-331 0 -500 53q-116 92 -409 430h-60q-6 -170 8 -432l-8 -11l-51 -4zM674 -223q0 -61 -56 -166t-106 -158
q-32 -5 -41 12q69 112 72 244q-25 36 -78 84q-6 9 0 23q11 19 36 47t46 43q8 2 20 2q23 -10 53 -33.5t48 -42.5q6 -21 6 -55z" />
    <glyph glyph-name="l_a" unicode="la" horiz-adv-x="1763"
d="M154 4v10q8 18 14 33q12 118 12 453q0 210 -5.5 287t-24.5 100q-19 20 -84 35v10l10 18q164 0 305 11l4 -9v-6l-16 -26q-17 -77 -17 -381q0 -294 4 -424q101 -21 242 -21q90 0 109 2q127 192 227 383q145 278 176 375q15 38 20 78q15 15 43 35.5t48 29.5l12 -4
q17 -88 217 -497q158 -324 202 -390q37 -55 76 -69q11 -4 29 -8q5 -15 -4 -27q-27 -3 -123 -2.5t-155 6.5l-2 12l6 15q-83 181 -127 266q-7 12 -13.5 15t-21.5 1l-342 -30q-31 -3 -45.5 -13.5t-26.5 -35.5l-92 -209q-107 -29 -322 -29q-237 0 -335 6zM1145 743l-164 -346
q0 -7 8 -10q44 -10 146 -10q87 0 174 6l4 4z" />
    <glyph glyph-name="l_aacute" unicode="l&#xe1;" horiz-adv-x="1763"
d="M154 4v10q8 18 14 33q12 118 12 453q0 210 -5.5 287t-24.5 100q-19 20 -84 35v10l10 18q164 0 305 11l4 -9v-6l-16 -26q-17 -77 -17 -381q0 -294 4 -424q101 -21 242 -21q90 0 109 2q127 192 227 383q145 278 176 375q15 38 20 78q15 15 43 35.5t48 29.5l12 -4
q17 -88 217 -497q158 -324 202 -390q37 -55 76 -69q11 -4 29 -8q5 -15 -4 -27q-27 -3 -123 -2.5t-155 6.5l-2 12l6 15q-83 181 -127 266q-7 12 -13.5 15t-21.5 1l-342 -30q-31 -3 -45.5 -13.5t-26.5 -35.5l-92 -209q-107 -29 -322 -29q-237 0 -335 6zM1145 743l-164 -346
q0 -7 8 -10q44 -10 146 -10q87 0 174 6l4 4zM1235 1343l8 5h137q7 -12 2 -19q-33 -43 -134 -154t-130 -137h-43v9q20 30 77.5 136.5t82.5 159.5z" />
    <glyph glyph-name="l_acircumflex" unicode="l&#xe2;" horiz-adv-x="1763"
d="M154 4v10q8 18 14 33q12 118 12 453q0 210 -5.5 287t-24.5 100q-19 20 -84 35v10l10 18q164 0 305 11l4 -9v-6l-16 -26q-17 -77 -17 -381q0 -294 4 -424q101 -21 242 -21q90 0 109 2q127 192 227 383q145 278 176 375q15 38 20 78q15 15 43 35.5t48 29.5l12 -4
q17 -88 217 -497q158 -324 202 -390q37 -55 76 -69q11 -4 29 -8q5 -15 -4 -27q-27 -3 -123 -2.5t-155 6.5l-2 12l6 15q-83 181 -127 266q-7 12 -13.5 15t-21.5 1l-342 -30q-31 -3 -45.5 -13.5t-26.5 -35.5l-92 -209q-107 -29 -322 -29q-237 0 -335 6zM1145 743l-164 -346
q0 -7 8 -10q44 -10 146 -10q87 0 174 6l4 4zM999 1038h-51v11l205 311h39l205 -311v-11h-51l-175 179z" />
    <glyph glyph-name="l_adieresis" unicode="l&#xe4;" horiz-adv-x="1763"
d="M154 4v10q8 18 14 33q12 118 12 453q0 210 -5.5 287t-24.5 100q-19 20 -84 35v10l10 18q164 0 305 11l4 -9v-6l-16 -26q-17 -77 -17 -381q0 -294 4 -424q101 -21 242 -21q90 0 109 2q127 192 227 383q145 278 176 375q15 38 20 78q15 15 43 35.5t48 29.5l12 -4
q17 -88 217 -497q158 -324 202 -390q37 -55 76 -69q11 -4 29 -8q5 -15 -4 -27q-27 -3 -123 -2.5t-155 6.5l-2 12l6 15q-83 181 -127 266q-7 12 -13.5 15t-21.5 1l-342 -30q-31 -3 -45.5 -13.5t-26.5 -35.5l-92 -209q-107 -29 -322 -29q-237 0 -335 6zM1145 743l-164 -346
q0 -7 8 -10q44 -10 146 -10q87 0 174 6l4 4zM1112 1194v-12q-8 -24 -55 -97q-74 10 -146 78q-6 6 -2 17q35 51 80 94q6 6 15 2q20 -9 60.5 -39.5t47.5 -42.5zM1454 1194v-12q-12 -34 -57 -97q-72 10 -144 78q-6 6 -2 17q12 19 37.5 49t40.5 45q6 6 17 2q20 -9 60.5 -39.5
t47.5 -42.5z" />
    <glyph glyph-name="l_agrave" unicode="l&#xe0;" horiz-adv-x="1763"
d="M154 4v10q8 18 14 33q12 118 12 453q0 210 -5.5 287t-24.5 100q-19 20 -84 35v10l10 18q164 0 305 11l4 -9v-6l-16 -26q-17 -77 -17 -381q0 -294 4 -424q101 -21 242 -21q90 0 109 2q127 192 227 383q145 278 176 375q15 38 20 78q15 15 43 35.5t48 29.5l12 -4
q17 -88 217 -497q158 -324 202 -390q37 -55 76 -69q11 -4 29 -8q5 -15 -4 -27q-27 -3 -123 -2.5t-155 6.5l-2 12l6 15q-83 181 -127 266q-7 12 -13.5 15t-21.5 1l-342 -30q-31 -3 -45.5 -13.5t-26.5 -35.5l-92 -209q-107 -29 -322 -29q-237 0 -335 6zM1145 743l-164 -346
q0 -7 8 -10q44 -10 146 -10q87 0 174 6l4 4zM1135 1348l8 -5q23 -50 79.5 -157t75.5 -139v-9h-43q-31 30 -130 140.5t-128 150.5q-6 9 0 19h138z" />
    <glyph glyph-name="l_amacron" unicode="l&#x101;" horiz-adv-x="1763"
d="M154 4v10q8 18 14 33q12 118 12 453q0 210 -5.5 287t-24.5 100q-19 20 -84 35v10l10 18q164 0 305 11l4 -9v-6l-16 -26q-17 -77 -17 -381q0 -294 4 -424q101 -21 242 -21q90 0 109 2q127 192 227 383q145 278 176 375q15 38 20 78q15 15 43 35.5t48 29.5l12 -4
q17 -88 217 -497q158 -324 202 -390q37 -55 76 -69q11 -4 29 -8q5 -15 -4 -27q-27 -3 -123 -2.5t-155 6.5l-2 12l6 15q-83 181 -127 266q-7 12 -13.5 15t-21.5 1l-342 -30q-31 -3 -45.5 -13.5t-26.5 -35.5l-92 -209q-107 -29 -322 -29q-237 0 -335 6zM1145 743l-164 -346
q0 -7 8 -10q44 -10 146 -10q87 0 174 6l4 4zM934 1245h477v-94h-477v94z" />
    <glyph glyph-name="l_aogonek" unicode="l&#x105;" horiz-adv-x="1763"
d="M66 932l10 18q164 0 305 11l4 -9v-6l-16 -26q-17 -75 -17 -381q0 -294 4 -424q101 -21 242 -21q90 0 109 2q127 192 227 383q138 266 176 375q15 38 20 78q15 15 43 35.5t48 29.5l12 -4q17 -88 217 -497q158 -324 202 -390q37 -55 76 -69q11 -4 29 -8q5 -15 -4 -27
q-10 -2 -51 -2q-166 -118 -166 -211q0 -45 29.5 -70.5t64.5 -25.5q70 0 119 49h12l-6 -45l-63 -70q-38 -28 -113 -28q-79 0 -120.5 42.5t-41.5 106.5q0 62 57.5 127t157.5 125q-96 0 -157 6l-2 12l6 15q-96 210 -125 266q-9 19 -35 16l-344 -30q-30 -3 -45 -13.5t-27 -35.5
l-92 -209q-107 -29 -322 -29q-237 0 -335 6v10q8 18 14 33q12 118 12 453q0 211 -5.5 287.5t-24.5 99.5q-19 20 -84 35v10zM1145 741l-164 -344q0 -7 8 -10q44 -10 146 -10q87 0 174 6l4 4z" />
    <glyph glyph-name="l_aring" unicode="l&#xe5;" horiz-adv-x="1763"
d="M154 4v10q8 18 14 33q12 118 12 453q0 210 -5.5 287t-24.5 100q-19 20 -84 35v10l10 18q164 0 305 11l4 -9v-6l-16 -26q-17 -77 -17 -381q0 -294 4 -424q101 -21 242 -21q90 0 109 2q127 192 227 383q145 278 176 375q15 38 20 78q15 15 43 35.5t48 29.5l12 -4
q17 -88 217 -497q158 -324 202 -390q37 -55 76 -69q11 -4 29 -8q5 -15 -4 -27q-27 -3 -123 -2.5t-155 6.5l-2 12l6 15q-83 181 -127 266q-7 12 -13.5 15t-21.5 1l-342 -30q-31 -3 -45.5 -13.5t-26.5 -35.5l-92 -209q-107 -29 -322 -29q-237 0 -335 6zM1145 743l-162 -346
q0 -7 8 -10q44 -10 144 -10q87 0 174 6l4 4zM1171 1374q75 0 128 -48t53 -120q0 -71 -53.5 -119.5t-129.5 -48.5q-74 0 -127 48.5t-53 119.5q0 72 53 120t129 48zM1169 1315q-43 0 -68.5 -31t-25.5 -78q0 -46 25.5 -77t68.5 -31q45 0 71 31t26 77q0 47 -26 78t-71 31z" />
    <glyph glyph-name="l_atilde" unicode="l&#xe3;" horiz-adv-x="1763"
d="M154 4v10q8 18 14 33q12 118 12 453q0 210 -5.5 287t-24.5 100q-19 20 -84 35v10l10 18q164 0 305 11l4 -9v-6l-16 -26q-17 -77 -17 -381q0 -294 4 -424q101 -21 242 -21q90 0 109 2q127 192 227 383q145 278 176 375q15 38 20 78q15 15 43 35.5t48 29.5l12 -4
q17 -88 217 -497q158 -324 202 -390q37 -55 76 -69q11 -4 29 -8q5 -15 -4 -27q-27 -3 -123 -2.5t-155 6.5l-2 12l6 15q-83 181 -127 266q-7 12 -13.5 15t-21.5 1l-342 -30q-31 -3 -45.5 -13.5t-26.5 -35.5l-92 -209q-107 -29 -322 -29q-237 0 -335 6zM1145 743l-164 -346
q0 -7 8 -10q44 -10 146 -10q87 0 174 6l4 4zM1427 1309l37 -19v-8l-39 -70q-59 -96 -129 -96q-29 0 -103.5 39t-107.5 39q-75 0 -124 -90l-37 18v8l32 54q69 112 146 112q27 0 101.5 -38.5t105.5 -38.5q44 0 70 21t48 69z" />
    <glyph glyph-name="lcaron_a" unicode="&#x13e;a" horiz-adv-x="1763"
d="M66 932l10 18q164 0 305 11l4 -9v-6l-16 -26q-17 -77 -17 -381q0 -294 4 -424q101 -21 242 -21q90 0 109 2q127 192 227 383q145 278 176 375q15 38 20 78q15 15 43 35.5t48 29.5l12 -4q17 -88 217 -497q158 -324 202 -390q37 -55 76 -69q11 -4 29 -8q5 -15 -4 -27
q-27 -3 -123 -2.5t-155 6.5l-2 12l6 15q-83 181 -127 266q-7 12 -13.5 15t-21.5 1l-342 -30q-31 -3 -45.5 -13.5t-26.5 -35.5l-92 -209q-107 -29 -322 -29q-237 0 -335 6v10q8 18 14 33q12 118 12 453q0 210 -5.5 287t-24.5 100q-19 20 -84 35v10zM1145 741l-164 -344
q0 -7 8 -10q44 -10 146 -10q87 0 174 6l4 4zM745 860q0 -54 -50.5 -150.5t-96.5 -148.5q-32 -4 -39 10q61 119 64 226q-4 9 -13 20.5t-16 19t-22 22t-19 18.5q-7 7 0 18q40 66 74 86q8 5 20 2q21 -9 50.5 -32t41.5 -40q6 -21 6 -51z" />
    <glyph glyph-name="lcommaaccent_a" unicode="&#x13c;a" horiz-adv-x="1763"
d="M154 4v10q8 18 14 33q12 118 12 453q0 210 -5.5 287t-24.5 100q-19 20 -84 35v10l10 18q164 0 305 11l4 -9v-6l-16 -26q-17 -77 -17 -381q0 -294 4 -424q101 -21 242 -21q90 0 109 2q127 192 227 383q145 278 176 375q15 38 20 78q15 15 43 35.5t48 29.5l12 -4
q17 -88 217 -497q158 -324 202 -390q37 -55 76 -69q11 -4 29 -8q5 -15 -4 -27q-27 -3 -123 -2.5t-155 6.5l-2 12l6 15q-83 181 -127 266q-7 12 -13.5 15t-21.5 1l-342 -30q-31 -3 -45.5 -13.5t-26.5 -35.5l-92 -209q-107 -29 -322 -29q-237 0 -335 6zM1145 743l-164 -346
q0 -7 8 -10q44 -10 146 -10q87 0 174 6l4 4zM573 -225q0 -60 -55.5 -166t-105.5 -158q-31 -4 -39 12q28 48 48 114.5t21 129.5q-17 30 -77 86q-9 7 0 23q11 19 36 47t45 43q9 2 21 2q23 -10 53 -33.5t47 -42.5q6 -21 6 -57z" />
    <glyph glyph-name="lcommaaccent_amacron" unicode="&#x13c;&#x101;" horiz-adv-x="1763"
d="M154 4v10q8 18 14 33q12 118 12 453q0 210 -5.5 287t-24.5 100q-19 20 -84 35v10l10 18q164 0 305 11l4 -9v-6l-16 -26q-17 -77 -17 -381q0 -294 4 -424q101 -21 242 -21q90 0 109 2q127 192 227 383q145 278 176 375q15 38 20 78q15 15 43 35.5t48 29.5l12 -4
q17 -88 217 -497q158 -324 202 -390q37 -55 76 -69q11 -4 29 -8q5 -15 -4 -27q-27 -3 -123 -2.5t-155 6.5l-2 12l6 15q-83 181 -127 266q-7 12 -13.5 15t-21.5 1l-342 -30q-31 -3 -45.5 -13.5t-26.5 -35.5l-92 -209q-107 -29 -322 -29q-237 0 -335 6zM1145 743l-164 -346
q0 -7 8 -10q44 -10 146 -10q87 0 174 6l4 4zM573 -225q0 -60 -55.5 -166t-105.5 -158q-31 -4 -39 12q28 48 48 114.5t21 129.5q-17 30 -77 86q-9 7 0 23q11 19 36 47t45 43q9 2 21 2q23 -10 53 -33.5t47 -42.5q6 -21 6 -57zM934 1245h477v-94h-477v94z" />
    <glyph glyph-name="r_s" unicode="rs" horiz-adv-x="1767"
d="M47 911l4 29q205 25 373 25q107 0 184 -9.5t139.5 -32t93.5 -64.5t31 -103q0 -148 -227 -252v-8q63 -102 153.5 -229.5t127.5 -164.5q20 -23 50 -46t48 -31l20 139h35q0 -21 6 -39q25 -29 81 -48.5t132 -19.5q100 0 155.5 52.5t55.5 117.5q0 75 -44.5 116t-188.5 87
q-118 37 -176 92.5t-58 157.5q0 119 100.5 207t272.5 88q130 0 225 -39v-14l-32 -82l-6 -45h-31q-9 47 -62.5 78.5t-136.5 31.5q-87 0 -134.5 -41.5t-47.5 -103.5q0 -69 46 -108t191 -81q81 -22 132 -48t76.5 -59.5t34.5 -66t9 -80.5q0 -129 -124 -233t-306 -104
q-283 0 -456 53q-64 49 -168 186.5t-160 235.5l-115 -11v-168q0 -169 10 -247l-4 -11l-55 -2l-127 -34l-10 8q16 136 16 536q0 202 -5 267.5t-21 83.5q-20 22 -107 34zM350 903v-375q0 -9 10 -12q21 -6 70 -6q120 0 188 51q72 52 72 152q0 99 -80 144.5t-260 45.5z" />
    <glyph glyph-name="r_sacute" unicode="r&#x15b;" horiz-adv-x="1767"
d="M47 911l4 29q205 25 373 25q107 0 184 -9.5t139.5 -32t93.5 -64.5t31 -103q0 -148 -227 -252v-8q63 -102 153.5 -229.5t127.5 -164.5q20 -23 50 -46t48 -31l20 139h35q0 -21 6 -39q25 -29 81 -48.5t132 -19.5q100 0 155.5 52.5t55.5 117.5q0 75 -44.5 116t-188.5 87
q-118 37 -176 92.5t-58 157.5q0 119 100.5 207t272.5 88q130 0 225 -39v-14l-32 -82l-6 -45h-31q-9 47 -62.5 78.5t-136.5 31.5q-87 0 -134.5 -41.5t-47.5 -103.5q0 -69 46 -108t191 -81q81 -22 132 -48t76.5 -59.5t34.5 -66t9 -80.5q0 -129 -124 -233t-306 -104
q-283 0 -456 53q-64 49 -168 186.5t-160 235.5l-115 -11v-168q0 -169 10 -247l-4 -11l-55 -2l-127 -34l-10 8q16 136 16 536q0 202 -5 267.5t-21 83.5q-20 22 -107 34zM350 903v-375q0 -9 10 -12q21 -6 70 -6q120 0 188 51q72 52 72 152q0 99 -80 144.5t-260 45.5z
M1436 1343l8 5h137q6 -10 0 -19q-29 -40 -130 -150.5t-132 -140.5h-43v9q19 28 74.5 132t85.5 164z" />
    <glyph glyph-name="r_scaron" unicode="r&#x161;" horiz-adv-x="1767"
d="M47 911l4 29q205 25 373 25q107 0 184 -9.5t139.5 -32t93.5 -64.5t31 -103q0 -148 -227 -252v-8q63 -102 153.5 -229.5t127.5 -164.5q20 -23 50 -46t48 -31l20 139h35q0 -21 6 -39q25 -29 81 -48.5t132 -19.5q100 0 155.5 52.5t55.5 117.5q0 75 -44.5 116t-188.5 87
q-118 37 -176 92.5t-58 157.5q0 119 100.5 207t272.5 88q130 0 225 -39v-14l-32 -82l-6 -45h-31q-9 47 -62.5 78.5t-136.5 31.5q-87 0 -134.5 -41.5t-47.5 -103.5q0 -69 46 -108t191 -81q81 -22 132 -48t76.5 -59.5t34.5 -66t9 -80.5q0 -129 -124 -233t-306 -104
q-283 0 -456 53q-64 49 -168 186.5t-160 235.5l-115 -11v-168q0 -169 10 -247l-4 -11l-55 -2l-127 -34l-10 8q16 136 16 536q0 202 -5 267.5t-21 83.5q-20 22 -107 34zM350 903v-375q0 -9 10 -12q21 -6 70 -6q120 0 188 51q72 52 72 152q0 99 -80 144.5t-260 45.5z
M1190 1360l174 -178l174 178h49v-10l-205 -312h-39l-204 312v10h51z" />
    <glyph glyph-name="rcaron_s" unicode="&#x159;s" horiz-adv-x="1767"
d="M47 911l4 29q205 25 373 25q107 0 184 -9.5t139.5 -32t93.5 -64.5t31 -103q0 -148 -227 -252v-8q63 -102 153.5 -229.5t127.5 -164.5q20 -23 50 -46t48 -31l20 139h35q0 -21 6 -39q25 -29 81 -48.5t132 -19.5q100 0 155.5 52.5t55.5 117.5q0 75 -44.5 116t-188.5 87
q-118 37 -176 92.5t-58 157.5q0 119 100.5 207t272.5 88q130 0 225 -39v-14l-32 -82l-6 -45h-31q-9 47 -62.5 78.5t-136.5 31.5q-87 0 -134.5 -41.5t-47.5 -103.5q0 -69 46 -108t191 -81q81 -22 132 -48t76.5 -59.5t34.5 -66t9 -80.5q0 -129 -124 -233t-306 -104
q-283 0 -456 53q-64 49 -168 186.5t-160 235.5l-115 -11v-168q0 -169 10 -247l-4 -11l-55 -2l-127 -34l-10 8q16 136 16 536q0 202 -5 267.5t-21 83.5q-20 22 -107 34zM350 903v-375q0 -9 10 -12q21 -6 70 -6q120 0 188 51q72 52 72 152q0 99 -80 144.5t-260 45.5zM303 1360
l174 -178l174 178h51v-10l-204 -312h-41l-203 312v10h49z" />
    <glyph glyph-name="s_tcaron" unicode="s&#x165;" horiz-adv-x="1585"
d="M674 932l16 41q97 -27 365 -27h168q300 0 366 21q8 -4 8 -17q-49 -39 -118 -84l-248 -10l-8 -12q-9 -92 -9 -359q0 -370 19 -471l-6 -10h-70l-129 -24l-10 10q24 147 24 495q0 171 -6 357l-8 10h-141q-178 0 -234 -23l-6 -38l-31 2q-8 48 -61.5 80t-136.5 32
q-87 0 -134.5 -41.5t-47.5 -103.5q0 -69 45.5 -107t191.5 -82q80 -23 131.5 -49t77 -59t34.5 -66t9 -80q0 -128 -122 -232.5t-288 -104.5q-159 0 -252 38v13l27 151h35q0 -16 6 -39q19 -34 77 -60t136 -26q100 0 155.5 52.5t55.5 117.5q0 76 -44.5 116.5t-188.5 86.5
q-118 37 -176 93.5t-58 158.5q0 118 100.5 205.5t272.5 87.5q88 0 213 -43zM954 1360l174 -178l175 178h49v-10l-203 -312h-39l-205 312v10h49z" />
    <glyph glyph-name="s_tcommaaccent" unicode="s&#x163;" horiz-adv-x="1585"
d="M674 932l14 41q97 -27 365 -27h170q300 0 366 21q8 -4 8 -17q-49 -39 -118 -84l-248 -10l-8 -12q-9 -92 -9 -359q0 -370 19 -471l-6 -10h-70l-129 -24l-10 10q24 147 24 495q0 171 -6 357l-8 10h-141q-178 0 -234 -23l-6 -38l-31 2q-8 48 -61.5 80t-136.5 32
q-87 0 -134.5 -41.5t-47.5 -103.5q0 -69 45.5 -107t191.5 -82q80 -23 131.5 -49t77 -59t34.5 -66t9 -80q0 -128 -122 -232.5t-288 -104.5q-159 0 -252 38v13l27 151h35q0 -16 6 -39q19 -34 77 -60t136 -26q100 0 155.5 52.5t55.5 117.5q0 76 -44.5 116.5t-188.5 86.5
q-118 37 -176 93.5t-58 158.5q0 118 100.5 205.5t272.5 87.5q88 0 213 -43zM1235 -225q0 -60 -56 -166t-106 -158q-31 -4 -39 12q28 48 48.5 114.5t21.5 129.5q-18 32 -78 86q-7 7 0 23q11 19 36 47t46 43q8 2 20 2q43 -18 101 -76q6 -21 6 -57z" />
    <glyph glyph-name="scaron_t" unicode="&#x161;t" horiz-adv-x="1585"
d="M674 932l16 41q97 -27 365 -27h168q300 0 366 21q8 -4 8 -17q-49 -39 -118 -84l-248 -10l-8 -12q-9 -92 -9 -359q0 -370 19 -471l-6 -10h-70l-129 -24l-10 10q24 147 24 495q0 171 -6 357l-8 10h-141q-178 0 -234 -23l-6 -38l-31 2q-8 48 -61.5 80t-136.5 32
q-87 0 -134.5 -41.5t-47.5 -103.5q0 -69 45.5 -107t191.5 -82q80 -23 131.5 -49t77 -59t34.5 -66t9 -80q0 -128 -122 -232.5t-288 -104.5q-159 0 -252 38v13l27 151h35q0 -16 6 -39q19 -34 77 -60t136 -26q100 0 155.5 52.5t55.5 117.5q0 76 -44.5 116.5t-188.5 86.5
q-118 37 -176 93.5t-58 158.5q0 118 100.5 205.5t272.5 87.5q88 0 213 -43zM238 1360l174 -178l172 178h51v-10l-205 -312h-39l-205 312v10h52z" />
    </font>
</defs>
</svg>
